<svg width="32" height="32" viewBox="0 0 32 32" fill="none" xmlns="http://www.w3.org/2000/svg">
<path d="M12.8604 17.4141H16.0116L26.1433 6.4943" stroke="#E14942" stroke-width="2" stroke-miterlimit="10" stroke-linecap="round" stroke-linejoin="round"/>
<path d="M23.7458 4.61497L13.106 14.0469" stroke="#E14942" stroke-width="2" stroke-miterlimit="10" stroke-linecap="round" stroke-linejoin="round"/>
<path d="M20.0632 29.1172H5.65766C3.66868 29.1172 2 27.5048 2 25.5157C2 23.5136 3.68207 21.9143 5.65766 21.9143H20.0632C22.0522 21.9143 23.6646 23.5266 23.6646 25.5157C23.6646 27.4992 22.0577 29.1172 20.0632 29.1172Z" stroke="#E14942" stroke-width="2" stroke-miterlimit="10" stroke-linecap="round" stroke-linejoin="round"/>
<path d="M16.4384 17.4122H7.45841L5.65771 21.9141H20.0633L18.9401 19.106C18.7401 18.606 18.3949 18.1774 17.9489 17.8755C17.503 17.5736 16.9769 17.4122 16.4384 17.4122Z" stroke="#E14942" stroke-width="2" stroke-miterlimit="10" stroke-linecap="round" stroke-linejoin="round"/>
<path d="M14.6613 17.4141H7.4585V11.5617H11.9602L14.6613 17.4141Z" stroke="#E14942" stroke-width="2" stroke-miterlimit="10" stroke-linecap="round" stroke-linejoin="round"/>
<path d="M28.2222 4.25487C28.2222 5.49912 27.2135 6.50781 25.9693 6.50781C24.725 6.50781 23.7163 5.49912 23.7163 4.25487C23.7163 3.01062 24.725 2.00193 25.9693 2.00193C27.2135 2.00193 28.2222 3.01062 28.2222 4.25487Z" stroke="#E14942" stroke-width="2" stroke-miterlimit="10" stroke-linecap="round" stroke-linejoin="round"/>
<path d="M29.1232 16.9112C29.1232 18.6516 27.7124 20.0625 25.972 20.0625C24.2316 20.0625 22.8208 18.6516 22.8208 16.9112C22.8208 15.1708 24.2316 13.7599 25.972 13.7599C27.7124 13.7599 29.1232 15.1708 29.1232 16.9112Z" stroke="#E14942" stroke-width="2" stroke-miterlimit="10" stroke-linecap="round" stroke-linejoin="round"/>
<path d="M25.9697 13.7656V6.51036" stroke="#E14942" stroke-width="2" stroke-miterlimit="10" stroke-linecap="round" stroke-linejoin="round"/>
</svg>
