<svg width="32" height="32" viewBox="0 0 32 32" fill="none" xmlns="http://www.w3.org/2000/svg">
<path d="M27 10H5C4.44772 10 4 10.4477 4 11V15C4 15.5523 4.44772 16 5 16H27C27.5523 16 28 15.5523 28 15V11C28 10.4477 27.5523 10 27 10Z" stroke="#CDA229" stroke-width="2" stroke-linecap="round" stroke-linejoin="round"/>
<path d="M26 16V25C26 25.2652 25.8946 25.5196 25.7071 25.7071C25.5196 25.8946 25.2652 26 25 26H7C6.73478 26 6.48043 25.8946 6.29289 25.7071C6.10536 25.5196 6 25.2652 6 25V16" stroke="#CDA229" stroke-width="2" stroke-linecap="round" stroke-linejoin="round"/>
<path d="M16 10V26" stroke="#CDA229" stroke-width="2" stroke-linecap="round" stroke-linejoin="round"/>
<path d="M21.6625 8.59114C20.2375 10.0036 16 10.0036 16 10.0036C16 10.0036 16 5.76614 17.4125 4.34114C17.9761 3.77756 18.7405 3.46094 19.5375 3.46094C20.3345 3.46094 21.0989 3.77756 21.6625 4.34114C22.2261 4.90473 22.5427 5.66911 22.5427 6.46614C22.5427 7.26317 22.2261 8.02756 21.6625 8.59114V8.59114Z" stroke="#CDA229" stroke-width="2" stroke-linecap="round" stroke-linejoin="round"/>
<path d="M10.3372 8.59114C11.7622 10.0036 15.9997 10.0036 15.9997 10.0036C15.9997 10.0036 15.9997 5.76614 14.5872 4.34114C14.0236 3.77756 13.2593 3.46094 12.4622 3.46094C11.6652 3.46094 10.9008 3.77756 10.3372 4.34114C9.77365 4.90473 9.45703 5.66911 9.45703 6.46614C9.45703 7.26317 9.77365 8.02756 10.3372 8.59114V8.59114Z" stroke="#CDA229" stroke-width="2" stroke-linecap="round" stroke-linejoin="round"/>
</svg>
