<svg width="50" height="50" viewBox="0 0 50 50" fill="none" xmlns="http://www.w3.org/2000/svg">
<path d="M42.1875 42.187V22.5581C42.184 22.3419 42.1373 22.1285 42.0501 21.9306C41.9628 21.7327 41.8369 21.5542 41.6797 21.4058L26.0547 7.20653C25.7666 6.94302 25.3904 6.79688 25 6.79688C24.6096 6.79688 24.2334 6.94302 23.9453 7.20653L8.32031 21.4058C8.16308 21.5542 8.03715 21.7327 7.94994 21.9306C7.86273 22.1285 7.816 22.3419 7.8125 22.5581V42.187" stroke="#CDA229" stroke-width="2" stroke-linecap="round" stroke-linejoin="round"/>
<path d="M3.125 42.1875H46.875" stroke="#CDA229" stroke-width="2" stroke-linecap="round" stroke-linejoin="round"/>
<path d="M29.6875 42.1875V31.25C29.6875 30.8356 29.5229 30.4382 29.2299 30.1451C28.9368 29.8521 28.5394 29.6875 28.125 29.6875H21.875C21.4606 29.6875 21.0632 29.8521 20.7701 30.1451C20.4771 30.4382 20.3125 30.8356 20.3125 31.25V42.1875" stroke="#CDA229" stroke-width="2" stroke-linecap="round" stroke-linejoin="round"/>
</svg>
