<svg width="60" height="60" viewBox="0 0 60 60" fill="none" xmlns="http://www.w3.org/2000/svg">
<path d="M30.9377 50.625H11.1798C10.942 50.6282 10.7059 50.5836 10.4855 50.494C10.2651 50.4045 10.0649 50.2717 9.89672 50.1034C9.7285 49.9352 9.59569 49.735 9.50611 49.5146C9.41653 49.2943 9.37201 49.0582 9.37516 48.8203V29.0625C9.37516 23.3438 11.6469 17.8593 15.6907 13.8155C19.7344 9.77176 25.2189 7.5 30.9377 7.5V7.5C33.7693 7.5 36.5732 8.05773 39.1893 9.14135C41.8054 10.225 44.1824 11.8132 46.1846 13.8155C48.1869 15.8178 49.7752 18.1948 50.8588 20.8109C51.9424 23.427 52.5002 26.2309 52.5002 29.0625V29.0625C52.5002 31.8941 51.9424 34.698 50.8588 37.3141C49.7752 39.9302 48.1869 42.3072 46.1846 44.3095C44.1824 46.3118 41.8054 47.9 39.1893 48.9837C36.5732 50.0673 33.7693 50.625 30.9377 50.625V50.625Z" stroke="white" stroke-width="2" stroke-linecap="round" stroke-linejoin="round"/>
<path d="M23.4375 26.25H37.5" stroke="white" stroke-width="2" stroke-linecap="round" stroke-linejoin="round"/>
<path d="M23.4375 33.75H37.5" stroke="white" stroke-width="2" stroke-linecap="round" stroke-linejoin="round"/>
</svg>
