<svg width="50" height="50" viewBox="0 0 50 50" fill="none" xmlns="http://www.w3.org/2000/svg">
<g clip-path="url(#clip0_475_6481)">
<mask id="path-1-outside-1_475_6481" maskUnits="userSpaceOnUse" x="-0.951172" y="-0.898438" width="52" height="51" fill="black">
<rect fill="white" x="-0.951172" y="-0.898438" width="52" height="51"/>
<path d="M18.5017 38.926H16.9968C16.9341 38.7688 16.8588 38.617 16.7715 38.472C16.6273 38.2334 16.4516 38.0152 16.2492 37.8235V31.1402C16.2492 30.9578 16.402 30.8037 16.5828 30.8037H21.6668C21.849 30.8037 22.003 30.9578 22.003 31.1402V35.273C22.003 35.649 22.3079 35.9539 22.6841 35.9539C23.0603 35.9539 23.3651 35.649 23.3651 35.273V31.1402C23.3651 30.2036 22.6033 29.4418 21.6669 29.4418H16.5829C15.648 29.4418 14.8873 30.2036 14.8873 31.1402V37.0733C14.8778 37.0708 14.8687 37.0679 14.8592 37.0656C14.0531 36.8662 13.2194 36.992 12.5126 37.4189L11.7036 37.9056C11.01 37.0016 10.1093 36.309 9.08965 35.8768C10.0357 35.1267 10.6443 33.9686 10.6443 32.6703C10.6443 30.8055 9.38965 29.2291 7.68047 28.7382V22.4573L18.3472 14.1094C18.8133 13.7458 19.4381 13.7454 19.9017 14.1087L30.5721 22.4594V26.8392C30.5721 27.2153 30.877 27.5201 31.2531 27.5201C31.6293 27.5201 31.9342 27.2153 31.9342 26.8392V23.5177C32.607 23.9653 33.5148 23.8861 34.0997 23.3098L35.3071 22.1188C35.6671 21.7678 35.8504 21.2967 35.8229 20.7867C35.7916 20.2811 35.5564 19.8336 35.1633 19.5289L20.7411 8.24182C19.7764 7.48635 18.4776 7.48596 17.5085 8.24182L3.0918 19.527C2.69141 19.8373 2.45615 20.2867 2.4292 20.7925C2.40234 21.2943 2.58359 21.7643 2.94033 22.1166L4.15137 23.3082C4.4736 23.628 4.90939 23.8072 5.36338 23.8065C5.6958 23.8065 6.02891 23.7103 6.31846 23.5164V28.5861C4.17119 28.708 2.46143 30.493 2.46143 32.6702C2.46143 33.9694 3.0708 35.1282 4.01797 35.8782C1.6874 36.8679 0.0488281 39.1787 0.0488281 41.8651V49.2181C0.0488281 49.3075 0.0664448 49.3961 0.100672 49.4787C0.1349 49.5613 0.185067 49.6364 0.24831 49.6996C0.311553 49.7629 0.386633 49.813 0.469262 49.8472C0.551891 49.8815 0.64045 49.8991 0.729883 49.899H12.3729C12.4623 49.8991 12.5508 49.8815 12.6335 49.8472C12.7161 49.813 12.7912 49.7629 12.8544 49.6996C12.9177 49.6364 12.9678 49.5613 13.0021 49.4787C13.0363 49.3961 13.0539 49.3075 13.0539 49.2181V44.3393L15.7162 42.7348C16.4239 42.3074 16.9238 41.628 17.1238 40.8215C17.1678 40.6445 17.195 40.4661 17.2079 40.2881H18.5018C18.5912 40.2881 18.6798 40.2705 18.7624 40.2362C18.845 40.202 18.9201 40.1518 18.9833 40.0886C19.0466 40.0254 19.0967 39.9503 19.1309 39.8676C19.1652 39.785 19.1828 39.6964 19.1828 39.607C19.1828 39.5176 19.1651 39.429 19.1309 39.3464C19.0967 39.2638 19.0465 39.1887 18.9833 39.1254C18.92 39.0622 18.8449 39.012 18.7623 38.9778C18.6797 38.9436 18.5911 38.926 18.5017 38.926ZM5.10869 22.3396L3.89648 21.1467C3.81611 21.0673 3.78301 20.9806 3.78916 20.8653C3.79521 20.7515 3.83613 20.6733 3.92871 20.6016L18.347 9.31497C18.8133 8.95139 19.4379 8.9512 19.9016 9.31428L34.3262 20.6035C34.4149 20.6724 34.4561 20.7524 34.4631 20.8656C34.4692 20.9814 34.4373 21.0645 34.3533 21.1464L33.1434 22.3399C33.0089 22.4724 32.8119 22.4836 32.6625 22.3658L20.7412 13.0363C20.2586 12.6582 19.6925 12.4693 19.126 12.4693C18.56 12.4693 17.9934 12.658 17.5095 13.0354L17.5086 13.0361L5.58535 22.3673C5.44053 22.4816 5.24092 22.4709 5.10869 22.3396ZM3.82334 32.6703C3.82334 31.1653 5.04775 29.9408 6.55273 29.9408C8.05771 29.9408 9.28213 31.1653 9.28213 32.6703C9.28213 34.0511 8.25137 35.1949 6.91904 35.3745C6.79706 35.3676 6.67491 35.3641 6.55273 35.364C6.43047 35.364 6.30908 35.3681 6.18848 35.3747C4.85508 35.196 3.82334 34.0518 3.82334 32.6703ZM15.8019 40.4936C15.6893 40.9474 15.4089 41.3293 15.0127 41.5686L12.3073 43.1991C12.2491 43.235 12.1802 43.2704 12.0965 43.3076C12.0747 43.3174 12.0534 43.3282 12.0327 43.3401L9.8958 44.5726C9.15693 44.9992 8.34336 44.9991 7.60449 44.5725L4.2627 42.6453C4.10636 42.5572 3.92156 42.5344 3.74846 42.5818C3.57537 42.6291 3.42797 42.7429 3.33831 42.8984C3.24866 43.0538 3.22398 43.2384 3.26966 43.412C3.31533 43.5855 3.42766 43.734 3.58223 43.8252L6.92354 45.7522C7.504 46.0872 8.12695 46.2548 8.7501 46.2548C9.37295 46.2548 9.99609 46.0872 10.5764 45.7523L11.6917 45.1089V48.537H1.41084V41.865C1.41084 39.1636 3.50762 36.944 6.15967 36.7424C6.28906 36.7548 6.42012 36.7616 6.55273 36.7616C6.68428 36.7615 6.81575 36.755 6.94668 36.7423C8.34814 36.8486 9.62685 37.5182 10.5173 38.6033L8.96328 39.4999C8.78867 39.6009 8.6041 39.601 8.4291 39.4997L7.26006 38.8242C7.10381 38.7363 6.91918 38.7135 6.74623 38.7608C6.57328 38.8081 6.42597 38.9217 6.33626 39.077C6.24655 39.2322 6.22168 39.4166 6.26706 39.59C6.31243 39.7635 6.42438 39.9121 6.57861 40.0035L7.74736 40.6788C8.04453 40.8507 8.37051 40.9366 8.69648 40.9366C9.02217 40.9366 9.34785 40.8508 9.64453 40.6792L11.8474 39.4082L11.8525 39.4049C11.8544 39.4038 11.8562 39.403 11.8581 39.4019L13.2155 38.5852C13.6119 38.3459 14.0795 38.2758 14.5321 38.3876C14.9849 38.4995 15.3662 38.7795 15.6056 39.1759C15.8446 39.572 15.9144 40.0399 15.8019 40.4936ZM14.5702 19.4448C14.4808 19.4448 14.3922 19.4624 14.3096 19.4967C14.227 19.5309 14.1519 19.581 14.0886 19.6443C14.0254 19.7075 13.9752 19.7826 13.941 19.8652C13.9068 19.9478 13.8892 20.0364 13.8892 20.1258V23.9526C13.8892 24.042 13.9068 24.1306 13.941 24.2132C13.9752 24.2958 14.0254 24.3709 14.0886 24.4341C14.1519 24.4973 14.227 24.5475 14.3096 24.5817C14.3922 24.6159 14.4808 24.6335 14.5702 24.6335H23.6821C23.7716 24.6335 23.8601 24.6159 23.9427 24.5817C24.0254 24.5475 24.1005 24.4973 24.1637 24.4341C24.2269 24.3709 24.2771 24.2958 24.3113 24.2132C24.3456 24.1306 24.3632 24.042 24.3632 23.9526V20.1258C24.3632 20.0364 24.3456 19.9478 24.3113 19.8652C24.2771 19.7826 24.2269 19.7075 24.1637 19.6443C24.1005 19.581 24.0254 19.5309 23.9427 19.4967C23.8601 19.4624 23.7716 19.4448 23.6821 19.4448H14.5702ZM23.0011 23.2716H15.2512V20.8069H23.0011V23.2716ZM44.0538 31.8695V26.9348C45.976 26.7567 47.3872 26.1179 48.3513 24.9885C50.4169 22.5685 49.9106 18.4413 49.3747 14.0719C49.339 13.781 49.3032 13.4889 49.2681 13.1964C48.6058 7.66839 46.7024 0.927369 43.5177 0.122291C43.4081 0.0946529 43.2934 0.0946529 43.1839 0.122291C39.9993 0.927272 38.0959 7.66838 37.4336 13.1961C37.3983 13.4891 37.3625 13.7813 37.3269 14.0723C36.7909 18.4416 36.2847 22.5686 38.3504 24.9885C39.3218 26.1265 40.7473 26.7662 42.6918 26.9386V30.9178C42.0295 30.0208 41.1658 29.2918 40.1702 28.7898C39.1746 28.2878 38.075 28.0266 36.96 28.0275C36.3571 28.0275 35.7609 28.1025 35.1879 28.2503C35.1013 28.2727 35.0199 28.3118 34.9485 28.3656C34.877 28.4194 34.8169 28.4867 34.7715 28.5638C34.726 28.6408 34.6962 28.726 34.6837 28.8146C34.6713 28.9032 34.6764 28.9933 34.6987 29.0799C34.7211 29.1665 34.7603 29.2479 34.814 29.3193C34.8678 29.3908 34.9352 29.4509 35.0122 29.4963C35.0892 29.5418 35.1745 29.5716 35.263 29.5841C35.3516 29.5965 35.4417 29.5914 35.5283 29.5691C35.9961 29.4491 36.4771 29.3887 36.96 29.3894C37.9607 29.3888 38.9443 29.6489 39.8139 30.1442C40.6835 30.6394 41.409 31.3527 41.9189 32.2138C40.7191 32.6246 39.6797 33.4012 38.9344 34.4587C38.8828 34.5318 38.8462 34.6143 38.8266 34.7016C38.807 34.7888 38.8047 34.8791 38.82 34.9672C38.8352 35.0553 38.8677 35.1396 38.9155 35.2152C38.9634 35.2907 39.0256 35.3561 39.0987 35.4076C39.2133 35.4887 39.3501 35.5322 39.4904 35.5321C39.7043 35.5321 39.915 35.4315 40.0476 35.2434C40.7631 34.2282 41.8271 33.5464 43.0434 33.3236C43.0934 33.3143 43.1423 33.2994 43.189 33.2791C43.4214 33.2445 43.6561 33.2272 43.8911 33.2272C46.4816 33.2272 48.5892 35.3347 48.5892 37.9251C48.5892 38.143 48.5748 38.3586 48.5463 38.5703H38.7162C38.5356 38.5703 38.3624 38.6421 38.2347 38.7698C38.107 38.8975 38.0353 39.0707 38.0353 39.2513C38.0353 39.4319 38.107 39.6051 38.2347 39.7328C38.3624 39.8605 38.5356 39.9323 38.7162 39.9323H49.1074C49.2589 39.9323 49.4061 39.8817 49.5257 39.7887C49.6453 39.6956 49.7304 39.5654 49.7676 39.4185C49.8894 38.9376 49.9512 38.4351 49.9512 37.9251C49.9512 34.6383 47.3201 31.9563 44.0538 31.8695ZM39.3862 24.1043C37.7094 22.14 38.1802 18.3018 38.6786 14.2382C38.7145 13.9461 38.7504 13.6528 38.7858 13.3585C39.1597 10.2383 39.8456 7.32454 40.717 5.15393C41.519 3.15657 42.4695 1.84133 43.3508 1.49661C44.232 1.84133 45.1825 3.15657 45.9846 5.15393C46.8562 7.32454 47.542 10.2383 47.9158 13.3588C47.9512 13.6527 47.987 13.9458 48.0229 14.2378C48.5214 18.3016 48.9923 22.1399 47.3154 24.1043C46.6125 24.9279 45.541 25.409 44.0538 25.5673V19.1315L47.2044 15.9782C47.3321 15.8504 47.4037 15.6771 47.4037 15.4965C47.4036 15.3159 47.3318 15.1427 47.204 15.0151C47.0762 14.8874 46.903 14.8157 46.7224 14.8158C46.5418 14.8159 46.3686 14.8877 46.2409 15.0155L44.0538 17.2044V13.6193C44.0538 13.2432 43.7489 12.9383 43.3728 12.9383C42.9966 12.9383 42.6917 13.2432 42.6917 13.6193V20.5467L40.5541 18.4091C40.4257 18.2847 40.2536 18.2158 40.0748 18.2172C39.8961 18.2186 39.725 18.2902 39.5986 18.4166C39.4722 18.543 39.4005 18.714 39.3991 18.8928C39.3977 19.0716 39.4666 19.2437 39.591 19.3721L42.5906 22.3717C42.6221 22.4032 42.6561 22.4307 42.6917 22.4547V25.572C41.1815 25.4189 40.0961 24.936 39.3862 24.1043ZM33.4239 35.8783C34.371 35.1283 34.9805 33.9696 34.9805 32.6704C34.9805 30.4144 33.145 28.579 30.8891 28.579C28.633 28.579 26.7976 30.4144 26.7976 32.6704C26.7976 33.9687 27.4062 35.1269 28.3521 35.8769C27.3327 36.3091 26.4321 37.0015 25.7386 37.9053L24.9329 37.4197C24.2251 36.9922 23.3911 36.8665 22.5843 37.0657C21.7773 37.265 21.0977 37.7645 20.6703 38.4722C20.2429 39.18 20.1177 40.0144 20.318 40.8216C20.5179 41.6281 21.0179 42.3076 21.7261 42.7352L24.388 44.3394V49.2183C24.388 49.3077 24.4056 49.3963 24.4398 49.4789C24.4741 49.5615 24.5242 49.6366 24.5875 49.6998C24.6507 49.7631 24.7258 49.8132 24.8084 49.8474C24.8911 49.8817 24.9796 49.8993 25.069 49.8992H36.7119C36.8013 49.8993 36.8899 49.8817 36.9725 49.8474C37.0552 49.8132 37.1302 49.7631 37.1935 49.6998C37.2567 49.6366 37.3069 49.5615 37.3411 49.4789C37.3754 49.3963 37.393 49.3077 37.393 49.2183V41.8653C37.3929 39.1787 35.7544 36.8679 33.4239 35.8783ZM28.1596 32.6703C28.1596 31.1653 29.384 29.9408 30.889 29.9408C32.3939 29.9408 33.6184 31.1653 33.6184 32.6703C33.6184 34.0518 32.5865 35.196 31.2532 35.3747C31.1319 35.3678 31.0105 35.3642 30.889 35.364C30.7662 35.364 30.6441 35.3678 30.5227 35.3745C29.1903 35.1949 28.1596 34.0511 28.1596 32.6703ZM36.0309 48.5371H25.75V45.109L26.8652 45.7523C27.4457 46.0874 28.0687 46.2549 28.6918 46.2549C29.3146 46.2549 29.9378 46.0873 30.518 45.7525L33.8596 43.8253C34.0141 43.7341 34.1265 43.5856 34.1721 43.4121C34.2178 43.2385 34.1931 43.0539 34.1035 42.8985C34.0138 42.743 33.8664 42.6292 33.6933 42.5818C33.5202 42.5345 33.3354 42.5573 33.1791 42.6454L29.8372 44.5728C29.0988 44.9992 28.285 44.9993 27.5459 44.5727L25.4092 43.3402C25.3886 43.3283 25.3673 43.3175 25.3456 43.3078L25.3453 43.3077C25.2705 43.2752 25.1979 43.2376 25.1282 43.1952L22.4296 41.5689C22.0328 41.3293 21.7523 40.9475 21.6398 40.4936C21.5273 40.04 21.5971 39.5721 21.8362 39.1761C22.0755 38.7798 22.457 38.4999 22.9106 38.3879C23.3643 38.2758 23.8324 38.346 24.2293 38.5857L25.583 39.4018C25.585 39.403 25.587 39.4038 25.589 39.405C25.5907 39.4061 25.5924 39.4073 25.5942 39.4084L27.7964 40.679C28.0936 40.8509 28.4194 40.9368 28.7453 40.9368C29.0712 40.9368 29.397 40.8509 29.6939 40.6792L30.863 40.0037C31.0172 39.9123 31.1292 39.7637 31.1745 39.5902C31.2199 39.4168 31.1951 39.2324 31.1053 39.0772C31.0156 38.9219 30.8683 38.8083 30.6954 38.761C30.5224 38.7137 30.3378 38.7365 30.1815 38.8244L29.0122 39.5001C28.8376 39.6012 28.6532 39.6011 28.4776 39.4997L26.9243 38.6035C27.8146 37.5183 29.0935 36.8488 30.4949 36.7425C30.6246 36.755 30.756 36.7618 30.8889 36.7618C31.0215 36.7618 31.1524 36.7549 31.2819 36.7426C33.934 36.9442 36.0308 39.1638 36.0308 41.8652V48.5371H36.0309Z"/>
</mask>
<path d="M18.5017 38.926H16.9968C16.9341 38.7688 16.8588 38.617 16.7715 38.472C16.6273 38.2334 16.4516 38.0152 16.2492 37.8235V31.1402C16.2492 30.9578 16.402 30.8037 16.5828 30.8037H21.6668C21.849 30.8037 22.003 30.9578 22.003 31.1402V35.273C22.003 35.649 22.3079 35.9539 22.6841 35.9539C23.0603 35.9539 23.3651 35.649 23.3651 35.273V31.1402C23.3651 30.2036 22.6033 29.4418 21.6669 29.4418H16.5829C15.648 29.4418 14.8873 30.2036 14.8873 31.1402V37.0733C14.8778 37.0708 14.8687 37.0679 14.8592 37.0656C14.0531 36.8662 13.2194 36.992 12.5126 37.4189L11.7036 37.9056C11.01 37.0016 10.1093 36.309 9.08965 35.8768C10.0357 35.1267 10.6443 33.9686 10.6443 32.6703C10.6443 30.8055 9.38965 29.2291 7.68047 28.7382V22.4573L18.3472 14.1094C18.8133 13.7458 19.4381 13.7454 19.9017 14.1087L30.5721 22.4594V26.8392C30.5721 27.2153 30.877 27.5201 31.2531 27.5201C31.6293 27.5201 31.9342 27.2153 31.9342 26.8392V23.5177C32.607 23.9653 33.5148 23.8861 34.0997 23.3098L35.3071 22.1188C35.6671 21.7678 35.8504 21.2967 35.8229 20.7867C35.7916 20.2811 35.5564 19.8336 35.1633 19.5289L20.7411 8.24182C19.7764 7.48635 18.4776 7.48596 17.5085 8.24182L3.0918 19.527C2.69141 19.8373 2.45615 20.2867 2.4292 20.7925C2.40234 21.2943 2.58359 21.7643 2.94033 22.1166L4.15137 23.3082C4.4736 23.628 4.90939 23.8072 5.36338 23.8065C5.6958 23.8065 6.02891 23.7103 6.31846 23.5164V28.5861C4.17119 28.708 2.46143 30.493 2.46143 32.6702C2.46143 33.9694 3.0708 35.1282 4.01797 35.8782C1.6874 36.8679 0.0488281 39.1787 0.0488281 41.8651V49.2181C0.0488281 49.3075 0.0664448 49.3961 0.100672 49.4787C0.1349 49.5613 0.185067 49.6364 0.24831 49.6996C0.311553 49.7629 0.386633 49.813 0.469262 49.8472C0.551891 49.8815 0.64045 49.8991 0.729883 49.899H12.3729C12.4623 49.8991 12.5508 49.8815 12.6335 49.8472C12.7161 49.813 12.7912 49.7629 12.8544 49.6996C12.9177 49.6364 12.9678 49.5613 13.0021 49.4787C13.0363 49.3961 13.0539 49.3075 13.0539 49.2181V44.3393L15.7162 42.7348C16.4239 42.3074 16.9238 41.628 17.1238 40.8215C17.1678 40.6445 17.195 40.4661 17.2079 40.2881H18.5018C18.5912 40.2881 18.6798 40.2705 18.7624 40.2362C18.845 40.202 18.9201 40.1518 18.9833 40.0886C19.0466 40.0254 19.0967 39.9503 19.1309 39.8676C19.1652 39.785 19.1828 39.6964 19.1828 39.607C19.1828 39.5176 19.1651 39.429 19.1309 39.3464C19.0967 39.2638 19.0465 39.1887 18.9833 39.1254C18.92 39.0622 18.8449 39.012 18.7623 38.9778C18.6797 38.9436 18.5911 38.926 18.5017 38.926ZM5.10869 22.3396L3.89648 21.1467C3.81611 21.0673 3.78301 20.9806 3.78916 20.8653C3.79521 20.7515 3.83613 20.6733 3.92871 20.6016L18.347 9.31497C18.8133 8.95139 19.4379 8.9512 19.9016 9.31428L34.3262 20.6035C34.4149 20.6724 34.4561 20.7524 34.4631 20.8656C34.4692 20.9814 34.4373 21.0645 34.3533 21.1464L33.1434 22.3399C33.0089 22.4724 32.8119 22.4836 32.6625 22.3658L20.7412 13.0363C20.2586 12.6582 19.6925 12.4693 19.126 12.4693C18.56 12.4693 17.9934 12.658 17.5095 13.0354L17.5086 13.0361L5.58535 22.3673C5.44053 22.4816 5.24092 22.4709 5.10869 22.3396ZM3.82334 32.6703C3.82334 31.1653 5.04775 29.9408 6.55273 29.9408C8.05771 29.9408 9.28213 31.1653 9.28213 32.6703C9.28213 34.0511 8.25137 35.1949 6.91904 35.3745C6.79706 35.3676 6.67491 35.3641 6.55273 35.364C6.43047 35.364 6.30908 35.3681 6.18848 35.3747C4.85508 35.196 3.82334 34.0518 3.82334 32.6703ZM15.8019 40.4936C15.6893 40.9474 15.4089 41.3293 15.0127 41.5686L12.3073 43.1991C12.2491 43.235 12.1802 43.2704 12.0965 43.3076C12.0747 43.3174 12.0534 43.3282 12.0327 43.3401L9.8958 44.5726C9.15693 44.9992 8.34336 44.9991 7.60449 44.5725L4.2627 42.6453C4.10636 42.5572 3.92156 42.5344 3.74846 42.5818C3.57537 42.6291 3.42797 42.7429 3.33831 42.8984C3.24866 43.0538 3.22398 43.2384 3.26966 43.412C3.31533 43.5855 3.42766 43.734 3.58223 43.8252L6.92354 45.7522C7.504 46.0872 8.12695 46.2548 8.7501 46.2548C9.37295 46.2548 9.99609 46.0872 10.5764 45.7523L11.6917 45.1089V48.537H1.41084V41.865C1.41084 39.1636 3.50762 36.944 6.15967 36.7424C6.28906 36.7548 6.42012 36.7616 6.55273 36.7616C6.68428 36.7615 6.81575 36.755 6.94668 36.7423C8.34814 36.8486 9.62685 37.5182 10.5173 38.6033L8.96328 39.4999C8.78867 39.6009 8.6041 39.601 8.4291 39.4997L7.26006 38.8242C7.10381 38.7363 6.91918 38.7135 6.74623 38.7608C6.57328 38.8081 6.42597 38.9217 6.33626 39.077C6.24655 39.2322 6.22168 39.4166 6.26706 39.59C6.31243 39.7635 6.42438 39.9121 6.57861 40.0035L7.74736 40.6788C8.04453 40.8507 8.37051 40.9366 8.69648 40.9366C9.02217 40.9366 9.34785 40.8508 9.64453 40.6792L11.8474 39.4082L11.8525 39.4049C11.8544 39.4038 11.8562 39.403 11.8581 39.4019L13.2155 38.5852C13.6119 38.3459 14.0795 38.2758 14.5321 38.3876C14.9849 38.4995 15.3662 38.7795 15.6056 39.1759C15.8446 39.572 15.9144 40.0399 15.8019 40.4936ZM14.5702 19.4448C14.4808 19.4448 14.3922 19.4624 14.3096 19.4967C14.227 19.5309 14.1519 19.581 14.0886 19.6443C14.0254 19.7075 13.9752 19.7826 13.941 19.8652C13.9068 19.9478 13.8892 20.0364 13.8892 20.1258V23.9526C13.8892 24.042 13.9068 24.1306 13.941 24.2132C13.9752 24.2958 14.0254 24.3709 14.0886 24.4341C14.1519 24.4973 14.227 24.5475 14.3096 24.5817C14.3922 24.6159 14.4808 24.6335 14.5702 24.6335H23.6821C23.7716 24.6335 23.8601 24.6159 23.9427 24.5817C24.0254 24.5475 24.1005 24.4973 24.1637 24.4341C24.2269 24.3709 24.2771 24.2958 24.3113 24.2132C24.3456 24.1306 24.3632 24.042 24.3632 23.9526V20.1258C24.3632 20.0364 24.3456 19.9478 24.3113 19.8652C24.2771 19.7826 24.2269 19.7075 24.1637 19.6443C24.1005 19.581 24.0254 19.5309 23.9427 19.4967C23.8601 19.4624 23.7716 19.4448 23.6821 19.4448H14.5702ZM23.0011 23.2716H15.2512V20.8069H23.0011V23.2716ZM44.0538 31.8695V26.9348C45.976 26.7567 47.3872 26.1179 48.3513 24.9885C50.4169 22.5685 49.9106 18.4413 49.3747 14.0719C49.339 13.781 49.3032 13.4889 49.2681 13.1964C48.6058 7.66839 46.7024 0.927369 43.5177 0.122291C43.4081 0.0946529 43.2934 0.0946529 43.1839 0.122291C39.9993 0.927272 38.0959 7.66838 37.4336 13.1961C37.3983 13.4891 37.3625 13.7813 37.3269 14.0723C36.7909 18.4416 36.2847 22.5686 38.3504 24.9885C39.3218 26.1265 40.7473 26.7662 42.6918 26.9386V30.9178C42.0295 30.0208 41.1658 29.2918 40.1702 28.7898C39.1746 28.2878 38.075 28.0266 36.96 28.0275C36.3571 28.0275 35.7609 28.1025 35.1879 28.2503C35.1013 28.2727 35.0199 28.3118 34.9485 28.3656C34.877 28.4194 34.8169 28.4867 34.7715 28.5638C34.726 28.6408 34.6962 28.726 34.6837 28.8146C34.6713 28.9032 34.6764 28.9933 34.6987 29.0799C34.7211 29.1665 34.7603 29.2479 34.814 29.3193C34.8678 29.3908 34.9352 29.4509 35.0122 29.4963C35.0892 29.5418 35.1745 29.5716 35.263 29.5841C35.3516 29.5965 35.4417 29.5914 35.5283 29.5691C35.9961 29.4491 36.4771 29.3887 36.96 29.3894C37.9607 29.3888 38.9443 29.6489 39.8139 30.1442C40.6835 30.6394 41.409 31.3527 41.9189 32.2138C40.7191 32.6246 39.6797 33.4012 38.9344 34.4587C38.8828 34.5318 38.8462 34.6143 38.8266 34.7016C38.807 34.7888 38.8047 34.8791 38.82 34.9672C38.8352 35.0553 38.8677 35.1396 38.9155 35.2152C38.9634 35.2907 39.0256 35.3561 39.0987 35.4076C39.2133 35.4887 39.3501 35.5322 39.4904 35.5321C39.7043 35.5321 39.915 35.4315 40.0476 35.2434C40.7631 34.2282 41.8271 33.5464 43.0434 33.3236C43.0934 33.3143 43.1423 33.2994 43.189 33.2791C43.4214 33.2445 43.6561 33.2272 43.8911 33.2272C46.4816 33.2272 48.5892 35.3347 48.5892 37.9251C48.5892 38.143 48.5748 38.3586 48.5463 38.5703H38.7162C38.5356 38.5703 38.3624 38.6421 38.2347 38.7698C38.107 38.8975 38.0353 39.0707 38.0353 39.2513C38.0353 39.4319 38.107 39.6051 38.2347 39.7328C38.3624 39.8605 38.5356 39.9323 38.7162 39.9323H49.1074C49.2589 39.9323 49.4061 39.8817 49.5257 39.7887C49.6453 39.6956 49.7304 39.5654 49.7676 39.4185C49.8894 38.9376 49.9512 38.4351 49.9512 37.9251C49.9512 34.6383 47.3201 31.9563 44.0538 31.8695ZM39.3862 24.1043C37.7094 22.14 38.1802 18.3018 38.6786 14.2382C38.7145 13.9461 38.7504 13.6528 38.7858 13.3585C39.1597 10.2383 39.8456 7.32454 40.717 5.15393C41.519 3.15657 42.4695 1.84133 43.3508 1.49661C44.232 1.84133 45.1825 3.15657 45.9846 5.15393C46.8562 7.32454 47.542 10.2383 47.9158 13.3588C47.9512 13.6527 47.987 13.9458 48.0229 14.2378C48.5214 18.3016 48.9923 22.1399 47.3154 24.1043C46.6125 24.9279 45.541 25.409 44.0538 25.5673V19.1315L47.2044 15.9782C47.3321 15.8504 47.4037 15.6771 47.4037 15.4965C47.4036 15.3159 47.3318 15.1427 47.204 15.0151C47.0762 14.8874 46.903 14.8157 46.7224 14.8158C46.5418 14.8159 46.3686 14.8877 46.2409 15.0155L44.0538 17.2044V13.6193C44.0538 13.2432 43.7489 12.9383 43.3728 12.9383C42.9966 12.9383 42.6917 13.2432 42.6917 13.6193V20.5467L40.5541 18.4091C40.4257 18.2847 40.2536 18.2158 40.0748 18.2172C39.8961 18.2186 39.725 18.2902 39.5986 18.4166C39.4722 18.543 39.4005 18.714 39.3991 18.8928C39.3977 19.0716 39.4666 19.2437 39.591 19.3721L42.5906 22.3717C42.6221 22.4032 42.6561 22.4307 42.6917 22.4547V25.572C41.1815 25.4189 40.0961 24.936 39.3862 24.1043ZM33.4239 35.8783C34.371 35.1283 34.9805 33.9696 34.9805 32.6704C34.9805 30.4144 33.145 28.579 30.8891 28.579C28.633 28.579 26.7976 30.4144 26.7976 32.6704C26.7976 33.9687 27.4062 35.1269 28.3521 35.8769C27.3327 36.3091 26.4321 37.0015 25.7386 37.9053L24.9329 37.4197C24.2251 36.9922 23.3911 36.8665 22.5843 37.0657C21.7773 37.265 21.0977 37.7645 20.6703 38.4722C20.2429 39.18 20.1177 40.0144 20.318 40.8216C20.5179 41.6281 21.0179 42.3076 21.7261 42.7352L24.388 44.3394V49.2183C24.388 49.3077 24.4056 49.3963 24.4398 49.4789C24.4741 49.5615 24.5242 49.6366 24.5875 49.6998C24.6507 49.7631 24.7258 49.8132 24.8084 49.8474C24.8911 49.8817 24.9796 49.8993 25.069 49.8992H36.7119C36.8013 49.8993 36.8899 49.8817 36.9725 49.8474C37.0552 49.8132 37.1302 49.7631 37.1935 49.6998C37.2567 49.6366 37.3069 49.5615 37.3411 49.4789C37.3754 49.3963 37.393 49.3077 37.393 49.2183V41.8653C37.3929 39.1787 35.7544 36.8679 33.4239 35.8783ZM28.1596 32.6703C28.1596 31.1653 29.384 29.9408 30.889 29.9408C32.3939 29.9408 33.6184 31.1653 33.6184 32.6703C33.6184 34.0518 32.5865 35.196 31.2532 35.3747C31.1319 35.3678 31.0105 35.3642 30.889 35.364C30.7662 35.364 30.6441 35.3678 30.5227 35.3745C29.1903 35.1949 28.1596 34.0511 28.1596 32.6703ZM36.0309 48.5371H25.75V45.109L26.8652 45.7523C27.4457 46.0874 28.0687 46.2549 28.6918 46.2549C29.3146 46.2549 29.9378 46.0873 30.518 45.7525L33.8596 43.8253C34.0141 43.7341 34.1265 43.5856 34.1721 43.4121C34.2178 43.2385 34.1931 43.0539 34.1035 42.8985C34.0138 42.743 33.8664 42.6292 33.6933 42.5818C33.5202 42.5345 33.3354 42.5573 33.1791 42.6454L29.8372 44.5728C29.0988 44.9992 28.285 44.9993 27.5459 44.5727L25.4092 43.3402C25.3886 43.3283 25.3673 43.3175 25.3456 43.3078L25.3453 43.3077C25.2705 43.2752 25.1979 43.2376 25.1282 43.1952L22.4296 41.5689C22.0328 41.3293 21.7523 40.9475 21.6398 40.4936C21.5273 40.04 21.5971 39.5721 21.8362 39.1761C22.0755 38.7798 22.457 38.4999 22.9106 38.3879C23.3643 38.2758 23.8324 38.346 24.2293 38.5857L25.583 39.4018C25.585 39.403 25.587 39.4038 25.589 39.405C25.5907 39.4061 25.5924 39.4073 25.5942 39.4084L27.7964 40.679C28.0936 40.8509 28.4194 40.9368 28.7453 40.9368C29.0712 40.9368 29.397 40.8509 29.6939 40.6792L30.863 40.0037C31.0172 39.9123 31.1292 39.7637 31.1745 39.5902C31.2199 39.4168 31.1951 39.2324 31.1053 39.0772C31.0156 38.9219 30.8683 38.8083 30.6954 38.761C30.5224 38.7137 30.3378 38.7365 30.1815 38.8244L29.0122 39.5001C28.8376 39.6012 28.6532 39.6011 28.4776 39.4997L26.9243 38.6035C27.8146 37.5183 29.0935 36.8488 30.4949 36.7425C30.6246 36.755 30.756 36.7618 30.8889 36.7618C31.0215 36.7618 31.1524 36.7549 31.2819 36.7426C33.934 36.9442 36.0308 39.1638 36.0308 41.8652V48.5371H36.0309Z" fill="#CDA229"/>
<path d="M18.5017 38.926H16.9968C16.9341 38.7688 16.8588 38.617 16.7715 38.472C16.6273 38.2334 16.4516 38.0152 16.2492 37.8235V31.1402C16.2492 30.9578 16.402 30.8037 16.5828 30.8037H21.6668C21.849 30.8037 22.003 30.9578 22.003 31.1402V35.273C22.003 35.649 22.3079 35.9539 22.6841 35.9539C23.0603 35.9539 23.3651 35.649 23.3651 35.273V31.1402C23.3651 30.2036 22.6033 29.4418 21.6669 29.4418H16.5829C15.648 29.4418 14.8873 30.2036 14.8873 31.1402V37.0733C14.8778 37.0708 14.8687 37.0679 14.8592 37.0656C14.0531 36.8662 13.2194 36.992 12.5126 37.4189L11.7036 37.9056C11.01 37.0016 10.1093 36.309 9.08965 35.8768C10.0357 35.1267 10.6443 33.9686 10.6443 32.6703C10.6443 30.8055 9.38965 29.2291 7.68047 28.7382V22.4573L18.3472 14.1094C18.8133 13.7458 19.4381 13.7454 19.9017 14.1087L30.5721 22.4594V26.8392C30.5721 27.2153 30.877 27.5201 31.2531 27.5201C31.6293 27.5201 31.9342 27.2153 31.9342 26.8392V23.5177C32.607 23.9653 33.5148 23.8861 34.0997 23.3098L35.3071 22.1188C35.6671 21.7678 35.8504 21.2967 35.8229 20.7867C35.7916 20.2811 35.5564 19.8336 35.1633 19.5289L20.7411 8.24182C19.7764 7.48635 18.4776 7.48596 17.5085 8.24182L3.0918 19.527C2.69141 19.8373 2.45615 20.2867 2.4292 20.7925C2.40234 21.2943 2.58359 21.7643 2.94033 22.1166L4.15137 23.3082C4.4736 23.628 4.90939 23.8072 5.36338 23.8065C5.6958 23.8065 6.02891 23.7103 6.31846 23.5164V28.5861C4.17119 28.708 2.46143 30.493 2.46143 32.6702C2.46143 33.9694 3.0708 35.1282 4.01797 35.8782C1.6874 36.8679 0.0488281 39.1787 0.0488281 41.8651V49.2181C0.0488281 49.3075 0.0664448 49.3961 0.100672 49.4787C0.1349 49.5613 0.185067 49.6364 0.24831 49.6996C0.311553 49.7629 0.386633 49.813 0.469262 49.8472C0.551891 49.8815 0.64045 49.8991 0.729883 49.899H12.3729C12.4623 49.8991 12.5508 49.8815 12.6335 49.8472C12.7161 49.813 12.7912 49.7629 12.8544 49.6996C12.9177 49.6364 12.9678 49.5613 13.0021 49.4787C13.0363 49.3961 13.0539 49.3075 13.0539 49.2181V44.3393L15.7162 42.7348C16.4239 42.3074 16.9238 41.628 17.1238 40.8215C17.1678 40.6445 17.195 40.4661 17.2079 40.2881H18.5018C18.5912 40.2881 18.6798 40.2705 18.7624 40.2362C18.845 40.202 18.9201 40.1518 18.9833 40.0886C19.0466 40.0254 19.0967 39.9503 19.1309 39.8676C19.1652 39.785 19.1828 39.6964 19.1828 39.607C19.1828 39.5176 19.1651 39.429 19.1309 39.3464C19.0967 39.2638 19.0465 39.1887 18.9833 39.1254C18.92 39.0622 18.8449 39.012 18.7623 38.9778C18.6797 38.9436 18.5911 38.926 18.5017 38.926ZM5.10869 22.3396L3.89648 21.1467C3.81611 21.0673 3.78301 20.9806 3.78916 20.8653C3.79521 20.7515 3.83613 20.6733 3.92871 20.6016L18.347 9.31497C18.8133 8.95139 19.4379 8.9512 19.9016 9.31428L34.3262 20.6035C34.4149 20.6724 34.4561 20.7524 34.4631 20.8656C34.4692 20.9814 34.4373 21.0645 34.3533 21.1464L33.1434 22.3399C33.0089 22.4724 32.8119 22.4836 32.6625 22.3658L20.7412 13.0363C20.2586 12.6582 19.6925 12.4693 19.126 12.4693C18.56 12.4693 17.9934 12.658 17.5095 13.0354L17.5086 13.0361L5.58535 22.3673C5.44053 22.4816 5.24092 22.4709 5.10869 22.3396ZM3.82334 32.6703C3.82334 31.1653 5.04775 29.9408 6.55273 29.9408C8.05771 29.9408 9.28213 31.1653 9.28213 32.6703C9.28213 34.0511 8.25137 35.1949 6.91904 35.3745C6.79706 35.3676 6.67491 35.3641 6.55273 35.364C6.43047 35.364 6.30908 35.3681 6.18848 35.3747C4.85508 35.196 3.82334 34.0518 3.82334 32.6703ZM15.8019 40.4936C15.6893 40.9474 15.4089 41.3293 15.0127 41.5686L12.3073 43.1991C12.2491 43.235 12.1802 43.2704 12.0965 43.3076C12.0747 43.3174 12.0534 43.3282 12.0327 43.3401L9.8958 44.5726C9.15693 44.9992 8.34336 44.9991 7.60449 44.5725L4.2627 42.6453C4.10636 42.5572 3.92156 42.5344 3.74846 42.5818C3.57537 42.6291 3.42797 42.7429 3.33831 42.8984C3.24866 43.0538 3.22398 43.2384 3.26966 43.412C3.31533 43.5855 3.42766 43.734 3.58223 43.8252L6.92354 45.7522C7.504 46.0872 8.12695 46.2548 8.7501 46.2548C9.37295 46.2548 9.99609 46.0872 10.5764 45.7523L11.6917 45.1089V48.537H1.41084V41.865C1.41084 39.1636 3.50762 36.944 6.15967 36.7424C6.28906 36.7548 6.42012 36.7616 6.55273 36.7616C6.68428 36.7615 6.81575 36.755 6.94668 36.7423C8.34814 36.8486 9.62685 37.5182 10.5173 38.6033L8.96328 39.4999C8.78867 39.6009 8.6041 39.601 8.4291 39.4997L7.26006 38.8242C7.10381 38.7363 6.91918 38.7135 6.74623 38.7608C6.57328 38.8081 6.42597 38.9217 6.33626 39.077C6.24655 39.2322 6.22168 39.4166 6.26706 39.59C6.31243 39.7635 6.42438 39.9121 6.57861 40.0035L7.74736 40.6788C8.04453 40.8507 8.37051 40.9366 8.69648 40.9366C9.02217 40.9366 9.34785 40.8508 9.64453 40.6792L11.8474 39.4082L11.8525 39.4049C11.8544 39.4038 11.8562 39.403 11.8581 39.4019L13.2155 38.5852C13.6119 38.3459 14.0795 38.2758 14.5321 38.3876C14.9849 38.4995 15.3662 38.7795 15.6056 39.1759C15.8446 39.572 15.9144 40.0399 15.8019 40.4936ZM14.5702 19.4448C14.4808 19.4448 14.3922 19.4624 14.3096 19.4967C14.227 19.5309 14.1519 19.581 14.0886 19.6443C14.0254 19.7075 13.9752 19.7826 13.941 19.8652C13.9068 19.9478 13.8892 20.0364 13.8892 20.1258V23.9526C13.8892 24.042 13.9068 24.1306 13.941 24.2132C13.9752 24.2958 14.0254 24.3709 14.0886 24.4341C14.1519 24.4973 14.227 24.5475 14.3096 24.5817C14.3922 24.6159 14.4808 24.6335 14.5702 24.6335H23.6821C23.7716 24.6335 23.8601 24.6159 23.9427 24.5817C24.0254 24.5475 24.1005 24.4973 24.1637 24.4341C24.2269 24.3709 24.2771 24.2958 24.3113 24.2132C24.3456 24.1306 24.3632 24.042 24.3632 23.9526V20.1258C24.3632 20.0364 24.3456 19.9478 24.3113 19.8652C24.2771 19.7826 24.2269 19.7075 24.1637 19.6443C24.1005 19.581 24.0254 19.5309 23.9427 19.4967C23.8601 19.4624 23.7716 19.4448 23.6821 19.4448H14.5702ZM23.0011 23.2716H15.2512V20.8069H23.0011V23.2716ZM44.0538 31.8695V26.9348C45.976 26.7567 47.3872 26.1179 48.3513 24.9885C50.4169 22.5685 49.9106 18.4413 49.3747 14.0719C49.339 13.781 49.3032 13.4889 49.2681 13.1964C48.6058 7.66839 46.7024 0.927369 43.5177 0.122291C43.4081 0.0946529 43.2934 0.0946529 43.1839 0.122291C39.9993 0.927272 38.0959 7.66838 37.4336 13.1961C37.3983 13.4891 37.3625 13.7813 37.3269 14.0723C36.7909 18.4416 36.2847 22.5686 38.3504 24.9885C39.3218 26.1265 40.7473 26.7662 42.6918 26.9386V30.9178C42.0295 30.0208 41.1658 29.2918 40.1702 28.7898C39.1746 28.2878 38.075 28.0266 36.96 28.0275C36.3571 28.0275 35.7609 28.1025 35.1879 28.2503C35.1013 28.2727 35.0199 28.3118 34.9485 28.3656C34.877 28.4194 34.8169 28.4867 34.7715 28.5638C34.726 28.6408 34.6962 28.726 34.6837 28.8146C34.6713 28.9032 34.6764 28.9933 34.6987 29.0799C34.7211 29.1665 34.7603 29.2479 34.814 29.3193C34.8678 29.3908 34.9352 29.4509 35.0122 29.4963C35.0892 29.5418 35.1745 29.5716 35.263 29.5841C35.3516 29.5965 35.4417 29.5914 35.5283 29.5691C35.9961 29.4491 36.4771 29.3887 36.96 29.3894C37.9607 29.3888 38.9443 29.6489 39.8139 30.1442C40.6835 30.6394 41.409 31.3527 41.9189 32.2138C40.7191 32.6246 39.6797 33.4012 38.9344 34.4587C38.8828 34.5318 38.8462 34.6143 38.8266 34.7016C38.807 34.7888 38.8047 34.8791 38.82 34.9672C38.8352 35.0553 38.8677 35.1396 38.9155 35.2152C38.9634 35.2907 39.0256 35.3561 39.0987 35.4076C39.2133 35.4887 39.3501 35.5322 39.4904 35.5321C39.7043 35.5321 39.915 35.4315 40.0476 35.2434C40.7631 34.2282 41.8271 33.5464 43.0434 33.3236C43.0934 33.3143 43.1423 33.2994 43.189 33.2791C43.4214 33.2445 43.6561 33.2272 43.8911 33.2272C46.4816 33.2272 48.5892 35.3347 48.5892 37.9251C48.5892 38.143 48.5748 38.3586 48.5463 38.5703H38.7162C38.5356 38.5703 38.3624 38.6421 38.2347 38.7698C38.107 38.8975 38.0353 39.0707 38.0353 39.2513C38.0353 39.4319 38.107 39.6051 38.2347 39.7328C38.3624 39.8605 38.5356 39.9323 38.7162 39.9323H49.1074C49.2589 39.9323 49.4061 39.8817 49.5257 39.7887C49.6453 39.6956 49.7304 39.5654 49.7676 39.4185C49.8894 38.9376 49.9512 38.4351 49.9512 37.9251C49.9512 34.6383 47.3201 31.9563 44.0538 31.8695ZM39.3862 24.1043C37.7094 22.14 38.1802 18.3018 38.6786 14.2382C38.7145 13.9461 38.7504 13.6528 38.7858 13.3585C39.1597 10.2383 39.8456 7.32454 40.717 5.15393C41.519 3.15657 42.4695 1.84133 43.3508 1.49661C44.232 1.84133 45.1825 3.15657 45.9846 5.15393C46.8562 7.32454 47.542 10.2383 47.9158 13.3588C47.9512 13.6527 47.987 13.9458 48.0229 14.2378C48.5214 18.3016 48.9923 22.1399 47.3154 24.1043C46.6125 24.9279 45.541 25.409 44.0538 25.5673V19.1315L47.2044 15.9782C47.3321 15.8504 47.4037 15.6771 47.4037 15.4965C47.4036 15.3159 47.3318 15.1427 47.204 15.0151C47.0762 14.8874 46.903 14.8157 46.7224 14.8158C46.5418 14.8159 46.3686 14.8877 46.2409 15.0155L44.0538 17.2044V13.6193C44.0538 13.2432 43.7489 12.9383 43.3728 12.9383C42.9966 12.9383 42.6917 13.2432 42.6917 13.6193V20.5467L40.5541 18.4091C40.4257 18.2847 40.2536 18.2158 40.0748 18.2172C39.8961 18.2186 39.725 18.2902 39.5986 18.4166C39.4722 18.543 39.4005 18.714 39.3991 18.8928C39.3977 19.0716 39.4666 19.2437 39.591 19.3721L42.5906 22.3717C42.6221 22.4032 42.6561 22.4307 42.6917 22.4547V25.572C41.1815 25.4189 40.0961 24.936 39.3862 24.1043ZM33.4239 35.8783C34.371 35.1283 34.9805 33.9696 34.9805 32.6704C34.9805 30.4144 33.145 28.579 30.8891 28.579C28.633 28.579 26.7976 30.4144 26.7976 32.6704C26.7976 33.9687 27.4062 35.1269 28.3521 35.8769C27.3327 36.3091 26.4321 37.0015 25.7386 37.9053L24.9329 37.4197C24.2251 36.9922 23.3911 36.8665 22.5843 37.0657C21.7773 37.265 21.0977 37.7645 20.6703 38.4722C20.2429 39.18 20.1177 40.0144 20.318 40.8216C20.5179 41.6281 21.0179 42.3076 21.7261 42.7352L24.388 44.3394V49.2183C24.388 49.3077 24.4056 49.3963 24.4398 49.4789C24.4741 49.5615 24.5242 49.6366 24.5875 49.6998C24.6507 49.7631 24.7258 49.8132 24.8084 49.8474C24.8911 49.8817 24.9796 49.8993 25.069 49.8992H36.7119C36.8013 49.8993 36.8899 49.8817 36.9725 49.8474C37.0552 49.8132 37.1302 49.7631 37.1935 49.6998C37.2567 49.6366 37.3069 49.5615 37.3411 49.4789C37.3754 49.3963 37.393 49.3077 37.393 49.2183V41.8653C37.3929 39.1787 35.7544 36.8679 33.4239 35.8783ZM28.1596 32.6703C28.1596 31.1653 29.384 29.9408 30.889 29.9408C32.3939 29.9408 33.6184 31.1653 33.6184 32.6703C33.6184 34.0518 32.5865 35.196 31.2532 35.3747C31.1319 35.3678 31.0105 35.3642 30.889 35.364C30.7662 35.364 30.6441 35.3678 30.5227 35.3745C29.1903 35.1949 28.1596 34.0511 28.1596 32.6703ZM36.0309 48.5371H25.75V45.109L26.8652 45.7523C27.4457 46.0874 28.0687 46.2549 28.6918 46.2549C29.3146 46.2549 29.9378 46.0873 30.518 45.7525L33.8596 43.8253C34.0141 43.7341 34.1265 43.5856 34.1721 43.4121C34.2178 43.2385 34.1931 43.0539 34.1035 42.8985C34.0138 42.743 33.8664 42.6292 33.6933 42.5818C33.5202 42.5345 33.3354 42.5573 33.1791 42.6454L29.8372 44.5728C29.0988 44.9992 28.285 44.9993 27.5459 44.5727L25.4092 43.3402C25.3886 43.3283 25.3673 43.3175 25.3456 43.3078L25.3453 43.3077C25.2705 43.2752 25.1979 43.2376 25.1282 43.1952L22.4296 41.5689C22.0328 41.3293 21.7523 40.9475 21.6398 40.4936C21.5273 40.04 21.5971 39.5721 21.8362 39.1761C22.0755 38.7798 22.457 38.4999 22.9106 38.3879C23.3643 38.2758 23.8324 38.346 24.2293 38.5857L25.583 39.4018C25.585 39.403 25.587 39.4038 25.589 39.405C25.5907 39.4061 25.5924 39.4073 25.5942 39.4084L27.7964 40.679C28.0936 40.8509 28.4194 40.9368 28.7453 40.9368C29.0712 40.9368 29.397 40.8509 29.6939 40.6792L30.863 40.0037C31.0172 39.9123 31.1292 39.7637 31.1745 39.5902C31.2199 39.4168 31.1951 39.2324 31.1053 39.0772C31.0156 38.9219 30.8683 38.8083 30.6954 38.761C30.5224 38.7137 30.3378 38.7365 30.1815 38.8244L29.0122 39.5001C28.8376 39.6012 28.6532 39.6011 28.4776 39.4997L26.9243 38.6035C27.8146 37.5183 29.0935 36.8488 30.4949 36.7425C30.6246 36.755 30.756 36.7618 30.8889 36.7618C31.0215 36.7618 31.1524 36.7549 31.2819 36.7426C33.934 36.9442 36.0308 39.1638 36.0308 41.8652V48.5371H36.0309Z" stroke="#CDA229" stroke-width="0.4" mask="url(#path-1-outside-1_475_6481)"/>
</g>
<defs>
<clipPath id="clip0_475_6481">
<rect width="50" height="50" fill="white"/>
</clipPath>
</defs>
</svg>
