<svg width="24" height="25" viewBox="0 0 24 25" fill="none" xmlns="http://www.w3.org/2000/svg">
<path d="M23.1842 12.325C23.1561 12.25 22.3592 10.4875 20.5967 8.71563C18.2436 6.37188 15.2717 5.125 11.9998 5.125C8.72793 5.125 5.75606 6.37188 3.40293 8.71563C1.64043 10.4875 0.843558 12.25 0.815433 12.325C0.773576 12.4195 0.751953 12.5217 0.751953 12.625C0.751953 12.7283 0.773576 12.8305 0.815433 12.925C0.843558 13 1.64043 14.7625 3.40293 16.5344C5.75606 18.8781 8.72793 20.125 11.9998 20.125C15.2717 20.125 18.2436 18.8781 20.5967 16.5344C22.3592 14.7625 23.1561 13 23.1842 12.925C23.226 12.8305 23.2477 12.7283 23.2477 12.625C23.2477 12.5217 23.226 12.4195 23.1842 12.325ZM11.9998 9.25C12.6673 9.25 13.3198 9.44794 13.8749 9.81879C14.4299 10.1896 14.8625 10.7167 15.1179 11.3334C15.3733 11.9501 15.4402 12.6287 15.31 13.2834C15.1797 13.9381 14.8583 14.5395 14.3863 15.0115C13.9143 15.4835 13.3129 15.8049 12.6582 15.9352C12.0036 16.0654 11.325 15.9985 10.7083 15.7431C10.0915 15.4876 9.56445 15.0551 9.1936 14.5C8.82275 13.945 8.62481 13.2925 8.62481 12.625C8.62481 11.7299 8.98039 10.8714 9.61332 10.2385C10.2463 9.60558 11.1047 9.25 11.9998 9.25Z" fill="#405FCE"/>
</svg>
