<svg width="60" height="60" viewBox="0 0 60 60" fill="none" xmlns="http://www.w3.org/2000/svg">
<path d="M52.9453 24.0938C52.0547 23.1797 51.1406 22.2188 50.7891 21.3984C50.4375 20.5781 50.4609 19.3594 50.4375 18.1172C50.4141 15.8438 50.3672 13.2422 48.5625 11.4375C46.7578 9.63281 44.1562 9.58594 41.8828 9.5625C40.6406 9.53906 39.375 9.51562 38.6016 9.21094C37.8281 8.90625 36.8203 7.94531 35.9062 7.05469C34.2891 5.50781 32.4375 3.75 30 3.75C27.5625 3.75 25.7109 5.50781 24.0938 7.05469C23.1797 7.94531 22.2188 8.85937 21.3984 9.21094C20.5781 9.5625 19.3594 9.53906 18.1172 9.5625C15.8438 9.58594 13.2422 9.63281 11.4375 11.4375C9.63281 13.2422 9.58594 15.8438 9.5625 18.1172C9.53906 19.3594 9.51562 20.625 9.21094 21.3984C8.90625 22.1719 7.94531 23.1797 7.05469 24.0938C5.50781 25.7109 3.75 27.5625 3.75 30C3.75 32.4375 5.50781 34.2891 7.05469 35.9062C7.94531 36.8203 8.85937 37.7812 9.21094 38.6016C9.5625 39.4219 9.53906 40.6406 9.5625 41.8828C9.58594 44.1562 9.63281 46.7578 11.4375 48.5625C13.2422 50.3672 15.8438 50.4141 18.1172 50.4375C19.3594 50.4609 20.625 50.4844 21.3984 50.7891C22.1719 51.0937 23.1797 52.0547 24.0938 52.9453C25.7109 54.4922 27.5625 56.25 30 56.25C32.4375 56.25 34.2891 54.4922 35.9062 52.9453C36.8203 52.0547 37.7812 51.1406 38.6016 50.7891C39.4219 50.4375 40.6406 50.4609 41.8828 50.4375C44.1562 50.4141 46.7578 50.3672 48.5625 48.5625C50.3672 46.7578 50.4141 44.1562 50.4375 41.8828C50.4609 40.6406 50.4844 39.375 50.7891 38.6016C51.0937 37.8281 52.0547 36.8203 52.9453 35.9062C54.4922 34.2891 56.25 32.4375 56.25 30C56.25 27.5625 54.4922 25.7109 52.9453 24.0938ZM28.125 18.75C28.125 18.2527 28.3225 17.7758 28.6742 17.4242C29.0258 17.0725 29.5027 16.875 30 16.875C30.4973 16.875 30.9742 17.0725 31.3258 17.4242C31.6775 17.7758 31.875 18.2527 31.875 18.75V31.875C31.875 32.3723 31.6775 32.8492 31.3258 33.2008C30.9742 33.5525 30.4973 33.75 30 33.75C29.5027 33.75 29.0258 33.5525 28.6742 33.2008C28.3225 32.8492 28.125 32.3723 28.125 31.875V18.75ZM30 43.125C29.4437 43.125 28.9 42.96 28.4375 42.651C27.9749 42.342 27.6145 41.9027 27.4016 41.3888C27.1887 40.8749 27.133 40.3094 27.2415 39.7638C27.3501 39.2182 27.6179 38.7171 28.0113 38.3238C28.4046 37.9304 28.9057 37.6626 29.4513 37.554C29.9969 37.4455 30.5624 37.5012 31.0763 37.7141C31.5902 37.927 32.0295 38.2874 32.3385 38.75C32.6475 39.2125 32.8125 39.7562 32.8125 40.3125C32.8125 41.0584 32.5162 41.7738 31.9887 42.3012C31.4613 42.8287 30.7459 43.125 30 43.125Z" fill="white"/>
</svg>
