<svg width="50" height="50" viewBox="0 0 50 50" fill="none" xmlns="http://www.w3.org/2000/svg">
<g clip-path="url(#clip0_475_6502)">
<path d="M25 7.5C15.335 7.5 7.5 15.335 7.5 25C7.5 34.665 15.335 42.5 25 42.5C34.665 42.5 42.5 34.665 42.5 25C42.4892 15.34 34.66 7.51083 25 7.5ZM11.2975 32.8983C11.6267 32.7447 11.9447 32.5682 12.2492 32.37C12.8825 31.895 13.6575 31.6475 14.45 31.6667C15.241 31.6475 16.0153 31.8959 16.6475 32.3717C17.545 33.0176 18.6278 33.355 19.7333 33.3333C20.8361 33.3545 21.916 33.0173 22.8108 32.3725C23.4501 31.9143 24.2168 31.6679 25.0033 31.6679C25.7898 31.6679 26.5566 31.9143 27.1958 32.3725C28.1017 32.9997 29.1773 33.3357 30.2792 33.3357C31.381 33.3357 32.4566 32.9997 33.3625 32.3725C34.0022 31.9142 34.7691 31.6674 35.556 31.6667C36.3429 31.6659 37.1103 31.9113 37.7508 32.3683C38.0558 32.5675 38.3742 32.7442 38.7042 32.8975C38.3708 33.4725 38 34.0267 37.5967 34.5558C36.9516 34.286 36.2574 34.1535 35.5583 34.1667C34.4534 34.1457 33.3715 34.4837 32.475 35.13C31.8358 35.5882 31.069 35.8346 30.2825 35.8346C29.496 35.8346 28.7292 35.5882 28.09 35.13C27.1841 34.5028 26.1085 34.1668 25.0067 34.1668C23.9048 34.1668 22.8292 34.5028 21.9233 35.13C21.284 35.588 20.5173 35.8343 19.7308 35.8343C18.9444 35.8343 18.1777 35.588 17.5383 35.13C16.6404 34.483 15.5566 34.1449 14.45 34.1667C13.7487 34.1533 13.0523 34.2858 12.405 34.5558C12.0015 34.0271 11.6316 33.4735 11.2975 32.8983ZM25 40.8333C22.8626 40.8329 20.7476 40.3981 18.7833 39.5553C16.819 38.7126 15.0465 37.4795 13.5733 35.9308C13.8608 35.8647 14.155 35.832 14.45 35.8333C15.241 35.8141 16.0153 36.0625 16.6475 36.5383C17.545 37.1843 18.6278 37.5217 19.7333 37.5C20.8361 37.5212 21.916 37.184 22.8108 36.5392C23.4501 36.081 24.2168 35.8345 25.0033 35.8345C25.7898 35.8345 26.5566 36.081 27.1958 36.5392C28.1017 37.1664 29.1773 37.5024 30.2792 37.5024C31.381 37.5024 32.4566 37.1664 33.3625 36.5392C33.9941 36.0633 34.7678 35.8146 35.5583 35.8333C35.8508 35.8317 36.1433 35.8642 36.4283 35.9292C34.9551 37.4783 33.1824 38.7119 31.2178 39.555C29.2533 40.398 27.1378 40.8329 25 40.8333ZM39.465 31.41C39.1767 31.283 38.8996 31.1319 38.6367 30.9583C37.7297 30.3332 36.6541 29.9989 35.5526 29.9998C34.4511 30.0007 33.3759 30.3368 32.47 30.9633C31.8308 31.4216 31.064 31.668 30.2775 31.668C29.491 31.668 28.7242 31.4216 28.085 30.9633C27.1791 30.3361 26.1035 30.0001 25.0017 30.0001C23.8998 30.0001 22.8242 30.3361 21.9183 30.9633C21.279 31.4213 20.5123 31.6676 19.7258 31.6676C18.9394 31.6676 18.1727 31.4213 17.5333 30.9633C16.6367 30.3173 15.5549 29.9793 14.45 30C13.3457 29.979 12.2642 30.3155 11.3667 30.9592C11.104 31.1324 10.8272 31.2832 10.5392 31.41C9.46608 28.9993 9.01252 26.3586 9.21972 23.728C9.42692 21.0973 10.2883 18.5602 11.7256 16.3472C13.1628 14.1342 15.1304 12.3155 17.4494 11.0564C19.7685 9.79737 22.3654 9.13786 25.0042 9.13786C27.6429 9.13786 30.2399 9.79737 32.5589 11.0564C34.8779 12.3155 36.8455 14.1342 38.2828 16.3472C39.72 18.5602 40.5814 21.0973 40.7886 23.728C40.9958 26.3586 40.5423 28.9993 39.4692 31.41H39.465Z" fill="#CDA229"/>
<path d="M48.5 20.85L46.1667 20.3842C45.624 17.8632 44.6296 15.4611 43.2317 13.2942L44.5475 11.32C44.6392 11.1825 44.6875 11.0217 44.6875 10.8575C44.6875 10.6075 44.5908 9.23667 42.6758 7.3225C40.7608 5.40833 39.395 5.31083 39.1408 5.31083C38.9762 5.3108 38.8153 5.35951 38.6783 5.45083L36.7058 6.76667C34.5389 5.36965 32.1372 4.37589 29.6167 3.83333L29.15 1.5C29.1178 1.33872 29.0387 1.19055 28.9225 1.07417C28.7425 0.8975 27.7083 0 25 0C22.2917 0 21.2575 0.8975 21.0775 1.0775C20.9613 1.19389 20.8822 1.34205 20.85 1.50333L20.3833 3.83333C17.8628 4.37589 15.4611 5.36965 13.2942 6.76667L11.32 5.45083C11.183 5.35951 11.0221 5.3108 10.8575 5.31083C10.6075 5.31083 9.2375 5.4075 7.3225 7.3225C5.4075 9.2375 5.31083 10.6033 5.31083 10.8575C5.31083 11.0217 5.36 11.1825 5.45083 11.32L6.76667 13.2942C5.36929 15.4612 4.37551 17.8633 3.83333 20.3842L1.5 20.85C1.33856 20.8817 1.19028 20.9609 1.07417 21.0775C0.8975 21.2575 0 22.2917 0 25C0 27.7083 0.8975 28.7425 1.0775 28.9225C1.19417 29.0392 1.34167 29.1183 1.50333 29.15L3.83167 29.6158C4.37436 32.1368 5.36871 34.5389 6.76667 36.7058L5.45083 38.68C5.35917 38.8175 5.31083 38.9783 5.31083 39.1425C5.31083 39.3967 5.4075 40.7633 7.3225 42.6775C9.2375 44.5917 10.6033 44.6892 10.8575 44.6892C11.0221 44.6892 11.183 44.6405 11.32 44.5492L13.2942 43.2333C15.4611 44.6304 17.8628 45.6241 20.3833 46.1667L20.85 48.495C20.8822 48.6563 20.9613 48.8044 21.0775 48.9208C21.2575 49.1025 22.2917 50 25 50C27.7083 50 28.7425 49.1025 28.9225 48.9225C29.0387 48.8061 29.1178 48.6579 29.15 48.4967L29.6167 46.1683C32.1373 45.6253 34.539 44.6309 36.7058 43.2333L38.68 44.5492C38.817 44.6405 38.9779 44.6892 39.1425 44.6892C39.3967 44.6892 40.7625 44.5925 42.6775 42.6775C44.5925 40.7625 44.6892 39.3967 44.6892 39.1425C44.6892 38.9783 44.64 38.8175 44.5492 38.68L43.2333 36.7058C44.6307 34.5387 45.6245 32.1367 46.1667 29.6158L48.5 29.15C48.6614 29.1183 48.8097 29.0391 48.9258 28.9225C49.1025 28.7425 50 27.7083 50 25C50 22.2917 49.1025 21.2575 48.9225 21.0775C48.8073 20.9615 48.6602 20.8823 48.5 20.85ZM47.8408 27.5833L45.2983 28.0917C45.1357 28.1242 44.9865 28.2046 44.8698 28.3225C44.7531 28.4404 44.6743 28.5904 44.6433 28.7533C44.1381 31.4359 43.0832 33.9849 41.545 36.24C41.4515 36.3771 41.401 36.5391 41.4001 36.7051C41.3992 36.8711 41.4479 37.0335 41.54 37.1717L42.9758 39.3267C42.6692 40.161 42.1624 40.9073 41.5 41.5C40.9084 42.1616 40.1648 42.6695 39.3333 42.98L37.1667 41.54C37.0286 41.4478 36.8662 41.399 36.7002 41.3997C36.5342 41.4005 36.3722 41.4508 36.235 41.5442C33.9806 43.0827 31.4321 44.1379 28.75 44.6433C28.587 44.6743 28.437 44.7531 28.3192 44.8698C28.2013 44.9865 28.1209 45.1357 28.0883 45.2983L27.58 47.8408C26.7733 48.2137 25.8873 48.3828 25 48.3333C24.112 48.3826 23.2254 48.215 22.4167 47.845L21.9075 45.2983C21.8749 45.1357 21.7945 44.9865 21.6767 44.8698C21.5588 44.7531 21.4088 44.6743 21.2458 44.6433C18.5634 44.138 16.0146 43.0828 13.76 41.5442C13.6228 41.4508 13.4608 41.4005 13.2948 41.3997C13.1288 41.399 12.9664 41.4478 12.8283 41.54L10.675 42.9767C9.83999 42.67 9.0931 42.1629 8.5 41.5C7.83851 40.9084 7.33086 40.1648 7.02083 39.3333L8.45917 37.175C8.55122 37.0369 8.59992 36.8744 8.59903 36.7084C8.59814 36.5424 8.5477 36.3805 8.45417 36.2433C6.91539 33.9862 5.86074 31.4348 5.35667 28.75C5.32573 28.587 5.24687 28.437 5.13019 28.3192C5.0135 28.2013 4.8643 28.1209 4.70167 28.0883L2.15917 27.5833C1.78564 26.7756 1.6165 25.8885 1.66667 25C1.61741 24.112 1.78501 23.2254 2.155 22.4167L4.70167 21.9083C4.8643 21.8757 5.0135 21.7954 5.13019 21.6775C5.24687 21.5596 5.32573 21.4096 5.35667 21.2467C5.86187 18.5641 6.91677 16.0151 8.455 13.76C8.54853 13.6229 8.59897 13.4609 8.59986 13.2949C8.60075 13.1289 8.55205 12.9665 8.46 12.8283L7.02417 10.675C7.33057 9.84008 7.83736 9.0932 8.5 8.5C9.09163 7.83839 9.83519 7.33048 10.6667 7.02L12.825 8.45917C12.9626 8.55196 13.1248 8.60153 13.2908 8.60153C13.4568 8.60153 13.619 8.55196 13.7567 8.45917C16.0133 6.91841 18.5647 5.86203 21.25 5.35667C21.413 5.32573 21.563 5.24687 21.6808 5.13019C21.7987 5.0135 21.8791 4.8643 21.9117 4.70167L22.42 2.15917C23.2267 1.78634 24.1127 1.61723 25 1.66667C25.888 1.61741 26.7746 1.78501 27.5833 2.155L28.0925 4.70167C28.1251 4.8643 28.2055 5.0135 28.3233 5.13019C28.4412 5.24687 28.5912 5.32573 28.7542 5.35667C31.4366 5.862 33.9854 6.9172 36.24 8.45583C36.3776 8.54862 36.5398 8.59819 36.7058 8.59819C36.8718 8.59819 37.034 8.54862 37.1717 8.45583L39.325 7.02333C40.16 7.32997 40.9069 7.83706 41.5 8.5C42.1615 9.09157 42.6691 9.83517 42.9792 10.6667L41.54 12.8333C41.4479 12.9715 41.3992 13.1339 41.4001 13.2999C41.401 13.4659 41.4515 13.6279 41.545 13.765C43.083 16.0196 44.1379 18.568 44.6433 21.25C44.6743 21.413 44.7531 21.563 44.8698 21.6808C44.9865 21.7987 45.1357 21.8791 45.2983 21.9117L47.8408 22.42C48.2142 23.2267 48.3825 24.1125 48.3333 25C48.3835 25.8885 48.2144 26.7756 47.8408 27.5833Z" fill="#CDA229"/>
<path d="M26.0163 11.2195C25.7354 10.9723 25.3739 10.8359 24.9997 10.8359C24.6254 10.8359 24.264 10.9723 23.983 11.2195C22.2838 12.7195 18.333 16.7078 18.333 21.3862C18.3326 22.3221 18.5168 23.2488 18.8752 24.1134C19.2335 24.978 19.759 25.7633 20.4213 26.4245C21.6344 27.642 23.281 28.3284 24.9997 28.3328H25.083C26.8708 28.2659 28.5613 27.5012 29.792 26.2026C31.0226 24.9041 31.6955 23.175 31.6663 21.3862C31.6663 16.7103 27.7155 12.7187 26.0163 11.2195ZM25.0613 26.6662C24.4168 26.6731 23.7775 26.5502 23.1815 26.3048C22.5855 26.0594 22.045 25.6965 21.5922 25.2378C21.0864 24.732 20.6853 24.1313 20.4121 23.4703C20.1388 22.8092 19.9987 22.1007 19.9997 21.3853C19.9997 17.3687 23.7163 13.6945 24.9997 12.5462C26.283 13.6945 29.9997 17.3712 29.9997 21.3862C30.0306 22.7373 29.531 24.0467 28.6078 25.0337C27.6846 26.0208 26.4115 26.6068 25.0613 26.6662Z" fill="#CDA229"/>
<path d="M24.9703 23.3359C24.5324 23.3315 24.1142 23.1536 23.8073 22.8411C23.5005 22.5286 23.3301 22.1072 23.3337 21.6693C23.3337 21.4483 23.2459 21.2363 23.0896 21.08C22.9333 20.9237 22.7214 20.8359 22.5003 20.8359C22.2793 20.8359 22.0674 20.9237 21.9111 21.08C21.7548 21.2363 21.667 21.4483 21.667 21.6693C21.6639 22.5491 22.01 23.3942 22.6293 24.0191C23.2486 24.6441 24.0905 24.9978 24.9703 25.0026H25.0003C25.109 25.0023 25.2164 24.9804 25.3165 24.9382C25.4166 24.896 25.5073 24.8344 25.5833 24.7568C25.6594 24.6793 25.7193 24.5875 25.7595 24.4866C25.7998 24.3857 25.8196 24.2779 25.8178 24.1693C25.8148 23.9468 25.7241 23.7344 25.5654 23.5784C25.4067 23.4224 25.1929 23.3353 24.9703 23.3359Z" fill="#CDA229"/>
</g>
<defs>
<clipPath id="clip0_475_6502">
<rect width="50" height="50" fill="white"/>
</clipPath>
</defs>
</svg>
