<svg width="60" height="60" viewBox="0 0 60 60" fill="none" xmlns="http://www.w3.org/2000/svg">
<path d="M19.8728 36.5203V9.18569C19.8728 6.87209 17.9972 4.99647 15.6836 4.99647H51.2917C53.6053 4.99647 55.4809 6.87209 55.4809 9.18569V55.4766H19.8728V42.8042" stroke="white" stroke-width="2" stroke-miterlimit="10" stroke-linecap="round" stroke-linejoin="round"/>
<path d="M42.9124 49.125H32.4395V30.2735H42.9124V49.125Z" stroke="white" stroke-width="2" stroke-miterlimit="10" stroke-linecap="round" stroke-linejoin="round"/>
<path d="M30.3447 49.125H45.0069" stroke="white" stroke-width="2" stroke-miterlimit="10" stroke-linecap="round" stroke-linejoin="round"/>
<path d="M30.3447 30.2422H45.0069" stroke="white" stroke-width="2" stroke-miterlimit="10" stroke-linecap="round" stroke-linejoin="round"/>
<path d="M8.14189 42.8438H32.4392V36.5599H8.14189C6.40673 36.5599 5 37.9667 5 39.7018C5 41.437 6.40673 42.8438 8.14189 42.8438Z" stroke="white" stroke-width="2" stroke-miterlimit="10" stroke-linecap="round" stroke-linejoin="round"/>
<path d="M11.2838 42.8438H8.14189C6.40673 42.8438 5 41.437 5 39.7018C5 37.9667 6.40673 36.5599 8.14189 36.5599H11.2838V42.8438Z" stroke="white" stroke-width="2" stroke-miterlimit="10" stroke-linecap="round" stroke-linejoin="round"/>
<path d="M26.1562 14.5391H49.1968" stroke="white" stroke-width="2" stroke-miterlimit="10" stroke-linecap="round" stroke-linejoin="round"/>
<path d="M19.8725 13.3906H11.4941V9.20141C11.4941 6.8878 13.3697 5.01219 15.6833 5.01219C17.9969 5.01219 19.8725 6.8878 19.8725 9.20141V13.3906Z" stroke="white" stroke-width="2" stroke-miterlimit="10" stroke-linecap="round" stroke-linejoin="round"/>
</svg>
