<svg width="60" height="60" viewBox="0 0 60 60" fill="none" xmlns="http://www.w3.org/2000/svg">
<g clip-path="url(#clip0_475_6510)">
<path d="M10.8754 34.1273C10.5004 34.1273 10.0316 33.8461 9.93788 33.3773L8.71913 28.5023C8.62538 28.0336 8.90663 27.4711 9.37538 27.3773C9.84413 27.2836 10.4066 27.5648 10.5004 28.0336L11.7191 32.9086C11.8129 33.3773 11.5316 33.9398 11.0629 34.0336C11.0629 34.1273 10.9691 34.1273 10.8754 34.1273Z" fill="white"/>
<path d="M8.34413 34.1268H4.12538C2.71913 34.1268 1.50038 33.4706 0.656628 32.3456C-0.0933718 31.3143 -0.187122 30.0956 0.187878 28.8768C1.03163 26.7206 3.46913 25.7831 7.59413 26.0643C8.81288 26.1581 9.93788 26.8143 10.4066 27.8456C10.9691 28.7831 10.6879 29.5331 10.5004 29.9081C9.93788 30.9393 8.53163 31.4081 6.00038 31.5018C5.53163 31.5018 5.06288 31.1268 5.06288 30.5643C5.06288 30.0018 5.43788 29.6268 6.00038 29.6268C8.43788 29.5331 8.81288 29.0643 8.90663 28.9706C8.90663 28.9706 8.90663 28.8768 8.81288 28.6893C8.53163 28.2206 8.06288 27.9393 7.50038 27.9393C5.34413 27.7518 2.62538 27.9393 2.06288 29.5331C1.78163 30.2831 2.06288 30.9393 2.34413 31.2206C2.81288 31.7831 3.46913 32.1581 4.21913 32.1581H8.43788C9.00038 32.1581 9.37538 32.6268 9.37538 33.0956C9.37538 33.5643 8.90663 34.1268 8.34413 34.1268ZM49.1254 34.1268H48.8441C48.3754 34.0331 48.0004 33.4706 48.1879 33.0018L49.4066 28.1268C49.5004 27.6581 50.0629 27.2831 50.5316 27.4706C51.0004 27.5643 51.3754 28.1268 51.1879 28.5956L49.9691 33.4706C49.9691 33.8456 49.5004 34.1268 49.1254 34.1268Z" fill="white"/>
<path d="M55.8753 34.1268H51.6565C51.094 34.1268 50.719 33.6581 50.719 33.1893C50.719 32.7206 51.1878 32.2518 51.6565 32.2518H55.8753C56.6253 32.2518 57.3753 31.8768 57.7503 31.3143C57.9378 31.0331 58.3128 30.3768 58.0315 29.6268C57.469 28.0331 54.7503 27.8456 52.594 28.0331C52.0315 28.0331 51.469 28.4081 51.2815 28.7831C51.1878 28.9706 51.1878 29.0643 51.1878 29.0643C51.1878 29.0643 51.5628 29.6268 54.1878 29.7206C54.7503 29.7206 55.1253 30.1893 55.1253 30.6581C55.1253 31.2206 54.6565 31.5956 54.1878 31.5956C51.6565 31.5018 50.2503 31.0331 49.6878 30.0018C49.5003 29.6268 49.219 28.8768 49.7815 27.9393C50.344 26.9081 51.3753 26.2518 52.594 26.1581C56.719 25.8768 59.1565 26.8143 60.0003 28.9706C60.469 30.0956 60.2815 31.4081 59.5315 32.4393C58.5003 33.4706 57.2815 34.1268 55.8753 34.1268Z" fill="white"/>
<path d="M4.68806 41.25C4.31306 41.25 3.93806 41.0625 3.84431 40.6875L0.563062 32.1562C0.375562 31.6875 0.563062 31.2188 1.03181 30.9375C1.50056 30.75 1.96931 30.8438 2.25056 31.2188C2.62556 31.875 3.37556 32.25 4.12556 32.25H55.8756C56.6256 32.25 57.3756 31.875 57.7506 31.2188C58.0318 30.8438 58.5006 30.6563 58.9693 30.9375C59.4381 31.125 59.6256 31.6875 59.4381 32.1562L56.1568 40.6875C55.9693 41.1563 55.4068 41.4375 54.9381 41.25C54.4693 41.0625 54.1881 40.5 54.3756 40.0313L56.6256 34.125C56.3443 34.2188 56.0631 34.2188 55.7818 34.2188H4.12556C3.84431 34.2188 3.56306 34.2188 3.28181 34.125L5.53181 40.0313C5.71931 40.5 5.43806 41.0625 4.96931 41.25H4.68806ZM45.7506 59.1562H14.2506C12.2818 59.1562 10.5006 57.9375 9.75056 56.0625L9.65681 55.6875C9.46931 55.2188 9.75056 54.6562 10.2193 54.4688C10.6881 54.2812 11.2506 54.5625 11.4381 55.0312L11.5318 55.4062C11.9068 56.5312 13.0318 57.2812 14.2506 57.2812H45.7506C46.9693 57.2812 48.0006 56.5312 48.4693 55.4062L48.5631 55.125C48.7506 54.6562 49.3131 54.375 49.7818 54.5625C50.2506 54.75 50.5318 55.3125 50.3443 55.7812L50.2506 56.1563C49.5943 57.9375 47.7193 59.1562 45.7506 59.1562ZM10.5006 53.5312C6.09431 53.5312 3.18806 50.4375 2.62556 45.1875C2.53181 44.4375 2.81306 43.6875 3.28181 43.125C3.93806 42.375 4.96931 42 6.00056 42.2812C6.46931 42.375 7.03181 42.375 7.59431 42.2812C8.15681 42.1875 8.71931 42.0938 9.28181 41.9063C10.2193 41.7188 11.1568 41.5312 12.0943 41.5312C13.9693 41.5312 15.1881 42.5625 15.6568 44.625C16.3131 47.625 15.9381 50.25 14.7193 51.8438C13.7818 52.875 12.3756 53.5312 10.5006 53.5312ZM5.53181 44.0625C5.25056 44.0625 4.96931 44.1563 4.78181 44.4375C4.68806 44.4375 4.50056 44.7188 4.59431 45C4.87556 47.5312 5.90681 51.6562 10.5943 51.6562C11.8131 51.6562 12.7506 51.2813 13.3131 50.5313C14.2506 49.4063 14.4381 47.25 13.9693 44.9063C13.6881 43.4063 13.0318 43.3125 12.2818 43.3125C11.6256 43.3125 10.7818 43.5 9.93806 43.6875C9.37556 43.7812 8.71931 43.9688 8.15681 44.0625C7.31306 44.1562 6.56306 44.1562 5.81306 44.0625H5.53181ZM49.5006 53.5312C47.7193 53.5312 46.2193 52.875 45.2818 51.6562C43.9693 50.0625 43.5943 47.4375 44.3443 44.4375C44.8131 42.375 45.9381 41.3438 47.9068 41.3438C48.7506 41.3438 49.6881 41.5312 50.7193 41.7188C51.2818 41.8125 51.8443 42 52.4068 42.0938C53.0631 42.1875 53.6256 42.1875 54.0006 42.0938C55.1256 41.9063 56.0631 42.1875 56.8131 42.9375C57.3756 43.5 57.5631 44.25 57.4693 45C56.8131 50.4375 53.9068 53.5312 49.5006 53.5312ZM47.8131 43.3125C47.0631 43.3125 46.4068 43.4063 46.1256 44.9063C45.5631 47.25 45.8443 49.4063 46.7818 50.5313C47.3443 51.2813 48.2818 51.6562 49.5006 51.6562C54.1881 51.6562 55.2193 47.4375 55.5006 45C55.5006 44.7188 55.4068 44.4375 55.3131 44.3438C55.0318 44.0625 54.6568 43.9688 54.2818 44.0625C53.6256 44.25 52.7818 44.25 51.9381 44.0625C51.3756 43.9688 50.7193 43.875 50.1568 43.6875C49.2193 43.5 48.4693 43.3125 47.8131 43.3125ZM30.0006 30.0937C24.6568 30.0937 20.2506 25.6875 20.2506 20.3438C20.2506 19.6875 20.3443 19.0313 20.4381 18.375C20.5318 17.9063 20.9068 17.625 21.3756 17.625H38.6256C39.0943 17.625 39.4693 17.9063 39.5631 18.375C39.6568 19.0313 39.7506 19.7813 39.7506 20.3438C39.7506 25.7813 35.3443 30.0937 30.0006 30.0937ZM22.2193 19.5C22.2193 19.7812 22.1256 20.0625 22.1256 20.3438C22.1256 24.6563 25.6881 28.2188 30.0006 28.2188C34.3131 28.2188 37.8756 24.6563 37.8756 20.3438C37.8756 20.0625 37.8756 19.7812 37.7818 19.5H22.2193Z" fill="white"/>
<path d="M41.4379 19.5H18.6567C18.0004 19.5 17.4379 19.2188 17.0629 18.6562C16.6879 18.1875 16.5942 17.5313 16.8754 16.9688C17.1567 16.3125 17.4379 15.75 18.0004 15.2812C18.8442 14.4375 19.9692 13.9688 21.2817 13.9688H39.0004C40.9692 13.9688 42.6567 15.1875 43.3129 17.0625C43.5004 17.625 43.4067 18.2813 43.1254 18.75C42.5629 19.2188 42.0004 19.5 41.4379 19.5ZM21.0942 15.8438C20.3442 15.8438 19.6879 16.125 19.2192 16.5938C18.9379 16.875 18.7504 17.25 18.5629 17.625L41.3442 17.5313C40.9692 16.5 39.9379 15.75 38.8129 15.75H21.0942V15.8438Z" fill="white"/>
<path d="M39.8438 15.8404H20.1562C19.5937 15.8404 19.2188 15.4654 19.2188 14.9029V14.4341C19.2188 11.1529 20.7187 8.05913 23.3437 5.99663C23.7187 5.71538 24.375 5.71538 24.6562 6.18413C24.9375 6.55913 24.8438 7.12163 24.4688 7.49663C22.4063 9.09038 21.1875 11.4341 21.0938 14.0591H38.9062C38.8125 11.8091 37.875 9.74663 36.2812 8.24663C36.0938 8.05913 35.8125 7.77788 35.5313 7.59038C35.1563 7.30913 35.0625 6.65288 35.3438 6.27788C35.625 5.90288 36.2812 5.80913 36.6562 6.09038C37.0312 6.37163 37.3125 6.65288 37.5937 6.93413C39.6562 8.99663 40.7812 11.7154 40.7812 14.5279V14.9966C40.7812 15.4654 40.4062 15.8404 39.8438 15.8404Z" fill="white"/>
<path d="M32.3438 10.0312C31.7812 10.0312 31.4062 9.65625 31.4062 9.09375V4.125C31.4062 3.375 30.75 2.71875 30 2.71875C29.25 2.71875 28.5938 3.375 28.5938 4.125V9.09375C28.5938 9.65625 28.2188 10.0312 27.6562 10.0312C27.0937 10.0312 26.7188 9.65625 26.7188 9.09375V4.125C26.7188 2.34375 28.2188 0.84375 30 0.84375C31.7812 0.84375 33.2812 2.34375 33.2812 4.125V9.09375C33.2812 9.5625 32.9062 10.0312 32.3438 10.0312Z" fill="white"/>
</g>
<defs>
<clipPath id="clip0_475_6510">
<rect width="60" height="60" fill="white"/>
</clipPath>
</defs>
</svg>
