<svg width="50" height="50" viewBox="0 0 50 50" fill="none" xmlns="http://www.w3.org/2000/svg">
<path d="M7.8125 43.75H42.1875" stroke="#CDA229" stroke-width="2" stroke-linecap="round" stroke-linejoin="round"/>
<path d="M21.8748 26.5625L18.3983 10.3516C18.2527 9.668 18.2618 8.96053 18.4249 8.28094C18.588 7.60134 18.901 6.96682 19.341 6.42383C19.7811 5.88083 20.3369 5.4431 20.968 5.14267C21.599 4.84225 22.2892 4.68673 22.9881 4.6875H27.0115C27.7104 4.68673 28.4007 4.84225 29.0317 5.14267C29.6627 5.4431 30.2186 5.88083 30.6586 6.42383C31.0986 6.96682 31.4117 7.60134 31.5748 8.28094C31.7379 8.96053 31.747 9.668 31.6014 10.3516L28.1248 26.5625" stroke="#CDA229" stroke-width="2" stroke-linecap="round" stroke-linejoin="round"/>
<path d="M40.625 26.5625H9.375C8.51206 26.5625 7.8125 27.2621 7.8125 28.125V35.9375C7.8125 36.8004 8.51206 37.5 9.375 37.5H40.625C41.4879 37.5 42.1875 36.8004 42.1875 35.9375V28.125C42.1875 27.2621 41.4879 26.5625 40.625 26.5625Z" stroke="#CDA229" stroke-width="2" stroke-linecap="round" stroke-linejoin="round"/>
</svg>
