<svg width="32" height="32" viewBox="0 0 32 32" fill="none" xmlns="http://www.w3.org/2000/svg">
<path d="M16 16L28 4" stroke="#CDA229" stroke-width="3" stroke-linecap="round" stroke-linejoin="round"/>
<path d="M24.4875 7.51138C22.3601 5.37757 19.5091 4.1202 16.4989 3.98813C13.4887 3.85606 10.5385 4.85891 8.2324 6.7982C5.92628 8.73749 4.43225 11.4719 4.04601 14.4602C3.65978 17.4484 4.40948 20.4728 6.14675 22.9347C7.88401 25.3966 10.4822 27.1166 13.4271 27.7542C16.372 28.3919 19.449 27.9007 22.049 26.3779C24.649 24.8551 26.5826 22.4117 27.4671 19.5313C28.3516 16.6509 28.1224 13.5434 26.825 10.8239" stroke="#CDA229" stroke-width="3" stroke-linecap="round" stroke-linejoin="round"/>
<path d="M20.2376 11.7634C19.2466 10.7752 17.9408 10.1654 16.547 10.0398C15.1531 9.91421 13.7594 10.2808 12.6077 11.076C11.4561 11.8712 10.6194 13.0446 10.2429 14.3925C9.86646 15.7404 9.97404 17.1775 10.547 18.4544C11.1199 19.7312 12.122 20.767 13.3792 21.3818C14.6363 21.9967 16.0692 22.1517 17.4288 21.82C18.7884 21.4884 19.9888 20.6909 20.8216 19.5662C21.6545 18.4415 22.067 17.0606 21.9876 15.6634" stroke="#CDA229" stroke-width="3" stroke-linecap="round" stroke-linejoin="round"/>
</svg>
