<svg width="60" height="60" viewBox="0 0 60 60" fill="none" xmlns="http://www.w3.org/2000/svg">
<path d="M30 42.1875C35.1777 42.1875 39.375 37.9902 39.375 32.8125C39.375 27.6348 35.1777 23.4375 30 23.4375C24.8223 23.4375 20.625 27.6348 20.625 32.8125C20.625 37.9902 24.8223 42.1875 30 42.1875Z" stroke="white" stroke-width="2" stroke-linecap="round" stroke-linejoin="round"/>
<path d="M45.9375 27.1875C48.1213 27.1839 50.2757 27.6906 52.2289 28.6672C54.1822 29.6438 55.8802 31.0633 57.1875 32.8125" stroke="white" stroke-width="2" stroke-linecap="round" stroke-linejoin="round"/>
<path d="M2.8125 32.8125C4.11984 31.0633 5.81784 29.6438 7.77107 28.6672C9.72431 27.6906 11.8787 27.1839 14.0625 27.1875" stroke="white" stroke-width="2" stroke-linecap="round" stroke-linejoin="round"/>
<path d="M16.5 50.6268C17.7347 48.0981 19.6549 45.967 22.0417 44.4764C24.4285 42.9857 27.1859 42.1953 30 42.1953C32.8141 42.1953 35.5715 42.9857 37.9583 44.4764C40.3451 45.967 42.2653 48.0981 43.5 50.6268" stroke="white" stroke-width="2" stroke-linecap="round" stroke-linejoin="round"/>
<path d="M14.0623 27.1875C12.6388 27.1889 11.2443 26.7852 10.0417 26.0236C8.83912 25.2619 7.87813 24.1738 7.27102 22.8862C6.6639 21.5987 6.43574 20.1649 6.61319 18.7526C6.79065 17.3402 7.36638 16.0074 8.27313 14.9101C9.17988 13.8128 10.3802 12.9961 11.7338 12.5556C13.0874 12.1151 14.5385 12.069 15.9174 12.4225C17.2963 12.776 18.5461 13.5147 19.5208 14.5521C20.4955 15.5896 21.1548 16.883 21.4217 18.2812" stroke="white" stroke-width="2" stroke-linecap="round" stroke-linejoin="round"/>
<path d="M38.5781 18.2812C38.845 16.883 39.5043 15.5896 40.479 14.5521C41.4537 13.5147 42.7035 12.776 44.0824 12.4225C45.4613 12.069 46.9124 12.1151 48.266 12.5556C49.6196 12.9961 50.8199 13.8128 51.7267 14.9101C52.6334 16.0074 53.2092 17.3402 53.3866 18.7526C53.5641 20.1649 53.3359 21.5987 52.7288 22.8862C52.1217 24.1738 51.1607 25.2619 49.9581 26.0236C48.7555 26.7852 47.361 27.1889 45.9375 27.1875" stroke="white" stroke-width="2" stroke-linecap="round" stroke-linejoin="round"/>
</svg>
