<svg width="60" height="60" viewBox="0 0 60 60" fill="none" xmlns="http://www.w3.org/2000/svg">
<path d="M7.03822 11.7649C8.07668 10.611 9.23053 9.57258 10.3844 8.88027C14.8844 6.34181 18.4613 8.41874 18.5767 13.4957C18.5767 18.688 14.9998 24.9187 10.4998 27.4572C5.99976 29.9957 2.42284 27.9187 2.30745 22.8418C2.07668 19.3803 4.03822 13.9572 7.03822 11.7649Z" fill="#F0F2F5"/>
<path d="M57.5772 46.1526C57.1157 47.3065 55.2695 47.5373 54.5772 46.4988C55.3849 47.4219 55.2695 49.0373 54.3465 49.9603C53.4234 50.8834 52.0388 51.1142 50.7695 50.768C49.5003 50.5373 48.3465 49.8449 47.308 49.1526C47.8849 50.9988 46.3849 53.1911 44.5388 53.3065C43.7311 53.3065 42.808 53.0757 42.0003 52.7296C37.6157 51.1142 33.2311 49.4988 28.8465 47.768C28.3849 48.4603 27.4618 48.5757 26.5388 48.4603C25.8465 48.4603 23.8849 47.8834 23.1926 47.6526C22.9618 47.6526 21.2311 46.845 20.4234 46.4988C15.9234 44.3065 12.1157 40.6142 9.69261 36.2296C9.23107 35.3065 8.76953 34.1526 8.65415 33.1142C8.42338 31.3834 9.11569 29.5373 8.65415 27.9219C8.53876 27.4603 8.30799 27.1142 8.07722 26.6526C7.61569 25.9603 7.03876 25.268 6.57722 24.5757C6.34645 24.2296 6.11568 23.8834 6.0003 23.5373C5.88492 23.1911 5.76953 23.0757 5.76953 22.845V22.4988C5.88492 18.6911 8.53876 14.1911 11.8849 12.2296C12.808 11.768 13.6157 11.4219 14.4234 11.4219H14.7695C15.9234 11.5373 16.9618 11.8834 18.0003 12.345C21.2311 13.6142 24.3465 14.8834 27.2311 16.7296C32.0772 19.845 35.7695 24.4603 40.5003 27.6911C44.4234 30.345 49.0388 32.0757 52.6157 35.3065C53.5388 36.1142 54.4618 37.268 54.4618 38.4219C54.4618 39.4603 53.308 40.3834 52.3849 40.268C53.8849 41.0757 55.3849 42.1142 56.5388 43.268C57.2311 44.0757 57.9234 45.1142 57.5772 46.1526Z" fill="white"/>
<path d="M52.3855 40.2662C52.3855 40.2662 50.1932 37.6124 39.924 33.8047L52.3855 40.2662ZM26.5394 48.4585C26.3086 48.4585 26.1932 48.4585 25.9624 48.3432C24.0009 47.8816 22.1547 47.3047 20.3086 46.3816C20.424 46.1508 20.7701 45.3432 21.1163 44.997C21.2317 44.8816 21.4624 44.7662 21.6932 44.6508C23.0778 44.0739 26.0778 44.7662 26.5394 46.1508V48.4585Z" fill="white"/>
<path d="M53.3081 40.3848C54.0004 40.154 54.6927 39.3463 54.6927 38.4232C54.6927 36.9232 53.6542 35.7694 52.7311 35.0771C51.5773 34.0386 50.3081 33.2309 49.0388 32.4232C48.9235 32.5386 48.8081 32.7694 48.6927 32.8848C49.9619 33.6925 51.2311 34.5002 52.385 35.5386C53.7696 36.8079 54.8081 38.5386 53.4235 39.6925C53.0773 39.9232 52.7311 40.0386 52.5004 40.0386C50.885 38.5386 48.3465 37.154 45.6927 35.8848C45.5773 36.0002 45.3465 36.1156 45.2311 36.2309C50.885 38.7694 52.1542 40.3848 52.2696 40.5002C53.7696 41.3079 55.1542 42.2309 56.3081 43.5002C58.9619 46.3848 56.0773 47.5386 55.0388 46.5002C55.0388 46.3848 54.9235 46.2694 54.8081 46.2694C52.5004 43.5002 46.0388 40.5002 41.1927 38.5386C40.8465 38.654 40.6158 38.7694 40.2696 38.7694C51.4619 43.154 54.1158 46.3848 54.3465 46.6156C54.4619 46.7309 54.4619 46.8463 54.5773 46.8463C55.1542 47.7694 54.8081 49.0386 54.1158 49.7309C53.3081 50.5386 52.0388 50.7694 50.7696 50.5386C49.6158 50.3079 48.6927 49.7309 47.5388 48.9232C47.3081 48.4617 44.1927 44.3079 32.3081 39.8079C32.1927 39.8079 31.9619 39.8079 31.9619 40.0386C31.8465 40.154 31.9619 40.3848 32.0773 40.3848C43.385 44.5386 46.6158 48.5771 47.0773 49.154C47.6542 50.7694 46.1542 52.7309 44.5388 52.8463C43.5004 52.8463 43.6158 52.8463 29.1927 47.4232C29.4235 46.3848 29.3081 45.3463 28.9619 44.0771C28.6158 43.0386 27.9235 42.0002 27.0004 41.0771C25.8465 39.8079 24.2311 38.8848 22.6158 38.0771C22.5004 37.9617 20.7696 37.5002 19.9619 35.5386C19.8465 35.4232 19.7311 35.3079 19.6158 35.4232C19.5004 35.5386 19.385 35.654 19.5004 35.7694C20.4235 37.8463 22.2696 38.4232 22.5004 38.5386C25.0388 39.8079 27.4619 41.4232 28.5004 44.1925C28.8465 45.3463 28.9619 46.5002 28.7311 47.4232C28.385 47.8848 27.6927 48.0002 27.0004 48.0002V46.6156C26.885 45.3463 26.1927 44.7694 24.9235 44.3079C22.9619 43.6156 21.0004 43.8463 20.4235 45.8079C16.0388 43.6156 12.3465 40.0386 10.1542 35.7694C7.61576 30.9232 10.6158 29.8848 8.42345 26.1925C7.61576 24.8079 6.23114 23.4232 6.23114 22.2694C6.34653 18.5771 9.00038 14.1925 12.1158 12.2309C13.0388 11.7694 13.9619 11.4232 14.885 11.5386C15.1158 11.654 15.1158 11.1925 19.0388 12.8079C21.8081 13.9617 24.6927 15.1155 27.3465 16.8463C28.1542 17.3079 28.8465 17.8848 29.5388 18.3463C29.6542 18.2309 29.6542 18.0002 29.7696 17.7694C29.0773 17.1925 28.385 16.7309 27.6927 16.2694C24.9235 14.5386 21.9235 13.2694 19.0388 12.1155C18.5773 10.3848 17.6542 8.88478 16.2696 8.07709C14.6542 7.15401 12.4619 7.38478 10.2696 8.65401C9.00038 9.34632 7.84653 10.2694 6.80807 11.5386C6.69268 11.654 6.69268 11.8848 6.80807 11.8848C6.92345 12.0002 7.15422 12.0002 7.26961 11.8848C8.30807 10.7309 9.46191 9.80786 10.6158 9.11555C12.6927 7.9617 14.6542 7.73093 16.0388 8.53863C17.1927 9.23093 17.885 10.5002 18.1158 12.1155H18.0004C15.3465 11.0771 13.9619 10.6155 11.5388 12.0002C8.19268 13.9617 5.42345 18.5771 5.30807 22.5002C5.30807 24.0002 6.69268 25.3848 7.61576 26.7694C8.0773 27.3463 8.19268 27.6925 8.30807 28.154C7.03884 28.5002 5.76961 28.3848 4.84653 27.8079C3.34653 27.0002 2.65422 25.2694 2.65422 22.8463C2.65422 22.7309 2.53884 22.5002 2.30807 22.5002C2.19268 22.5002 1.96191 22.6155 1.96191 22.8463C1.96191 25.3848 2.88499 27.3463 4.50038 28.2694C5.19268 28.6156 5.88499 28.8463 6.69268 28.8463C7.15422 28.8463 7.73114 28.7309 8.30807 28.6156C8.53884 31.2694 7.26961 32.3079 9.34653 36.1156C11.6542 40.6156 15.5773 44.3079 20.1927 46.5002C23.0773 47.8848 25.9619 48.5771 26.5388 48.5771C27.5773 48.6925 28.385 48.4617 28.8465 48.0002C46.7311 54.8079 42.4619 53.0771 44.4235 53.4232C46.2696 53.3079 47.7696 51.4617 47.6542 49.6156C48.6927 50.3079 49.6158 50.7694 50.6542 51.0002C53.6542 51.5771 55.8465 49.6156 55.385 47.3079C56.4235 47.5386 57.5773 47.1925 57.9235 46.154C58.6158 44.0771 55.1542 41.5386 53.3081 40.3848ZM26.1927 48.1156C25.9619 48.1156 25.0388 47.8848 24.3465 47.654C24.1158 47.654 21.9235 46.8463 20.7696 46.2694C21.1158 45.5771 21.2311 45.2309 21.8081 45.0002C23.0773 44.4232 25.8465 45.1156 26.1927 46.3848V48.1156Z" fill="#405FCE"/>
<path d="M43.3855 11.1893L38.3086 8.30469V21.4585L43.3855 24.3431V11.1893Z" fill="white"/>
<path d="M51.4623 28.9639L45.1161 25.2716L36.9238 20.6562L43.3854 24.3486L51.4623 28.9639Z" fill="white"/>
<path d="M43.3848 24.3456L38.3078 21.4609L26.8848 28.0379L31.9617 31.0379L43.3848 24.3456Z" fill="white"/>
<path d="M43.385 24.3438L31.9619 30.9207C31.9619 38.1899 37.1542 41.0745 43.385 37.4976C46.5004 35.6514 49.385 32.5361 51.4619 28.9591L43.385 24.3438Z" fill="#F0F2F5"/>
<path d="M30.2309 35.4211L35.3078 38.3057C33.2309 37.1518 31.9617 34.6134 31.9617 30.9211L26.8848 28.0365C26.8848 31.6134 28.154 34.1518 30.2309 35.4211ZM51.4617 10.3826L46.3848 7.498C44.3078 6.34415 41.4232 6.45953 38.3078 8.30569L43.3848 11.1903C46.5002 9.34415 49.3848 9.22876 51.4617 10.3826Z" fill="white"/>
<path d="M43.3848 11.1964V24.3502L51.4617 28.9656C53.5386 25.3887 54.8078 21.3502 54.8078 17.7733C54.8078 10.5041 49.6155 7.61947 43.3848 11.1964Z" fill="white"/>
<path d="M43.3848 11.1893L38.3078 8.30469C31.9617 11.997 26.8848 20.7662 26.8848 28.0355L31.9617 30.9201C31.9617 23.7662 37.0386 14.8816 43.3848 11.1893Z" fill="#F0F2F5"/>
<path d="M43.385 11.1953C37.0388 14.8876 31.9619 23.6568 31.9619 30.9261L43.385 24.3492V11.1953Z" fill="white"/>
<path d="M51.5774 10.154C51.1158 9.80783 53.4235 11.1924 46.5004 7.26937C42.8081 5.19244 38.1928 7.50013 34.962 10.2694C34.8466 10.3847 34.8466 10.6155 34.962 10.7309C35.0774 10.8463 35.3081 10.8463 35.3081 10.7309C36.3466 9.80783 37.1543 9.2309 38.1928 8.65398C38.3081 8.76937 42.9235 11.4232 42.6928 11.3078C39.8081 13.0386 36.1158 16.8463 33.9235 21.6924C32.7697 24.0001 31.7312 27.2309 31.6158 30.5771C31.5004 30.4617 26.8851 27.8078 27.1158 28.0386C27.1158 24.2309 28.7312 18.9232 32.1928 14.4232C32.3081 14.3078 32.3081 14.0771 32.1928 14.0771C32.0774 13.9617 31.8466 13.9617 31.8466 14.0771C28.6158 18.4617 26.6543 23.7694 26.6543 28.2694C26.6543 31.8463 27.9235 34.6155 30.1158 35.8848L35.1928 38.7694H35.3081C37.8466 40.2694 41.0774 39.4617 43.7312 37.9617C46.8466 36.1155 49.7312 33.1155 51.9235 29.3078C54.1158 25.5001 55.2697 21.4617 55.2697 18.0001C55.0389 14.1924 53.8851 11.5386 51.5774 10.154ZM51.3466 10.7309C53.4235 12.0001 54.5774 14.4232 54.5774 17.8848C54.5774 21.2309 53.4235 25.154 51.462 28.7309C51.3466 28.6155 43.2697 24.0001 43.7312 24.2309V11.5386C45.9235 10.0386 49.0389 9.34629 51.3466 10.7309ZM38.8851 8.30783C41.6543 6.80783 44.3081 6.57706 46.2697 7.7309L49.0389 9.34629C47.0774 9.11552 45.0004 9.92321 43.2697 10.8463L38.8851 8.30783ZM34.5004 21.8078C36.1158 18.2309 39.3466 13.9617 43.0389 11.7694V24.2309C29.4235 32.0771 32.6543 30.2309 32.1928 30.4617C32.4235 27.3463 33.2312 24.3463 34.5004 21.8078ZM30.3466 35.1924C28.3851 34.0386 27.2312 31.7309 27.1158 28.6155L31.5004 31.154C31.5004 31.7309 31.5004 32.3078 31.6158 32.7694C31.8466 34.5001 32.4235 35.8848 33.1158 36.8078L30.3466 35.1924ZM43.2697 37.2694C40.2697 39.0001 37.5005 39.2309 35.4235 38.0771C33.5774 37.0386 32.5389 34.8463 32.4235 32.8848C32.3081 32.3078 32.3081 31.7309 32.3081 31.154L43.5005 24.6924L51.2312 29.0771C49.0389 32.654 46.2697 35.5386 43.2697 37.2694Z" fill="#030E17"/>
</svg>
