<svg width="200" height="200" viewBox="0 0 200 200" fill="none" xmlns="http://www.w3.org/2000/svg">
<mask id="path-1-inside-1_516_10839" fill="white">
<path d="M117.816 159.012C118.715 158.489 119.484 157.743 120.094 156.786C120.273 156.504 120.437 156.204 120.59 155.887C120.703 155.649 120.809 155.399 120.906 155.141C120.988 154.918 121.066 154.688 121.137 154.45C121.199 154.231 121.258 154.008 121.312 153.778C121.359 153.567 121.402 153.352 121.441 153.133C121.477 152.926 121.508 152.719 121.535 152.504C121.587 152.088 121.622 151.67 121.641 151.251C121.648 151.043 121.656 150.829 121.656 150.614V150.575C121.656 150.379 121.652 150.18 121.648 149.981C121.641 149.77 121.633 149.559 121.617 149.344C121.605 149.133 121.586 148.918 121.566 148.704C121.547 148.489 121.523 148.274 121.496 148.059C121.469 147.84 121.437 147.618 121.402 147.399C121.367 147.176 121.328 146.958 121.289 146.735C121.246 146.508 121.199 146.278 121.148 146.047C121.098 145.817 121.043 145.586 120.988 145.36C120.93 145.125 120.871 144.895 120.805 144.661C120.742 144.43 120.672 144.196 120.602 143.965C120.531 143.739 120.461 143.512 120.383 143.286C120.309 143.063 120.23 142.836 120.148 142.614C120.07 142.399 119.988 142.184 119.906 141.969C119.824 141.754 119.738 141.543 119.648 141.329C119.562 141.118 119.473 140.907 119.379 140.7C119.182 140.252 118.974 139.809 118.754 139.372C118.424 138.713 118.072 138.066 117.699 137.43C117.389 136.902 117.064 136.384 116.723 135.875C116.278 135.205 115.805 134.553 115.305 133.922C115.137 133.711 114.969 133.501 114.797 133.293C114.629 133.094 114.461 132.895 114.289 132.7C114.121 132.508 113.949 132.317 113.777 132.133C113.602 131.942 113.422 131.754 113.238 131.571C113.055 131.383 112.871 131.204 112.684 131.024C112.598 130.942 112.512 130.864 112.426 130.786L121.723 125.383V125.348C121.723 125.157 121.727 124.969 121.738 124.782C121.746 124.598 121.758 124.415 121.773 124.235C121.789 124.055 121.809 123.879 121.828 123.708C121.852 123.536 121.875 123.368 121.906 123.2C121.945 122.985 121.988 122.778 122.035 122.571C122.132 122.156 122.256 121.747 122.406 121.348C122.516 121.055 122.641 120.77 122.773 120.497C122.93 120.184 123.098 119.883 123.285 119.594C123.699 118.946 124.207 118.379 124.754 117.836L137.176 110.618C140.02 108.965 142.723 106.895 144.738 103.782C145.145 103.157 145.52 102.489 145.867 101.774C146.129 101.227 146.375 100.657 146.598 100.055C146.762 99.6099 146.918 99.145 147.062 98.6646C147.203 98.1919 147.332 97.6997 147.445 97.1958C147.543 96.7739 147.629 96.3403 147.707 95.8911C147.785 95.4458 147.855 94.9849 147.914 94.5122C147.969 94.063 148.02 93.606 148.059 93.1333C148.098 92.6763 148.125 92.2114 148.145 91.731C148.164 91.2544 148.176 90.7622 148.18 90.2583V90.1685C148.18 89.645 148.176 89.1177 148.156 88.5864C148.124 87.4502 148.052 86.3154 147.941 85.1841C147.887 84.6138 147.824 84.0396 147.75 83.4653C147.676 82.8794 147.594 82.2935 147.5 81.7036C147.406 81.1138 147.305 80.5239 147.195 79.9302C147.082 79.3208 146.957 78.7114 146.824 78.1021C146.691 77.4888 146.547 76.8794 146.395 76.2661C146.087 75.018 145.743 73.7792 145.363 72.5513C145.18 71.9458 144.984 71.3403 144.781 70.7388C144.582 70.1411 144.375 69.5474 144.156 68.9497C143.949 68.3755 143.734 67.8013 143.512 67.231C143.289 66.6606 143.062 66.0942 142.828 65.5278C142.598 64.9692 142.355 64.4106 142.109 63.856C141.583 62.6604 141.029 61.4777 140.445 60.3091C140.094 59.6021 139.73 58.8989 139.359 58.2036C138.805 57.1646 138.227 56.1372 137.629 55.1216C136.801 53.7153 135.934 52.3286 135.027 50.9771C134.309 49.9028 133.566 48.8481 132.805 47.813C132.293 47.1216 131.773 46.438 131.246 45.7661C130.801 45.1997 130.352 44.645 129.895 44.0942C129.016 43.0373 128.11 42.0044 127.176 40.9966C126.703 40.4849 126.223 39.9849 125.738 39.4927C125.253 38.9979 124.759 38.5108 124.258 38.0317C123.253 37.0685 122.219 36.137 121.156 35.2388C120.641 34.8052 120.121 34.3794 119.598 33.9653C118.602 33.1776 117.581 32.4233 116.535 31.7036C116.043 31.3638 115.547 31.0356 115.047 30.7192C114.555 30.4067 114.059 30.1021 113.562 29.8091C113.449 29.7427 113.332 29.6763 113.219 29.6099C112.844 29.395 112.473 29.188 112.102 28.9849C111.621 28.7231 111.141 28.4771 110.664 28.2388C110.187 28.0044 109.715 27.7817 109.242 27.5708C108.77 27.3599 108.305 27.1606 107.84 26.9771C107.363 26.7856 106.891 26.6099 106.422 26.4458C105.949 26.2817 105.48 26.1255 105.016 25.9849C104.527 25.8364 104.043 25.7036 103.566 25.5864C103.082 25.4653 102.602 25.3599 102.129 25.2661C101.613 25.1646 101.098 25.0825 100.594 25.0122C100.066 24.9419 99.5469 24.8872 99.0312 24.8521C98.4727 24.813 97.9258 24.7935 97.3828 24.7974C96.7656 24.8013 96.1602 24.8286 95.5625 24.8833C94.875 24.9458 94.1992 25.0435 93.5391 25.1763C92.6953 25.3442 91.875 25.5708 91.0859 25.8521C90.0937 26.2036 89.1445 26.6411 88.2461 27.1646L62.1055 42.356C62.125 42.3442 62.1445 42.3364 62.1641 42.3247C62.5898 42.0786 63.0234 41.8521 63.4727 41.645C63.543 41.6138 63.6172 41.5864 63.6914 41.5552C64.0703 41.3872 64.4531 41.2271 64.8477 41.0825C64.8828 41.0708 64.9141 41.0552 64.9492 41.0435C65.207 40.9497 65.4727 40.8755 65.7383 40.7935C65.8594 40.7583 65.9805 40.7114 66.1055 40.6763C66.5312 40.5591 66.9609 40.4536 67.4023 40.3638C67.4062 40.3638 67.4141 40.3638 67.418 40.3599C68.0039 40.2427 68.6094 40.1606 69.2187 40.0981C69.2891 40.0903 69.3555 40.0747 69.4258 40.0669C69.543 40.0552 69.6641 40.0591 69.7852 40.0513C70.1484 40.0239 70.5195 40.0083 70.8906 40.0005C71.0117 39.9966 71.125 39.9849 71.2461 39.9849C71.3437 39.9849 71.4414 39.9927 71.5391 39.9927C71.832 39.9966 72.1289 40.0083 72.4258 40.02C72.582 40.0278 72.7383 40.0239 72.8945 40.0356C72.9805 40.0435 73.0703 40.0552 73.1562 40.063C73.4102 40.0825 73.6641 40.1138 73.9219 40.1411C74.1016 40.1606 74.2734 40.1724 74.4531 40.1958C74.5469 40.2075 74.6484 40.231 74.7422 40.2427C74.9805 40.2778 75.2227 40.3208 75.4609 40.3599C75.6367 40.3911 75.8086 40.4106 75.9883 40.4458C76.1094 40.4692 76.2344 40.5005 76.3555 40.5278C76.5625 40.5708 76.7695 40.6177 76.9766 40.6646C77.1289 40.6997 77.2773 40.7271 77.4258 40.7661C77.5937 40.8091 77.7695 40.8638 77.9375 40.9067C78.1445 40.9614 78.3477 41.0161 78.5586 41.0786C78.6641 41.1099 78.7695 41.1333 78.875 41.1646C79.1289 41.2427 79.3828 41.3286 79.6367 41.4146C79.7969 41.4692 79.957 41.5161 80.1211 41.5747C80.1758 41.5942 80.2266 41.606 80.2773 41.6255C80.7461 41.7896 81.2187 41.9692 81.6953 42.1567C81.7031 42.1606 81.707 42.1606 81.7148 42.1646C81.7539 42.1802 81.793 42.1958 81.8281 42.2114C82.25 42.3833 82.6719 42.5591 83.0977 42.7505C83.1719 42.7817 83.2461 42.8208 83.3203 42.856C83.4922 42.9341 83.6641 43.0161 83.832 43.0981C84.0586 43.2075 84.2852 43.3052 84.5156 43.4185C84.6641 43.4927 84.8164 43.5747 84.9648 43.6528C85.1562 43.7505 85.3516 43.8521 85.543 43.9536C85.6797 44.0239 85.8164 44.0903 85.9531 44.1646C86.3203 44.3638 86.6914 44.5708 87.0625 44.7856C87.0664 44.7856 87.0664 44.7896 87.0703 44.7896H87.0742L87.4141 44.9888C87.8711 45.2583 88.3242 45.5356 88.7773 45.8247C88.8125 45.8481 88.8477 45.8677 88.8867 45.8911C88.8906 45.895 88.8945 45.895 88.8984 45.8989C89.3984 46.2153 89.8945 46.5435 90.3867 46.8833C90.4375 46.9185 90.4844 46.9536 90.5352 46.9888C90.7187 47.1177 90.9023 47.2505 91.0898 47.3833C91.3633 47.5786 91.6406 47.77 91.9141 47.9692C92.0039 48.0356 92.0937 48.1099 92.1836 48.1763C92.4062 48.3403 92.6289 48.5122 92.8477 48.6841C93.0469 48.8403 93.25 48.9888 93.4531 49.145C93.5742 49.2427 93.6953 49.3442 93.8203 49.4419C94.0586 49.6333 94.2969 49.8286 94.5351 50.0239C94.6953 50.1567 94.8555 50.2817 95.0156 50.4146C95.1641 50.5396 95.3086 50.6724 95.457 50.7974C95.6992 51.0044 95.9414 51.2153 96.1797 51.4302C96.3125 51.5474 96.4453 51.6567 96.5742 51.7739C96.7422 51.9224 96.9023 52.0825 97.0703 52.2349C97.3125 52.4575 97.5508 52.6802 97.793 52.9067C97.9023 53.0083 98.0117 53.106 98.1172 53.2075C98.3086 53.3911 98.4961 53.5825 98.6836 53.77C98.9023 53.9849 99.125 54.2036 99.3437 54.4224C99.4258 54.5083 99.5117 54.5864 99.5937 54.6724C99.8164 54.8989 100.035 55.1372 100.254 55.3677C100.457 55.5786 100.66 55.7896 100.863 56.0044C100.918 56.063 100.973 56.1177 101.027 56.1763C101.32 56.4927 101.605 56.8169 101.895 57.1372C102.039 57.2974 102.184 57.4536 102.324 57.6138C102.806 58.1603 103.28 58.7138 103.746 59.2739C103.75 59.2778 103.754 59.2856 103.762 59.2896C103.84 59.3833 103.914 59.4771 103.988 59.5708C104.234 59.8677 104.477 60.1724 104.719 60.4731C106.094 62.1919 107.406 63.981 108.652 65.8286C108.727 65.938 108.809 66.0435 108.883 66.1528C108.926 66.2192 108.965 66.2856 109.008 66.3521C109.812 67.563 110.582 68.7935 111.328 70.0474C111.379 70.1333 111.437 70.2114 111.484 70.2974C111.527 70.3716 111.566 70.4497 111.613 70.5239C112.137 71.4185 112.641 72.3169 113.129 73.2271C113.156 73.2778 113.187 73.3286 113.215 73.3794C113.363 73.6567 113.504 73.938 113.648 74.2192C113.832 74.5747 114.02 74.9263 114.199 75.2856C114.234 75.3521 114.27 75.4185 114.301 75.4849C114.516 75.9106 114.719 76.3442 114.926 76.7739C115.004 76.938 115.086 77.1021 115.164 77.2661L115.199 77.3364C115.465 77.8989 115.719 78.4653 115.969 79.0317C115.996 79.0903 116.02 79.1528 116.047 79.2114C116.125 79.3872 116.195 79.5591 116.27 79.7349C116.41 80.0591 116.551 80.3794 116.684 80.7036C116.719 80.7896 116.754 80.8794 116.789 80.9692H116.785C116.812 81.0317 116.84 81.0981 116.867 81.1606C116.871 81.1724 116.875 81.1802 116.879 81.1919L117.148 81.8599C117.223 82.0435 117.297 82.2231 117.367 82.4067C117.477 82.6919 117.582 82.981 117.691 83.2661C117.766 83.4692 117.844 83.6685 117.918 83.8716C117.949 83.9575 117.984 84.0396 118.012 84.1255C118.203 84.6567 118.387 85.1841 118.566 85.7153C118.586 85.7739 118.609 85.8325 118.629 85.8911C118.633 85.8989 118.633 85.9067 118.637 85.9146C118.84 86.52 119.031 87.1216 119.219 87.7271C119.238 87.7896 119.254 87.8481 119.273 87.9106C119.34 88.1294 119.402 88.3481 119.465 88.5669C119.562 88.9028 119.668 89.2427 119.762 89.5786C119.797 89.7036 119.828 89.8286 119.859 89.9536C119.93 90.2114 119.996 90.4692 120.062 90.731C120.125 90.9692 120.191 91.2036 120.25 91.4419C120.297 91.6372 120.34 91.8325 120.387 92.0278C120.449 92.2856 120.508 92.5396 120.566 92.7974C120.602 92.9575 120.645 93.1177 120.68 93.2778C120.742 93.563 120.797 93.8521 120.855 94.1372C120.902 94.3716 120.953 94.606 121 94.8403C121.016 94.9302 121.039 95.02 121.055 95.106C121.148 95.5981 121.23 96.0903 121.309 96.5825C121.324 96.6685 121.34 96.7544 121.352 96.8364C121.355 96.8481 121.355 96.8638 121.359 96.8755C121.453 97.4653 121.535 98.0513 121.609 98.6372C121.617 98.6997 121.621 98.7622 121.629 98.8208C121.652 99.0083 121.672 99.1958 121.691 99.3794C121.727 99.7036 121.77 100.028 121.801 100.352C121.816 100.5 121.824 100.649 121.836 100.801C121.855 101.028 121.871 101.25 121.891 101.473C121.906 101.668 121.926 101.864 121.937 102.059C121.953 102.313 121.961 102.563 121.973 102.813C121.984 103.028 121.996 103.239 122.004 103.454C122.008 103.555 122.016 103.653 122.02 103.754C122.035 104.286 122.043 104.813 122.043 105.336V105.426C122.039 105.93 122.027 106.418 122.008 106.899C122 107.118 121.98 107.329 121.969 107.543L121.945 107.942C121.937 108.059 121.934 108.184 121.922 108.297C121.883 108.77 121.836 109.227 121.777 109.676C121.77 109.75 121.754 109.817 121.746 109.891C121.73 110.016 121.707 110.141 121.691 110.266C121.652 110.532 121.617 110.801 121.57 111.059C121.523 111.329 121.465 111.586 121.41 111.848C121.387 111.958 121.367 112.071 121.344 112.18C121.332 112.239 121.32 112.301 121.309 112.364C121.191 112.872 121.066 113.36 120.926 113.833L120.902 113.903C120.871 114.012 120.828 114.114 120.797 114.223C120.691 114.563 120.582 114.899 120.465 115.223C120.438 115.297 120.402 115.364 120.371 115.438C120.242 115.774 120.102 116.09 119.957 116.407C119.879 116.579 119.812 116.77 119.73 116.938C119.699 117.004 119.664 117.063 119.633 117.125C119.574 117.239 119.516 117.348 119.457 117.458C119.273 117.809 119.086 118.145 118.887 118.473C118.824 118.575 118.766 118.676 118.703 118.778C118.668 118.833 118.637 118.891 118.602 118.946C118.406 119.247 118.203 119.532 117.996 119.813C117.953 119.872 117.91 119.938 117.867 119.997C117.594 120.356 117.312 120.696 117.023 121.028C116.855 121.219 116.68 121.403 116.504 121.586C116.379 121.715 116.258 121.848 116.129 121.973C115.922 122.18 115.711 122.379 115.496 122.575C115.453 122.614 115.41 122.661 115.363 122.7L115.34 122.715C114.796 123.196 114.231 123.651 113.645 124.079C113.465 124.208 113.281 124.325 113.102 124.45C112.684 124.739 112.27 125.024 111.84 125.29C111.648 125.407 111.453 125.52 111.258 125.633C110.816 125.895 110.379 126.149 109.934 126.391C109.781 126.473 109.629 126.555 109.473 126.637C106.875 128.016 104.246 129.153 101.984 130.485C101.531 130.751 101.09 131.024 100.668 131.313C100.625 131.34 100.586 131.372 100.547 131.403C100.176 131.661 99.8203 131.934 99.4766 132.215L99.1602 132.485C98.8477 132.758 98.5547 133.043 98.2773 133.34C98.2187 133.403 98.1602 133.458 98.1016 133.52C97.7852 133.875 97.4961 134.258 97.2344 134.657C97.1172 134.833 97.0117 135.016 96.9062 135.2C96.8359 135.321 96.7617 135.442 96.6992 135.567C96.5391 135.883 96.3906 136.208 96.2617 136.551C96.2539 136.571 96.25 136.59 96.2422 136.61C96.1094 136.977 95.9922 137.36 95.8984 137.762C95.8945 137.774 95.8945 137.786 95.8906 137.797C95.8008 138.196 95.7266 138.614 95.6797 139.051L95.668 139.149C95.6192 139.615 95.5931 140.083 95.5898 140.551L85.6289 134.801L73.0391 142.118L73.0625 142.106C73.3828 141.922 73.7187 141.766 74.0703 141.641C74.082 141.637 74.0938 141.629 74.1055 141.625C74.4023 141.52 74.707 141.434 75.0234 141.372H75.0312C75.043 141.368 75.0586 141.368 75.0703 141.368C75.3008 141.325 75.5391 141.286 75.7812 141.266C75.8594 141.258 75.9414 141.258 76.0234 141.254C76.0937 141.25 76.1602 141.247 76.2305 141.247C76.3086 141.243 76.3828 141.235 76.4648 141.235C76.668 141.235 76.875 141.239 77.082 141.254C77.1289 141.258 77.1758 141.266 77.2227 141.27L77.3555 141.282C77.4609 141.293 77.5625 141.301 77.668 141.313C77.8594 141.34 78.0508 141.372 78.2422 141.407C78.3047 141.418 78.3672 141.434 78.4297 141.45C78.4687 141.458 78.5078 141.465 78.5469 141.477C78.625 141.497 78.7031 141.508 78.7812 141.528C78.9609 141.575 79.1406 141.622 79.3242 141.676C79.4492 141.715 79.5742 141.758 79.7031 141.801L79.7734 141.825L79.8516 141.848C80.0273 141.911 80.2031 141.977 80.3828 142.047C80.5586 142.118 80.7344 142.192 80.9102 142.27C80.9453 142.286 80.9844 142.305 81.0195 142.321C81.0469 142.333 81.0781 142.348 81.1055 142.36C81.2187 142.411 81.3281 142.461 81.4414 142.52C81.6211 142.61 81.8008 142.7 81.9805 142.797C82.1211 142.872 82.2578 142.95 82.3984 143.032C82.4414 143.055 82.4844 143.083 82.5273 143.106C82.7148 143.215 82.8984 143.329 83.0859 143.446C83.2734 143.567 83.4609 143.688 83.6445 143.817C83.668 143.833 83.6914 143.852 83.7148 143.868C83.7422 143.887 83.7656 143.903 83.7891 143.922C83.9297 144.02 84.0742 144.122 84.2148 144.223C84.4102 144.368 84.6016 144.512 84.793 144.665C84.8594 144.715 84.9219 144.77 84.9844 144.821L85.1172 144.93C85.2031 145 85.293 145.071 85.3789 145.145C85.5742 145.309 85.7695 145.481 85.9648 145.657C86.0547 145.739 86.1445 145.825 86.2344 145.907L86.3711 146.032C86.4297 146.086 86.4883 146.137 86.543 146.192C86.7305 146.372 86.9141 146.555 87.0977 146.739C87.2187 146.864 87.3398 146.989 87.4609 147.118C87.4922 147.149 87.5195 147.18 87.5508 147.211C87.5781 147.243 87.6094 147.27 87.6367 147.301C87.8086 147.489 87.9805 147.676 88.1484 147.868C88.3203 148.063 88.4883 148.262 88.6562 148.461L88.6641 148.469L88.6758 148.481C88.8398 148.68 89.0039 148.883 89.168 149.086C89.3672 149.34 89.5625 149.594 89.7539 149.852L89.7578 149.856C90.043 150.243 90.3203 150.637 90.5859 151.036C90.6172 151.079 90.6406 151.125 90.6719 151.172C90.8555 151.45 91.0273 151.731 91.1992 152.012C91.3203 152.208 91.4453 152.395 91.5625 152.59C91.5898 152.633 91.6133 152.68 91.6406 152.727C91.707 152.84 91.7695 152.958 91.8359 153.071C91.9609 153.293 92.0937 153.52 92.2148 153.747C92.3125 153.93 92.4062 154.114 92.5 154.297C92.5234 154.34 92.5469 154.387 92.5703 154.43C92.5859 154.465 92.6055 154.501 92.625 154.532C92.7383 154.762 92.8516 154.993 92.9609 155.223C93.0586 155.434 93.1562 155.649 93.25 155.86C93.2617 155.891 93.2773 155.922 93.2891 155.95C93.3008 155.977 93.3125 156.008 93.3242 156.036C93.3906 156.188 93.457 156.336 93.5195 156.489C93.6094 156.7 93.6953 156.915 93.7773 157.129C93.832 157.27 93.8828 157.411 93.9375 157.551C93.9492 157.586 93.9609 157.618 93.9766 157.653C93.9922 157.692 94.0078 157.735 94.0234 157.774C94.1055 157.997 94.1836 158.219 94.2578 158.446C94.332 158.672 94.4062 158.899 94.4766 159.125C94.4844 159.157 94.4961 159.188 94.5039 159.219C94.5117 159.251 94.5234 159.282 94.5312 159.313C94.6528 159.712 94.7635 160.115 94.8633 160.52L94.9336 160.825L94.9687 160.969C94.9883 161.051 95.0078 161.129 95.0234 161.211C95.0742 161.442 95.1211 161.668 95.1641 161.899C95.2031 162.106 95.2383 162.317 95.2734 162.524C95.2734 162.532 95.2773 162.54 95.2773 162.547C95.2773 162.555 95.2812 162.559 95.2812 162.563C95.3498 162.996 95.4045 163.431 95.4453 163.868C95.4531 163.942 95.457 164.016 95.4648 164.09L95.4766 164.219L95.5 164.508C95.5117 164.723 95.5234 164.934 95.5312 165.145C95.5391 165.344 95.5391 165.543 95.5391 165.739V165.778C95.5363 166.198 95.518 166.617 95.4844 167.036C95.4805 167.09 95.4726 167.141 95.4687 167.192L95.457 167.317L95.4219 167.668C95.3945 167.883 95.3633 168.09 95.3281 168.297C95.3125 168.383 95.293 168.465 95.2773 168.551C95.2656 168.602 95.2578 168.657 95.2461 168.708L95.1992 168.942C95.1484 169.172 95.0898 169.395 95.0234 169.614C95.0039 169.68 94.9805 169.739 94.9609 169.805C94.9414 169.872 94.918 169.938 94.8945 170.001C94.8594 170.102 94.832 170.208 94.793 170.305C94.707 170.54 94.6094 170.766 94.5078 170.985C94.5 171.001 94.4922 171.02 94.4844 171.036C94.4805 171.04 94.4805 171.047 94.4766 171.051C94.3242 171.368 94.1601 171.668 93.9805 171.95C93.9727 171.965 93.9609 171.977 93.9492 171.993C93.9141 172.047 93.875 172.094 93.8359 172.149C93.6836 172.372 93.5195 172.586 93.3477 172.786C93.2812 172.864 93.2109 172.938 93.1445 173.008C92.9805 173.18 92.8125 173.34 92.6367 173.493C92.5703 173.551 92.5078 173.61 92.4375 173.665C92.2031 173.852 91.957 174.024 91.6992 174.172L117.816 159.012Z"/>
</mask>
<path d="M117.816 159.012C118.715 158.489 119.484 157.743 120.094 156.786C120.273 156.504 120.437 156.204 120.59 155.887C120.703 155.649 120.809 155.399 120.906 155.141C120.988 154.918 121.066 154.688 121.137 154.45C121.199 154.231 121.258 154.008 121.312 153.778C121.359 153.567 121.402 153.352 121.441 153.133C121.477 152.926 121.508 152.719 121.535 152.504C121.587 152.088 121.622 151.67 121.641 151.251C121.648 151.043 121.656 150.829 121.656 150.614V150.575C121.656 150.379 121.652 150.18 121.648 149.981C121.641 149.77 121.633 149.559 121.617 149.344C121.605 149.133 121.586 148.918 121.566 148.704C121.547 148.489 121.523 148.274 121.496 148.059C121.469 147.84 121.437 147.618 121.402 147.399C121.367 147.176 121.328 146.958 121.289 146.735C121.246 146.508 121.199 146.278 121.148 146.047C121.098 145.817 121.043 145.586 120.988 145.36C120.93 145.125 120.871 144.895 120.805 144.661C120.742 144.43 120.672 144.196 120.602 143.965C120.531 143.739 120.461 143.512 120.383 143.286C120.309 143.063 120.23 142.836 120.148 142.614C120.07 142.399 119.988 142.184 119.906 141.969C119.824 141.754 119.738 141.543 119.648 141.329C119.562 141.118 119.473 140.907 119.379 140.7C119.182 140.252 118.974 139.809 118.754 139.372C118.424 138.713 118.072 138.066 117.699 137.43C117.389 136.902 117.064 136.384 116.723 135.875C116.278 135.205 115.805 134.553 115.305 133.922C115.137 133.711 114.969 133.501 114.797 133.293C114.629 133.094 114.461 132.895 114.289 132.7C114.121 132.508 113.949 132.317 113.777 132.133C113.602 131.942 113.422 131.754 113.238 131.571C113.055 131.383 112.871 131.204 112.684 131.024C112.598 130.942 112.512 130.864 112.426 130.786L121.723 125.383V125.348C121.723 125.157 121.727 124.969 121.738 124.782C121.746 124.598 121.758 124.415 121.773 124.235C121.789 124.055 121.809 123.879 121.828 123.708C121.852 123.536 121.875 123.368 121.906 123.2C121.945 122.985 121.988 122.778 122.035 122.571C122.132 122.156 122.256 121.747 122.406 121.348C122.516 121.055 122.641 120.77 122.773 120.497C122.93 120.184 123.098 119.883 123.285 119.594C123.699 118.946 124.207 118.379 124.754 117.836L137.176 110.618C140.02 108.965 142.723 106.895 144.738 103.782C145.145 103.157 145.52 102.489 145.867 101.774C146.129 101.227 146.375 100.657 146.598 100.055C146.762 99.6099 146.918 99.145 147.062 98.6646C147.203 98.1919 147.332 97.6997 147.445 97.1958C147.543 96.7739 147.629 96.3403 147.707 95.8911C147.785 95.4458 147.855 94.9849 147.914 94.5122C147.969 94.063 148.02 93.606 148.059 93.1333C148.098 92.6763 148.125 92.2114 148.145 91.731C148.164 91.2544 148.176 90.7622 148.18 90.2583V90.1685C148.18 89.645 148.176 89.1177 148.156 88.5864C148.124 87.4502 148.052 86.3154 147.941 85.1841C147.887 84.6138 147.824 84.0396 147.75 83.4653C147.676 82.8794 147.594 82.2935 147.5 81.7036C147.406 81.1138 147.305 80.5239 147.195 79.9302C147.082 79.3208 146.957 78.7114 146.824 78.1021C146.691 77.4888 146.547 76.8794 146.395 76.2661C146.087 75.018 145.743 73.7792 145.363 72.5513C145.18 71.9458 144.984 71.3403 144.781 70.7388C144.582 70.1411 144.375 69.5474 144.156 68.9497C143.949 68.3755 143.734 67.8013 143.512 67.231C143.289 66.6606 143.062 66.0942 142.828 65.5278C142.598 64.9692 142.355 64.4106 142.109 63.856C141.583 62.6604 141.029 61.4777 140.445 60.3091C140.094 59.6021 139.73 58.8989 139.359 58.2036C138.805 57.1646 138.227 56.1372 137.629 55.1216C136.801 53.7153 135.934 52.3286 135.027 50.9771C134.309 49.9028 133.566 48.8481 132.805 47.813C132.293 47.1216 131.773 46.438 131.246 45.7661C130.801 45.1997 130.352 44.645 129.895 44.0942C129.016 43.0373 128.11 42.0044 127.176 40.9966C126.703 40.4849 126.223 39.9849 125.738 39.4927C125.253 38.9979 124.759 38.5108 124.258 38.0317C123.253 37.0685 122.219 36.137 121.156 35.2388C120.641 34.8052 120.121 34.3794 119.598 33.9653C118.602 33.1776 117.581 32.4233 116.535 31.7036C116.043 31.3638 115.547 31.0356 115.047 30.7192C114.555 30.4067 114.059 30.1021 113.562 29.8091C113.449 29.7427 113.332 29.6763 113.219 29.6099C112.844 29.395 112.473 29.188 112.102 28.9849C111.621 28.7231 111.141 28.4771 110.664 28.2388C110.187 28.0044 109.715 27.7817 109.242 27.5708C108.77 27.3599 108.305 27.1606 107.84 26.9771C107.363 26.7856 106.891 26.6099 106.422 26.4458C105.949 26.2817 105.48 26.1255 105.016 25.9849C104.527 25.8364 104.043 25.7036 103.566 25.5864C103.082 25.4653 102.602 25.3599 102.129 25.2661C101.613 25.1646 101.098 25.0825 100.594 25.0122C100.066 24.9419 99.5469 24.8872 99.0312 24.8521C98.4727 24.813 97.9258 24.7935 97.3828 24.7974C96.7656 24.8013 96.1602 24.8286 95.5625 24.8833C94.875 24.9458 94.1992 25.0435 93.5391 25.1763C92.6953 25.3442 91.875 25.5708 91.0859 25.8521C90.0937 26.2036 89.1445 26.6411 88.2461 27.1646L62.1055 42.356C62.125 42.3442 62.1445 42.3364 62.1641 42.3247C62.5898 42.0786 63.0234 41.8521 63.4727 41.645C63.543 41.6138 63.6172 41.5864 63.6914 41.5552C64.0703 41.3872 64.4531 41.2271 64.8477 41.0825C64.8828 41.0708 64.9141 41.0552 64.9492 41.0435C65.207 40.9497 65.4727 40.8755 65.7383 40.7935C65.8594 40.7583 65.9805 40.7114 66.1055 40.6763C66.5312 40.5591 66.9609 40.4536 67.4023 40.3638C67.4062 40.3638 67.4141 40.3638 67.418 40.3599C68.0039 40.2427 68.6094 40.1606 69.2187 40.0981C69.2891 40.0903 69.3555 40.0747 69.4258 40.0669C69.543 40.0552 69.6641 40.0591 69.7852 40.0513C70.1484 40.0239 70.5195 40.0083 70.8906 40.0005C71.0117 39.9966 71.125 39.9849 71.2461 39.9849C71.3437 39.9849 71.4414 39.9927 71.5391 39.9927C71.832 39.9966 72.1289 40.0083 72.4258 40.02C72.582 40.0278 72.7383 40.0239 72.8945 40.0356C72.9805 40.0435 73.0703 40.0552 73.1562 40.063C73.4102 40.0825 73.6641 40.1138 73.9219 40.1411C74.1016 40.1606 74.2734 40.1724 74.4531 40.1958C74.5469 40.2075 74.6484 40.231 74.7422 40.2427C74.9805 40.2778 75.2227 40.3208 75.4609 40.3599C75.6367 40.3911 75.8086 40.4106 75.9883 40.4458C76.1094 40.4692 76.2344 40.5005 76.3555 40.5278C76.5625 40.5708 76.7695 40.6177 76.9766 40.6646C77.1289 40.6997 77.2773 40.7271 77.4258 40.7661C77.5937 40.8091 77.7695 40.8638 77.9375 40.9067C78.1445 40.9614 78.3477 41.0161 78.5586 41.0786C78.6641 41.1099 78.7695 41.1333 78.875 41.1646C79.1289 41.2427 79.3828 41.3286 79.6367 41.4146C79.7969 41.4692 79.957 41.5161 80.1211 41.5747C80.1758 41.5942 80.2266 41.606 80.2773 41.6255C80.7461 41.7896 81.2187 41.9692 81.6953 42.1567C81.7031 42.1606 81.707 42.1606 81.7148 42.1646C81.7539 42.1802 81.793 42.1958 81.8281 42.2114C82.25 42.3833 82.6719 42.5591 83.0977 42.7505C83.1719 42.7817 83.2461 42.8208 83.3203 42.856C83.4922 42.9341 83.6641 43.0161 83.832 43.0981C84.0586 43.2075 84.2852 43.3052 84.5156 43.4185C84.6641 43.4927 84.8164 43.5747 84.9648 43.6528C85.1562 43.7505 85.3516 43.8521 85.543 43.9536C85.6797 44.0239 85.8164 44.0903 85.9531 44.1646C86.3203 44.3638 86.6914 44.5708 87.0625 44.7856C87.0664 44.7856 87.0664 44.7896 87.0703 44.7896H87.0742L87.4141 44.9888C87.8711 45.2583 88.3242 45.5356 88.7773 45.8247C88.8125 45.8481 88.8477 45.8677 88.8867 45.8911C88.8906 45.895 88.8945 45.895 88.8984 45.8989C89.3984 46.2153 89.8945 46.5435 90.3867 46.8833C90.4375 46.9185 90.4844 46.9536 90.5352 46.9888C90.7187 47.1177 90.9023 47.2505 91.0898 47.3833C91.3633 47.5786 91.6406 47.77 91.9141 47.9692C92.0039 48.0356 92.0937 48.1099 92.1836 48.1763C92.4062 48.3403 92.6289 48.5122 92.8477 48.6841C93.0469 48.8403 93.25 48.9888 93.4531 49.145C93.5742 49.2427 93.6953 49.3442 93.8203 49.4419C94.0586 49.6333 94.2969 49.8286 94.5351 50.0239C94.6953 50.1567 94.8555 50.2817 95.0156 50.4146C95.1641 50.5396 95.3086 50.6724 95.457 50.7974C95.6992 51.0044 95.9414 51.2153 96.1797 51.4302C96.3125 51.5474 96.4453 51.6567 96.5742 51.7739C96.7422 51.9224 96.9023 52.0825 97.0703 52.2349C97.3125 52.4575 97.5508 52.6802 97.793 52.9067C97.9023 53.0083 98.0117 53.106 98.1172 53.2075C98.3086 53.3911 98.4961 53.5825 98.6836 53.77C98.9023 53.9849 99.125 54.2036 99.3437 54.4224C99.4258 54.5083 99.5117 54.5864 99.5937 54.6724C99.8164 54.8989 100.035 55.1372 100.254 55.3677C100.457 55.5786 100.66 55.7896 100.863 56.0044C100.918 56.063 100.973 56.1177 101.027 56.1763C101.32 56.4927 101.605 56.8169 101.895 57.1372C102.039 57.2974 102.184 57.4536 102.324 57.6138C102.806 58.1603 103.28 58.7138 103.746 59.2739C103.75 59.2778 103.754 59.2856 103.762 59.2896C103.84 59.3833 103.914 59.4771 103.988 59.5708C104.234 59.8677 104.477 60.1724 104.719 60.4731C106.094 62.1919 107.406 63.981 108.652 65.8286C108.727 65.938 108.809 66.0435 108.883 66.1528C108.926 66.2192 108.965 66.2856 109.008 66.3521C109.812 67.563 110.582 68.7935 111.328 70.0474C111.379 70.1333 111.437 70.2114 111.484 70.2974C111.527 70.3716 111.566 70.4497 111.613 70.5239C112.137 71.4185 112.641 72.3169 113.129 73.2271C113.156 73.2778 113.187 73.3286 113.215 73.3794C113.363 73.6567 113.504 73.938 113.648 74.2192C113.832 74.5747 114.02 74.9263 114.199 75.2856C114.234 75.3521 114.27 75.4185 114.301 75.4849C114.516 75.9106 114.719 76.3442 114.926 76.7739C115.004 76.938 115.086 77.1021 115.164 77.2661L115.199 77.3364C115.465 77.8989 115.719 78.4653 115.969 79.0317C115.996 79.0903 116.02 79.1528 116.047 79.2114C116.125 79.3872 116.195 79.5591 116.27 79.7349C116.41 80.0591 116.551 80.3794 116.684 80.7036C116.719 80.7896 116.754 80.8794 116.789 80.9692H116.785C116.812 81.0317 116.84 81.0981 116.867 81.1606C116.871 81.1724 116.875 81.1802 116.879 81.1919L117.148 81.8599C117.223 82.0435 117.297 82.2231 117.367 82.4067C117.477 82.6919 117.582 82.981 117.691 83.2661C117.766 83.4692 117.844 83.6685 117.918 83.8716C117.949 83.9575 117.984 84.0396 118.012 84.1255C118.203 84.6567 118.387 85.1841 118.566 85.7153C118.586 85.7739 118.609 85.8325 118.629 85.8911C118.633 85.8989 118.633 85.9067 118.637 85.9146C118.84 86.52 119.031 87.1216 119.219 87.7271C119.238 87.7896 119.254 87.8481 119.273 87.9106C119.34 88.1294 119.402 88.3481 119.465 88.5669C119.562 88.9028 119.668 89.2427 119.762 89.5786C119.797 89.7036 119.828 89.8286 119.859 89.9536C119.93 90.2114 119.996 90.4692 120.062 90.731C120.125 90.9692 120.191 91.2036 120.25 91.4419C120.297 91.6372 120.34 91.8325 120.387 92.0278C120.449 92.2856 120.508 92.5396 120.566 92.7974C120.602 92.9575 120.645 93.1177 120.68 93.2778C120.742 93.563 120.797 93.8521 120.855 94.1372C120.902 94.3716 120.953 94.606 121 94.8403C121.016 94.9302 121.039 95.02 121.055 95.106C121.148 95.5981 121.23 96.0903 121.309 96.5825C121.324 96.6685 121.34 96.7544 121.352 96.8364C121.355 96.8481 121.355 96.8638 121.359 96.8755C121.453 97.4653 121.535 98.0513 121.609 98.6372C121.617 98.6997 121.621 98.7622 121.629 98.8208C121.652 99.0083 121.672 99.1958 121.691 99.3794C121.727 99.7036 121.77 100.028 121.801 100.352C121.816 100.5 121.824 100.649 121.836 100.801C121.855 101.028 121.871 101.25 121.891 101.473C121.906 101.668 121.926 101.864 121.937 102.059C121.953 102.313 121.961 102.563 121.973 102.813C121.984 103.028 121.996 103.239 122.004 103.454C122.008 103.555 122.016 103.653 122.02 103.754C122.035 104.286 122.043 104.813 122.043 105.336V105.426C122.039 105.93 122.027 106.418 122.008 106.899C122 107.118 121.98 107.329 121.969 107.543L121.945 107.942C121.937 108.059 121.934 108.184 121.922 108.297C121.883 108.77 121.836 109.227 121.777 109.676C121.77 109.75 121.754 109.817 121.746 109.891C121.73 110.016 121.707 110.141 121.691 110.266C121.652 110.532 121.617 110.801 121.57 111.059C121.523 111.329 121.465 111.586 121.41 111.848C121.387 111.958 121.367 112.071 121.344 112.18C121.332 112.239 121.32 112.301 121.309 112.364C121.191 112.872 121.066 113.36 120.926 113.833L120.902 113.903C120.871 114.012 120.828 114.114 120.797 114.223C120.691 114.563 120.582 114.899 120.465 115.223C120.438 115.297 120.402 115.364 120.371 115.438C120.242 115.774 120.102 116.09 119.957 116.407C119.879 116.579 119.812 116.77 119.73 116.938C119.699 117.004 119.664 117.063 119.633 117.125C119.574 117.239 119.516 117.348 119.457 117.458C119.273 117.809 119.086 118.145 118.887 118.473C118.824 118.575 118.766 118.676 118.703 118.778C118.668 118.833 118.637 118.891 118.602 118.946C118.406 119.247 118.203 119.532 117.996 119.813C117.953 119.872 117.91 119.938 117.867 119.997C117.594 120.356 117.312 120.696 117.023 121.028C116.855 121.219 116.68 121.403 116.504 121.586C116.379 121.715 116.258 121.848 116.129 121.973C115.922 122.18 115.711 122.379 115.496 122.575C115.453 122.614 115.41 122.661 115.363 122.7L115.34 122.715C114.796 123.196 114.231 123.651 113.645 124.079C113.465 124.208 113.281 124.325 113.102 124.45C112.684 124.739 112.27 125.024 111.84 125.29C111.648 125.407 111.453 125.52 111.258 125.633C110.816 125.895 110.379 126.149 109.934 126.391C109.781 126.473 109.629 126.555 109.473 126.637C106.875 128.016 104.246 129.153 101.984 130.485C101.531 130.751 101.09 131.024 100.668 131.313C100.625 131.34 100.586 131.372 100.547 131.403C100.176 131.661 99.8203 131.934 99.4766 132.215L99.1602 132.485C98.8477 132.758 98.5547 133.043 98.2773 133.34C98.2187 133.403 98.1602 133.458 98.1016 133.52C97.7852 133.875 97.4961 134.258 97.2344 134.657C97.1172 134.833 97.0117 135.016 96.9062 135.2C96.8359 135.321 96.7617 135.442 96.6992 135.567C96.5391 135.883 96.3906 136.208 96.2617 136.551C96.2539 136.571 96.25 136.59 96.2422 136.61C96.1094 136.977 95.9922 137.36 95.8984 137.762C95.8945 137.774 95.8945 137.786 95.8906 137.797C95.8008 138.196 95.7266 138.614 95.6797 139.051L95.668 139.149C95.6192 139.615 95.5931 140.083 95.5898 140.551L85.6289 134.801L73.0391 142.118L73.0625 142.106C73.3828 141.922 73.7187 141.766 74.0703 141.641C74.082 141.637 74.0938 141.629 74.1055 141.625C74.4023 141.52 74.707 141.434 75.0234 141.372H75.0312C75.043 141.368 75.0586 141.368 75.0703 141.368C75.3008 141.325 75.5391 141.286 75.7812 141.266C75.8594 141.258 75.9414 141.258 76.0234 141.254C76.0937 141.25 76.1602 141.247 76.2305 141.247C76.3086 141.243 76.3828 141.235 76.4648 141.235C76.668 141.235 76.875 141.239 77.082 141.254C77.1289 141.258 77.1758 141.266 77.2227 141.27L77.3555 141.282C77.4609 141.293 77.5625 141.301 77.668 141.313C77.8594 141.34 78.0508 141.372 78.2422 141.407C78.3047 141.418 78.3672 141.434 78.4297 141.45C78.4687 141.458 78.5078 141.465 78.5469 141.477C78.625 141.497 78.7031 141.508 78.7812 141.528C78.9609 141.575 79.1406 141.622 79.3242 141.676C79.4492 141.715 79.5742 141.758 79.7031 141.801L79.7734 141.825L79.8516 141.848C80.0273 141.911 80.2031 141.977 80.3828 142.047C80.5586 142.118 80.7344 142.192 80.9102 142.27C80.9453 142.286 80.9844 142.305 81.0195 142.321C81.0469 142.333 81.0781 142.348 81.1055 142.36C81.2187 142.411 81.3281 142.461 81.4414 142.52C81.6211 142.61 81.8008 142.7 81.9805 142.797C82.1211 142.872 82.2578 142.95 82.3984 143.032C82.4414 143.055 82.4844 143.083 82.5273 143.106C82.7148 143.215 82.8984 143.329 83.0859 143.446C83.2734 143.567 83.4609 143.688 83.6445 143.817C83.668 143.833 83.6914 143.852 83.7148 143.868C83.7422 143.887 83.7656 143.903 83.7891 143.922C83.9297 144.02 84.0742 144.122 84.2148 144.223C84.4102 144.368 84.6016 144.512 84.793 144.665C84.8594 144.715 84.9219 144.77 84.9844 144.821L85.1172 144.93C85.2031 145 85.293 145.071 85.3789 145.145C85.5742 145.309 85.7695 145.481 85.9648 145.657C86.0547 145.739 86.1445 145.825 86.2344 145.907L86.3711 146.032C86.4297 146.086 86.4883 146.137 86.543 146.192C86.7305 146.372 86.9141 146.555 87.0977 146.739C87.2187 146.864 87.3398 146.989 87.4609 147.118C87.4922 147.149 87.5195 147.18 87.5508 147.211C87.5781 147.243 87.6094 147.27 87.6367 147.301C87.8086 147.489 87.9805 147.676 88.1484 147.868C88.3203 148.063 88.4883 148.262 88.6562 148.461L88.6641 148.469L88.6758 148.481C88.8398 148.68 89.0039 148.883 89.168 149.086C89.3672 149.34 89.5625 149.594 89.7539 149.852L89.7578 149.856C90.043 150.243 90.3203 150.637 90.5859 151.036C90.6172 151.079 90.6406 151.125 90.6719 151.172C90.8555 151.45 91.0273 151.731 91.1992 152.012C91.3203 152.208 91.4453 152.395 91.5625 152.59C91.5898 152.633 91.6133 152.68 91.6406 152.727C91.707 152.84 91.7695 152.958 91.8359 153.071C91.9609 153.293 92.0937 153.52 92.2148 153.747C92.3125 153.93 92.4062 154.114 92.5 154.297C92.5234 154.34 92.5469 154.387 92.5703 154.43C92.5859 154.465 92.6055 154.501 92.625 154.532C92.7383 154.762 92.8516 154.993 92.9609 155.223C93.0586 155.434 93.1562 155.649 93.25 155.86C93.2617 155.891 93.2773 155.922 93.2891 155.95C93.3008 155.977 93.3125 156.008 93.3242 156.036C93.3906 156.188 93.457 156.336 93.5195 156.489C93.6094 156.7 93.6953 156.915 93.7773 157.129C93.832 157.27 93.8828 157.411 93.9375 157.551C93.9492 157.586 93.9609 157.618 93.9766 157.653C93.9922 157.692 94.0078 157.735 94.0234 157.774C94.1055 157.997 94.1836 158.219 94.2578 158.446C94.332 158.672 94.4062 158.899 94.4766 159.125C94.4844 159.157 94.4961 159.188 94.5039 159.219C94.5117 159.251 94.5234 159.282 94.5312 159.313C94.6528 159.712 94.7635 160.115 94.8633 160.52L94.9336 160.825L94.9687 160.969C94.9883 161.051 95.0078 161.129 95.0234 161.211C95.0742 161.442 95.1211 161.668 95.1641 161.899C95.2031 162.106 95.2383 162.317 95.2734 162.524C95.2734 162.532 95.2773 162.54 95.2773 162.547C95.2773 162.555 95.2812 162.559 95.2812 162.563C95.3498 162.996 95.4045 163.431 95.4453 163.868C95.4531 163.942 95.457 164.016 95.4648 164.09L95.4766 164.219L95.5 164.508C95.5117 164.723 95.5234 164.934 95.5312 165.145C95.5391 165.344 95.5391 165.543 95.5391 165.739V165.778C95.5363 166.198 95.518 166.617 95.4844 167.036C95.4805 167.09 95.4726 167.141 95.4687 167.192L95.457 167.317L95.4219 167.668C95.3945 167.883 95.3633 168.09 95.3281 168.297C95.3125 168.383 95.293 168.465 95.2773 168.551C95.2656 168.602 95.2578 168.657 95.2461 168.708L95.1992 168.942C95.1484 169.172 95.0898 169.395 95.0234 169.614C95.0039 169.68 94.9805 169.739 94.9609 169.805C94.9414 169.872 94.918 169.938 94.8945 170.001C94.8594 170.102 94.832 170.208 94.793 170.305C94.707 170.54 94.6094 170.766 94.5078 170.985C94.5 171.001 94.4922 171.02 94.4844 171.036C94.4805 171.04 94.4805 171.047 94.4766 171.051C94.3242 171.368 94.1601 171.668 93.9805 171.95C93.9727 171.965 93.9609 171.977 93.9492 171.993C93.9141 172.047 93.875 172.094 93.8359 172.149C93.6836 172.372 93.5195 172.586 93.3477 172.786C93.2812 172.864 93.2109 172.938 93.1445 173.008C92.9805 173.18 92.8125 173.34 92.6367 173.493C92.5703 173.551 92.5078 173.61 92.4375 173.665C92.2031 173.852 91.957 174.024 91.6992 174.172L117.816 159.012Z" fill="#D4DBE7" stroke="black" stroke-width="2" mask="url(#path-1-inside-1_516_10839)"/>
<path d="M87.3763 96.7912C87.2291 96.8392 87.0804 96.8881 86.9306 96.9377L94.7909 92.3703C94.3216 93.436 93.477 94.207 92.3271 94.8532C92.2184 94.9132 92.108 94.972 91.9991 95.0264C91.9534 95.0493 91.9096 95.0714 91.8669 95.093C91.7461 95.1541 91.6345 95.2106 91.5158 95.2646L91.5157 95.2645L91.5104 95.267C91.3888 95.324 91.2659 95.3799 91.1446 95.4313L91.1445 95.4313L91.1368 95.4347C90.9687 95.5094 90.7952 95.5811 90.6134 95.6546L90.6104 95.6558C90.4805 95.7093 90.3496 95.7616 90.2204 95.8096L90.2204 95.8096L90.2138 95.8122C90.0265 95.8848 89.8321 95.9572 89.6383 96.0256L89.6349 96.0268C89.5667 96.0514 89.4993 96.0752 89.4296 96.0997L89.4286 96.1001C89.3611 96.1238 89.2916 96.1483 89.2208 96.1738C88.6074 96.3838 87.9925 96.5896 87.3763 96.7912ZM80.9584 74.884L80.9584 74.8841L80.9598 74.8832C82.1675 74.161 83.8623 74.1055 85.8472 75.0097L78.7262 79.1501C78.7269 79.1412 78.7277 79.1322 78.7285 79.1233L78.7305 79.1012V79.0844L78.7311 79.0795L78.7333 79.0639L78.7349 79.0524L78.736 79.0409C78.7615 78.775 78.8018 78.5178 78.8502 78.2681L78.8541 78.2482L78.8563 78.2281C78.8563 78.2282 78.8567 78.2248 78.8585 78.2155C78.8604 78.2056 78.8629 78.1945 78.867 78.1759L78.867 78.1759L78.8677 78.1727C78.919 77.9346 78.9767 77.7108 79.0442 77.4966C79.0538 77.4695 79.0618 77.4443 79.0674 77.4267L79.0683 77.4241C79.0756 77.4011 79.0794 77.3893 79.0832 77.3789L79.0832 77.3789L79.086 77.371C79.1597 77.1573 79.24 76.9532 79.3266 76.7619L79.3373 76.7384L79.3427 76.722C79.4363 76.5254 79.5449 76.3361 79.6594 76.1572L79.6596 76.1569C79.8167 75.9111 80.0002 75.6919 80.2004 75.4881L80.2006 75.4883L80.2101 75.4779C80.2336 75.4527 80.256 75.4323 80.2913 75.4C80.3067 75.3859 80.3246 75.3696 80.3462 75.3496C80.5485 75.1655 80.7471 75.0095 80.9584 74.884Z" fill="#D4DBE7" stroke="black"/>
<path d="M95.1582 139.122L95.1585 139.119C95.5702 135.286 97.92 132.452 101.034 130.495C102.809 129.38 104.683 128.454 106.53 127.541C106.713 127.451 106.895 127.361 107.076 127.271C109.108 126.264 111.098 125.25 112.942 123.976C116.229 121.703 118.699 118.614 120.056 114.854C121.442 111.01 121.678 106.82 121.461 102.707C120.57 85.7805 112.141 69.0037 100.753 56.6401C95.5305 50.9714 89.3129 45.9598 82.2213 42.9371L82.4174 42.4772L82.2213 42.9371C75.3027 39.988 66.9902 39.1925 60.7792 43.8347C55.5871 47.7194 53.24 54.2508 52.5788 60.6183C52.4823 61.5643 52.4167 62.5136 52.3858 63.4622L52.3858 63.4644C52.3824 63.5544 52.3707 63.6734 52.3597 63.7855C52.3587 63.7959 52.3576 63.8063 52.3566 63.8166C52.3439 63.9465 52.331 64.0823 52.3239 64.2142C52.3166 64.3482 52.3163 64.4621 52.3245 64.5486C52.3266 64.5707 52.329 64.5878 52.3312 64.6006C52.3336 64.6022 52.3361 64.6039 52.3388 64.6057C52.3804 64.633 52.4379 64.6644 52.5107 64.7002C52.5726 64.7306 52.6356 64.7593 52.7015 64.7893C52.7128 64.7945 52.7242 64.7997 52.7358 64.8049C52.8065 64.8372 52.8925 64.8767 52.9624 64.9159L52.9686 64.9194L52.9686 64.9194C54.2573 65.6653 55.5499 66.4112 56.8387 67.1532L56.8394 67.1536C61.9824 70.1251 67.1274 73.0945 72.2716 76.0634C74.0863 77.1107 75.9009 78.158 77.7152 79.2053C77.8906 77.0844 78.736 74.7352 80.9623 73.7577C82.2777 73.1796 83.67 73.2406 84.9571 73.6125C86.2416 73.9838 87.4515 74.6724 88.4429 75.3978C92.5516 78.402 95.5386 83.5353 96.125 88.5914L95.6283 88.649L96.125 88.5915C96.4303 91.2257 95.8651 93.7188 93.4576 95.3338L93.4575 95.3339C91.7845 96.4557 89.785 97.089 87.9198 97.6797C87.4564 97.8264 87.0013 97.9706 86.5616 98.1189L86.5614 98.119C82.8928 99.3548 79.3749 100.892 76.6331 103.558L76.6329 103.559C74.1488 105.97 72.4863 109.09 71.4534 112.415C70.7351 114.735 70.3028 117.143 70.0514 119.571L95.1582 139.122ZM95.1582 139.122C95.1379 139.324 95.1211 139.526 95.1084 139.73M95.1582 139.122L95.1084 139.73M95.1084 139.73C91.4042 137.59 87.7037 135.454 84.0033 133.318L84.0031 133.317C82.658 132.542 81.3128 131.765 79.9676 130.988L79.9194 130.96C78.5584 130.174 77.1972 129.388 75.8361 128.603C74.5382 127.851 73.2404 127.103 71.9433 126.355L71.9327 126.349L71.9322 126.348C71.712 126.222 71.4304 126.087 71.1578 125.956C71.0112 125.886 70.8671 125.817 70.7367 125.751C70.3248 125.544 69.9962 125.346 69.799 125.14C69.7546 125.093 69.7109 124.998 69.7151 124.749C69.7172 124.63 69.7293 124.502 69.7443 124.352L69.7467 124.328C69.7604 124.191 69.7762 124.034 69.7804 123.882L69.7805 123.881C69.8192 122.443 69.9045 121.003 70.0514 119.572L95.1084 139.73ZM72.2484 143.329L72.2488 143.329C74.213 141.514 77.051 141.439 79.6031 142.31C85.4631 144.316 89.9577 150.031 92.5382 155.582C93.6887 158.059 94.7735 161.268 95.0447 164.406C95.3163 167.548 94.768 170.542 92.7522 172.693C91.5024 174.024 90.0907 174.609 88.6169 174.694C87.1277 174.779 85.5434 174.353 83.9749 173.601C80.8324 172.094 77.8801 169.335 76.1233 167.152C72.4572 162.591 69.7595 156.708 69.6869 150.843C69.6562 148.094 70.261 145.161 72.2484 143.329Z" fill="#F0F2F5" stroke="#405FCE"/>
</svg>
