<svg width="60" height="60" viewBox="0 0 60 60" fill="none" xmlns="http://www.w3.org/2000/svg">
<path d="M34.9611 43.8486L28.8457 40.2716V34.1562L34.9611 37.6178V43.8486Z" fill="white"/>
<path d="M34.9611 37.619L28.8457 34.1575L40.8457 27.2344L46.8457 30.6959L34.9611 37.619ZM46.8457 30.6959L46.9611 36.9267L34.9611 43.8498V37.619L46.8457 30.6959Z" fill="white"/>
<path d="M46.8457 24.4615V30.6923L34.9611 37.6154V31.3846L46.8457 24.4615ZM34.9611 37.6154L28.8457 34.1538V27.9231L34.9611 31.3846V37.6154ZM34.9611 31.3846L28.8457 27.9231L40.8457 21L46.8457 24.4615L34.9611 31.3846Z" fill="white"/>
<path d="M34.8457 25.1581L28.8457 21.6965L40.7303 14.7734L46.8457 18.235L34.8457 25.1581Z" fill="white"/>
<path d="M34.8457 25.1532L28.8457 21.6917V15.4609L34.8457 18.9225V25.1532Z" fill="white"/>
<path d="M46.8457 18.2344V24.4651L34.9611 31.3882L34.8457 25.1575L46.8457 18.2344Z" fill="#F0F2F5"/>
<path d="M34.9611 31.3876L28.8457 27.9261V21.6953L34.8457 25.1569L34.9611 31.3876ZM22.9611 44.5415L16.8457 40.9645L28.8457 34.1569L34.9611 37.6184L22.9611 44.5415Z" fill="white"/>
<path d="M34.9611 37.616V43.8468L22.9611 50.7698V44.5391L34.9611 37.616ZM22.9611 50.7698L16.8457 47.1929V40.9621L22.9611 44.5391V50.7698ZM34.8457 18.9237L28.8457 15.4621L40.7303 8.53906L46.8457 12.116L34.8457 18.9237ZM46.8457 12.116V18.2314L34.8457 25.1544V18.9237L46.8457 12.116Z" fill="white"/>
<path d="M34.8456 31.3828L34.9609 37.6136L22.9609 44.5367V38.3059L34.8456 31.3828Z" fill="#F0F2F5"/>
<path d="M22.9611 38.3065L16.8457 34.845L28.8457 27.9219L34.8457 31.3834L22.9611 38.3065Z" fill="white"/>
<path d="M22.9611 44.5439L16.8457 40.9669V34.8516L22.9611 38.3131V44.5439Z" fill="white"/>
<path d="M22.9611 38.3107L16.8457 34.8492V28.6184L22.9611 32.0799V38.3107ZM22.9611 32.0799L16.8457 28.6184L28.8457 21.6953L34.8457 25.1569L22.9611 32.0799Z" fill="white"/>
<path d="M34.8457 25.1562V31.387L22.9611 38.3101V32.0793L34.8457 25.1562ZM10.9611 57.6947L4.96109 54.1178L4.8457 47.887L10.9611 51.4639V57.6947Z" fill="white"/>
<path d="M10.9611 51.4609L4.8457 47.884L16.8457 40.9609L22.9611 44.5379L10.9611 51.4609Z" fill="white"/>
<path d="M22.9609 44.5391V50.7698L10.9609 57.6929V51.4621L22.9609 44.5391Z" fill="#F0F2F5"/>
<path d="M10.9611 45.2326L4.8457 41.6556V35.5403L10.9611 39.0018V45.2326ZM10.9611 39.0018L4.8457 35.5403L16.8457 28.6172L22.9611 32.0787L10.9611 39.0018Z" fill="white"/>
<path d="M22.9609 32.0781V38.3089L10.9609 45.232V39.0012L22.9609 32.0781Z" fill="white"/>
<path d="M22.9611 32.0751L16.8457 28.6136V22.3828L22.8457 25.8444L22.9611 32.0751Z" fill="white"/>
<path d="M25.8457 17.1917L28.7303 15.4609L34.8457 19.0379L22.8457 25.8456L16.8457 22.384L21.4611 19.6148" fill="white"/>
<path d="M34.8457 19.0391V25.1544L22.9611 32.0775L22.8457 25.8468L34.8457 19.0391Z" fill="#F0F2F5"/>
<path d="M34.8459 18.9267L28.8459 15.4651L28.7305 9.23438L34.8459 12.8113V18.9267Z" fill="white"/>
<path d="M34.8459 12.8047L28.7305 9.22777L40.7305 2.30469L46.8459 5.88161L34.8459 12.8047Z" fill="white"/>
<path d="M46.8457 5.88281V12.1136L34.8457 18.9213V12.8059L46.8457 5.88281ZM42.3457 57.4597L35.8842 53.7674L35.7688 47.0751L42.3457 50.8828V57.4597Z" fill="#F0F2F5"/>
<path d="M45.5772 41.4261L48.5772 39.6953L55.1541 43.503L42.3465 50.8876L35.7695 47.0799L41.6541 43.7338M55.1541 43.503V50.0799L42.3465 57.4645V50.8876L55.1541 43.503Z" fill="white"/>
<path d="M55.3842 43.4994C55.3842 43.384 55.2689 43.2686 55.2689 43.2686L48.8073 39.4609H48.4612L45.4612 41.1917C45.3458 41.3071 45.2304 41.4225 45.3458 41.5379C45.4612 41.6532 45.5765 41.7686 45.6919 41.6532L48.5765 40.0379L54.4612 43.4994L42.2304 50.5379L36.3458 47.0763L41.7689 43.9609C41.8842 43.8456 41.9996 43.7302 41.8842 43.6148C41.7689 43.4994 41.6535 43.384 41.5381 43.4994L35.6535 46.8456C35.6535 46.8456 35.5381 46.9609 35.5381 47.0763V53.7686C35.5381 53.884 35.5381 53.9994 35.6535 53.9994L42.115 57.8071H42.3458L55.1535 50.4225C55.2689 50.4225 55.2689 50.3071 55.2689 50.1917L55.3842 43.4994ZM36.115 53.5379V47.5379C36.5765 47.7686 42.2304 51.1148 41.9996 50.9994V56.9994L36.115 53.5379ZM42.5766 56.9994V50.9994C45.3458 49.384 51.5765 45.8071 54.8073 43.9609V49.9609L42.5766 56.9994Z" fill="#030E17"/>
<path d="M47.0768 5.88582C47.0768 5.77043 47.0768 5.65505 46.9614 5.65505L40.846 2.07812H40.4999L28.4999 9.0012C28.3845 9.0012 28.3845 9.23197 28.3845 9.23197V15.232L25.6152 16.8474C25.4999 16.9627 25.3845 17.0781 25.4999 17.1935C25.6152 17.3089 25.7306 17.4243 25.846 17.3089L28.6152 15.6935L34.1537 18.9243C32.9999 19.6166 38.4229 16.5012 22.7306 25.5012L17.1922 22.2704L21.4614 19.8474C21.5768 19.732 21.6922 19.6166 21.5768 19.5012C21.4614 19.3858 21.346 19.2704 21.2306 19.3858L16.4999 22.0397C16.3845 22.0397 16.3845 22.2704 16.3845 22.2704V28.2704L4.73062 35.1935C4.61523 35.3089 4.61523 35.4243 4.61523 35.5397V41.7704C4.61523 41.8858 4.61523 42.0012 4.73062 42.0012L9.69216 44.8858L4.73062 47.7704C4.61523 47.7704 4.61523 47.8858 4.61523 48.0012V54.3474C4.61523 54.4627 4.61523 54.5781 4.73062 54.5781L10.846 58.155H11.0768C28.846 47.8858 40.0383 41.4243 46.9614 37.3858C47.0768 37.3858 47.0768 37.2704 47.0768 37.155C47.1922 35.1935 47.0768 5.65505 47.0768 5.88582ZM22.6152 38.1935C22.4999 38.1935 22.4999 38.1935 22.6152 38.1935C22.0383 38.5397 19.846 39.8089 11.1922 44.7704V39.232C17.5383 35.5397 11.7691 38.8858 22.6152 32.655V38.1935ZM22.6152 44.0781L18.1152 41.4243L22.6152 38.7704V44.0781ZM22.6152 26.0781V31.6166L17.0768 28.3858V22.8474L22.6152 26.0781ZM16.846 28.9627L22.3845 32.1935L10.9614 38.7704C10.846 38.655 5.07677 35.3089 5.42293 35.5397L16.846 28.9627ZM5.19216 41.5397V36.0012L10.6152 39.232V44.7704C10.4999 44.655 4.846 41.3089 5.19216 41.5397ZM5.19216 54.0012V48.4627L10.7306 51.6935V57.232L5.19216 54.0012ZM10.9614 51.1166L5.42293 47.8858L10.2691 45.1166L10.846 45.4627H11.0768L17.5383 41.7704L22.3845 44.5397L10.9614 51.1166ZM11.3075 57.232V51.6935C12.4614 51.0012 7.03831 54.1166 22.7306 45.1166V50.6551L11.3075 57.232ZM46.4999 6.34736V11.8858L35.1922 18.4627V12.9243C36.346 12.232 30.9229 15.3474 46.4999 6.34736ZM46.6152 18.1166L35.1922 24.6935V19.155L46.6152 12.5781V18.1166ZM40.7306 2.65505L46.2691 5.88582C46.0383 6.0012 35.0768 12.3474 34.846 12.4627L29.3075 9.23197L40.7306 2.65505ZM29.0768 15.232V9.69351L34.6152 12.9243V18.4627L29.0768 15.232ZM23.1922 26.0781C24.346 25.3858 18.9229 28.5012 34.6152 19.5012V25.0397L23.1922 31.6166V26.0781ZM34.6152 25.732V31.2704C33.346 31.9627 24.1152 37.2704 23.1922 37.8474V32.3089L34.6152 25.732ZM23.3075 50.3089V44.7704L34.7306 38.1935V43.732L23.3075 50.3089ZM23.1922 44.0781V38.5397L34.6152 31.9627V37.5012C33.5768 38.0781 24.4614 43.3858 23.1922 44.0781ZM46.6152 18.8089V24.3474L35.1922 30.9243V25.3858C36.5768 24.5781 45.6922 19.2704 46.6152 18.8089ZM46.6152 30.5781L35.1922 37.155V31.6166C37.4999 30.232 43.0383 27.1166 46.6152 25.0397V30.5781ZM35.1922 43.3858V37.8474C36.4614 37.155 45.4614 31.8474 46.6152 31.2704V36.8089L35.1922 43.3858Z" fill="#405FCE"/>
</svg>
