<svg width="201" height="200" viewBox="0 0 201 200" fill="none" xmlns="http://www.w3.org/2000/svg">
<path d="M71.3333 58.2453L141.641 99.1519L153.786 78.0594C154.744 76.4615 155.703 75.5028 156.981 74.8636C158.26 74.2244 159.218 73.9048 160.177 74.544L89.8691 33.6375C88.9104 32.9983 87.9516 33.3179 86.6733 33.957C85.395 34.5962 84.4362 35.8745 83.4775 37.1529L71.3333 58.2453Z" fill="#F0F2F5"/>
<path d="M96.9003 45.1297L88.9107 40.3359L80.282 55.9955L139.405 90.1908L148.353 74.8508L110.003 52.4801M38.0971 77.4075L12.5305 92.1083C9.97383 93.3866 8.05634 96.902 8.05634 99.7783C8.05634 101.057 8.6955 102.015 9.33467 102.655L79.6428 143.561C78.6841 143.242 78.3645 141.963 78.3645 140.685C78.3645 137.809 80.282 134.293 82.8386 133.015L141.642 99.1391L71.3337 58.2326L51.8391 69.4179" fill="#F0F2F5"/>
<path d="M125.982 118.311L143.559 108.084C144.837 107.445 145.796 106.167 146.755 104.888L160.177 81.5589C161.775 78.6827 161.775 75.4868 160.177 74.5281C159.218 73.8889 158.26 74.2085 156.981 74.8477C155.703 75.4868 154.744 76.7652 153.785 78.0435L141.641 99.1359L82.5185 133.331C79.9619 134.61 78.0444 138.125 78.0444 141.001C78.0444 143.877 79.9619 144.836 82.5185 143.558L109.363 128.218" fill="#D4DBE7"/>
<path d="M90.4248 33.1172C89.5301 32.5207 88.3169 32.5003 86.75 33.4404L86.6729 33.3115L86.75 33.4414L86.7402 33.4463C85.4946 34.0691 84.2354 35.3225 83.2871 36.9023V36.9033L71.1426 57.6758L71.123 57.71L71.0889 57.7295L51.9141 68.915L51.8789 68.9355H51.8389C51.8094 68.9355 51.7638 68.951 51.7109 69C51.6592 69.048 51.6109 69.1193 51.5781 69.2012C51.5104 69.3709 51.5244 69.5381 51.625 69.6387L51.6689 69.6826V69.7441C51.6689 69.7737 51.6843 69.8192 51.7334 69.8721C51.7814 69.9238 51.8527 69.9721 51.9346 70.0049C52.1042 70.0726 52.2715 70.0586 52.3721 69.958L52.3857 69.9434L52.4023 69.9336L71.2578 59.0684L71.333 59.0244L71.4082 59.0684L140.118 99.0166L140.342 99.1455L140.118 99.2754L96.6562 124.521V124.522L82.5947 132.831C81.341 133.615 80.1599 134.874 79.292 136.334C78.4233 137.795 77.8751 139.446 77.875 141.011V141.911L77.6494 141.78L9.57812 102.151L9.5791 102.15C9.21903 101.967 8.9611 101.615 8.79492 101.199C8.62675 100.779 8.54493 100.28 8.54492 99.7852C8.54492 98.4725 9.03626 97.0081 9.80469 95.7139C10.5732 94.4195 11.6288 93.2792 12.7754 92.624H12.7744L38.3408 77.9238L38.376 77.9033H38.416C38.4456 77.9033 38.491 77.888 38.5439 77.8389C38.5955 77.791 38.643 77.7203 38.6758 77.6387C38.7436 77.469 38.7302 77.3019 38.6299 77.2012L38.5859 77.1572V77.0947C38.5859 77.0652 38.5697 77.0197 38.5205 76.9668C38.4725 76.9152 38.402 76.8677 38.3203 76.835C38.1505 76.7671 37.9835 76.7803 37.8828 76.8809L37.8691 76.8955L37.8516 76.9053L12.2852 91.6055L12.21 91.4756L12.2852 91.6064L12.2832 91.6074C10.8734 92.3907 9.61283 93.7264 8.74512 95.2646C7.87718 96.8033 7.40949 98.5304 7.56543 100.09L7.56641 100.097V100.104C7.56641 101.664 8.18973 102.888 9.0957 103.493L79.3994 144.396C80.6089 144.997 81.8263 144.705 83.085 144.076L109.928 128.737L109.963 128.717H110.003C110.032 128.717 110.077 128.701 110.13 128.652C110.182 128.604 110.23 128.534 110.263 128.452C110.331 128.282 110.316 128.115 110.216 128.015L110.172 127.971V127.908C110.172 127.879 110.157 127.833 110.107 127.78C110.06 127.729 109.989 127.681 109.907 127.648C109.738 127.581 109.57 127.594 109.47 127.694L109.455 127.709L109.438 127.719L82.6016 143.053V143.054C82.1106 143.381 81.6882 143.553 81.2969 143.597C80.9516 143.635 80.6411 143.572 80.3418 143.442L80.2139 143.383C79.6701 143.111 79.376 142.511 79.2832 141.779C79.19 141.044 79.2943 140.143 79.5781 139.21C80.1101 137.462 81.2844 135.566 83.042 134.395L83.4014 134.17H83.4023L142.502 99.9873C142.511 99.9764 142.522 99.9616 142.536 99.9443C142.569 99.9031 142.616 99.8452 142.668 99.7803C142.708 99.7309 142.752 99.6774 142.796 99.623C142.846 99.521 142.921 99.3727 143.021 99.1875C143.28 98.7047 143.703 97.9462 144.237 97C145.306 95.1068 146.824 92.4593 148.382 89.7627C149.94 87.066 151.538 84.3192 152.767 82.2266C153.381 81.1803 153.904 80.2976 154.282 79.666C154.471 79.3503 154.625 79.0967 154.736 78.917C154.792 78.8272 154.837 78.7548 154.872 78.7021C154.889 78.6761 154.905 78.6542 154.917 78.6367C154.922 78.6302 154.929 78.6231 154.935 78.6152C155.423 77.8009 156.316 76.7472 157.291 76.0156C157.779 75.6499 158.296 75.3592 158.8 75.2227C159.243 75.1027 159.684 75.0996 160.085 75.2793L160.254 75.3682C161.138 75.8987 161.285 77.028 161.124 78.1934C160.961 79.3729 160.476 80.6672 159.992 81.6348V81.6357L159.987 81.6436L146.564 104.974L146.561 104.981L146.555 104.988C145.71 106.114 144.861 106.999 144.008 107.64L143.642 107.899L143.634 107.904L126.057 118.131L126.022 118.151H125.981C125.952 118.151 125.906 118.167 125.854 118.216C125.802 118.264 125.754 118.334 125.722 118.416C125.654 118.586 125.668 118.753 125.769 118.854L125.812 118.897V118.96C125.812 118.989 125.828 119.035 125.877 119.088C125.925 119.139 125.995 119.187 126.077 119.22C126.247 119.288 126.414 119.274 126.515 119.174L126.528 119.16L126.545 119.15L144.122 108.923L144.131 108.919L144.364 108.795C145.455 108.182 146.54 107.099 147.403 105.753L147.585 105.46L161.006 82.1328C161.796 80.7099 162.345 79.0568 162.384 77.5703C162.423 76.0854 161.955 74.788 160.736 74.0264L160.737 74.0254L90.4326 33.1221L90.4248 33.1172ZM88.5342 33.9219C88.8793 33.8836 89.1891 33.9472 89.4883 34.0771L89.6162 34.1357L89.625 34.1416L157.376 73.7695L157.544 73.8672L157.407 74.0049L157.301 73.8984L157.406 74.0049V74.0059L157.401 74.0107C157.398 74.0137 157.394 74.0176 157.389 74.0225C157.378 74.0324 157.363 74.0462 157.344 74.0625C157.305 74.0953 157.251 74.1396 157.185 74.1836C157.065 74.2635 156.888 74.3555 156.697 74.3662C155.253 74.9526 154.065 76.3542 153.405 77.5615L153.28 77.8008L153.276 77.8086L141.451 98.2627L141.376 98.3936L141.245 98.3164L132.616 93.2031L132.617 93.2021L72.5352 58.0488L72.4072 57.9736L72.4814 57.8447L84.3057 37.3916L84.3105 37.3838L84.3154 37.377L84.6777 36.9082C85.5234 35.8511 86.3736 35.0358 87.2285 34.4658C87.7197 34.1384 88.1427 33.9654 88.5342 33.9219Z" fill="#405FCE" stroke="#F0F2F5" stroke-width="0.3"/>
<path d="M81.2404 71.347L74.8487 75.182L65.2613 69.4295L71.6529 65.9141L81.2404 71.347ZM96.8999 80.2953L90.5083 84.1303L80.9208 78.6974L86.9929 74.8624L96.8999 80.2953ZM112.24 89.5632L106.168 93.0786L96.2607 87.6457L102.652 83.8107L112.24 89.5632ZM127.899 98.5115L121.508 102.027L111.92 96.594L118.312 92.759L127.899 98.5115ZM69.0962 78.3778L59.5088 84.1303L49.9213 78.3778L59.5088 72.9449L69.0962 78.3778ZM84.7558 87.6457L75.1683 93.0786L65.5808 87.3261L74.8487 81.8932L84.7558 87.6457ZM100.096 96.594L90.8278 102.027L80.9208 96.594L90.5083 90.8415L100.096 96.594ZM115.755 105.542L106.168 110.975L96.5803 105.542L106.168 99.7898L115.755 105.542ZM53.7563 87.3261L28.1897 102.346L18.6022 96.594L44.1688 81.8932L53.7563 87.3261ZM69.4158 96.594L59.8283 102.027L50.2409 96.2744L59.5088 90.8415L69.4158 96.594ZM84.7558 105.542L75.4879 110.975L65.5808 105.542L75.1683 99.7898L84.7558 105.542ZM100.415 114.491L90.8278 119.923L81.2404 114.491L90.8278 108.738L100.415 114.491ZM53.4367 105.862L43.8492 111.295L34.2617 105.542L43.5296 100.109L53.4367 105.862ZM68.7767 114.81L59.5088 120.243L49.6017 114.81L59.1892 109.058L68.7767 114.81ZM84.4362 123.758L74.8487 129.191L65.2613 123.758L74.8487 118.006L84.4362 123.758Z" fill="#F0F2F5"/>
<mask id="path-6-inside-1_281_2967" fill="white">
<path d="M79.3227 55.3627L88.271 40.0227C88.271 39.7031 88.5906 39.7031 88.9101 39.7031H89.5493L97.2193 44.1773C97.5389 44.4969 97.8585 44.8164 97.5389 45.136C97.2193 45.4556 96.8997 45.7752 96.5801 45.4556L89.5493 41.301L81.5598 55.3627L139.085 89.2384L147.074 75.1768L109.683 53.4452C109.363 53.1256 109.044 52.806 109.363 52.4864C109.683 52.1668 110.003 51.8473 110.322 52.1668L148.672 74.5376C148.992 74.8572 149.311 75.1768 148.992 75.4964L140.043 90.8363C140.043 91.1559 139.724 91.1559 139.404 91.1559H138.765L79.6423 56.641C79.3227 56.3214 79.3227 56.0018 79.3227 55.3627ZM82.1989 71.3418C82.1989 71.6614 82.1989 71.9809 81.8793 71.9809L75.4877 75.8159H74.8485L65.2611 70.383C64.9415 70.383 64.9415 70.0635 64.9415 69.7439C64.9415 69.4243 64.9415 69.1047 65.2611 69.1047L71.6527 65.2697H72.6115L82.1989 70.7026C81.8793 71.0222 82.1989 71.0222 82.1989 71.3418ZM71.6527 66.8676L66.859 69.7439L74.8485 74.5376L79.6423 71.6614L71.6527 66.8676ZM86.6731 74.218H87.6318L97.2193 79.6509C97.5389 79.6509 97.5389 79.9705 97.5389 80.2901C97.5389 80.6097 97.5389 80.9293 97.2193 80.9293L90.8276 84.7642H90.1885L80.601 79.3313C80.2814 79.3313 80.2814 79.0118 80.2814 78.6922C80.2814 78.3726 80.2814 78.053 80.601 78.053L86.6731 74.218ZM90.5081 83.1663L95.3018 80.2901L87.3122 75.4964L82.5185 78.3726L90.5081 83.1663ZM102.972 83.1663L112.559 88.5992C112.879 88.5992 112.879 88.9188 112.879 89.2384C112.879 89.558 112.879 89.8776 112.559 89.8776L106.168 93.7126H105.528L95.941 88.2797C95.6214 88.2797 95.6214 87.9601 95.6214 87.6405C95.6214 87.3209 95.6214 87.0013 95.941 87.0013L102.333 83.1663H102.972ZM106.168 92.1147L110.961 89.2384L102.972 84.4447L98.178 87.3209L106.168 92.1147ZM110.961 96.5888C110.961 96.2692 110.961 95.9496 111.281 95.9496L117.673 92.1147H118.631L128.219 97.5475C128.538 97.5475 128.538 97.8671 128.538 98.1867C128.538 98.5063 128.538 98.8259 128.219 98.8259L121.827 102.661H121.188L111.601 97.228C111.281 97.228 110.961 96.9084 110.961 96.5888ZM121.508 101.063L126.301 98.5063L118.312 93.7126L113.518 96.5888L121.508 101.063ZM69.7352 78.3726C69.7352 78.6922 69.7352 79.0118 69.4156 79.0118L59.8282 84.4447H59.189L49.6015 79.0118C49.2819 79.0118 49.2819 78.6922 49.2819 78.3726C49.2819 78.053 49.2819 77.7334 49.6015 77.7334L59.189 72.3005H60.1477L69.7352 77.7334V78.3726ZM59.5086 73.8984L51.519 78.3726L59.5086 83.1663L67.4981 78.6922L59.5086 73.8984ZM85.3947 87.6405C85.3947 87.9601 85.3947 88.2797 85.0752 88.2797L75.4877 93.7126H74.8485L65.2611 88.2797C64.9415 88.2797 64.9415 87.9601 64.9415 87.6405C64.9415 87.3209 64.9415 87.0013 65.2611 87.0013L74.8485 81.5684H75.8073L85.3947 87.0013V87.6405ZM74.8485 82.8468L66.859 87.3209L75.1681 92.1147L83.1577 87.6405L74.8485 82.8468ZM91.1472 102.661H90.5081L80.9206 97.228C80.601 97.228 80.601 96.9084 80.601 96.5888C80.601 96.2692 80.601 95.9496 80.9206 95.9496L90.5081 90.5167H91.4668L101.054 95.9496C101.374 95.9496 101.374 96.2692 101.374 96.5888C101.374 96.9084 101.374 97.228 101.054 97.228L91.1472 102.661ZM90.5081 91.7951L82.5185 96.2692L90.5081 101.063L98.4976 96.5888L90.5081 91.7951ZM95.941 105.537C95.941 105.218 95.941 104.898 96.2606 104.898L105.848 99.465H106.807L116.394 104.898C116.714 104.898 116.714 105.218 116.714 105.537C116.714 105.857 116.714 106.176 116.394 106.176L106.807 111.609H106.168L96.5801 106.176C95.941 105.857 95.941 105.857 95.941 105.537ZM106.168 110.011L114.157 105.537L106.168 100.743L98.178 105.218L106.168 110.011ZM18.2824 95.9496L43.849 81.2488H44.8078L54.3952 86.6817C54.7148 86.6817 54.7148 87.0013 54.7148 87.3209C54.7148 87.6405 54.7148 87.9601 54.3952 87.9601L28.8287 102.661H28.1895L18.602 97.228C18.2824 97.228 18.2824 96.9084 18.2824 96.5888C17.6433 96.2692 17.9628 96.2692 18.2824 95.9496ZM28.1895 101.383L52.1582 87.6405L44.1686 82.8468L20.1999 96.5888L28.1895 101.383ZM59.8282 102.661H59.5086L49.9211 97.228C49.6015 97.228 49.6015 96.9084 49.6015 96.5888C49.6015 96.2692 49.6015 95.9496 49.9211 95.9496L59.5086 90.5167H60.4673L70.0548 95.9496C70.3744 95.9496 70.3744 96.2692 70.3744 96.5888C70.3744 96.9084 70.3744 97.228 70.0548 97.228L60.4673 102.661H59.8282ZM59.5086 91.7951L51.519 96.2692L59.5086 101.063L67.4981 96.5888L59.5086 91.7951ZM75.8073 111.609H75.1681L65.5806 106.176C65.2611 106.176 65.2611 105.857 65.2611 105.537C65.2611 105.218 65.2611 104.898 65.5806 104.898L75.1681 99.465H76.1269L85.7143 104.898C86.0339 104.898 86.0339 105.218 86.0339 105.537C86.0339 105.857 86.0339 106.176 85.7143 106.176L75.8073 111.609ZM75.1681 100.743L67.1786 105.218L75.1681 110.011L83.1577 105.537L75.1681 100.743ZM80.601 114.485C80.601 114.166 80.601 113.846 80.9206 113.846L90.5081 108.413H91.4668L101.054 113.846C101.374 113.846 101.374 114.166 101.374 114.485C101.374 114.805 101.374 115.125 101.054 115.125L91.4668 120.557H90.8276L81.2402 115.125C80.601 114.805 80.601 114.805 80.601 114.485ZM90.8276 118.96L98.8172 114.485L90.8276 109.692L82.8381 114.166L90.8276 118.96ZM43.2099 99.465H44.1686L53.7561 104.898C54.0757 104.898 54.0757 105.218 54.0757 105.537C54.0757 105.857 54.0757 106.176 53.7561 106.176L44.1686 111.609H43.5294L33.942 106.176C33.6224 106.176 33.6224 105.857 33.6224 105.537C33.6224 105.218 33.6224 104.898 33.942 104.898L43.2099 99.465ZM43.849 110.331L51.8386 105.857L43.849 101.063L35.8595 105.537L43.849 110.331ZM58.8694 108.413H59.8282L69.4156 113.846C69.7352 113.846 69.7352 114.166 69.7352 114.485C69.7352 114.805 69.7352 115.125 69.4156 115.125L59.8282 120.557H59.189L49.6015 115.125C49.2819 115.125 49.2819 114.805 49.2819 114.485C49.2819 114.166 49.2819 113.846 49.6015 113.846L58.8694 108.413ZM59.5086 119.279L67.4981 114.805L59.5086 110.011L51.519 114.485L59.5086 119.279ZM74.2094 117.362H75.1681L84.7556 122.795C85.0752 122.795 85.0752 123.114 85.0752 123.434C85.0752 123.753 85.0752 124.073 84.7556 124.073L75.1681 129.506H74.5289L64.9415 124.073C64.6219 124.073 64.6219 123.753 64.6219 123.434C64.6219 123.114 64.6219 122.795 64.9415 122.795L74.2094 117.362ZM74.8485 128.227L82.8381 123.753L74.8485 118.96L66.859 123.434L74.8485 128.227Z"/>
</mask>
<path d="M79.3227 55.3627L88.271 40.0227C88.271 39.7031 88.5906 39.7031 88.9101 39.7031H89.5493L97.2193 44.1773C97.5389 44.4969 97.8585 44.8164 97.5389 45.136C97.2193 45.4556 96.8997 45.7752 96.5801 45.4556L89.5493 41.301L81.5598 55.3627L139.085 89.2384L147.074 75.1768L109.683 53.4452C109.363 53.1256 109.044 52.806 109.363 52.4864C109.683 52.1668 110.003 51.8473 110.322 52.1668L148.672 74.5376C148.992 74.8572 149.311 75.1768 148.992 75.4964L140.043 90.8363C140.043 91.1559 139.724 91.1559 139.404 91.1559H138.765L79.6423 56.641C79.3227 56.3214 79.3227 56.0018 79.3227 55.3627ZM82.1989 71.3418C82.1989 71.6614 82.1989 71.9809 81.8793 71.9809L75.4877 75.8159H74.8485L65.2611 70.383C64.9415 70.383 64.9415 70.0635 64.9415 69.7439C64.9415 69.4243 64.9415 69.1047 65.2611 69.1047L71.6527 65.2697H72.6115L82.1989 70.7026C81.8793 71.0222 82.1989 71.0222 82.1989 71.3418ZM71.6527 66.8676L66.859 69.7439L74.8485 74.5376L79.6423 71.6614L71.6527 66.8676ZM86.6731 74.218H87.6318L97.2193 79.6509C97.5389 79.6509 97.5389 79.9705 97.5389 80.2901C97.5389 80.6097 97.5389 80.9293 97.2193 80.9293L90.8276 84.7642H90.1885L80.601 79.3313C80.2814 79.3313 80.2814 79.0118 80.2814 78.6922C80.2814 78.3726 80.2814 78.053 80.601 78.053L86.6731 74.218ZM90.5081 83.1663L95.3018 80.2901L87.3122 75.4964L82.5185 78.3726L90.5081 83.1663ZM102.972 83.1663L112.559 88.5992C112.879 88.5992 112.879 88.9188 112.879 89.2384C112.879 89.558 112.879 89.8776 112.559 89.8776L106.168 93.7126H105.528L95.941 88.2797C95.6214 88.2797 95.6214 87.9601 95.6214 87.6405C95.6214 87.3209 95.6214 87.0013 95.941 87.0013L102.333 83.1663H102.972ZM106.168 92.1147L110.961 89.2384L102.972 84.4447L98.178 87.3209L106.168 92.1147ZM110.961 96.5888C110.961 96.2692 110.961 95.9496 111.281 95.9496L117.673 92.1147H118.631L128.219 97.5475C128.538 97.5475 128.538 97.8671 128.538 98.1867C128.538 98.5063 128.538 98.8259 128.219 98.8259L121.827 102.661H121.188L111.601 97.228C111.281 97.228 110.961 96.9084 110.961 96.5888ZM121.508 101.063L126.301 98.5063L118.312 93.7126L113.518 96.5888L121.508 101.063ZM69.7352 78.3726C69.7352 78.6922 69.7352 79.0118 69.4156 79.0118L59.8282 84.4447H59.189L49.6015 79.0118C49.2819 79.0118 49.2819 78.6922 49.2819 78.3726C49.2819 78.053 49.2819 77.7334 49.6015 77.7334L59.189 72.3005H60.1477L69.7352 77.7334V78.3726ZM59.5086 73.8984L51.519 78.3726L59.5086 83.1663L67.4981 78.6922L59.5086 73.8984ZM85.3947 87.6405C85.3947 87.9601 85.3947 88.2797 85.0752 88.2797L75.4877 93.7126H74.8485L65.2611 88.2797C64.9415 88.2797 64.9415 87.9601 64.9415 87.6405C64.9415 87.3209 64.9415 87.0013 65.2611 87.0013L74.8485 81.5684H75.8073L85.3947 87.0013V87.6405ZM74.8485 82.8468L66.859 87.3209L75.1681 92.1147L83.1577 87.6405L74.8485 82.8468ZM91.1472 102.661H90.5081L80.9206 97.228C80.601 97.228 80.601 96.9084 80.601 96.5888C80.601 96.2692 80.601 95.9496 80.9206 95.9496L90.5081 90.5167H91.4668L101.054 95.9496C101.374 95.9496 101.374 96.2692 101.374 96.5888C101.374 96.9084 101.374 97.228 101.054 97.228L91.1472 102.661ZM90.5081 91.7951L82.5185 96.2692L90.5081 101.063L98.4976 96.5888L90.5081 91.7951ZM95.941 105.537C95.941 105.218 95.941 104.898 96.2606 104.898L105.848 99.465H106.807L116.394 104.898C116.714 104.898 116.714 105.218 116.714 105.537C116.714 105.857 116.714 106.176 116.394 106.176L106.807 111.609H106.168L96.5801 106.176C95.941 105.857 95.941 105.857 95.941 105.537ZM106.168 110.011L114.157 105.537L106.168 100.743L98.178 105.218L106.168 110.011ZM18.2824 95.9496L43.849 81.2488H44.8078L54.3952 86.6817C54.7148 86.6817 54.7148 87.0013 54.7148 87.3209C54.7148 87.6405 54.7148 87.9601 54.3952 87.9601L28.8287 102.661H28.1895L18.602 97.228C18.2824 97.228 18.2824 96.9084 18.2824 96.5888C17.6433 96.2692 17.9628 96.2692 18.2824 95.9496ZM28.1895 101.383L52.1582 87.6405L44.1686 82.8468L20.1999 96.5888L28.1895 101.383ZM59.8282 102.661H59.5086L49.9211 97.228C49.6015 97.228 49.6015 96.9084 49.6015 96.5888C49.6015 96.2692 49.6015 95.9496 49.9211 95.9496L59.5086 90.5167H60.4673L70.0548 95.9496C70.3744 95.9496 70.3744 96.2692 70.3744 96.5888C70.3744 96.9084 70.3744 97.228 70.0548 97.228L60.4673 102.661H59.8282ZM59.5086 91.7951L51.519 96.2692L59.5086 101.063L67.4981 96.5888L59.5086 91.7951ZM75.8073 111.609H75.1681L65.5806 106.176C65.2611 106.176 65.2611 105.857 65.2611 105.537C65.2611 105.218 65.2611 104.898 65.5806 104.898L75.1681 99.465H76.1269L85.7143 104.898C86.0339 104.898 86.0339 105.218 86.0339 105.537C86.0339 105.857 86.0339 106.176 85.7143 106.176L75.8073 111.609ZM75.1681 100.743L67.1786 105.218L75.1681 110.011L83.1577 105.537L75.1681 100.743ZM80.601 114.485C80.601 114.166 80.601 113.846 80.9206 113.846L90.5081 108.413H91.4668L101.054 113.846C101.374 113.846 101.374 114.166 101.374 114.485C101.374 114.805 101.374 115.125 101.054 115.125L91.4668 120.557H90.8276L81.2402 115.125C80.601 114.805 80.601 114.805 80.601 114.485ZM90.8276 118.96L98.8172 114.485L90.8276 109.692L82.8381 114.166L90.8276 118.96ZM43.2099 99.465H44.1686L53.7561 104.898C54.0757 104.898 54.0757 105.218 54.0757 105.537C54.0757 105.857 54.0757 106.176 53.7561 106.176L44.1686 111.609H43.5294L33.942 106.176C33.6224 106.176 33.6224 105.857 33.6224 105.537C33.6224 105.218 33.6224 104.898 33.942 104.898L43.2099 99.465ZM43.849 110.331L51.8386 105.857L43.849 101.063L35.8595 105.537L43.849 110.331ZM58.8694 108.413H59.8282L69.4156 113.846C69.7352 113.846 69.7352 114.166 69.7352 114.485C69.7352 114.805 69.7352 115.125 69.4156 115.125L59.8282 120.557H59.189L49.6015 115.125C49.2819 115.125 49.2819 114.805 49.2819 114.485C49.2819 114.166 49.2819 113.846 49.6015 113.846L58.8694 108.413ZM59.5086 119.279L67.4981 114.805L59.5086 110.011L51.519 114.485L59.5086 119.279ZM74.2094 117.362H75.1681L84.7556 122.795C85.0752 122.795 85.0752 123.114 85.0752 123.434C85.0752 123.753 85.0752 124.073 84.7556 124.073L75.1681 129.506H74.5289L64.9415 124.073C64.6219 124.073 64.6219 123.753 64.6219 123.434C64.6219 123.114 64.6219 122.795 64.9415 122.795L74.2094 117.362ZM74.8485 128.227L82.8381 123.753L74.8485 118.96L66.859 123.434L74.8485 128.227Z" fill="#030E17" stroke="#F0F2F5" stroke-width="0.6" mask="url(#path-6-inside-1_281_2967)"/>
</svg>
