<svg width="60" height="60" viewBox="0 0 60 60" fill="none" xmlns="http://www.w3.org/2000/svg">
<path d="M34.8457 47.7638L26.3072 42.8023C25.9611 42.5715 25.8457 42.2254 25.8457 41.6484L34.3842 46.61C34.2688 47.1869 34.4996 47.5331 34.8457 47.7638Z" fill="white"/>
<path d="M34.2689 46.6172L25.7305 41.6556V27.1172L34.2689 32.0787V46.6172Z" fill="white"/>
<path d="M50.7686 21.1108C50.4225 20.88 49.9609 20.9954 49.4994 21.2261L35.9994 29.0723L27.4609 24.1108L40.9609 16.2646C41.4225 16.0338 41.884 15.9185 42.2302 16.1492L50.7686 21.1108Z" fill="#F0F2F5"/>
<path d="M34.2689 32.0709L25.7305 27.1094C25.7305 25.9555 26.5382 24.6863 27.4612 24.1094L35.9997 29.0709C35.0766 29.5325 34.2689 30.9171 34.2689 32.0709Z" fill="white"/>
<path d="M49.5002 21.2249C50.4232 20.648 51.2309 21.1096 51.2309 22.2634V36.8019C51.2309 37.9557 50.4232 39.2249 49.5002 39.8019L36.0002 47.648C35.0771 48.2249 34.2694 47.7634 34.2694 46.6096V32.0711C34.2694 30.9172 35.0771 29.648 36.0002 29.0711L49.5002 21.2249ZM25.154 25.9557L33.6925 30.9172C33.3463 30.6865 32.8848 30.8019 32.4232 31.0326L23.8848 26.0711C24.4617 25.7249 24.8078 25.7249 25.154 25.9557Z" fill="white"/>
<path d="M18.9226 38.8858L10.3841 33.9243L23.8841 26.0781L32.5379 31.0397L18.9226 38.8858ZM8.65332 42.232V36.9243L17.1918 41.8858V56.4243C17.1918 57.0012 17.4226 57.3474 17.6533 57.5781L9.23024 52.6166C8.88409 52.3858 8.7687 52.0397 8.7687 51.4627V48.3474" fill="#F0F2F5"/>
<path d="M17.1918 41.8834L8.65332 36.9219C8.65332 35.768 9.46101 34.4988 10.3841 33.9219L18.9226 38.8834C17.9995 39.4603 17.1918 40.7296 17.1918 41.8834Z" fill="white"/>
<path d="M32.5384 31.0374C33.4615 30.4605 34.2692 30.9221 34.2692 32.0759V46.6144C34.2692 47.7682 33.4615 49.0374 32.5384 49.6144L19.0384 57.4605C18.1153 58.0374 17.3076 57.5759 17.3076 56.4221V41.8836C17.3076 40.7297 18.1153 39.4605 19.0384 38.8836L32.5384 31.0374Z" fill="white"/>
<path d="M26.1924 34.034L17.6539 29.0725C17.3078 28.8417 17.1924 28.4956 17.1924 27.9186V13.3802L25.7308 18.3417V32.8802C25.7308 33.4571 25.9616 33.9186 26.1924 34.034ZM29.4232 4.2648L32.4232 2.53403C32.8847 2.18788 33.3462 2.18788 33.6924 2.41864L42.2308 7.38018C41.8847 7.14941 41.4232 7.2648 40.9616 7.49557L27.4616 15.3417L18.8078 10.3802L25.6155 6.45711" fill="#F0F2F5"/>
<path d="M25.7308 18.3444L17.1924 13.3828C17.1924 12.229 18.0001 10.9597 18.9232 10.3828L27.4616 15.3444C26.4232 15.9213 25.7308 17.3059 25.7308 18.3444Z" fill="white"/>
<path d="M40.9612 7.49837C41.8843 6.92145 42.692 7.38299 42.692 8.53683V23.0753C42.692 24.2291 41.8843 25.4984 40.9612 26.0753L27.4612 33.9215C26.5382 34.4984 25.7305 34.0368 25.7305 32.883V18.3445C25.7305 17.1907 26.5382 15.9215 27.4612 15.3445L40.9612 7.49837Z" fill="white"/>
<path d="M28.1537 30.6881L28.0383 17.8804L40.3845 10.7266V23.6496L28.1537 30.6881ZM36.6922 44.3035V31.4958L48.9229 24.4573V37.265L36.6922 44.3035ZM19.7306 54.2266L19.6152 41.4189L31.846 34.265L31.9614 47.0727L19.7306 54.2266Z" fill="white"/>
<path d="M35.8848 16.4966C36.0002 16.4966 36.1156 16.3812 36.1156 16.4966C36.231 16.4966 36.231 16.612 36.231 16.7274C36.231 16.8427 36.231 16.9581 36.1156 17.0735C36.0002 17.1889 36.0002 17.3043 35.8848 17.3043L33.1156 18.9197V20.9966L35.6541 19.4966C35.7695 19.4966 35.8848 19.3812 35.8848 19.4966C36.0002 19.4966 36.0002 19.612 36.0002 19.7274C36.0002 19.8427 36.0002 19.9581 35.8848 20.0735C35.7695 20.1889 35.7695 20.3043 35.6541 20.3043L33.1156 21.8043V24.3427C33.1156 24.4581 33.1156 24.5735 33.0002 24.6889C32.8848 24.8043 32.8848 24.9197 32.7695 24.9197C32.6541 25.0351 32.5387 25.0351 32.5387 24.9197C32.4233 24.9197 32.4233 24.8043 32.4233 24.6889V18.9197C32.4233 18.8043 32.4233 18.6889 32.5387 18.5735C32.6541 18.4581 32.6541 18.3427 32.7695 18.3427L35.8848 16.4966ZM28.3848 44.8812V44.9966C28.3848 45.112 28.3848 45.2274 28.2695 45.3428C28.1541 45.4581 28.1541 45.5735 28.0387 45.5735C27.9233 45.5735 27.9233 45.6889 27.8079 45.5735C27.6925 45.5735 27.6925 45.5735 27.6925 45.4581L27.1156 44.3043L24.3464 45.9197L23.7695 47.7658C23.7695 47.8812 23.6541 47.9966 23.6541 47.9966L23.4233 48.2274C23.3079 48.3428 23.1925 48.3428 23.1925 48.2274C23.0771 48.2274 23.0771 48.112 23.0771 47.9966V47.7658L25.1541 40.8428C25.1541 40.7274 25.2695 40.612 25.3848 40.4966C25.5002 40.3812 25.6156 40.2658 25.731 40.2658H25.8464C25.9618 40.1504 26.0771 40.1504 26.1925 40.1504C26.3079 40.1504 26.3079 40.2658 26.4233 40.3812L28.3848 44.8812ZM24.6925 45.112L26.8848 43.8428L25.731 41.4197L24.6925 45.112Z" fill="#405FCE"/>
<path d="M51.5767 22.1518C51.5767 21.4595 51.3459 20.998 50.8844 20.7672L43.0382 16.1518V8.42105C43.0382 7.72874 42.8075 7.2672 42.3459 7.03643C42.3459 7.03643 33.9229 2.07489 33.8075 2.07489C33.3459 1.84413 32.769 1.84413 32.3075 2.19028L29.3075 3.92105C29.1921 4.03643 29.0767 4.15182 29.1921 4.38259C29.3075 4.61336 29.4229 4.61336 29.5382 4.49797L32.5382 2.7672C32.8844 2.53643 33.2305 2.53643 33.4613 2.65182L41.0767 7.15182C40.9613 7.15182 40.8459 7.2672 40.7305 7.2672L27.4613 14.998L19.4998 10.3826L25.8459 6.69028C25.9613 6.5749 26.0767 6.45951 25.9613 6.34413C25.8459 6.22874 25.7305 6.11336 25.6152 6.22874C22.6152 7.95951 18.9229 10.1518 18.8075 10.1518C17.769 10.7287 16.9613 12.2287 16.9613 13.3826V27.9211C16.9613 28.498 17.1921 29.0749 17.6536 29.3057H17.769L10.3844 33.5749C9.23054 34.2672 8.42285 35.6518 8.42285 36.9211V42.2287C8.42285 42.3441 8.53824 42.5749 8.76901 42.5749C8.88439 42.5749 9.11516 42.4595 9.11516 42.2287V37.498L17.0767 42.1134V56.8826L9.46131 52.498C9.23054 52.3826 9.11516 52.0364 9.11516 51.5749V48.4595C9.11516 48.3441 8.99977 48.1134 8.76901 48.1134C8.53824 48.1134 8.42285 48.2287 8.42285 48.4595V51.5749C8.42285 52.2672 8.65362 52.7287 9.11516 52.9595C9.23054 53.0749 17.6536 57.9211 17.769 57.9211C18.2305 58.1518 18.8075 58.0364 19.269 57.8057L32.769 49.9595C33.4613 49.498 34.1536 48.6903 34.3844 47.8826L34.7305 48.1134C35.1921 48.3441 35.769 48.2287 36.2305 47.998L49.7305 40.1518C50.769 39.5749 51.5767 38.0749 51.5767 36.9211V22.1518ZM49.7305 20.7672C49.6152 20.8826 49.4998 20.8826 49.3844 20.8826L42.4613 24.8057C42.8075 24.2287 43.0382 23.5364 43.0382 22.9595V16.7287L49.7305 20.7672ZM34.1536 30.9211C34.0382 30.8057 33.9229 30.6903 33.8075 30.6903L34.4998 30.3441C34.3844 30.4595 34.1536 30.9211 34.1536 30.9211ZM42.1152 7.61336C42.3459 7.72874 42.4613 8.0749 42.4613 8.53643V23.0749C42.4613 24.1134 41.769 25.3826 40.8459 25.8441C40.7305 25.9595 27.2305 33.6903 27.1152 33.8057C26.4229 34.1518 25.9613 33.6903 25.9613 32.998V18.4595C25.9613 17.4211 26.6536 16.2672 27.5767 15.6903L41.0767 7.84413C41.5382 7.61336 41.8844 7.49797 42.1152 7.61336ZM18.9229 10.7287L26.9998 15.3441C26.3075 15.9211 25.6152 16.9595 25.4998 17.8826L17.4229 13.2672C17.4229 12.3441 18.1152 11.1903 18.9229 10.7287ZM17.769 28.8441C17.5382 28.7287 17.4229 28.3826 17.4229 27.9211V13.8441C17.5382 13.9595 25.9613 18.8057 25.3844 18.4595V33.2287C25.269 33.2287 19.7305 29.998 17.769 28.8441ZM18.2305 29.7672C18.2305 29.7672 26.1921 34.3826 26.3075 34.3826C26.1921 34.498 18.9229 38.6518 19.0382 38.5364L11.0767 33.9211L18.2305 29.7672ZM10.3844 34.2672L18.4613 38.8826C17.5382 39.8057 17.3075 40.3826 16.9613 41.4211L8.88439 36.8057C8.99977 35.7672 9.69208 34.7287 10.3844 34.2672ZM32.4229 49.3826L18.9229 57.2287C18.2305 57.6903 17.5382 57.4595 17.5382 56.5364V41.998C17.5382 40.9595 18.2305 39.6903 19.1536 39.2287C21.6921 37.7287 21.4613 37.9595 32.6536 31.3826C33.3459 31.0364 33.9229 31.2672 33.9229 32.1903V46.7287C34.0382 47.6518 33.3459 48.8057 32.4229 49.3826ZM49.4998 39.5749L35.8844 47.3057C35.0767 47.7672 34.4998 47.4211 34.4998 46.6134V32.0749C34.4998 31.0364 35.1921 29.7672 36.1152 29.3057L49.6152 21.4595C49.9613 21.2287 50.3075 21.2287 50.5382 21.3441C50.769 21.4595 50.8844 21.8057 50.8844 22.2672V36.8057C51.1152 37.7287 50.3075 38.998 49.4998 39.5749Z" fill="#405FCE"/>
<path d="M44.3075 30.1172C43.8459 30.1172 43.3844 30.2326 42.8075 30.5787C42.2305 30.9249 41.769 31.3864 41.3075 31.848C40.8459 32.4249 40.4998 33.0018 40.269 33.5787C40.0382 34.271 39.9229 34.848 39.9229 35.5403C39.9229 36.2326 40.0382 36.6941 40.269 37.0403C40.4998 37.3864 40.8459 37.6172 41.3075 37.6172C41.769 37.6172 42.2305 37.5018 42.8075 37.1556C43.0382 37.0403 43.1536 36.9249 43.269 36.8095L44.1921 37.5018H44.4229C44.5382 37.3864 44.6536 37.3864 44.6536 37.271C44.769 37.1556 44.769 37.0403 44.769 36.9249C44.769 36.8095 44.769 36.6941 44.6536 36.6941L43.9613 36.2326C44.4229 35.6556 44.8844 35.0787 45.2305 34.271C45.5767 33.5787 45.6921 32.771 45.6921 32.0787C45.6921 31.3864 45.5767 30.9249 45.3459 30.5787C45.1152 30.348 44.769 30.1172 44.3075 30.1172ZM44.6536 34.1556C44.5382 34.6172 44.1921 35.0787 43.9613 35.5403C43.6152 36.0018 43.269 36.348 42.8075 36.5787C42.3459 36.8095 41.9998 36.9249 41.6536 36.9249C41.3075 36.9249 41.0767 36.6941 40.9613 36.4633C40.8459 36.1172 40.7305 35.771 40.7305 35.3095C40.7305 34.848 40.8459 34.271 40.9613 33.8095C41.0767 33.348 41.4229 32.8864 41.6536 32.4249C41.9998 32.0787 42.3459 31.7326 42.8075 31.3864C43.269 31.1556 43.6152 31.0403 43.9613 31.0403C44.3075 31.0403 44.5382 31.271 44.769 31.5018C44.8844 31.848 44.9998 32.1941 44.9998 32.6556C44.9998 33.2326 44.8844 33.6941 44.6536 34.1556Z" fill="#405FCE"/>
<path d="M28.0378 30.9249H28.2686L40.4993 23.8864C40.6147 23.8864 40.6147 23.771 40.6147 23.6557V10.848C40.6147 10.7326 40.6147 10.6172 40.4993 10.6172H40.1532L27.9224 17.6557C27.807 17.6557 27.807 17.771 27.807 17.8864V30.6941C27.807 30.8095 27.9224 30.9249 28.0378 30.9249ZM40.0378 11.3095V23.4249L28.3839 30.1172V18.0018L40.0378 11.3095ZM49.2686 37.271V24.4633C49.2686 24.348 49.1532 24.2326 49.1532 24.2326H48.807L36.5762 31.271C36.4609 31.271 36.4609 31.3864 36.4609 31.5018V44.3095C36.4609 44.4249 36.4609 44.5403 36.5762 44.5403H36.807L49.0378 37.5018C49.1532 37.5018 49.2686 37.3864 49.2686 37.271ZM37.0378 43.848V31.7326L48.6916 25.0403V37.1557L37.0378 43.848ZM19.4993 54.4633H19.7301L31.9609 47.4249C32.0762 47.4249 32.0762 47.3095 32.0762 47.1941V34.3864C32.0762 34.271 31.9609 34.1557 31.9609 34.1557H31.6147L19.3839 41.1941C19.2686 41.1941 19.2686 41.3095 19.2686 41.4249V54.2326C19.3839 54.348 19.4993 54.348 19.4993 54.4633ZM31.6147 34.848V46.9633L19.9609 53.6557V41.5403L31.6147 34.848Z" fill="#030E17"/>
</svg>
