<svg width="200" height="200" viewBox="0 0 200 200" fill="none" xmlns="http://www.w3.org/2000/svg">
<path d="M55.1 127.957C52.7346 134.164 48.7181 141.262 42.3524 149.346L27.8806 140.936C34.1953 132.902 38.2259 125.804 40.6308 119.549L55.1 127.957Z" fill="#F0F2F5" stroke="black"/>
<path d="M94.532 34.6915L94.5321 34.6915C107.17 27.3965 118.803 24.9794 127.658 27.046L117.889 21.3686C117.889 21.3686 117.889 21.3685 117.889 21.3685C109.156 16.2951 95.3535 17.6001 79.6899 26.6432M94.532 34.6915L79.6899 26.6432M94.532 34.6915C82.2332 41.7928 71.0473 52.3519 62.4604 64.024L47.9879 55.612M94.532 34.6915L47.9879 55.612M79.6899 26.6432C67.5579 33.6482 56.4937 44.0694 47.9879 55.612M79.6899 26.6432L47.9879 55.612" fill="#F0F2F5" stroke="black"/>
<path d="M47.3906 56.4248L61.8668 64.8372C51.8673 78.6834 45.5217 94.0708 45.5582 107.204C45.5788 114.575 47.6049 120.42 51.2086 124.542L40.6303 118.394C34.7723 114.699 31.243 107.924 31.2131 98.2835C31.1744 85.415 37.4254 70.1976 47.3906 56.4248Z" fill="#F0F2F5" stroke="black"/>
<path d="M57.5 70L48.5057 64.6549L46 59L51.5 52L66.5 58L57.5 70Z" fill="#F0F2F5"/>
<path d="M44.357 148.786C44.1964 148.85 44.0444 148.91 43.9011 148.964C50.0222 141.075 53.8781 134.089 56.1728 127.912L56.3141 127.532L55.971 127.316C50.1087 123.615 46.5971 116.839 46.561 107.212C46.5266 95.2336 51.9117 81.2032 60.697 68.2034C69.4773 55.2109 81.6186 43.3011 95.0211 35.5542C109.229 27.362 121.918 25.5289 130.65 29.0148C138.437 32.1374 143.231 39.5519 143.264 50.8077C143.299 62.7691 137.913 76.7911 129.124 89.7869C120.339 102.775 108.188 114.685 94.7678 122.432C86.4407 127.21 78.6675 129.863 71.8717 130.489L71.6883 130.506L71.5597 130.638C66.4871 135.837 60.7236 140.315 54.4311 143.944L54.4276 143.946C51.2482 145.814 47.9225 147.42 44.4832 148.75H44.4465L44.357 148.786Z" fill="#F0F2F5" stroke="#405FCE"/>
<path d="M55.9243 128.342L56.3325 128.486L52.4748 141.619L44.3191 148.806L43.59 149.061L55.9243 128.342Z" fill="#F0F2F5" stroke="black"/>
<path d="M54.4294 143.948C51.7398 145.528 48.9454 146.922 46.0661 148.118C51.6118 140.697 55.1966 134.135 57.3733 128.342L57.5165 127.961L57.1723 127.743C51.3118 124.039 47.7648 117.262 47.7288 107.606C47.6943 95.6429 53.0793 81.6202 61.8692 68.6245C70.6541 55.6361 82.8046 43.7269 96.2254 35.9815L96.2257 35.9814C109.789 28.1427 121.955 26.1299 130.665 29.0227C138.445 32.1486 143.233 39.561 143.266 50.81C143.3 62.7715 137.915 76.7934 129.125 89.7892C120.341 102.777 108.191 114.687 94.7702 122.434C86.4429 127.212 78.6695 129.865 71.8735 130.492L71.6901 130.508L71.5615 130.64C66.4889 135.84 60.7254 140.317 54.4329 143.946L54.4294 143.948Z" fill="#F0F2F5" stroke="#405FCE"/>
<path d="M84.9605 142.559C81.8107 138.847 80.0437 133.635 80.0262 127.099C79.994 116.067 84.9396 103.265 92.9041 91.4871C100.711 79.9413 111.454 69.3278 123.364 62.2751L110.673 54.9028C98.7129 61.8665 87.8899 72.5006 80.0493 84.0961C72.1491 95.7797 67.312 108.386 67.3419 119.147L84.9605 142.559ZM84.9605 142.559L76.3294 137.544L76.3293 137.544C70.7537 134.305 67.3689 128.1 67.3419 119.147L84.9605 142.559ZM159.094 98.3163L171.414 105.475C166.407 106.195 162.823 105.557 160.264 104.098C160.263 104.098 160.263 104.098 160.262 104.098L150.801 98.5986C153.119 98.9575 155.861 98.8945 159.094 98.3163ZM153.66 54.8703C145.771 53.1498 135.502 55.3182 124.359 61.6961L111.676 54.326C125.473 46.5704 137.577 45.5233 145.275 49.9962L153.66 54.8703Z" fill="#F0F2F5" stroke="black"/>
<path d="M117 65.5L105.633 59.8274L110.5 55.5L115.5 53L127 59.5L117 65.5Z" fill="#F0F2F5"/>
<path d="M143.644 125.656L143.509 125.69L143.411 125.789C137.659 131.62 131.176 136.821 124.312 140.735L124.309 140.737C114.838 146.211 106.113 148.541 99.0342 148.081C92.009 147.624 86.606 144.426 83.6239 138.801C83.6104 138.731 83.5818 138.644 83.5217 138.558C81.9011 135.49 81.0217 131.682 81.0217 127.118L81.0217 127.116C80.9827 116.34 85.8183 103.73 93.7215 92.0458C101.62 80.3684 112.547 69.6684 124.615 62.7032L124.615 62.7032C133.988 57.289 142.627 54.9498 149.659 55.3383C156.675 55.7258 162.087 58.8226 165.114 64.3091L165.121 64.3232L165.13 64.3367C165.391 64.7449 165.61 65.1503 165.791 65.5864L165.795 65.5964L165.8 65.6063C167.17 68.535 167.939 72.1313 167.939 76.3249L167.939 76.3272C167.978 84.922 164.894 94.7107 159.57 104.31L159.335 104.735L159.752 104.983C159.96 105.106 160.136 105.195 160.348 105.282C163.099 106.649 166.745 107.151 171.52 106.481C168.956 109.23 161.493 116.725 152.693 121.802C149.71 123.507 146.669 124.893 143.644 125.656Z" fill="#F0F2F5" stroke="black"/>
<path d="M143.645 125.654L143.51 125.689L143.412 125.788C137.66 131.618 131.177 136.82 124.313 140.734L124.31 140.736C114.839 146.21 106.114 148.54 99.0353 148.08C92.0101 147.623 86.6071 144.425 83.6251 138.8C83.6122 138.733 83.5857 138.651 83.5316 138.569C82.1371 135.611 81.3751 131.995 81.3751 127.779L81.3751 127.778C81.3556 117.021 86.1914 104.412 94.0897 92.7277C101.983 81.051 112.9 70.352 124.968 63.4068L124.969 63.4061C134.147 58.0888 142.632 55.7286 149.595 55.9971C156.545 56.2651 161.968 59.1462 165.126 64.3267L165.125 64.3267L165.131 64.3355C165.392 64.7438 165.611 65.1491 165.792 65.5852L165.8 65.6047L165.81 65.6235C167.406 68.7006 168.292 72.5233 168.292 77.0282L168.292 77.0305C168.331 85.4686 165.323 95.1423 160.117 104.583L160.098 104.619L160.084 104.656C160.049 104.755 160.001 104.85 159.943 104.938L159.65 105.383L160.112 105.647C162.715 107.137 166.184 107.784 170.778 107.265C167.7 110.465 160.758 117.148 152.694 121.801C149.711 123.506 146.671 124.892 143.645 125.654Z" fill="#F0F2F5" stroke="#405FCE"/>
<path d="M145.993 70.6846C143.713 70.6127 141.233 71.3739 138.805 72.7781C134.937 75.015 131.104 78.9159 128.196 83.952L128.196 83.9523C127.816 84.6103 127.461 85.2678 127.135 85.9277L123.077 83.571C123.401 82.9125 123.755 82.2541 124.137 81.592L145.993 70.6846ZM145.993 70.6846L144.337 69.7225C144.336 69.7222 144.336 69.7219 144.335 69.7215C141.661 68.1992 138.085 68.6416 134.381 70.7836L134.38 70.7838C130.692 72.9128 126.973 76.681 124.137 81.5918L145.993 70.6846Z" fill="#F0F2F5" stroke="black"/>
<path d="M124.139 81.589L124.14 81.588C126.913 76.7873 130.523 73.0785 134.132 70.9229L138.075 73.2153C134.458 75.5013 130.921 79.2263 128.199 83.9477C127.817 84.6065 127.461 85.2627 127.133 85.924L123.077 83.5671C123.401 82.9087 123.755 82.2505 124.139 81.589Z" fill="#F0F2F5" stroke="black"/>
<path d="M133.795 75.1089V74.3043L133.5 71.8905L135.5 71L138.5 72.5L133.795 75.1089Z" fill="#F0F2F5"/>
<path d="M122.541 84.2228C120.34 84.1534 117.954 84.8595 115.61 86.1696L111.7 83.8992C115.125 82.1308 118.397 81.8433 120.882 83.2592L120.931 83.2878L120.933 83.2892L122.541 84.2228ZM110.684 84.4652L114.626 86.7549C111.009 89.0418 107.472 92.7726 104.745 97.4965L104.745 97.4965C101.836 102.534 100.374 107.794 100.385 112.24C100.392 114.977 100.961 117.446 102.129 119.352L100.571 118.446L100.567 118.444C97.8947 116.923 96.4737 113.631 96.463 109.377C96.4522 105.138 97.851 100.049 100.686 95.1363C103.461 90.3297 107.074 86.6208 110.684 84.4652Z" fill="#F0F2F5" stroke="black"/>
<path d="M112 88L110.461 87.1793L110.5 85L113.5 83.5L116 85.5L112 88Z" fill="#F0F2F5"/>
<path d="M115.856 87.1771L115.857 87.1768C119.558 85.0375 123.138 84.5953 125.809 86.1184C126.244 86.367 126.645 86.6607 127.013 86.9974L127.513 87.4554L127.803 86.842C128.179 86.0456 128.6 85.2502 129.062 84.4496C131.898 79.5388 135.617 75.7704 139.305 73.6415C143.007 71.5046 146.588 71.0568 149.261 72.5802C151.934 74.1029 153.356 77.3957 153.367 81.6501C153.378 85.8899 151.979 90.9785 149.143 95.8911L127.297 133.729L105.491 121.302L105.491 121.302C102.817 119.781 101.396 116.489 101.385 112.235C101.374 107.995 102.774 102.907 105.61 97.9942C108.449 93.0771 112.165 89.3059 115.856 87.1771Z" fill="#F0F2F5" stroke="#405FCE"/>
<path d="M58.8013 98.8401L58.7927 98.8426L58.7841 98.8454C56.4067 99.618 54.2466 100.944 52.4817 102.715L52.4808 102.716C50.7339 104.477 49.412 106.615 48.6156 108.964L48.611 108.978L48.6071 108.992C48.5832 109.078 48.5433 109.125 48.5087 109.15C48.4713 109.178 48.4233 109.194 48.3699 109.194C48.27 109.194 48.1487 109.137 48.0909 108.967C47.3135 106.605 45.9924 104.459 44.234 102.701C42.4753 100.943 40.3282 99.6225 37.9657 98.8459L37.9657 98.8459L37.9605 98.8442C37.766 98.7826 37.7129 98.6563 37.7129 98.5633C37.7129 98.4703 37.766 98.3441 37.9605 98.2824L37.9605 98.2825L37.9696 98.2795C40.3213 97.4848 42.4606 96.1639 44.2247 94.4174L44.2254 94.4167C45.9962 92.6557 47.321 90.4975 48.0896 88.1215C48.1407 87.9844 48.253 87.9219 48.3699 87.9219C48.4855 87.9219 48.5742 87.9799 48.6092 88.0996L48.6123 88.11L48.6158 88.1203C49.4406 90.545 50.7431 92.6734 52.482 94.4154L52.4818 94.4155L52.4913 94.4245C54.2596 96.1056 56.3838 97.498 58.7835 98.2811L58.7924 98.284L58.8013 98.2866C58.8618 98.3038 58.915 98.3403 58.9529 98.3906C58.9908 98.4408 59.0112 98.502 59.0112 98.5648C59.0112 98.6277 58.9908 98.6889 58.9529 98.7391C58.9181 98.7852 58.8669 98.8214 58.8013 98.8401Z" fill="#F0F2F5" stroke="black"/>
</svg>
