<svg width="60" height="60" viewBox="0 0 60 60" fill="none" xmlns="http://www.w3.org/2000/svg">
<path d="M53.3078 26.0763L30.2308 12.6917L29.1924 10.9609L52.2693 24.3456L53.3078 26.0763Z" fill="white"/>
<path d="M52.2695 24.3504L29.1926 10.9657L20.7695 5.77344L43.8465 19.1581L52.2695 24.3504Z" fill="white"/>
<path d="M9.46064 45.8047L6.69141 44.3047V26.3047L29.7683 39.6893L29.8837 57.6893L13.7299 48.3432" fill="#F0F2F5"/>
<path d="M29.7683 39.6893L6.69141 26.3047L7.72987 23.3047L30.8068 36.6893L29.7683 39.6893Z" fill="white"/>
<path d="M43.8465 19.1562L52.2695 24.3486L53.308 26.0793V44.0793L29.8849 57.6947L29.7695 39.6947L30.808 36.6947L39.2311 21.8101L43.8465 19.1562Z" fill="white"/>
<path d="M39.2312 21.8119L16.1543 8.42728L20.7697 5.77344L43.8466 19.1581L39.2312 21.8119Z" fill="white"/>
<path d="M30.8074 36.6911L7.73047 23.3065L16.1535 8.42188L39.2305 21.8065L30.8074 36.6911Z" fill="white"/>
<path d="M11.9995 11.5403L14.9995 6.11719L38.1919 19.6172L28.7303 36.2326L5.6534 22.848L9.57647 15.9249M26.4226 43.0403L3.3457 29.6557L5.6534 22.848L28.7303 36.2326L26.4226 43.0403Z" fill="white"/>
<path d="M26.8846 5.30469L44.8846 15.6893L38.1923 19.6124L15 6.11238L21.6923 2.30469L23.8846 3.57392" fill="white"/>
<path d="M44.8844 15.6953L54.3459 21.5799L56.6536 25.6184L54.4613 28.1568L53.3075 26.0799L52.269 24.3492L43.8459 19.1569L39.2305 21.8107L30.8075 36.6953L29.769 39.6953L28.6152 43.0415H26.4229L28.7305 36.2338L38.1921 19.6184L44.8844 15.6953Z" fill="white"/>
<path d="M50.25 40.9435V45.5696L45 48.75V37.6804L50.25 34.5V37.9696" fill="#F0F2F5"/>
<path d="M48 25.9435V32.0696L35.25 39.75V31.6804L48 24.75V26.7196" fill="#F0F2F5"/>
<path d="M48.6923 31.3828L34.5 55.0367L48.6923 31.3828ZM34.5 39.5751L48.6923 46.8443L34.5 39.5751Z" fill="white"/>
<path fill-rule="evenodd" clip-rule="evenodd" d="M35.625 43.0825V50.25L40.65 47.1489V40.0825L35.625 43.0825ZM35.25 42.75V51L41.25 47.25V39L35.25 42.75Z" fill="#030E17"/>
<path fill-rule="evenodd" clip-rule="evenodd" d="M24.375 43.0825V50.25L19.35 47.1489V40.0825L24.375 43.0825ZM24.75 42.75V51L18.75 47.25V39L24.75 42.75Z" fill="#030E17"/>
<path fill-rule="evenodd" clip-rule="evenodd" d="M35.625 31.8325V39L47.4 32.1489V25.0825L35.625 31.8325ZM35.25 31.5V39.75L48 32.25V24.375L35.25 31.5Z" fill="#030E17"/>
<path fill-rule="evenodd" clip-rule="evenodd" d="M50.625 33.8594V45.5982L44.625 49.0268V37.2879L50.625 33.8594ZM45.375 37.5039V48.0039L49.875 45.3789V35.2539L45.375 37.5039Z" fill="#030E17"/>
<path d="M44.9997 15.4627L27.1151 5.07813C26.9997 4.96274 26.7689 5.07813 26.7689 5.19351C26.6535 5.30889 26.7689 5.53966 26.8843 5.53966L44.4228 15.6935L38.3074 19.2704L15.5766 6.11659L21.692 2.53966L23.6535 3.69351C23.7689 3.80889 23.9997 3.69351 23.9997 3.57813C24.1151 3.46274 23.9997 3.23197 23.8843 3.23197L21.9228 2.07812H21.5766L14.8843 5.88582L14.7689 6.0012L11.7689 11.3089C11.6535 11.4243 11.7689 11.655 11.8843 11.655C11.9997 11.7704 12.2305 11.655 12.2305 11.5397L15.1151 6.46274L37.7305 19.6166L28.6151 35.7704L6.11508 22.732L9.92278 16.0397C10.0382 15.9243 9.92278 15.6935 9.80739 15.6935C9.69201 15.5781 9.46124 15.6935 9.46124 15.8089L5.53816 22.732L3.23047 29.5397C3.23047 29.6551 3.23047 29.7704 3.34585 29.8858L26.4228 43.2704H26.6535C26.7689 43.2704 26.7689 43.1551 26.7689 43.0397L29.0766 36.232L38.4228 19.6166L44.9997 15.8089C45.1151 15.8089 45.1151 15.6935 45.1151 15.5781C45.1151 15.6935 45.1151 15.5781 44.9997 15.4627ZM26.3074 42.6935L3.69201 29.5397L5.76893 23.3089L28.3843 36.4627L26.3074 42.6935Z" fill="#030E17"/>
<path d="M7.03786 44.0763V32.0763L6.46094 31.7302V44.1917C6.46094 44.3071 6.46094 44.4225 6.57632 44.4225L9.34555 46.0379C9.46094 46.1532 9.69171 46.0379 9.69171 45.9225C9.80709 45.8071 9.69171 45.5763 9.57632 45.5763L7.03786 44.0763ZM56.884 25.4994L54.5763 21.3456L54.4609 21.2302L44.9994 15.4609H44.6533L38.0763 19.384L37.9609 19.4994L28.6148 36.2302L26.3071 43.0379V43.2686C26.3071 43.384 26.4225 43.384 26.5379 43.384H28.7302C28.8456 43.384 28.9609 43.2686 28.9609 43.1532L29.5379 41.4225V57.2302L13.8456 48.1148C13.7302 47.9994 13.4994 48.1148 13.4994 48.2302C13.384 48.3456 13.4994 48.5763 13.6148 48.5763L29.7686 57.9225H29.9994L53.5379 44.3071C53.6533 44.3071 53.6533 44.1917 53.6533 44.0763V27.2302L54.2302 28.2686C54.2302 28.384 54.3456 28.384 54.4609 28.384C54.5763 28.384 54.6917 28.384 54.6917 28.2686L56.884 25.7302C56.9994 25.7302 56.9994 25.6148 56.884 25.4994ZM30.1148 57.2302V39.6917L31.0379 36.8071L39.3456 21.9225L43.7302 19.384L51.9225 24.4609L52.8456 26.0763V43.8456L30.1148 57.2302ZM54.4609 27.6917L53.5379 25.9609L52.4994 24.2302L52.384 24.1148L43.9609 18.9225H43.6148L38.9994 21.5763L38.884 21.6917L30.4609 36.6917L29.4225 39.6917L28.384 42.9225H26.7686L28.9609 36.5763L38.3071 19.9609L44.7686 16.2686L53.9994 21.9225L56.1917 25.8456L54.4609 27.6917Z" fill="#405FCE"/>
</svg>
