<svg width="200" height="200" viewBox="0 0 200 200" fill="none" xmlns="http://www.w3.org/2000/svg">
<path d="M132.946 125.997L132.946 125.997C131.076 122.423 126.662 121.042 123.088 122.912C119.514 124.783 118.133 129.197 120.003 132.771L119.56 133.003L120.003 132.771L147.645 185.585C148.949 188.077 151.49 189.503 154.123 189.503C155.263 189.503 156.421 189.235 157.503 188.669C161.077 186.798 162.458 182.385 160.587 178.811L161.03 178.579L160.587 178.811L132.946 125.997Z" fill="#F0F2F5" stroke="black"/>
<path d="M74.6204 34.4973L74.6147 34.5005C74.619 34.4981 74.6233 34.4957 74.6274 34.4932L74.6204 34.4973ZM84.3463 28.9325L74.9192 34.3263C74.9629 34.4607 75.0268 34.638 75.1124 34.8599C75.3441 35.461 75.7154 36.3404 76.2117 37.469C77.2034 39.7238 78.6828 42.9479 80.5132 46.875C83.6537 53.6125 87.8228 62.4084 92.3245 71.9061C93.0699 73.4788 93.8244 75.0707 94.5849 76.6758C105.111 98.8917 116.788 123.631 121.197 134.483L122.395 133.807C123.415 133.233 124.778 132.464 126.153 131.688C128.866 130.157 131.603 128.611 131.868 128.452C131.873 128.45 131.877 128.447 131.88 128.445L131.88 128.445C139.116 124.005 143.777 114.027 143.777 99.7526C143.777 86.4745 139.738 72.1 133.196 59.6002C126.652 47.0962 117.629 36.5189 107.707 30.7903C98.68 25.5786 90.5333 25.3108 84.3506 28.93L84.3463 28.9325Z" fill="#D4DBE7" stroke="black"/>
<path d="M96.9396 133.145C106.85 138.866 115.703 138.636 122.07 133.823C128.468 128.986 132.509 119.411 132.509 106.121C132.509 92.8426 128.47 78.4682 121.928 65.9685C115.384 53.4645 106.362 42.8873 96.4396 37.1587C86.5291 31.4369 77.6762 31.6674 71.3092 36.4807C64.9109 41.3177 60.87 50.8925 60.87 64.1825C60.87 77.4605 64.9087 91.835 71.4508 104.335C77.9951 116.839 87.0174 127.416 96.9396 133.145Z" fill="#F0F2F5" stroke="#405FCE"/>
<path d="M69.0018 64.1867C68.362 68.8252 69.5633 77.8936 73.0862 87.8587C76.6035 97.808 82.4074 108.57 90.8979 116.618C99.3665 124.645 106.135 126.504 110.736 126.409C115.267 126.316 117.789 124.326 117.858 124.271C122.714 120.231 125.766 112.643 125.766 102.23C125.766 91.4349 122.482 79.7439 117.16 69.5757C111.836 59.4032 104.5 50.8055 96.4395 46.152C90.0291 42.4512 84.181 41.831 79.4801 43.682C77.6702 44.7429 75.3785 47.4775 73.3619 51.1878C71.3455 54.8976 69.6478 59.503 69.0018 64.1867ZM117.86 124.27L117.86 124.27L117.86 124.27Z" fill="#F0F2F5" stroke="#405FCE"/>
<path d="M70.6718 65.6611C70.6718 56.8057 72.844 49.8035 76.5864 45.234C71.1128 49.0236 67.6129 56.9205 67.6131 68.082C67.6131 78.8772 70.8971 90.5681 76.2188 100.736C81.5428 110.909 88.8793 119.506 96.9395 124.16C103.997 128.235 110.379 128.585 115.316 125.98C110.896 126.746 105.835 125.687 100.498 122.605C92.2237 117.828 84.7721 109.06 79.3915 98.7794C74.0087 88.4945 70.6718 76.6454 70.6718 65.6611Z" fill="#D4DBE7" stroke="black"/>
</svg>
