<svg width="60" height="60" viewBox="0 0 60 60" fill="none" xmlns="http://www.w3.org/2000/svg">
<path d="M44.6537 38.5418L21.1152 52.1572C20.3075 52.6188 19.3845 52.5034 18.2306 51.9265C17.0768 51.2342 16.0383 50.1957 15.346 48.8111C14.6537 47.5418 14.1922 46.0418 14.1922 44.7726V29.0803C14.1922 27.8111 13.2691 26.1957 12.1152 25.5034C11.5383 25.1572 11.0768 25.1572 10.6152 25.388L34.1537 11.7726C34.4999 11.5418 35.0768 11.5418 35.6537 11.888C36.8075 12.5803 37.7306 14.0803 37.7306 15.3495V31.1572C37.7306 32.4265 38.1922 33.9265 38.8845 35.1957C39.6922 36.4649 40.6152 37.6188 41.7691 38.3111C42.8075 38.888 43.846 38.888 44.6537 38.5418ZM43.6152 4.15723L46.6152 2.42646C46.9614 2.19569 47.5383 2.19569 48.1152 2.54184C49.2691 3.23415 50.1922 4.73415 50.1922 6.00338V24.3495" fill="white"/>
<path d="M49.9618 30.238V38.3149C49.9618 40.9688 49.0387 42.6995 47.5387 43.6226L24.0002 57.1226C25.5002 56.3149 26.4233 54.4688 26.4233 51.8149L26.5387 19.738C26.5387 18.4688 25.6156 16.8534 24.4618 16.2764C23.8848 15.9303 23.4233 15.9303 23.0771 16.1611L39.6925 6.46875" fill="white"/>
<path d="M33.8076 13.5042L41.8845 8.77344L33.8076 13.5042Z" fill="white"/>
<path d="M33.8079 13.7323C33.6925 13.7323 33.5771 13.7323 33.5771 13.6169C33.4617 13.5015 33.5771 13.2708 33.6925 13.2708L41.7694 8.53998C41.8848 8.4246 42.1156 8.53998 42.1156 8.65537C42.2309 8.77075 42.1156 9.00152 42.0002 9.00152L33.9232 13.7323H33.8079Z" fill="#030E17"/>
<path d="M34.5 36.6917L42.5769 31.9609L34.5 36.6917Z" fill="white"/>
<path d="M34.5002 36.9276C34.3849 36.9276 34.2695 36.9276 34.2695 36.8122C34.1541 36.6968 34.2695 36.4661 34.3849 36.4661L42.4618 31.7353C42.5772 31.6199 42.8079 31.7353 42.8079 31.8507C42.9233 31.9661 42.8079 32.1968 42.6925 32.1968L34.6156 36.9276H34.5002Z" fill="#030E17"/>
<path d="M10.0381 30.1147V26.6531C10.0381 25.3839 10.9612 24.807 12.115 25.4993C13.2689 26.1916 14.1919 27.6916 14.1919 29.0762V44.8839C14.1919 46.1531 14.6535 47.6531 15.3458 48.9224C16.1535 50.1916 17.0765 51.3454 18.2304 52.0378C19.3842 52.7301 20.4227 52.7301 21.115 52.3839C21.9227 51.9224 22.3842 50.9993 22.3842 49.7301L22.4996 17.6531C22.4996 16.3839 23.4227 15.807 24.5765 16.4993C25.7304 17.1916 26.6535 18.6916 26.6535 20.0762L26.4227 51.9224C26.4227 54.5762 25.4996 56.307 23.9996 57.2301C22.4996 58.0378 20.4227 57.9224 18.2304 56.6531C15.9227 55.3839 13.8458 53.0762 12.4612 50.5378C10.9612 47.9993 10.0381 45.1147 10.0381 42.4608V35.5378" fill="#F0F2F5"/>
<path d="M48.1153 2.30877C47.423 1.96261 46.8461 1.84723 46.3845 2.19338L43.3845 3.92415C43.2692 4.03954 43.1538 4.15492 43.2692 4.2703C43.3845 4.38569 43.4999 4.50107 43.6153 4.38569L46.6153 2.65492C46.8461 2.53954 47.3076 2.53954 47.7692 2.7703C48.8076 3.34723 49.6153 4.84723 49.6153 6.00107V24.3472C49.6153 24.4626 49.7307 24.6934 49.8461 24.6934C49.9615 24.6934 50.0768 24.578 50.1922 24.4626V6.11646C50.3076 4.73184 49.3845 3.00107 48.1153 2.30877ZM49.9615 29.8857C49.8461 29.8857 49.6153 30.0011 49.6153 30.1165V38.1934C49.6153 40.6165 48.8076 42.3472 47.3076 43.2703L25.7307 55.8472C26.3076 54.9242 26.6538 53.5395 26.6538 51.9242V19.6165C26.5384 18.2318 25.6153 16.7318 24.4615 16.0395L23.9999 15.8088L39.5768 6.69338C39.6922 6.578 39.8076 6.46261 39.6922 6.34723C39.5768 6.23184 39.4615 6.11646 39.3461 6.23184C34.8461 8.88569 26.423 13.7318 22.7307 15.9242C22.2692 16.1549 22.0384 16.7318 22.0384 17.5395V18.3472L10.4999 25.0395C10.0384 25.2703 9.80762 25.8472 9.80762 26.6549V30.1165C9.80762 30.2318 9.923 30.4626 10.0384 30.4626C10.1538 30.4626 10.2692 30.3472 10.3845 30.2318V26.7703C10.3845 25.6165 11.0768 25.2703 11.9999 25.8472C13.0384 26.4242 13.8461 27.9242 13.8461 29.078V44.8857C13.8461 47.6549 15.6922 50.8857 18.1153 52.2703C20.6538 53.6549 22.7307 52.5011 22.7307 49.6165L22.8461 17.5395C22.8461 16.3857 23.5384 16.1549 24.4615 16.6165C25.4999 17.1934 26.3076 18.578 26.3076 19.7318V51.9242C26.3076 53.8857 25.7307 55.9626 23.9999 57.0011C22.4999 57.8088 20.5384 57.578 18.4615 56.4242C13.9615 53.8857 10.3845 47.5395 10.3845 42.4626V35.5395C10.3845 35.4241 10.2692 35.1934 10.1538 35.1934C10.0384 35.1934 9.923 35.3088 9.80762 35.4242V42.3472C9.80762 47.5395 13.4999 54.1165 18.1153 56.7703C19.9615 57.8088 22.2692 58.3857 24.2307 57.3472C26.6538 55.9626 15.5768 62.4242 47.7692 43.7318C49.3845 42.8088 50.3076 40.8472 50.3076 38.1934V30.1165C50.3076 30.0011 50.0768 29.8857 49.9615 29.8857ZM18.3461 51.6934C16.0384 50.3088 14.3076 47.078 14.3076 44.7703V28.9626C14.3076 27.4626 13.2692 25.8472 12.1153 25.1549C11.9999 25.0395 11.7692 25.0395 11.6538 24.9242L22.0384 18.9242L21.923 49.5011C22.0384 51.9242 20.423 52.8472 18.3461 51.6934Z" fill="#405FCE"/>
<path d="M33.1156 18.6945C33.4618 18.4637 33.6925 18.6945 33.6925 19.0406V22.9637C33.6925 23.3098 33.4618 23.7714 33.1156 24.0021L29.6541 25.9637C29.3079 26.1945 29.0771 25.9637 29.0771 25.6175V21.6945C29.0771 21.3483 29.3079 20.8868 29.6541 20.656L33.1156 18.6945Z" fill="#F0F2F5"/>
<path d="M29.4228 26.3077C29.3074 26.3077 29.192 26.3077 29.0766 26.1923C28.8459 26.0769 28.7305 25.8462 28.7305 25.6154V21.6923C28.7305 21.2308 29.0766 20.6538 29.4228 20.4231L32.8843 18.4615C33.1151 18.3462 33.3459 18.3462 33.5766 18.4615C33.8074 18.5769 33.9228 18.8077 33.9228 19.0385V22.9615C33.9228 23.4231 33.5766 24 33.2305 24.2308L29.7689 26.1923C29.7689 26.3077 29.6535 26.3077 29.4228 26.3077ZM33.3459 18.9231L29.8843 20.8846C29.6535 21 29.4228 21.3462 29.4228 21.6923V25.7308H29.5382L32.9997 23.7692C33.2305 23.6538 33.4612 23.3077 33.4612 22.9615V18.9231C33.4612 18.9231 33.3459 18.8077 33.3459 18.9231Z" fill="#030E17"/>
<path d="M40.2689 14.5382C40.6151 14.3074 40.8459 14.5382 40.8459 14.8844V18.8074C40.8459 19.1536 40.6151 19.6151 40.2689 19.8459L36.8074 21.8074C36.4612 22.0382 36.2305 21.8074 36.2305 21.4613V17.5382C36.2305 17.1921 36.4612 16.7305 36.8074 16.4997L40.2689 14.5382Z" fill="#F0F2F5"/>
<path d="M36.5771 22.2686C36.4617 22.2686 36.3463 22.2686 36.2309 22.1532C36.0001 22.0379 35.8848 21.8071 35.8848 21.5763V17.6532C35.8848 17.1917 36.2309 16.6148 36.5771 16.384L40.0386 14.4225C40.2694 14.3071 40.5001 14.3071 40.7309 14.4225C40.9617 14.5379 41.0771 14.7686 41.0771 14.9994V18.9225C41.0771 19.384 40.7309 19.9609 40.3848 20.1917L36.9232 22.1532C36.8078 22.1532 36.6925 22.2686 36.5771 22.2686ZM40.5001 14.7686H40.3848L36.9232 16.7302C36.6925 16.8456 36.4617 17.1917 36.4617 17.5379V21.5763H36.5771L40.0386 19.6148C40.2694 19.4994 40.5001 19.1532 40.5001 18.8071V14.884V14.7686Z" fill="#030E17"/>
<path d="M47.308 10.4991C47.6541 10.2684 47.8849 10.4991 47.8849 10.8453V14.7684C47.8849 15.1145 47.6541 15.5761 47.308 15.8068L43.8465 17.7684C43.5003 17.9991 43.2695 17.7684 43.2695 17.4222V13.4991C43.2695 13.153 43.5003 12.6914 43.8465 12.4607L47.308 10.4991Z" fill="#F0F2F5"/>
<path d="M43.6152 18.2296C43.4998 18.2296 43.3844 18.2296 43.269 18.1142C43.0382 17.9988 42.9229 17.768 42.9229 17.5373V13.6142C42.9229 13.1526 43.269 12.5757 43.6152 12.345L47.0767 10.3834C47.3075 10.268 47.5382 10.268 47.769 10.3834C47.9998 10.4988 48.1152 10.7296 48.1152 10.9603V14.8834C48.1152 15.345 47.769 15.9219 47.4228 16.1526L43.9613 18.1142C43.8459 18.1142 43.7305 18.2296 43.6152 18.2296ZM47.5382 10.7296H47.4228L43.9613 12.6911C43.7305 12.8065 43.4998 13.1526 43.4998 13.4988V17.5373H43.6152L47.0767 15.5757C47.3075 15.4603 47.5382 15.1142 47.5382 14.768V10.7296Z" fill="#030E17"/>
<path d="M33.1156 27.2335C33.4618 27.0027 33.6925 27.2335 33.6925 27.5797V31.5027C33.6925 31.8489 33.4618 32.3104 33.1156 32.5412L29.6541 34.5027C29.3079 34.7335 29.0771 34.5027 29.0771 34.1566V30.2335C29.0771 29.8874 29.3079 29.4258 29.6541 29.1951L33.1156 27.2335Z" fill="#F0F2F5"/>
<path d="M29.4228 34.9639C29.3074 34.9639 29.192 34.9639 29.0766 34.8486C28.8459 34.7332 28.7305 34.5024 28.7305 34.2716V30.3486C28.7305 29.887 29.0766 29.3101 29.4228 29.0793L32.8843 27.1178C33.1151 27.0024 33.3459 27.0024 33.5766 27.1178C33.8074 27.2332 33.9228 27.4639 33.9228 27.6947V31.6178C33.9228 32.0793 33.5766 32.6562 33.2305 32.887L29.7689 34.8486C29.7689 34.8486 29.6535 34.9639 29.4228 34.9639ZM33.4612 27.4639H33.3459L29.8843 29.4255C29.6535 29.5409 29.4228 29.887 29.4228 30.2332V34.2716H29.5382L32.9997 32.3101C33.2305 32.1947 33.4612 31.8486 33.4612 31.5024V27.4639Z" fill="#030E17"/>
<path d="M40.2689 23.1945C40.6151 22.9637 40.8459 23.1945 40.8459 23.5406V27.4637C40.8459 27.8098 40.6151 28.2714 40.2689 28.5021L36.8074 30.4637C36.4612 30.6945 36.2305 30.4637 36.2305 30.1175V26.1945C36.2305 25.8483 36.4612 25.3868 36.8074 25.156L40.2689 23.1945Z" fill="#F0F2F5"/>
<path d="M36.5771 30.8077C36.4617 30.8077 36.3463 30.8077 36.2309 30.6923C36.0001 30.5769 35.8848 30.3462 35.8848 30.1154V26.1923C35.8848 25.7308 36.2309 25.1538 36.5771 24.9231L40.0386 22.9615C40.2694 22.8462 40.5001 22.8462 40.7309 22.9615C40.9617 23.0769 41.0771 23.3077 41.0771 23.5385V27.4615C41.0771 27.9231 40.7309 28.5 40.3848 28.7308L36.9232 30.6923C36.8078 30.8077 36.6925 30.8077 36.5771 30.8077ZM40.5001 23.4231H40.3848L36.9232 25.3846C36.6925 25.5 36.4617 25.8462 36.4617 26.1923V30.2308H36.5771L40.0386 28.2692C40.2694 28.1538 40.5001 27.8077 40.5001 27.4615V23.4231Z" fill="#030E17"/>
<path d="M47.308 19.1554C47.6541 18.9246 47.8849 19.1554 47.8849 19.5015V23.4246C47.8849 23.7708 47.6541 24.2323 47.308 24.4631L43.8465 26.4246C43.5003 26.6554 43.2695 26.4246 43.2695 26.0785V22.1554C43.2695 21.8092 43.5003 21.3477 43.8465 21.1169L47.308 19.1554Z" fill="#F0F2F5"/>
<path d="M43.6152 26.7686C43.4998 26.7686 43.3844 26.7686 43.269 26.6532C43.0382 26.5379 42.9229 26.3071 42.9229 26.0763V22.1532C42.9229 21.6917 43.269 21.1148 43.6152 20.884L47.0767 18.9225C47.3075 18.8071 47.5382 18.8071 47.769 18.9225C47.9998 19.0379 48.1152 19.2686 48.1152 19.4994V23.4225C48.1152 23.884 47.769 24.4609 47.4228 24.6917L43.9613 26.6532C43.8459 26.7686 43.7305 26.7686 43.6152 26.7686ZM47.5382 19.2686H47.4228L43.9613 21.2302C43.7305 21.3456 43.4998 21.6917 43.4998 22.0379V26.0763H43.6152L47.0767 24.1148C47.3075 23.9994 47.5382 23.6532 47.5382 23.3071V19.384V19.2686Z" fill="#030E17"/>
<path d="M33.1156 42.8116C33.4618 42.5809 33.6925 42.8116 33.6925 43.1578V47.0809C33.6925 47.427 33.4618 47.8886 33.1156 48.1193L29.6541 50.0809C29.3079 50.3116 29.0771 50.0809 29.0771 49.7347V45.8116C29.0771 45.4655 29.3079 45.0039 29.6541 44.7732L33.1156 42.8116Z" fill="#F0F2F5"/>
<path d="M29.4228 50.5421C29.3074 50.5421 29.192 50.5421 29.0766 50.4267C28.8459 50.3113 28.7305 50.0805 28.7305 49.8498V45.9267C28.7305 45.4651 29.0766 44.8882 29.4228 44.6575L32.8843 42.6959C33.1151 42.5805 33.3459 42.5805 33.5766 42.6959C33.8074 42.8113 33.9228 43.0421 33.9228 43.2728V47.1959C33.9228 47.6575 33.5766 48.2344 33.2305 48.4651L29.7689 50.4267C29.7689 50.4267 29.6535 50.5421 29.4228 50.5421ZM33.4612 43.0421H33.3459L29.8843 45.0036C29.6535 45.119 29.4228 45.4651 29.4228 45.8113V49.8498H29.5382L32.9997 47.8882C33.2305 47.7728 33.4612 47.4267 33.4612 47.0805V43.1575V43.0421Z" fill="#030E17"/>
<path d="M40.2689 38.7726C40.6151 38.5418 40.8459 38.7726 40.8459 39.1187V43.0418C40.8459 43.388 40.6151 43.8495 40.2689 44.0803L36.8074 46.0418C36.4612 46.2726 36.2305 46.0418 36.2305 45.6957V41.7726C36.2305 41.4264 36.4612 40.9649 36.8074 40.7341L40.2689 38.7726Z" fill="#F0F2F5"/>
<path d="M36.5771 46.503C36.4617 46.503 36.3463 46.503 36.2309 46.3876C36.0001 46.2722 35.8848 46.0415 35.8848 45.8107V41.8876C35.8848 41.4261 36.2309 40.8492 36.5771 40.6184L40.0386 38.6569C40.2694 38.5415 40.5001 38.5415 40.7309 38.6569C40.9617 38.7722 41.0771 39.003 41.0771 39.2338V43.1569C41.0771 43.6184 40.7309 44.1953 40.3848 44.4261L36.9232 46.3876C36.8078 46.3876 36.6925 46.503 36.5771 46.503ZM40.5001 39.003H40.3848L36.9232 40.9645C36.6925 41.0799 36.4617 41.4261 36.4617 41.7722V45.8107H36.5771L40.0386 43.8492C40.2694 43.7338 40.5001 43.3876 40.5001 43.0415V39.003Z" fill="#030E17"/>
<path d="M47.308 34.7335C47.6541 34.5027 47.8849 34.7335 47.8849 35.0797V39.0027C47.8849 39.3489 47.6541 39.8104 47.308 40.0412L43.8465 42.0027C43.5003 42.2335 43.2695 42.0027 43.2695 41.6566V37.7335C43.2695 37.3874 43.5003 36.9258 43.8465 36.6951L47.308 34.7335Z" fill="#F0F2F5"/>
<path d="M43.6152 42.3468C43.4998 42.3468 43.3844 42.3468 43.269 42.2314C43.0382 42.116 42.9229 41.8852 42.9229 41.6544V37.7314C42.9229 37.2698 43.269 36.6929 43.6152 36.4621L47.0767 34.5006C47.3075 34.3852 47.5382 34.3852 47.769 34.5006C47.9998 34.616 48.1152 34.8468 48.1152 35.0775V39.0006C48.1152 39.4621 47.769 40.0391 47.4228 40.2698L43.9613 42.2314C43.8459 42.3468 43.7305 42.3468 43.6152 42.3468ZM47.5382 34.9621H47.4228L43.9613 36.9237C43.7305 37.0391 43.4998 37.3852 43.4998 37.7314V41.7698H43.6152L47.0767 39.8083C47.3075 39.6929 47.5382 39.3468 47.5382 39.0006V34.9621Z" fill="#030E17"/>
</svg>
