<svg width="60" height="60" viewBox="0 0 60 60" fill="none" xmlns="http://www.w3.org/2000/svg">
<path d="M58.649 32.6717C58.649 32.5452 58.5697 32.4323 58.4506 32.3895L39.3809 25.5224C39.289 25.4893 39.1867 25.5031 39.1068 25.5592C39.0269 25.6154 38.9793 25.707 38.9793 25.8047V27.5705C38.9793 27.651 39.0116 27.7281 39.069 27.7845C39.1264 27.8409 39.204 27.8719 39.2845 27.8705L39.4522 27.8676C39.9035 28.0013 40.3289 28.175 40.7057 28.3926L40.7057 28.3926C41.604 28.9113 42.016 29.5268 42.056 30.0514C42.0944 30.5538 41.7976 31.097 40.9826 31.5074C40.7931 31.6028 40.6879 31.7738 40.6348 31.951C40.5829 32.1242 40.5728 32.3257 40.5857 32.5359C40.6115 32.9576 40.7357 33.4946 40.9189 34.0921C41.287 35.2925 41.9173 36.8112 42.5891 38.2949C43.2621 39.7811 43.9817 41.2426 44.5326 42.3318C44.8081 42.8766 45.0417 43.3287 45.2065 43.6447C45.2888 43.8027 45.354 43.9267 45.3987 44.0113L45.4498 44.108L45.463 44.1329L45.4664 44.1392L45.4673 44.1409L45.4675 44.1413C45.4675 44.1414 45.4676 44.1415 45.7323 44.0003L45.4676 44.1415C45.5058 44.2132 45.5716 44.2664 45.6498 44.2888C45.728 44.3111 45.8119 44.3008 45.8823 44.2601L57.7322 37.4182C58.2959 37.0927 58.6316 36.6246 58.6476 36.0871C58.6485 36.0774 58.649 36.0676 58.649 36.0577V32.6717Z" fill="#F0F2F5" stroke="#030E17" stroke-width="0.6" stroke-linejoin="round"/>
<path d="M0.7 33.4348C0.7 33.4428 0.700318 33.4508 0.700946 33.4587C0.7208 34.0986 1.18804 34.6931 1.93448 35.1241L15.6176 43.0244C15.7411 43.0957 15.8977 43.0703 15.9922 42.9635L15.7676 42.7646C15.9922 42.9635 15.9923 42.9635 15.9923 42.9634L15.9927 42.963L15.994 42.9615L15.9994 42.9554L16.0206 42.9314L16.1036 42.8378L16.4188 42.4822C16.6905 42.1758 17.0793 41.7376 17.547 41.2112C18.4825 40.1582 19.734 38.7518 20.9983 37.3381C22.2628 35.9242 23.5395 34.5036 24.5254 33.422C25.0186 32.881 25.438 32.4258 25.7465 32.0989C25.901 31.9353 26.0262 31.8054 26.1182 31.7135C26.1644 31.6674 26.2003 31.6327 26.2264 31.6089C26.24 31.5965 26.248 31.5897 26.2516 31.5867C27.0336 31.1312 27.4648 30.4832 27.4508 29.7608C27.4517 29.7517 27.4521 29.7424 27.4521 29.733V26.4297C27.4521 26.343 27.4146 26.2605 27.3492 26.2035C27.2838 26.1465 27.197 26.1206 27.1111 26.1325L0.958979 29.7423C0.810552 29.7628 0.7 29.8897 0.7 30.0395V33.4348Z" fill="#F0F2F5" stroke="#030E17" stroke-width="0.6" stroke-linejoin="round"/>
<path d="M40.706 26.7071L40.706 26.7071C40.259 26.449 39.7468 26.2494 39.205 26.1102C39.0869 26.0799 38.999 25.9811 38.9824 25.8604C38.9659 25.7396 39.0241 25.6208 39.1297 25.5599L43.4313 23.0761C43.5241 23.0225 43.6385 23.0225 43.7313 23.0761L57.4144 30.9766C58.1131 31.38 58.5652 31.9237 58.6389 32.5167C58.7156 33.1331 58.3718 33.6856 57.7326 34.0548L57.5826 33.795L57.7326 34.0548L45.8827 40.8967C45.7899 40.9503 45.6755 40.9503 45.5827 40.8967L40.863 38.1716C40.6634 38.4207 40.3965 38.6428 40.0688 38.832L40.0688 38.832C39.1857 39.3419 37.9889 39.5416 36.7962 39.4725C35.6008 39.4032 34.3709 39.0618 33.4137 38.4473C32.5842 37.9148 32.0728 37.2298 31.9918 36.5089C31.9088 35.7701 32.2871 35.0871 33.0371 34.603C33.0371 34.603 33.0371 34.603 33.0371 34.603L33.1998 34.8551C33.516 34.651 33.8871 34.4925 34.2935 34.3785L40.706 26.7071ZM40.706 26.7071C41.6043 27.2257 42.0163 27.8413 42.0563 28.3659C42.0947 28.8683 41.7979 29.4115 40.9829 29.8219C40.2906 30.1705 39.356 30.3336 38.3729 30.2988C37.3921 30.2641 36.3895 30.0331 35.5682 29.6204C34.986 29.3277 34.5706 28.9883 34.3062 28.6453C34.2145 28.5262 34.0488 28.4935 33.9186 28.5686L29.5248 31.1056C29.432 31.1591 29.3748 31.2582 29.3748 31.3654C29.3748 31.4725 29.432 31.5716 29.5248 31.6252L33.9397 34.1742L40.706 26.7071Z" fill="white" stroke="#030E17" stroke-width="0.6" stroke-linejoin="round"/>
<path d="M39.6264 38.4599C39.5584 38.4393 39.4854 38.4435 39.4202 38.4717C38.6404 38.8093 37.6217 38.935 36.5862 38.8407C35.5517 38.7465 34.5281 38.4354 33.7381 37.9282C33.0349 37.4768 32.6784 36.9601 32.5992 36.5002C32.5228 36.0578 32.6916 35.6009 33.1925 35.214C33.3051 35.127 33.3412 34.9729 33.2788 34.845C33.2164 34.7171 33.0727 34.6507 32.9349 34.6859L15.6943 39.0898C15.5615 39.1237 15.4686 39.2434 15.4686 39.3805V42.7589C15.4686 42.866 15.5257 42.9651 15.6185 43.0187L29.3017 50.9191C30.0066 51.326 30.8795 51.5458 31.7208 51.5807C32.5593 51.6155 33.4009 51.4677 34.033 51.1028L33.883 50.843L34.033 51.1028L45.8829 44.2608C45.9757 44.2072 46.0329 44.1082 46.0329 44.001V40.6226C46.0329 40.4904 45.9464 40.3738 45.8199 40.3355L39.6264 38.4599Z" fill="#F0F2F5" stroke="#030E17" stroke-width="0.6" stroke-linejoin="round"/>
<path d="M40.5157 37.6158C40.5992 37.4737 40.7816 37.4256 40.9244 37.508L45.8829 40.3711C45.9757 40.4247 46.0329 40.5238 46.0329 40.6309C46.0329 40.7381 45.9757 40.8371 45.8829 40.8907L34.0331 47.7327C33.4009 48.0977 32.5593 48.2454 31.7208 48.2107C30.8795 48.1758 30.0065 47.9559 29.3017 47.549L29.4517 47.2892L29.3017 47.549L15.6185 39.6486C15.5257 39.595 15.4686 39.496 15.4686 39.3888C15.4686 39.2816 15.5257 39.1826 15.6185 39.129L19.3578 36.97C19.0152 36.8455 18.6866 36.6954 18.3813 36.5191L18.3813 36.5191C17.396 35.9502 16.7945 35.1894 16.7328 34.3873C16.6695 33.5629 17.1828 32.8288 18.1323 32.3499C18.9636 31.9306 20.0414 31.7622 21.122 31.8126C22.2048 31.8631 23.3196 32.1345 24.2316 32.6244L40.5157 37.6158ZM40.5157 37.6158C40.3733 37.8582 40.1315 38.097 39.769 38.3063M40.5157 37.6158L39.769 38.3063M39.769 38.3063C39.0186 38.7396 37.9491 38.9323 36.8311 38.8675C35.7159 38.8028 34.5911 38.484 33.7381 37.9364C32.9972 37.4607 32.642 36.9138 32.5883 36.4358C32.5366 35.9757 32.7554 35.493 33.3627 35.1011L33.2 34.849L33.3627 35.1011C33.7469 34.8531 34.2312 34.673 34.7768 34.5662C34.8996 34.5422 34.9945 34.4445 35.0151 34.3211C35.0357 34.1977 34.9775 34.0745 34.8692 34.012L29.8251 31.0996C29.7322 31.046 29.6179 31.046 29.525 31.0996L25.3848 33.4901C25.0917 33.1717 24.705 32.8787 24.2316 32.6244L39.769 38.3063Z" fill="white" stroke="#030E17" stroke-width="0.6" stroke-linejoin="round"/>
<path d="M19.4905 23.8148C19.0885 24.0258 18.7695 24.2827 18.5426 24.5758L13.7667 21.8183C13.6739 21.7647 13.5595 21.7647 13.4667 21.8183L1.61679 28.6603L1.61678 28.6603C0.977517 29.0294 0.633774 29.5819 0.710403 30.1983C0.784126 30.7914 1.23623 31.335 1.9349 31.7384L15.618 39.6388C15.7109 39.6924 15.8252 39.6924 15.9181 39.6388L20.2366 37.1453C20.3418 37.0846 20.3999 36.9665 20.384 36.8461C20.368 36.7257 20.2811 36.6268 20.1638 36.5956C19.5814 36.4406 19.0356 36.2144 18.5695 35.9216C17.8191 35.4502 17.4499 34.9036 17.3845 34.4232C17.3217 33.9622 17.5281 33.4794 18.1217 33.0842C18.822 32.6178 19.8612 32.3874 20.9751 32.415C22.0849 32.4425 23.2284 32.7254 24.1211 33.2408C24.5529 33.4901 24.8765 33.7654 25.0985 34.0434C25.191 34.1594 25.3544 34.1903 25.4829 34.1161L29.8245 31.6094C29.9174 31.5558 29.9745 31.4568 29.9745 31.3496C29.9745 31.2424 29.9174 31.1434 29.8245 31.0898L25.443 28.56C25.7274 28.466 25.9956 28.3492 26.2402 28.2079C27.1306 27.6938 27.5685 26.932 27.4271 26.1078C27.2906 25.3121 26.6296 24.5698 25.5856 24.025L25.5856 24.025C24.662 23.5431 23.542 23.2827 22.4598 23.2437C21.3802 23.2047 20.3088 23.3851 19.4905 23.8148Z" fill="white" stroke="#030E17" stroke-width="0.6" stroke-linejoin="round"/>
<path d="M43.8882 16.5351C43.8882 16.5333 43.8883 16.5315 43.8883 16.5297C43.8917 16.3665 43.7639 16.2305 43.6008 16.2238L13.6365 14.9815C13.5548 14.9781 13.4753 15.0082 13.4163 15.0648C13.3574 15.1213 13.324 15.1995 13.324 15.2812V18.6597C13.324 18.7668 13.3812 18.8659 13.474 18.9195L18.4879 21.8144C18.5571 21.8544 18.6394 21.8651 18.7166 21.8441C18.7937 21.8232 18.8593 21.7723 18.8988 21.7028C19.0536 21.4303 19.332 21.1617 19.7652 20.9342C20.464 20.5672 21.4234 20.3949 22.434 20.4314C23.4421 20.4678 24.4719 20.7111 25.3039 21.1452C25.91 21.4615 26.329 21.7682 26.5802 22.072C26.6933 22.2087 26.7715 22.3433 26.8177 22.4789L24.8105 21.394C24.7176 21.3437 24.605 21.3461 24.5142 21.4002C24.4235 21.4543 24.3679 21.5522 24.3679 21.6579V25.0363C24.3679 25.1434 24.4251 25.2425 24.5179 25.2961L29.5318 28.191C29.6246 28.2446 29.739 28.2446 29.8318 28.191L34.0199 25.7729C34.3446 26.1354 34.7898 26.466 35.3455 26.7453L35.4802 26.4772L35.3455 26.7453C36.2553 27.2026 37.3449 27.45 38.3984 27.4873C39.4497 27.5245 40.4918 27.3534 41.2995 26.9466C42.132 26.5274 42.6303 25.9132 42.6974 25.205C42.7025 25.1831 42.7051 25.1605 42.7051 25.1376V25.0813C42.7056 25.059 42.7054 25.0377 42.7051 25.0183V21.6119C42.7051 21.5238 42.6663 21.4401 42.5991 21.3831C42.5318 21.3261 42.4429 21.3016 42.356 21.316L41.4894 21.4599L43.7382 20.1615C43.831 20.1079 43.8882 20.0089 43.8882 19.9017V16.5351Z" fill="#F0F2F5" stroke="#405FCE" stroke-width="0.6" stroke-linejoin="round"/>
<path d="M39.1225 18.7636C39.0104 18.8283 38.9524 18.9576 38.9787 19.0843L39.6148 22.1516C39.6345 22.2465 39.6988 22.326 39.7874 22.3652C39.8761 22.4043 39.9782 22.3982 40.0615 22.3488L43.7418 20.1676C43.833 20.1136 43.8889 20.0155 43.8889 19.9095V16.5312C43.8889 16.4241 43.8317 16.325 43.7389 16.2714C43.6461 16.2179 43.5317 16.2179 43.4389 16.2714L39.1225 18.7636Z" fill="white" stroke="#405FCE" stroke-width="0.6" stroke-linejoin="round"/>
<path d="M26.8879 22.1343C27.083 22.3622 27.0832 22.362 27.0833 22.3619L27.0837 22.3616L27.0845 22.3609L27.0864 22.3592L27.0912 22.3549L27.1051 22.3422C27.1161 22.3318 27.1305 22.3177 27.1479 22.2996C27.1826 22.2633 27.2289 22.2113 27.2824 22.1419C27.3894 22.003 27.5247 21.7952 27.6529 21.5066C27.9101 20.9279 28.1345 20.035 28.0573 18.7381L28.0573 18.7381C28.012 17.976 27.4302 17.2573 26.6671 16.6964C25.89 16.1252 24.8605 15.6678 23.7879 15.4466C22.7166 15.2256 21.5761 15.2351 20.5893 15.6295C19.591 16.0285 18.7713 16.814 18.3535 18.0931C18.3437 18.1232 18.3387 18.1547 18.3387 18.1863V21.5647C18.3387 21.7009 18.4304 21.82 18.562 21.8547C18.6937 21.8895 18.8323 21.8313 18.8995 21.7129C19.0544 21.4403 19.3327 21.1717 19.766 20.9441C20.4648 20.5772 21.4241 20.4049 22.4347 20.4414C23.4428 20.4778 24.4727 20.7211 25.3046 21.1552C25.6463 21.3335 25.8616 21.4623 26.0228 21.5938C26.1773 21.7199 26.29 21.8551 26.4119 22.0578C26.4231 22.0763 26.4363 22.0936 26.4511 22.1093L26.67 22.3405C26.7799 22.4566 26.9616 22.4662 27.083 22.3622L26.8879 22.1343Z" fill="#F0F2F5" stroke="#405FCE" stroke-width="0.6" stroke-linejoin="round"/>
<path d="M25.3239 8.18289L25.3239 8.18289L13.474 15.0248C13.3812 15.0784 13.324 15.1775 13.324 15.2846C13.324 15.3918 13.3812 15.4908 13.474 15.5444L18.4879 18.4394C18.5571 18.4793 18.6394 18.49 18.7166 18.4691C18.7937 18.4481 18.8593 18.3973 18.8988 18.3278C19.0536 18.0553 19.332 17.7867 19.7652 17.5591C20.464 17.1922 21.4234 17.0199 22.434 17.0564C23.4421 17.0928 24.4719 17.3361 25.3039 17.7702L25.3039 17.7702C26.2636 18.2709 26.7396 18.8864 26.8316 19.4224C26.9186 19.93 26.6765 20.474 25.936 20.9015C25.5653 21.1156 25.1137 21.2715 24.6121 21.3665C24.4889 21.3899 24.3932 21.4874 24.3722 21.611C24.3512 21.7347 24.4094 21.8583 24.518 21.9211L29.5319 24.816C29.6247 24.8696 29.7391 24.8696 29.8319 24.816L34.02 22.3978C34.3447 22.7604 34.79 23.091 35.3456 23.3703L35.4803 23.1022L35.3456 23.3703C36.2554 23.8275 37.345 24.075 38.3985 24.1123C39.4498 24.1495 40.4919 23.9783 41.2996 23.5716C42.2502 23.0929 42.7644 22.3587 42.7014 21.534C42.6401 20.7316 42.0385 19.9704 41.0528 19.4013C40.7319 19.216 40.3853 19.0596 40.0236 18.9315L43.7384 16.7866C43.8312 16.733 43.8884 16.634 43.8884 16.5268C43.8884 16.4196 43.8312 16.3206 43.7384 16.267L30.0552 8.3666C29.3504 7.95964 28.4775 7.73982 27.6361 7.70494C26.7976 7.67019 25.9561 7.8179 25.3239 8.18289Z" fill="white" stroke="#405FCE" stroke-width="0.6" stroke-linejoin="round"/>
<path d="M29.5326 24.3012C29.4398 24.3548 29.3826 24.4538 29.3826 24.561V27.9394C29.3826 28.0465 29.4398 28.1456 29.5326 28.1992C29.6254 28.2528 29.7398 28.2528 29.8326 28.1992L34.2409 25.6538C34.3337 25.6002 34.3909 25.5012 34.3909 25.394V22.0156C34.3909 21.9084 34.3337 21.8094 34.2409 21.7558C34.1481 21.7022 34.0337 21.7022 33.9409 21.7558L29.5326 24.3012Z" fill="#F0F2F5" stroke="#405FCE" stroke-width="0.6" stroke-linejoin="round"/>
</svg>
