<svg width="190" height="200" viewBox="0 0 190 200" fill="none" xmlns="http://www.w3.org/2000/svg">
<g opacity="0.5">
<path opacity="0.2" d="M134.893 112.183L153.788 101.19C155.163 100.502 156.193 99.1283 157.224 97.7541L171.653 72.6748C173.371 69.5829 173.371 66.1474 171.653 65.1167C170.622 64.4296 169.592 64.7732 168.218 65.4603C166.843 66.1474 165.813 67.5216 164.782 68.8958L151.727 91.5702L88.1702 128.33C85.4218 129.704 83.3605 133.483 83.3605 136.575C83.3605 139.667 85.4218 140.698 88.1702 139.324L117.028 122.833" fill="white"/>
<path d="M96.6753 20.5879C95.7691 19.9838 94.562 19.9285 93.0249 20.7578L92.7134 20.9355L92.7036 20.9414C91.4455 21.5705 90.1757 22.7965 89.1812 24.3486L88.9858 24.6631L75.9312 46.9922L75.9116 47.0264L75.8774 47.0459L55.2642 59.0703L55.23 59.0908H55.189C55.1534 59.0908 55.1026 59.1101 55.0444 59.1641C54.9876 59.2169 54.9347 59.2936 54.8989 59.3828C54.825 59.5676 54.8391 59.7526 54.9517 59.8652L54.9956 59.9092V59.9717C54.9956 60.0072 55.0141 60.0582 55.0679 60.1162C55.1207 60.1731 55.1982 60.226 55.2876 60.2617C55.4724 60.3356 55.6574 60.3216 55.77 60.209L55.7837 60.1953L55.8013 60.1855L76.0708 48.5049L76.146 48.4609L76.2212 48.5049L150.084 91.4482L150.308 91.5781L150.084 91.708L103.362 118.849V118.848L88.2466 127.78C86.8969 128.625 85.6258 129.979 84.6919 131.55C83.7572 133.122 83.1665 134.9 83.1665 136.584V137.531L82.9409 137.4L9.77393 94.8037L9.77295 94.8047C9.3846 94.6105 9.10765 94.2298 8.92822 93.7812C8.74808 93.3309 8.65969 92.7961 8.65967 92.2656C8.65967 90.8571 9.18685 89.2846 10.0122 87.8945C10.8377 86.5043 11.9712 85.2803 13.2017 84.5771H13.2007L40.6851 68.7734L40.7202 68.7539H40.7603C40.7957 68.7538 40.8469 68.7354 40.9048 68.6816C40.9617 68.6288 41.0145 68.5513 41.0503 68.4619C41.1242 68.2772 41.11 68.0922 40.9976 67.9795L40.9536 67.9355V67.873C40.9535 67.8375 40.9343 67.7866 40.8804 67.7285C40.8276 67.6717 40.7508 67.6187 40.6616 67.583C40.4769 67.5091 40.2919 67.5233 40.1792 67.6357L40.1646 67.6494L40.1479 67.6602L12.6636 83.4629L12.6616 83.4639C11.1439 84.307 9.78765 85.7453 8.854 87.4004C7.92017 89.0558 7.41664 90.9145 7.58447 92.5938L7.58545 92.6016V92.6094C7.58556 94.2889 8.25675 95.6086 9.23486 96.2617L84.8013 140.229C86.0297 140.843 87.2654 140.601 88.5356 140.008L88.7896 139.885L117.641 123.398L117.675 123.379H117.715C117.751 123.379 117.802 123.36 117.86 123.306C117.917 123.253 117.97 123.175 118.005 123.086C118.079 122.901 118.065 122.716 117.953 122.604L117.909 122.56V122.498C117.909 122.463 117.89 122.412 117.836 122.354C117.784 122.297 117.706 122.244 117.617 122.208C117.432 122.134 117.247 122.148 117.134 122.261L117.12 122.274L117.103 122.284L88.2446 138.775C87.7212 139.123 87.2712 139.306 86.855 139.353C86.4861 139.393 86.1547 139.326 85.8345 139.187L85.6978 139.122C85.1181 138.832 84.8031 138.192 84.7036 137.407C84.6037 136.618 84.7152 135.652 85.02 134.65C85.5914 132.773 86.8528 130.738 88.7397 129.48L89.1245 129.239H89.1255L152.659 92.4932C152.668 92.4811 152.682 92.4645 152.698 92.4443C152.733 92.4 152.783 92.3375 152.839 92.2676C152.882 92.215 152.929 92.1584 152.976 92.1006C153.03 91.991 153.112 91.8308 153.22 91.6289C153.499 91.11 153.952 90.2936 154.527 89.2764C155.676 87.2413 157.308 84.3958 158.983 81.4971C160.658 78.5983 162.376 75.646 163.697 73.3965C164.357 72.2718 164.919 71.3225 165.326 70.6436C165.529 70.3042 165.694 70.031 165.814 69.8379C165.874 69.7415 165.923 69.6638 165.96 69.6074C165.979 69.5795 165.995 69.5557 166.008 69.5371C166.014 69.5288 166.022 69.5195 166.03 69.5098C166.555 68.6361 167.511 67.5069 168.557 66.7227C169.081 66.3299 169.635 66.0174 170.175 65.8711C170.65 65.7426 171.121 65.7407 171.549 65.9326L171.73 66.0273C172.674 66.5939 172.833 67.8014 172.661 69.0537C172.508 70.1621 172.089 71.365 171.638 72.3447L171.444 72.75L171.439 72.7578L157.01 97.8369L157 97.8525C156.093 99.0626 155.181 100.013 154.264 100.7L153.872 100.979L153.864 100.983L134.968 111.978L134.933 111.998H134.893C134.858 111.998 134.806 112.016 134.748 112.07C134.691 112.123 134.639 112.201 134.603 112.29C134.529 112.475 134.543 112.66 134.656 112.772L134.7 112.816V112.879C134.7 112.914 134.718 112.965 134.772 113.023C134.825 113.08 134.902 113.133 134.992 113.169C135.176 113.243 135.362 113.229 135.474 113.116L135.488 113.103L135.504 113.093L154.4 102.099L154.408 102.095L154.66 101.961C155.918 101.253 157.169 99.9665 158.125 98.3721H158.126L172.553 73.2949C173.403 71.764 173.994 69.9852 174.037 68.3848C174.079 66.786 173.575 65.3869 172.26 64.5654L172.261 64.5645L96.6831 20.5928L96.6753 20.5879ZM94.6382 21.4736C95.0071 21.4327 95.3384 21.5005 95.6587 21.6396L95.7954 21.7031L95.8042 21.708L168.636 64.3086L168.804 64.4062L168.667 64.5439V64.5449L168.662 64.5498C168.658 64.5529 168.654 64.5572 168.648 64.5625C168.637 64.5732 168.62 64.5879 168.599 64.6055C168.558 64.6406 168.5 64.6874 168.429 64.7344C168.301 64.82 168.113 64.9177 167.911 64.9287C166.353 65.5597 165.075 67.0693 164.364 68.3691L164.229 68.6279L164.224 68.6357L151.513 90.623L151.437 90.7539L151.307 90.6768L142.033 85.1797L142.032 85.1807L77.4438 47.3896L77.3149 47.3145L77.3901 47.1855L90.1011 25.1982L90.1108 25.1826L90.5005 24.6807C91.2795 23.7069 92.0615 22.9242 92.8472 22.335L93.2397 22.0566C93.7669 21.7052 94.2197 21.5201 94.6382 21.4736Z" fill="white" stroke="#F0F2F5" stroke-width="0.3"/>
<mask id="path-3-inside-1_410_3976" fill="white">
<path d="M84.7346 44.5137L94.354 28.0232C94.354 27.6797 94.6975 27.6797 95.0411 27.6797H95.7282L103.973 32.4894C104.317 32.833 104.661 33.1765 104.317 33.5201C103.973 33.8636 103.63 34.2072 103.286 33.8636L95.7282 29.3974L87.1394 44.5137L148.979 80.9301L157.567 65.8139L117.372 42.4524C117.028 42.1088 116.685 41.7653 117.028 41.4217C117.372 41.0782 117.715 40.7346 118.059 41.0782L159.285 65.1268C159.629 65.4703 159.972 65.8139 159.629 66.1574L150.009 82.6479C150.009 82.9914 149.666 82.9914 149.322 82.9914H148.635L85.0781 45.8879C84.7346 45.5443 84.7346 45.2008 84.7346 44.5137ZM87.8265 61.6912C87.8265 62.0348 87.8265 62.3783 87.483 62.3783L80.6119 66.501H79.9248L69.6183 60.6606C69.2748 60.6606 69.2747 60.317 69.2747 59.9735C69.2747 59.6299 69.2748 59.2864 69.6183 59.2864L76.4893 55.1638H77.52L87.8265 61.0041C87.483 61.3477 87.8265 61.3477 87.8265 61.6912ZM76.4893 56.8815L71.3361 59.9735L79.9248 65.1268L85.0781 62.0348L76.4893 56.8815ZM92.6362 64.7832H93.6669L103.973 70.6236C104.317 70.6236 104.317 70.9671 104.317 71.3107C104.317 71.6542 104.317 71.9978 103.973 71.9978L97.1024 76.1204H96.4153L86.1088 70.28C85.7652 70.28 85.7652 69.9365 85.7652 69.5929C85.7652 69.2494 85.7652 68.9058 86.1088 68.9058L92.6362 64.7832ZM96.7588 74.4026L101.912 71.3107L93.3233 66.1574L88.1701 69.2494L96.7588 74.4026ZM110.157 74.4026L120.464 80.243C120.807 80.243 120.807 80.5866 120.807 80.9301C120.807 81.2737 120.807 81.6172 120.464 81.6172L113.593 85.7398H112.906L102.599 79.8995C102.256 79.8995 102.256 79.5559 102.256 79.2124C102.256 78.8688 102.256 78.5253 102.599 78.5253L109.47 74.4026H110.157ZM113.593 84.0221L118.746 80.9301L110.157 75.7768L105.004 78.8688L113.593 84.0221ZM118.746 88.8318C118.746 88.4882 118.746 88.1447 119.09 88.1447L125.961 84.0221H126.991L137.298 89.8624C137.641 89.8624 137.641 90.206 137.641 90.5495C137.641 90.8931 137.641 91.2366 137.298 91.2366L130.427 95.3593H129.74L119.433 89.5189C119.09 89.5189 118.746 89.1753 118.746 88.8318ZM130.083 93.6415L135.237 90.8931L126.648 85.7398L121.495 88.8318L130.083 93.6415ZM74.428 69.2494C74.428 69.5929 74.428 69.9365 74.0845 69.9365L63.7779 75.7768H63.0908L52.7843 69.9365C52.4408 69.9365 52.4408 69.5929 52.4408 69.2494C52.4408 68.9058 52.4408 68.5623 52.7843 68.5623L63.0908 62.7219H64.1215L74.428 68.5623V69.2494ZM63.4344 64.4397L54.8456 69.2494L63.4344 74.4026L72.0232 69.5929L63.4344 64.4397ZM91.262 79.2124C91.262 79.5559 91.262 79.8995 90.9185 79.8995L80.6119 85.7398H79.9248L69.6183 79.8995C69.2748 79.8995 69.2747 79.5559 69.2747 79.2124C69.2747 78.8688 69.2748 78.5253 69.6183 78.5253L79.9248 72.6849H80.9555L91.262 78.5253V79.2124ZM79.9248 74.0591L71.3361 78.8688L80.2684 84.0221L88.8572 79.2124L79.9248 74.0591ZM97.4459 95.3593H96.7588L86.4523 89.5189C86.1088 89.5189 86.1088 89.1753 86.1088 88.8318C86.1088 88.4882 86.1088 88.1447 86.4523 88.1447L96.7588 82.3043H97.7895L108.096 88.1447C108.44 88.1447 108.44 88.4882 108.44 88.8318C108.44 89.1753 108.44 89.5189 108.096 89.5189L97.4459 95.3593ZM96.7588 83.6785L88.1701 88.4882L96.7588 93.6415L105.348 88.8318L96.7588 83.6785ZM102.599 98.4512C102.599 98.1077 102.599 97.7641 102.943 97.7641L113.249 91.9237H114.28L124.586 97.7641C124.93 97.7641 124.93 98.1077 124.93 98.4512C124.93 98.7948 124.93 99.1383 124.586 99.1383L114.28 104.979H113.593L103.286 99.1383C102.599 98.7948 102.599 98.7948 102.599 98.4512ZM113.593 103.261L122.182 98.4512L113.593 93.2979L105.004 98.1077L113.593 103.261ZM19.1163 88.1447L46.6004 72.3413H47.631L57.9376 78.1817C58.2811 78.1817 58.2811 78.5253 58.2811 78.8688C58.2811 79.2124 58.2811 79.5559 57.9376 79.5559L30.4535 95.3593H29.7664L19.4598 89.5189C19.1163 89.5189 19.1163 89.1753 19.1163 88.8318C18.4292 88.4882 18.7727 88.4882 19.1163 88.1447ZM29.7664 93.985L55.5327 79.2124L46.9439 74.0591L21.1776 88.8318L29.7664 93.985ZM63.7779 95.3593H63.4344L53.1278 89.5189C52.7843 89.5189 52.7843 89.1753 52.7843 88.8318C52.7843 88.4882 52.7843 88.1447 53.1278 88.1447L63.4344 82.3043H64.465L74.7716 88.1447C75.1151 88.1447 75.1151 88.4882 75.1151 88.8318C75.1151 89.1753 75.1151 89.5189 74.7716 89.5189L64.465 95.3593H63.7779ZM63.4344 83.6785L54.8456 88.4882L63.4344 93.6415L72.0232 88.8318L63.4344 83.6785ZM80.9555 104.979H80.2684L69.9619 99.1383C69.6183 99.1383 69.6183 98.7948 69.6183 98.4512C69.6183 98.1077 69.6183 97.7641 69.9619 97.7641L80.2684 91.9237H81.299L91.6056 97.7641C91.9491 97.7641 91.9491 98.1077 91.9491 98.4512C91.9491 98.7948 91.9491 99.1383 91.6056 99.1383L80.9555 104.979ZM80.2684 93.2979L71.6796 98.1077L80.2684 103.261L88.8572 98.4512L80.2684 93.2979ZM86.1088 108.071C86.1088 107.727 86.1088 107.384 86.4523 107.384L96.7588 101.543H97.7895L108.096 107.384C108.44 107.384 108.44 107.727 108.44 108.071C108.44 108.414 108.44 108.758 108.096 108.758L97.7895 114.598H97.1024L86.7959 108.758C86.1088 108.414 86.1088 108.414 86.1088 108.071ZM97.1024 112.88L105.691 108.071L97.1024 102.917L88.5136 107.727L97.1024 112.88ZM45.9133 91.9237H46.9439L57.2505 97.7641C57.594 97.7641 57.594 98.1077 57.594 98.4512C57.594 98.7948 57.594 99.1383 57.2505 99.1383L46.9439 104.979H46.2568L35.9503 99.1383C35.6067 99.1383 35.6067 98.7948 35.6067 98.4512C35.6067 98.1077 35.6067 97.7641 35.9503 97.7641L45.9133 91.9237ZM46.6004 103.604L55.1892 98.7948L46.6004 93.6415L38.0116 98.4512L46.6004 103.604ZM62.7473 101.543H63.7779L74.0845 107.384C74.428 107.384 74.428 107.727 74.428 108.071C74.428 108.414 74.428 108.758 74.0845 108.758L63.7779 114.598H63.0908L52.7843 108.758C52.4408 108.758 52.4408 108.414 52.4408 108.071C52.4408 107.727 52.4408 107.384 52.7843 107.384L62.7473 101.543ZM63.4344 113.224L72.0232 108.414L63.4344 103.261L54.8456 108.071L63.4344 113.224ZM79.2377 111.163H80.2684L90.5749 117.003C90.9185 117.003 90.9185 117.347 90.9185 117.69C90.9185 118.034 90.9185 118.377 90.5749 118.377L80.2684 124.218H79.5813L69.2747 118.377C68.9312 118.377 68.9312 118.034 68.9312 117.69C68.9312 117.347 68.9312 117.003 69.2747 117.003L79.2377 111.163ZM79.9248 122.843L88.5136 118.034L79.9248 112.88L71.3361 117.69L79.9248 122.843Z"/>
</mask>
<path d="M84.7346 44.5137L94.354 28.0232C94.354 27.6797 94.6975 27.6797 95.0411 27.6797H95.7282L103.973 32.4894C104.317 32.833 104.661 33.1765 104.317 33.5201C103.973 33.8636 103.63 34.2072 103.286 33.8636L95.7282 29.3974L87.1394 44.5137L148.979 80.9301L157.567 65.8139L117.372 42.4524C117.028 42.1088 116.685 41.7653 117.028 41.4217C117.372 41.0782 117.715 40.7346 118.059 41.0782L159.285 65.1268C159.629 65.4703 159.972 65.8139 159.629 66.1574L150.009 82.6479C150.009 82.9914 149.666 82.9914 149.322 82.9914H148.635L85.0781 45.8879C84.7346 45.5443 84.7346 45.2008 84.7346 44.5137ZM87.8265 61.6912C87.8265 62.0348 87.8265 62.3783 87.483 62.3783L80.6119 66.501H79.9248L69.6183 60.6606C69.2748 60.6606 69.2747 60.317 69.2747 59.9735C69.2747 59.6299 69.2748 59.2864 69.6183 59.2864L76.4893 55.1638H77.52L87.8265 61.0041C87.483 61.3477 87.8265 61.3477 87.8265 61.6912ZM76.4893 56.8815L71.3361 59.9735L79.9248 65.1268L85.0781 62.0348L76.4893 56.8815ZM92.6362 64.7832H93.6669L103.973 70.6236C104.317 70.6236 104.317 70.9671 104.317 71.3107C104.317 71.6542 104.317 71.9978 103.973 71.9978L97.1024 76.1204H96.4153L86.1088 70.28C85.7652 70.28 85.7652 69.9365 85.7652 69.5929C85.7652 69.2494 85.7652 68.9058 86.1088 68.9058L92.6362 64.7832ZM96.7588 74.4026L101.912 71.3107L93.3233 66.1574L88.1701 69.2494L96.7588 74.4026ZM110.157 74.4026L120.464 80.243C120.807 80.243 120.807 80.5866 120.807 80.9301C120.807 81.2737 120.807 81.6172 120.464 81.6172L113.593 85.7398H112.906L102.599 79.8995C102.256 79.8995 102.256 79.5559 102.256 79.2124C102.256 78.8688 102.256 78.5253 102.599 78.5253L109.47 74.4026H110.157ZM113.593 84.0221L118.746 80.9301L110.157 75.7768L105.004 78.8688L113.593 84.0221ZM118.746 88.8318C118.746 88.4882 118.746 88.1447 119.09 88.1447L125.961 84.0221H126.991L137.298 89.8624C137.641 89.8624 137.641 90.206 137.641 90.5495C137.641 90.8931 137.641 91.2366 137.298 91.2366L130.427 95.3593H129.74L119.433 89.5189C119.09 89.5189 118.746 89.1753 118.746 88.8318ZM130.083 93.6415L135.237 90.8931L126.648 85.7398L121.495 88.8318L130.083 93.6415ZM74.428 69.2494C74.428 69.5929 74.428 69.9365 74.0845 69.9365L63.7779 75.7768H63.0908L52.7843 69.9365C52.4408 69.9365 52.4408 69.5929 52.4408 69.2494C52.4408 68.9058 52.4408 68.5623 52.7843 68.5623L63.0908 62.7219H64.1215L74.428 68.5623V69.2494ZM63.4344 64.4397L54.8456 69.2494L63.4344 74.4026L72.0232 69.5929L63.4344 64.4397ZM91.262 79.2124C91.262 79.5559 91.262 79.8995 90.9185 79.8995L80.6119 85.7398H79.9248L69.6183 79.8995C69.2748 79.8995 69.2747 79.5559 69.2747 79.2124C69.2747 78.8688 69.2748 78.5253 69.6183 78.5253L79.9248 72.6849H80.9555L91.262 78.5253V79.2124ZM79.9248 74.0591L71.3361 78.8688L80.2684 84.0221L88.8572 79.2124L79.9248 74.0591ZM97.4459 95.3593H96.7588L86.4523 89.5189C86.1088 89.5189 86.1088 89.1753 86.1088 88.8318C86.1088 88.4882 86.1088 88.1447 86.4523 88.1447L96.7588 82.3043H97.7895L108.096 88.1447C108.44 88.1447 108.44 88.4882 108.44 88.8318C108.44 89.1753 108.44 89.5189 108.096 89.5189L97.4459 95.3593ZM96.7588 83.6785L88.1701 88.4882L96.7588 93.6415L105.348 88.8318L96.7588 83.6785ZM102.599 98.4512C102.599 98.1077 102.599 97.7641 102.943 97.7641L113.249 91.9237H114.28L124.586 97.7641C124.93 97.7641 124.93 98.1077 124.93 98.4512C124.93 98.7948 124.93 99.1383 124.586 99.1383L114.28 104.979H113.593L103.286 99.1383C102.599 98.7948 102.599 98.7948 102.599 98.4512ZM113.593 103.261L122.182 98.4512L113.593 93.2979L105.004 98.1077L113.593 103.261ZM19.1163 88.1447L46.6004 72.3413H47.631L57.9376 78.1817C58.2811 78.1817 58.2811 78.5253 58.2811 78.8688C58.2811 79.2124 58.2811 79.5559 57.9376 79.5559L30.4535 95.3593H29.7664L19.4598 89.5189C19.1163 89.5189 19.1163 89.1753 19.1163 88.8318C18.4292 88.4882 18.7727 88.4882 19.1163 88.1447ZM29.7664 93.985L55.5327 79.2124L46.9439 74.0591L21.1776 88.8318L29.7664 93.985ZM63.7779 95.3593H63.4344L53.1278 89.5189C52.7843 89.5189 52.7843 89.1753 52.7843 88.8318C52.7843 88.4882 52.7843 88.1447 53.1278 88.1447L63.4344 82.3043H64.465L74.7716 88.1447C75.1151 88.1447 75.1151 88.4882 75.1151 88.8318C75.1151 89.1753 75.1151 89.5189 74.7716 89.5189L64.465 95.3593H63.7779ZM63.4344 83.6785L54.8456 88.4882L63.4344 93.6415L72.0232 88.8318L63.4344 83.6785ZM80.9555 104.979H80.2684L69.9619 99.1383C69.6183 99.1383 69.6183 98.7948 69.6183 98.4512C69.6183 98.1077 69.6183 97.7641 69.9619 97.7641L80.2684 91.9237H81.299L91.6056 97.7641C91.9491 97.7641 91.9491 98.1077 91.9491 98.4512C91.9491 98.7948 91.9491 99.1383 91.6056 99.1383L80.9555 104.979ZM80.2684 93.2979L71.6796 98.1077L80.2684 103.261L88.8572 98.4512L80.2684 93.2979ZM86.1088 108.071C86.1088 107.727 86.1088 107.384 86.4523 107.384L96.7588 101.543H97.7895L108.096 107.384C108.44 107.384 108.44 107.727 108.44 108.071C108.44 108.414 108.44 108.758 108.096 108.758L97.7895 114.598H97.1024L86.7959 108.758C86.1088 108.414 86.1088 108.414 86.1088 108.071ZM97.1024 112.88L105.691 108.071L97.1024 102.917L88.5136 107.727L97.1024 112.88ZM45.9133 91.9237H46.9439L57.2505 97.7641C57.594 97.7641 57.594 98.1077 57.594 98.4512C57.594 98.7948 57.594 99.1383 57.2505 99.1383L46.9439 104.979H46.2568L35.9503 99.1383C35.6067 99.1383 35.6067 98.7948 35.6067 98.4512C35.6067 98.1077 35.6067 97.7641 35.9503 97.7641L45.9133 91.9237ZM46.6004 103.604L55.1892 98.7948L46.6004 93.6415L38.0116 98.4512L46.6004 103.604ZM62.7473 101.543H63.7779L74.0845 107.384C74.428 107.384 74.428 107.727 74.428 108.071C74.428 108.414 74.428 108.758 74.0845 108.758L63.7779 114.598H63.0908L52.7843 108.758C52.4408 108.758 52.4408 108.414 52.4408 108.071C52.4408 107.727 52.4408 107.384 52.7843 107.384L62.7473 101.543ZM63.4344 113.224L72.0232 108.414L63.4344 103.261L54.8456 108.071L63.4344 113.224ZM79.2377 111.163H80.2684L90.5749 117.003C90.9185 117.003 90.9185 117.347 90.9185 117.69C90.9185 118.034 90.9185 118.377 90.5749 118.377L80.2684 124.218H79.5813L69.2747 118.377C68.9312 118.377 68.9312 118.034 68.9312 117.69C68.9312 117.347 68.9312 117.003 69.2747 117.003L79.2377 111.163ZM79.9248 122.843L88.5136 118.034L79.9248 112.88L71.3361 117.69L79.9248 122.843Z" fill="white" stroke="#F0F2F5" stroke-width="0.6" mask="url(#path-3-inside-1_410_3976)"/>
</g>
</svg>
