<svg width="60" height="60" viewBox="0 0 60 60" fill="none" xmlns="http://www.w3.org/2000/svg">
<g clip-path="url(#clip0_430_4549)">
<path d="M1.96602 41.8281V41.4623L20.7655 39.4894V41.8281C20.7655 47.0194 16.557 51.2278 11.3657 51.2278C6.17444 51.2278 1.96602 47.0194 1.96602 41.8281Z" fill="white" stroke="#405FCE" stroke-width="0.6"/>
<path d="M4.16292 43.9915L4.16291 43.9915C2.47876 43.0191 1.80647 41.7293 1.96537 40.4515C2.12718 39.1504 3.1622 37.7479 5.14646 36.6024C7.12454 35.4603 9.62232 34.8216 12.0618 34.7205C14.5041 34.6192 16.8536 35.0581 18.5449 36.0346C20.229 37.0069 20.9013 38.2967 20.7424 39.5745C20.5806 40.8757 19.5456 42.2781 17.5613 43.4237C15.5832 44.5657 13.0854 45.2045 10.646 45.3056C8.2036 45.4069 5.85416 44.968 4.16292 43.9915Z" fill="white" stroke="#405FCE" stroke-width="0.6"/>
<path d="M6.39511 37.316C7.97516 36.4037 9.97287 35.8923 11.9256 35.8114C13.8812 35.7303 15.7572 36.0822 17.1037 36.8596L17.1037 36.8596C18.4431 37.6329 18.9647 38.6494 18.8407 39.6462C18.7138 40.6663 17.8994 41.78 16.3133 42.6958C14.7333 43.608 12.7356 44.1194 10.7829 44.2003C8.82732 44.2814 6.95128 43.9295 5.60469 43.1521C4.26524 42.3788 3.74371 41.3623 3.86768 40.3655C3.99455 39.3454 4.80893 38.2317 6.39511 37.316ZM6.39511 37.316L6.24511 37.0561L6.39511 37.316Z" fill="white" stroke="#405FCE" stroke-width="0.6"/>
<path d="M4.59208 43.8047L4.59212 43.8046L11.2914 23.6391L18.2211 36.0454C18.2559 36.1077 18.2645 36.1813 18.2451 36.25C18.2256 36.3187 18.1797 36.3769 18.1173 36.4117C18.055 36.4465 17.9814 36.4551 17.9127 36.4357C17.844 36.4162 17.7859 36.3703 17.751 36.3079L17.4891 36.4542L17.751 36.3079L11.7491 25.5625L11.4171 24.9682L11.2024 25.6142L5.10308 43.9743C5.10308 43.9743 5.10307 43.9743 5.10307 43.9744C5.08521 44.028 5.05093 44.0747 5.00506 44.1078C4.95919 44.141 4.90405 44.1588 4.84747 44.1588C4.80486 44.1588 4.76286 44.1487 4.72492 44.1293C4.68696 44.1099 4.65415 44.0817 4.6292 44.0471C4.60425 44.0126 4.58787 43.9725 4.58142 43.9304C4.57497 43.8882 4.57862 43.8452 4.59208 43.8047Z" fill="white" stroke="#405FCE" stroke-width="0.6"/>
<path d="M39.257 21.0234V20.6576L58.0565 18.6847V21.0234C58.0565 26.2147 53.8481 30.4232 48.6568 30.4232C43.4655 30.4232 39.257 26.2147 39.257 21.0234Z" fill="white" stroke="#405FCE" stroke-width="0.6"/>
<path d="M55.8359 15.2221L55.9859 14.9623L55.8359 15.2221C57.5201 16.1944 58.1924 17.4842 58.0335 18.762C57.8717 20.0632 56.8367 21.4656 54.8524 22.6112C52.8744 23.7532 50.3766 24.392 47.9371 24.4931C45.4947 24.5944 43.1452 24.1555 41.4539 23.179L41.3039 23.4388L41.4539 23.179C39.7698 22.2066 39.0975 20.9168 39.2564 19.639C39.4182 18.3379 40.4532 16.9354 42.4375 15.7899C44.4156 14.6478 46.9134 14.0091 49.3528 13.908C51.7952 13.8067 54.1446 14.2456 55.8359 15.2221Z" fill="white" stroke="#405FCE" stroke-width="0.6"/>
<path d="M54.3948 16.0549L54.3948 16.0549C55.7342 16.8282 56.2557 17.8447 56.1318 18.8415C56.0049 19.8616 55.1905 20.9753 53.6043 21.8911C52.0243 22.8033 50.0267 23.3147 48.074 23.3956C46.1184 23.4767 44.2423 23.1248 42.8957 22.3474C41.5563 21.5741 41.0347 20.5577 41.1587 19.5609C41.2855 18.5407 42.0999 17.427 43.6862 16.5113C45.2662 15.5991 47.2639 15.0876 49.2166 15.0067C51.1722 14.9256 53.0482 15.2775 54.3948 16.0549Z" fill="white" stroke="#405FCE" stroke-width="0.6"/>
<path d="M41.8831 23.0001L41.8831 23L48.5824 2.8344L55.5121 15.2407C55.5469 15.303 55.5555 15.3766 55.5361 15.4453C55.5166 15.514 55.4707 15.5722 55.4084 15.607C55.346 15.6418 55.2724 15.6504 55.2037 15.631C55.135 15.6115 55.0769 15.5656 55.0421 15.5032L54.7801 15.6495L55.0421 15.5032L49.0401 4.75785L48.7081 4.1635L48.4935 4.80956L42.394 23.1697L42.3939 23.1699C42.3761 23.2235 42.3419 23.2702 42.296 23.3033C42.2502 23.3364 42.1951 23.3542 42.1386 23.3543C42.0959 23.3543 42.0539 23.3442 42.0159 23.3247C41.978 23.3053 41.9452 23.2771 41.9202 23.2426C41.8953 23.208 41.8789 23.168 41.8724 23.1258C41.866 23.0837 41.8696 23.0406 41.8831 23.0001Z" fill="white" stroke="#405FCE" stroke-width="0.6"/>
<path d="M39.8427 47.1416L41.3797 49.0423L41.5295 49.2306C42.5009 50.4513 42.7062 51.85 42.1824 53.2381C41.6531 54.6404 40.3673 56.0594 38.3012 57.2522L38.4512 57.512L38.3012 57.2522C35.7432 58.7291 32.5167 59.5534 29.3681 59.684C26.2165 59.8146 23.1773 59.2489 20.9837 57.9825C19.3612 57.0458 18.4553 55.8738 18.1794 54.6545C17.9042 53.4381 18.2427 52.1154 19.2295 50.8449L19.6417 50.3141L19.6044 50.3168L20.6026 48.9209L39.8427 47.1416Z" fill="#F0F2F5" stroke="#2A315C" stroke-width="0.6"/>
<path d="M37.0193 53.6918L37.1693 53.9516L37.0193 53.6918C34.87 54.9327 32.1571 55.6263 29.5083 55.7361C26.8565 55.846 24.3034 55.3696 22.4637 54.3076C20.6313 53.2496 19.8941 51.8422 20.0681 50.4435C20.2449 49.0215 21.3749 47.4949 23.5304 46.2504C25.6796 45.0094 28.3926 44.3159 31.0414 44.2061C33.6932 44.0962 36.2463 44.5725 38.0859 45.6345C39.9184 46.6925 40.6555 48.1 40.4816 49.4986C40.3047 50.9207 39.1748 52.4473 37.0193 53.6918Z" fill="#F0F2F5" stroke="#2A315C" stroke-width="0.6"/>
<path d="M32.4415 13.6639V47.1345L28.5601 48.4866C28.5601 48.4866 28.5601 48.4866 28.56 48.4866C28.2162 48.288 28.1065 48.0594 28.1086 47.8679H28.1086V47.8645V14.051L32.4415 13.6639Z" fill="white" stroke="#2A315C" stroke-width="0.6"/>
<path d="M29.5848 15.0778L31.8697 17.6932C31.8544 17.7028 31.8384 17.7127 31.8219 17.723C31.6048 17.8571 31.2878 18.0437 30.8913 18.2514C30.1776 18.6253 29.2107 19.0653 28.1087 19.3917L28.1086 15.9648C28.5646 15.6807 28.9692 15.4384 29.2681 15.2625C29.3938 15.1886 29.5007 15.1264 29.5848 15.0778Z" fill="white" stroke="#2A315C" stroke-width="0.6"/>
<path d="M51.8449 3.49969C51.8449 5.26683 50.4123 6.69937 48.6452 6.69937C46.8781 6.69937 45.4455 5.26683 45.4455 3.49969C45.4455 1.73255 46.8781 0.3 48.6452 0.3C50.4123 0.3 51.8449 1.73255 51.8449 3.49969Z" fill="white" stroke="#2A315C" stroke-width="0.6"/>
<path d="M51.8449 3.49969C51.8449 5.26683 50.4123 6.69937 48.6452 6.69937C46.8781 6.69937 45.4455 5.26683 45.4455 3.49969C45.4455 1.73255 46.8781 0.3 48.6452 0.3C50.4123 0.3 51.8449 1.73255 51.8449 3.49969Z" fill="white" stroke="#2A315C" stroke-width="0.6"/>
<path d="M46.1889 2.67151L46.1889 2.67154L46.1933 2.66905C46.35 2.57974 46.5917 2.56318 46.9209 2.75336L46.921 2.75339C47.2915 2.96729 47.6505 3.37835 47.9185 3.8903C48.1851 4.3997 48.3454 4.9788 48.3454 5.50178C48.3454 6.05398 48.1708 6.36749 47.9816 6.49608L13.9807 25.1204C13.9227 25.0268 13.851 24.8951 13.7683 24.7304C13.5699 24.3351 13.328 23.79 13.0921 23.2345C12.8568 22.6803 12.6297 22.1212 12.4614 21.7002C12.3884 21.5178 12.3265 21.3615 12.2799 21.2429L46.1889 2.67151Z" fill="white" stroke="#2A315C" stroke-width="0.6"/>
<path d="M34.3417 13.8985C34.3417 16.1447 32.5207 17.9657 30.2745 17.9657C28.0282 17.9657 26.2072 16.1447 26.2072 13.8985C26.2072 11.6522 28.0282 9.83125 30.2745 9.83125C32.5207 9.83125 34.3417 11.6522 34.3417 13.8985Z" fill="white" stroke="#2A315C" stroke-width="0.6"/>
<path d="M34.3417 13.8985C34.3417 16.1447 32.5207 17.9657 30.2745 17.9657C28.0282 17.9657 26.2072 16.1447 26.2072 13.8985C26.2072 11.6522 28.0282 9.83125 30.2745 9.83125C32.5207 9.83125 34.3417 11.6522 34.3417 13.8985Z" fill="#F0F2F5" stroke="#2A315C" stroke-width="0.6"/>
<path d="M26.0517 13.7028L26.0517 13.7028L26.0561 13.7003C26.2129 13.611 26.4545 13.5944 26.7838 13.7846L26.7838 13.7846C27.1543 13.9985 27.5134 14.4096 27.7813 14.9216C28.0479 15.4309 28.2082 16.01 28.2082 16.533C28.2082 17.0861 28.0331 17.3998 27.8435 17.5279L13.9806 25.1232C13.9226 25.0296 13.851 24.8979 13.7683 24.7332C13.5699 24.3379 13.328 23.7928 13.0921 23.2373C12.8568 22.6831 12.6297 22.1239 12.4614 21.7029C12.3884 21.5205 12.3265 21.3642 12.2799 21.2457L26.0517 13.7028Z" fill="white" stroke="#2A315C" stroke-width="0.6"/>
<path d="M14.5539 24.3044C14.5539 26.0715 13.1213 27.5041 11.3542 27.5041C9.58704 27.5041 8.15449 26.0715 8.15449 24.3044C8.15449 22.5372 9.58704 21.1047 11.3542 21.1047C13.1213 21.1047 14.5539 22.5372 14.5539 24.3044Z" fill="white" stroke="#2A315C" stroke-width="0.6"/>
<path d="M14.5539 24.3044C14.5539 26.0715 13.1213 27.5041 11.3542 27.5041C9.58704 27.5041 8.15449 26.0715 8.15449 24.3044C8.15449 22.5372 9.58704 21.1047 11.3542 21.1047C13.1213 21.1047 14.5539 22.5372 14.5539 24.3044Z" fill="white" stroke="#2A315C" stroke-width="0.6"/>
</g>
<defs>
<clipPath id="clip0_430_4549">
<rect width="60" height="60" fill="white"/>
</clipPath>
</defs>
</svg>
