<svg width="60" height="61" viewBox="0 0 60 61" fill="none" xmlns="http://www.w3.org/2000/svg">
<g clip-path="url(#clip0_310_6668)">
<path d="M12.1262 55.5391L11.9908 55.4107L11.8292 55.504C10.916 56.0312 9.87997 55.9147 9.12128 55.3841C8.79419 55.1553 8.37761 54.7688 8.04494 54.3243C7.70764 53.8736 7.48496 53.4012 7.48496 52.9957H7.48522L7.48471 52.9845L6.17867 24.0296C6.17882 24.0293 6.17897 24.029 6.17912 24.0287C6.18704 24.0128 6.20317 23.9868 6.23252 23.95C6.29136 23.8762 6.38591 23.7803 6.52055 23.662C6.78862 23.4267 7.18848 23.1264 7.70673 22.7689C8.7415 22.0552 10.224 21.1301 12.0086 20.0672C15.5764 17.9421 20.3356 15.2754 25.0973 12.6634C29.8585 10.0516 34.6198 7.4958 38.1911 5.59281C39.9767 4.64133 41.4646 3.85311 42.5062 3.30278C43.027 3.02761 43.4361 2.81192 43.7151 2.66503L43.9997 2.51522L48.1324 5.74644L43.6729 37.1424L16.6565 59.7422L16.3559 59.5498L12.1262 55.5391Z" fill="#F0F2F5" stroke="#030E17" stroke-width="0.5"/>
<path d="M18.1156 27.4081L18.117 27.4073L50.8269 8.34756L50.9498 8.27593L50.9999 8.14275L51.1135 7.8407V38.3485C51.1135 39.29 50.8657 40.215 50.3949 41.0304C49.9241 41.8458 49.247 42.5229 48.4316 42.9937L19.3609 59.7776C17.781 60.6897 15.8063 59.5496 15.8063 57.7253V31.408C15.8062 30.5973 16.0197 29.8008 16.425 29.0987C16.8304 28.3965 17.4135 27.8135 18.1156 27.4081Z" fill="white" stroke="#405FCE" stroke-width="0.8"/>
<path d="M15.4656 59.0669L13.3826 57.8591L13.3737 57.8539L13.3643 57.8494C12.5324 57.4548 11.9201 56.6203 11.9201 55.5718V29.2545C11.9201 28.4174 12.1404 27.595 12.559 26.8701C12.9775 26.1451 13.5795 25.5431 14.3045 25.1246L14.1795 24.9081L14.3045 25.1246L27.2654 17.6416L27.6445 17.4227L27.6418 17.4212L46.103 6.76262C47.1724 6.14533 47.1718 4.60188 46.1022 3.98519L45.9773 4.20177L46.1022 3.98518C45.5024 3.6394 44.8222 3.45748 44.1299 3.4577C43.4376 3.45792 42.7575 3.64027 42.1579 3.98643L23.2611 14.8965L23.2591 14.8953L23.1329 14.9682L10.1841 22.4442C9.38316 22.9066 8.71805 23.5717 8.25563 24.3727C7.79321 25.1736 7.54977 26.0822 7.54977 27.007V53.3243C7.54977 53.8156 7.66254 54.2682 7.85919 54.6653L5.77595 53.4574L5.76702 53.4522L5.75769 53.4478C4.92576 53.0531 4.31348 52.2186 4.31348 51.1702V24.8528C4.31346 24.0157 4.5338 23.1933 4.95234 22.4684C5.37088 21.7435 5.97287 21.1415 6.69781 20.7229L19.6495 13.2453L20.0521 13.0128L20.0514 13.0125L38.8354 2.16757C40.4417 1.24017 42.2636 0.751309 44.1184 0.750003C45.9732 0.748697 47.7957 1.23499 49.4033 2.16013L49.528 1.94345L49.4033 2.16013C51.8819 3.58645 51.8844 7.16184 49.4079 8.59155L47.4212 9.73858L17.7906 26.8457C16.9897 27.3082 16.3246 27.9733 15.8622 28.7742C15.3997 29.5752 15.1563 30.4837 15.1563 31.4086V57.7261C15.1563 58.2173 15.269 58.6698 15.4656 59.0669Z" fill="white" stroke="#030E17" stroke-width="0.5"/>
<path d="M21.6641 38.1071L21.6858 38.0975L21.7063 38.0856C22.0425 37.8915 22.4561 37.8645 22.9211 37.9577C23.3862 38.051 23.8562 38.2559 24.2589 38.4647C25.0369 38.8681 25.5981 39.668 25.5981 40.665C25.598 42.0298 25.2388 43.3705 24.5564 44.5524C23.874 45.7343 22.8925 46.7158 21.7106 47.3982L17.0962 50.0623L17.0962 50.0623C16.5824 50.359 15.9995 50.5152 15.4062 50.5152C14.8128 50.5152 14.2299 50.359 13.7161 50.0623L13.7161 50.0623L2.55347 43.6176C2.55344 43.6176 2.55342 43.6176 2.5534 43.6176C2.24257 43.438 2.09336 43.1221 2.1052 42.8019L2.11573 42.5171L2.10234 42.5101V33.8497L14.5796 41.0535L14.7781 41.1681L14.9874 41.075L21.6641 38.1071Z" fill="white" stroke="#405FCE" stroke-width="0.9"/>
<path d="M22.7152 37.3379L22.7158 37.3383L22.9712 37.4859C22.4884 37.5081 21.9975 37.6435 21.5323 37.9121L17.1962 40.4156L17.1962 40.4156C16.652 40.7298 16.0346 40.8953 15.4062 40.8953C14.7777 40.8953 14.1603 40.7298 13.6161 40.4156L13.6161 40.4156L2.4534 33.9707C1.71866 33.5465 1.71866 32.4859 2.4534 32.0617L3.81312 31.2768V33.1645V33.3089L3.93812 33.381L15.2812 39.9299L15.4062 40.0021L15.5312 39.9299L19.927 37.392L20.1551 37.4774V37.2649C21.0184 36.8228 21.9679 36.9031 22.7152 37.3379Z" fill="#F0F2F5" stroke="#030E17" stroke-width="0.5"/>
<path d="M22.2608 46.9058L22.2608 46.9059C21.6785 47.2421 21.2109 47.2044 20.8931 46.9641C20.5595 46.712 20.3115 46.1797 20.3115 45.3652V44.1983C20.3118 43.9053 20.5056 43.6506 20.9083 43.4308C21.308 43.2126 21.8569 43.0635 22.4267 42.9702C22.9928 42.8776 23.5599 42.843 23.9835 42.8438C24.1815 42.8441 24.3431 42.8522 24.456 42.8645C24.4222 43.6221 24.1828 44.4335 23.8078 45.1499C23.4014 45.9265 22.8491 46.5662 22.2608 46.9058Z" fill="#F0F2F5" stroke="#030E17" stroke-width="0.5"/>
<path d="M22.5099 39.9872L22.5099 39.9872C23.0314 39.686 23.46 39.6873 23.767 39.8578L24.4176 40.2322L21.6215 46.2387L21.0415 45.903L21.0417 45.9027L21.03 45.8968C20.6282 45.6915 20.3105 45.1367 20.3105 44.2117C20.3105 43.4032 20.5575 42.5178 20.9628 41.7432C21.3693 40.9666 21.9216 40.3268 22.5099 39.9872Z" fill="#F0F2F5" stroke="#030E17" stroke-width="0.5"/>
<path d="M23.1153 46.2449L23.1153 46.2449C22.5329 46.5812 22.0654 46.5436 21.7475 46.3033C21.414 46.0512 21.166 45.5189 21.166 44.7043C21.166 43.8958 21.4129 43.0103 21.8183 42.2358C22.2248 41.4592 22.777 40.8194 23.3653 40.4798C23.9477 40.1436 24.4152 40.1812 24.7331 40.4215C25.0666 40.6737 25.3146 41.206 25.3146 42.0205C25.3146 42.8291 25.0677 43.7145 24.6623 44.489C24.2559 45.2657 23.7036 45.9054 23.1153 46.2449Z" fill="white" stroke="#030E17" stroke-width="0.5"/>
<path d="M43.2065 51.6026L41.5676 50.6564L41.5678 50.6557L41.3797 50.5472C39.1892 49.2828 37.8281 46.2919 37.8281 42.1582V36.4076C37.8281 35.7726 38.1356 35.0178 38.5889 34.5476L38.589 34.5476L46.2455 26.6069L46.2455 26.6069C46.4331 26.4123 46.6248 26.2604 46.8111 26.1529L46.6862 25.9364L46.8111 26.1529C46.9978 26.0452 47.1754 25.984 47.336 25.965L54.9926 25.0648L54.9926 25.0648C55.0946 25.0528 55.1396 25.0805 55.2958 25.1769C55.3257 25.1953 55.3597 25.2163 55.3989 25.24L55.3989 25.24L55.4031 25.2424L57.5924 26.5065L43.2065 51.6026Z" fill="#F0F2F5" stroke="#030E17" stroke-width="0.5"/>
<path d="M57.5646 26.7307L57.5179 26.3334L57.5646 26.7307C57.6705 26.7182 57.7417 26.7504 57.8035 26.8303C57.8778 26.9264 57.9489 27.113 57.949 27.4077C57.949 27.4077 57.949 27.4078 57.949 27.4078V33.1582C57.949 38.4255 55.7151 44.5552 52.1722 48.9743L49.6839 52.0778L49.6839 52.0779C49.2415 52.6297 48.7988 52.8272 48.5227 52.8016L46.0345 52.5712C44.376 52.4176 43.0144 51.5162 42.0551 49.9959C41.09 48.4664 40.5328 46.3065 40.5328 43.6752V37.9247C40.5328 37.3294 40.8246 36.6116 41.2516 36.1688L41.2516 36.1687L48.908 28.2279C49.2731 27.8494 49.6301 27.6637 49.9081 27.6309C49.9081 27.6309 49.9081 27.6309 49.9081 27.6309L57.5646 26.7307Z" fill="white" stroke="#405FCE" stroke-width="0.8"/>
<mask id="path-11-inside-1_310_6668" fill="white">
<path d="M46.6495 43.7444L45.2383 42.9297L45.2399 42.9311L47.7413 44.822C47.7904 44.8592 47.843 44.886 47.8973 44.9079L47.8962 44.9102L49.2302 45.6871L49.2952 45.556L46.6495 43.7444Z"/>
</mask>
<path d="M46.6495 43.7444L45.2383 42.9297L45.2399 42.9311L47.7413 44.822C47.7904 44.8592 47.843 44.886 47.8973 44.9079L47.8962 44.9102L49.2302 45.6871L49.2952 45.556L46.6495 43.7444Z" fill="#F0F2F5"/>
<path d="M46.6495 43.7444L46.9319 43.3318L46.9161 43.321L46.8994 43.3114L46.6495 43.7444ZM45.2383 42.9297L45.4883 42.4967L44.9131 43.3095L45.2383 42.9297ZM45.2399 42.9311L44.9147 43.3109L44.9263 43.3208L44.9384 43.3299L45.2399 42.9311ZM47.7413 44.822L48.043 44.4233L48.0428 44.4232L47.7413 44.822ZM47.8973 44.9079L48.3492 45.1219L48.576 44.6428L48.0845 44.4443L47.8973 44.9079ZM47.8962 44.9102L47.4443 44.6962L47.2478 45.1111L47.6446 45.3422L47.8962 44.9102ZM49.2302 45.6871L48.9785 46.1192L49.4405 46.3883L49.6781 45.9093L49.2302 45.6871ZM49.2952 45.556L49.7431 45.7781L49.9362 45.3889L49.5777 45.1434L49.2952 45.556ZM46.8994 43.3114L45.4883 42.4967L44.9883 43.3627L46.3995 44.1774L46.8994 43.3114ZM44.9131 43.3095L44.9147 43.3109L45.5651 42.5513L45.5635 42.5499L44.9131 43.3095ZM44.9384 43.3299L47.4398 45.2209L48.0428 44.4232L45.5414 42.5322L44.9384 43.3299ZM47.4396 45.2208C47.5339 45.2921 47.6285 45.3386 47.71 45.3715L48.0845 44.4443C48.0575 44.4334 48.0469 44.4263 48.043 44.4233L47.4396 45.2208ZM47.4454 44.6939L47.4443 44.6962L48.3481 45.1241L48.3492 45.1219L47.4454 44.6939ZM47.6446 45.3422L48.9785 46.1192L49.4818 45.2551L48.1479 44.4781L47.6446 45.3422ZM49.6781 45.9093L49.7431 45.7781L48.8473 45.3338L48.7822 45.465L49.6781 45.9093ZM49.5777 45.1434L46.9319 43.3318L46.367 44.1569L49.0127 45.9685L49.5777 45.1434Z" fill="#030E17" mask="url(#path-11-inside-1_310_6668)"/>
<path d="M46.1404 43.425L46.1404 43.425C46.0233 43.3365 45.9049 43.108 45.9049 42.7027C45.9049 42.3145 46.0175 41.8426 46.2536 41.3916L46.2536 41.3915C46.4907 40.9384 46.7879 40.6292 47.0509 40.4773C47.3147 40.325 47.4733 40.3595 47.5614 40.4261L47.5614 40.4262L49.111 41.5976L49.4877 41.8823L49.7066 41.464L53.0691 35.0394C53.3063 34.5862 53.6035 34.277 53.8665 34.1251C54.1302 33.9728 54.2888 34.0073 54.3769 34.074L54.3769 34.074C54.4939 34.1625 54.6123 34.391 54.6123 34.7964C54.6123 35.1846 54.4997 35.6566 54.2637 36.1075L49.9495 44.3506L49.9495 44.3507C49.7125 44.8037 49.4153 45.1129 49.1523 45.2647C48.8885 45.417 48.7299 45.3826 48.6417 45.316C48.6417 45.316 48.6417 45.3159 48.6417 45.3159L46.1404 43.425Z" fill="#F0F2F5" stroke="#405FCE" stroke-width="0.8"/>
</g>
<defs>
<clipPath id="clip0_310_6668">
<rect width="60" height="60" fill="white" transform="translate(0 0.5)"/>
</clipPath>
</defs>
</svg>
