<svg width="24" height="25" viewBox="0 0 24 25" fill="none" xmlns="http://www.w3.org/2000/svg">
<path d="M19.829 12.7342C20.4678 12.1863 21.0547 11.5806 21.5821 10.9248C21.6445 10.8488 21.691 10.7612 21.7191 10.667C21.7473 10.5728 21.7563 10.474 21.7459 10.3763C21.7354 10.2785 21.7056 10.1839 21.6582 10.0978C21.6107 10.0117 21.5466 9.9359 21.4696 9.87483C21.3942 9.81197 21.3071 9.76474 21.2132 9.73587C21.1194 9.707 21.0207 9.69708 20.923 9.70667C20.8253 9.71627 20.7305 9.74519 20.6441 9.79176C20.5577 9.83834 20.4814 9.90163 20.4196 9.97795C19.8328 10.7096 19.1626 11.3703 18.4227 11.9467H18.404C16.8571 13.1467 14.7477 14.1123 12.0009 14.1123C9.68025 14.1346 7.42031 13.3714 5.58837 11.9467H5.579C4.83912 11.3703 4.16897 10.7096 3.58212 9.97795C3.52038 9.90163 3.44408 9.83834 3.35765 9.79176C3.27123 9.74519 3.17641 9.71627 3.0787 9.70667C2.981 9.69708 2.88236 9.707 2.78853 9.73587C2.6947 9.76474 2.60754 9.81197 2.53212 9.87483C2.45511 9.9359 2.39102 10.0117 2.34359 10.0978C2.29616 10.1839 2.26634 10.2785 2.25587 10.3763C2.2454 10.474 2.25449 10.5728 2.2826 10.667C2.31071 10.7612 2.35729 10.8488 2.41962 10.9248C2.94705 11.5806 3.53392 12.1863 4.17275 12.7342L2.34462 15.903C2.27891 16.0168 2.24426 16.1459 2.24414 16.2773C2.24402 16.4087 2.27845 16.5379 2.34396 16.6518C2.40947 16.7657 2.50378 16.8605 2.61743 16.9265C2.73107 16.9925 2.86007 17.0275 2.9915 17.028C3.12232 17.0257 3.2504 16.99 3.3636 16.9244C3.4768 16.8588 3.57138 16.7653 3.63837 16.653L5.37275 13.6436C6.38717 14.3265 7.50446 14.8424 8.68212 15.1717L8.129 18.2655C8.09614 18.4616 8.14157 18.6629 8.25552 18.8259C8.36947 18.989 8.54285 19.1008 8.73837 19.1373H8.86962C9.04615 19.1378 9.2172 19.0761 9.35268 18.9629C9.48815 18.8497 9.57936 18.6924 9.61025 18.5186L10.1446 15.4811C10.7593 15.5719 11.3796 15.6189 12.0009 15.6217C12.6189 15.6223 13.2361 15.5785 13.8477 15.4905L14.3821 18.528C14.413 18.7018 14.5042 18.8591 14.6397 18.9723C14.7752 19.0855 14.9462 19.1472 15.1227 19.1467H15.254C15.4495 19.1101 15.6229 18.9983 15.7368 18.8353C15.8508 18.6722 15.8962 18.471 15.8634 18.2748L15.3196 15.1905C16.4942 14.8561 17.6081 14.3371 18.6196 13.653L20.3446 16.6342C20.411 16.7492 20.5068 16.8445 20.6221 16.9104C20.7374 16.9763 20.8681 17.0104 21.0009 17.0092C21.133 17.0103 21.2629 16.9746 21.3759 16.9061C21.547 16.8062 21.6716 16.6427 21.7225 16.4512C21.7735 16.2597 21.7466 16.0559 21.6477 15.8842L19.829 12.7342Z" fill="#405FCE"/>
</svg>
