<svg width="33" height="32" viewBox="0 0 33 32" fill="none" xmlns="http://www.w3.org/2000/svg">
<path d="M1.56055 27.1566L29.7206 3.47656" stroke="#E14942" stroke-width="2" stroke-linecap="round"/>
<path d="M14 26.001C14 26.4653 13.8383 26.9128 13.5469 27.2686L13.4141 27.415C13.0389 27.7902 12.5302 28.001 12 28.001H6C5.71558 28.001 5.43837 27.9382 5.18359 27.8242L7.35254 26.001H12V22.0928L14 20.4102V26.001ZM27.3477 12.9609L27.3623 12.9746L27.502 13.1211C27.6349 13.2745 27.7449 13.4471 27.8271 13.6338L27.8994 13.8232C27.9626 14.0167 27.9968 14.2188 28 14.4229V26.001C28 26.4653 27.8383 26.9128 27.5469 27.2686L27.4141 27.415C27.0389 27.7902 26.5302 28.001 26 28.001H20C19.5361 28.001 19.0884 27.8404 18.7324 27.5488L18.5859 27.415C18.2112 27.0401 18 26.5316 18 26.001V20.001H14.4873L16.8662 18.001H18C18.5304 18.001 19.0391 18.212 19.4141 18.5869L19.5469 18.7334C19.8384 19.0892 19.9999 19.5366 20 20.001V26.001H26V14.4551L25.9971 14.4404C25.9951 14.436 25.9922 14.4315 25.9883 14.4277H25.9873L23.6455 12.2998L25.1904 11L27.3477 12.9609ZM16 3.35156C16.4987 3.35156 16.9792 3.53794 17.3477 3.87402L23.6963 9.64355L22.1523 10.9424L16.0029 5.35352L16 5.35156L15.9971 5.35352L6.01172 14.4277L6.00293 14.4404C6.00092 14.4451 6.00008 14.4503 6 14.4551V24.5254L4.00977 26.1982C4.00329 26.133 4 26.0671 4 26.001V14.4229C4.0044 14.1512 4.06331 13.8825 4.17285 13.6338L4.26367 13.4521C4.36361 13.2755 4.48972 13.1145 4.6377 12.9746L4.65234 12.9609L14.6523 3.87402C15.0208 3.53794 15.5013 3.35156 16 3.35156ZM12.0928 19.4014C12.1886 19.0969 12.3563 18.8167 12.5859 18.5869L12.7324 18.4541C13.0197 18.2187 13.367 18.0698 13.7344 18.0205L12.0928 19.4014Z" fill="#E14942"/>
</svg>
