<svg width="50" height="50" viewBox="0 0 50 50" fill="none" xmlns="http://www.w3.org/2000/svg">
<path d="M14.0625 37.5H12.5C12.5 36.2568 12.0061 35.0645 11.1271 34.1854C10.248 33.3064 9.0557 32.8125 7.8125 32.8125C6.5693 32.8125 5.37701 33.3064 4.49794 34.1854C3.61886 35.0645 3.125 36.2568 3.125 37.5H1.5625V12.5C1.5625 10.8424 2.22098 9.25268 3.39308 8.08058C4.56519 6.90848 6.1549 6.25 7.8125 6.25C9.4701 6.25 11.0598 6.90848 12.2319 8.08058C13.404 9.25268 14.0625 10.8424 14.0625 12.5V37.5ZM7.8125 31.25C8.69931 31.2501 9.57594 31.439 10.3841 31.804C11.1923 32.1691 11.9136 32.7019 12.5 33.3672V12.5C12.5 11.2568 12.0061 10.0645 11.1271 9.18544C10.248 8.30636 9.0557 7.8125 7.8125 7.8125C6.5693 7.8125 5.37701 8.30636 4.49794 9.18544C3.61886 10.0645 3.125 11.2568 3.125 12.5V33.3672C3.7114 32.7019 4.43267 32.1691 5.24086 31.804C6.04906 31.439 6.92569 31.2501 7.8125 31.25Z" fill="#CDA229"/>
<path d="M48.4376 43.75H7.81256C6.76806 43.7502 5.74017 43.4886 4.82283 42.9891C3.9055 42.4896 3.12796 41.7682 2.56129 40.8908C1.99462 40.0134 1.65688 39.0079 1.57895 37.9664C1.50101 36.9248 1.68536 35.8802 2.11515 34.9283C2.54493 33.9763 3.20645 33.1472 4.03925 32.5168C4.87204 31.8864 5.84955 31.4747 6.88245 31.3194C7.91534 31.1642 8.97068 31.2702 9.95201 31.628C10.9333 31.9857 11.8094 32.5836 12.5001 33.3672V11.7188H48.4376V43.75ZM7.81256 32.8125C6.56936 32.8125 5.37707 33.3064 4.498 34.1854C3.61892 35.0645 3.12506 36.2568 3.12506 37.5C3.12506 38.7432 3.61892 39.9355 4.498 40.8146C5.37707 41.6936 6.56936 42.1875 7.81256 42.1875H46.8751V13.2812H14.0626V37.5H12.5001C12.5001 36.2568 12.0062 35.0645 11.1271 34.1854C10.248 33.3064 9.05576 32.8125 7.81256 32.8125Z" fill="#CDA229"/>
<path d="M7.8125 43.75C6.1549 43.75 4.56519 43.0915 3.39308 41.9194C2.22098 40.7473 1.5625 39.1576 1.5625 37.5C1.5625 37.2928 1.64481 37.0941 1.79132 36.9476C1.93784 36.8011 2.13655 36.7188 2.34375 36.7188C2.55095 36.7188 2.74966 36.8011 2.89618 36.9476C3.04269 37.0941 3.125 37.2928 3.125 37.5C3.125 38.7432 3.61886 39.9355 4.49794 40.8146C5.37701 41.6936 6.5693 42.1875 7.8125 42.1875C8.0197 42.1875 8.21841 42.2698 8.36493 42.4163C8.51144 42.5628 8.59375 42.7615 8.59375 42.9688C8.59375 43.176 8.51144 43.3747 8.36493 43.5212C8.21841 43.6677 8.0197 43.75 7.8125 43.75ZM35.1562 40.625H21.0938V38.2812H22.6562V39.0625H33.5938V38.2812H35.1562V40.625ZM42.9688 35.9375H40.625V34.375H41.4062V16.4062H40.625V14.8438H42.9688V35.9375ZM38.2812 35.9375H33.5938V19.5312H32.0312V17.9688H35.1562V34.375H38.2812V35.9375ZM22.6562 35.9375H17.9688V34.375H21.0938V17.9688H24.2188V19.5312H22.6562V35.9375ZM31.25 35.9375H29.6875V32.0312H26.5625V35.9375H25V30.4688H31.25V35.9375ZM24.2188 21.0938H25.7812V22.6562H24.2188V21.0938ZM27.3438 21.0938H28.9062V22.6562H27.3438V21.0938ZM30.4688 21.0938H32.0312V22.6562H30.4688V21.0938ZM24.2188 24.2188H25.7812V25.7812H24.2188V24.2188ZM27.3438 24.2188H28.9062V25.7812H27.3438V24.2188ZM30.4688 24.2188H32.0312V25.7812H30.4688V24.2188ZM24.2188 27.3438H25.7812V28.9062H24.2188V27.3438ZM27.3438 27.3438H28.9062V28.9062H27.3438V27.3438ZM30.4688 27.3438H32.0312V28.9062H30.4688V27.3438Z" fill="#CDA229"/>
<path d="M32.8125 19.5312H23.4375V14.8438H32.8125V19.5312ZM25 17.9688H31.25V16.4062H25V17.9688Z" fill="#CDA229"/>
</svg>
