<svg width="60" height="60" viewBox="0 0 60 60" fill="none" xmlns="http://www.w3.org/2000/svg">
<path d="M30 50.625C30 50.625 6.5625 37.5 6.5625 21.5625C6.5625 18.7451 7.53866 16.0146 9.32489 13.8358C11.1111 11.6569 13.5971 10.1642 16.3598 9.61169C19.1226 9.05914 21.9914 9.48086 24.4783 10.8051C26.9651 12.1293 28.9164 14.2743 30 16.875V16.875C31.0836 14.2743 33.0349 12.1293 35.5217 10.8051C38.0086 9.48086 40.8774 9.05914 43.6402 9.61169C46.4029 10.1642 48.8889 11.6569 50.6751 13.8358C52.4613 16.0146 53.4375 18.7451 53.4375 21.5625C53.4375 37.5 30 50.625 30 50.625Z" stroke="white" stroke-width="2" stroke-linecap="round" stroke-linejoin="round"/>
</svg>
