<svg width="72" height="56" viewBox="0 0 72 56" fill="none" xmlns="http://www.w3.org/2000/svg">
<path d="M20.6 30.3016C22.4667 31.3682 23.9333 32.9016 25 34.9016C26.2 36.7682 26.8 38.9016 26.8 41.3016C26.8 45.4349 25.4 48.9016 22.6 51.7016C19.9333 54.5016 16.6667 55.9016 12.8 55.9016C9.2 55.9016 6.13333 54.7016 3.6 52.3016C1.2 49.9016 0 46.8349 0 43.1016C0 41.1016 0.333333 39.2349 0.999999 37.5016C1.66667 35.6349 2.86667 33.1682 4.6 30.1016L21.4 0.101562H34L20.6 30.3016ZM58.4 30.3016C60.2667 31.3682 61.7333 32.9016 62.8 34.9016C64 36.7682 64.6 38.9016 64.6 41.3016C64.6 45.4349 63.2 48.9016 60.4 51.7016C57.7333 54.5016 54.4667 55.9016 50.6 55.9016C47 55.9016 43.9333 54.7016 41.4 52.3016C39 49.9016 37.8 46.8349 37.8 43.1016C37.8 41.1016 38.1333 39.2349 38.8 37.5016C39.4667 35.6349 40.6667 33.1682 42.4 30.1016L59.2 0.101562H71.8L58.4 30.3016Z" fill="#CDA229"/>
</svg>
