<svg width="60" height="60" viewBox="0 0 60 60" fill="none" xmlns="http://www.w3.org/2000/svg">
<path d="M30 18.75V30" stroke="white" stroke-width="2" stroke-linecap="round" stroke-linejoin="round"/>
<path d="M39.75 35.625L30 30" stroke="white" stroke-width="2" stroke-linecap="round" stroke-linejoin="round"/>
<path d="M16.8281 23.3672H7.45312V13.9922" stroke="white" stroke-width="2" stroke-linecap="round" stroke-linejoin="round"/>
<path d="M15.4219 44.5781C18.3057 47.4643 21.9807 49.4303 25.982 50.2275C29.9833 51.0247 34.1312 50.6172 37.9009 49.0566C41.6706 47.4961 44.8927 44.8525 47.1598 41.4604C49.4268 38.0683 50.6369 34.08 50.6369 30C50.6369 25.9201 49.4268 21.9318 47.1598 18.5396C44.8927 15.1475 41.6706 12.5039 37.9009 10.9434C34.1312 9.38282 29.9833 8.97536 25.982 9.77255C21.9807 10.5697 18.3057 12.5357 15.4219 15.4219L7.45312 23.3672" stroke="white" stroke-width="2" stroke-linecap="round" stroke-linejoin="round"/>
</svg>
