<svg width="60" height="60" viewBox="0 0 60 60" fill="none" xmlns="http://www.w3.org/2000/svg">
<path d="M30 30L52.5 7.5" stroke="white" stroke-width="2" stroke-linecap="round" stroke-linejoin="round"/>
<path d="M45.9143 14.0887C41.9254 10.0878 36.5798 7.73026 30.9356 7.48262C25.2914 7.23499 19.7599 9.11534 15.4359 12.7515C11.112 16.3877 8.31065 21.5146 7.58646 27.1177C6.86226 32.7207 8.26796 38.3914 11.5253 43.0075C14.7827 47.6236 19.6543 50.8485 25.176 52.0441C30.6977 53.2396 36.467 52.3187 41.3421 49.4634C46.2171 46.6082 49.8426 42.0268 51.501 36.6261C53.1593 31.2253 52.7297 25.3988 50.2971 20.2997" stroke="white" stroke-width="2" stroke-linecap="round" stroke-linejoin="round"/>
<path d="M37.9458 22.0583C36.0877 20.2055 33.6393 19.062 31.0259 18.8266C28.4125 18.5911 25.7991 19.2785 23.6398 20.7695C21.4805 22.2604 19.9117 24.4606 19.2058 26.9879C18.5 29.5151 18.7017 32.2098 19.7759 34.6039C20.8502 36.9979 22.7291 38.94 25.0863 40.0929C27.4435 41.2457 30.13 41.5364 32.6793 40.9145C35.2285 40.2926 37.4794 38.7974 39.0409 36.6886C40.6024 34.5798 41.3759 31.9906 41.227 29.3708" stroke="white" stroke-width="2" stroke-linecap="round" stroke-linejoin="round"/>
</svg>
