<svg width="22" height="22" viewBox="0 0 22 22" fill="none" xmlns="http://www.w3.org/2000/svg">
<g clip-path="url(#clip0_666_1053)">
<path d="M21.8834 16.0624C21.8567 16.005 21.8319 15.9574 21.8088 15.9192C21.4271 15.2318 20.6977 14.388 19.621 13.3876L19.5983 13.3647L19.5869 13.3534L19.5754 13.3419H19.5638C19.0751 12.8761 18.7657 12.5629 18.6361 12.4025C18.399 12.097 18.3459 11.7878 18.4755 11.4745C18.567 11.2378 18.9109 10.7379 19.5064 9.97417C19.8196 9.56941 20.0677 9.245 20.2509 9.00059C21.572 7.24414 22.1448 6.12175 21.9691 5.63297L21.9009 5.51875C21.855 5.44999 21.7367 5.38708 21.546 5.32971C21.3548 5.27246 21.1105 5.26299 20.8127 5.30114L17.5138 5.32393C17.4604 5.30499 17.3841 5.30676 17.2847 5.32971L17.1357 5.36417L17.0783 5.39286L17.0327 5.42732C16.9945 5.45011 16.9525 5.49019 16.9067 5.54748C16.8611 5.60457 16.8229 5.67157 16.7924 5.74792C16.4333 6.67192 16.0249 7.531 15.5666 8.32513C15.2841 8.79867 15.0246 9.20905 14.7876 9.55653C14.5509 9.90388 14.3524 10.1598 14.1921 10.3239C14.0316 10.4881 13.8868 10.6196 13.7567 10.719C13.6269 10.8184 13.5277 10.8604 13.4591 10.8451C13.3903 10.8297 13.3255 10.8144 13.2642 10.7992C13.1573 10.7304 13.0714 10.6369 13.0066 10.5186C12.9415 10.4002 12.8977 10.2512 12.8748 10.0718C12.852 9.89221 12.8385 9.73775 12.8347 9.60788C12.8311 9.47817 12.8327 9.29471 12.8405 9.058C12.8484 8.82117 12.852 8.66093 12.852 8.57692C12.852 8.2867 12.8577 7.97172 12.869 7.6319C12.8806 7.29209 12.8899 7.02284 12.8977 6.82449C12.9055 6.62594 12.9091 6.41587 12.9091 6.19441C12.9091 5.97295 12.8957 5.79927 12.869 5.67321C12.8424 5.54704 12.8022 5.42413 12.7491 5.30664C12.6955 5.18829 12.6171 5.09673 12.5142 5.03174C12.4112 4.96682 12.283 4.91531 12.1305 4.87704C11.7258 4.78544 11.2103 4.7359 10.584 4.72819C9.16376 4.71295 8.25115 4.80466 7.84642 5.00321C7.68607 5.0871 7.54095 5.20173 7.41121 5.34672C7.27371 5.51478 7.25454 5.60649 7.35379 5.62158C7.81204 5.69022 8.13645 5.85443 8.32738 6.11405L8.39619 6.25162C8.44971 6.35088 8.50314 6.5266 8.55662 6.77855C8.61002 7.03051 8.64449 7.30922 8.65965 7.61453C8.69777 8.17207 8.69777 8.64934 8.65965 9.04636C8.62142 9.44355 8.58531 9.75275 8.55085 9.97421C8.51638 10.1957 8.46487 10.3751 8.39619 10.5125C8.32738 10.65 8.2816 10.734 8.25866 10.7645C8.23575 10.795 8.21665 10.8142 8.20148 10.8217C8.1028 10.8598 7.99793 10.8792 7.89216 10.8792C7.78516 10.8792 7.65541 10.8256 7.50272 10.7187C7.35006 10.6117 7.19163 10.4648 7.02742 10.2777C6.86321 10.0905 6.67802 9.82898 6.47176 9.49302C6.26567 9.15705 6.05183 8.75999 5.83037 8.30182L5.64714 7.96955C5.5326 7.75579 5.37613 7.44454 5.17758 7.03608C4.9789 6.62746 4.8033 6.2322 4.65064 5.85038C4.58962 5.69002 4.49795 5.56794 4.37578 5.48393L4.31845 5.44947C4.28034 5.41897 4.21916 5.3866 4.13522 5.35209C4.05048 5.31746 3.9621 5.29251 3.87176 5.27771L0.733229 5.3005C0.412511 5.3005 0.194902 5.37316 0.0803198 5.51827L0.0344629 5.58692C0.0115545 5.62515 0 5.68621 0 5.77026C0 5.85427 0.0229084 5.95738 0.0687653 6.07947C0.526933 7.15628 1.02518 8.19478 1.56351 9.19513C2.10183 10.1955 2.56963 11.0013 2.96662 11.6118C3.36368 12.2228 3.76841 12.7994 4.1808 13.3415C4.59319 13.8837 4.86617 14.2312 4.99973 14.3838C5.13345 14.5368 5.23848 14.6511 5.31483 14.7274L5.60124 15.0023C5.78451 15.1856 6.05363 15.4051 6.40873 15.6609C6.76391 15.9168 7.15713 16.1688 7.58857 16.4172C8.0201 16.6651 8.52212 16.8675 9.09491 17.024C9.66762 17.1807 10.225 17.2436 10.7673 17.2132H12.0846C12.3517 17.1902 12.5541 17.1061 12.6917 16.9612L12.7373 16.9037C12.7679 16.8582 12.7966 16.7874 12.8231 16.6921C12.8499 16.5966 12.8632 16.4915 12.8632 16.3771C12.8554 16.0488 12.8804 15.7529 12.9375 15.4895C12.9946 15.2261 13.0597 15.0276 13.1324 14.8939C13.2052 14.7603 13.2873 14.6475 13.3786 14.5561C13.4702 14.4645 13.5354 14.4091 13.5737 14.39C13.6117 14.3707 13.6421 14.3577 13.665 14.3499C13.8483 14.2888 14.0639 14.348 14.3124 14.5276C14.5606 14.707 14.7934 14.9286 15.0112 15.192C15.2288 15.4555 15.4903 15.7513 15.7957 16.0796C16.1013 16.408 16.3685 16.6521 16.5975 16.8127L16.8265 16.9502C16.9795 17.0419 17.178 17.1259 17.4224 17.2022C17.6664 17.2785 17.8801 17.2976 18.0637 17.2595L20.9959 17.2137C21.2859 17.2137 21.5116 17.1657 21.6717 17.0704C21.8321 16.975 21.9274 16.8698 21.9581 16.7555C21.9888 16.641 21.9904 16.511 21.9639 16.3658C21.9368 16.2209 21.91 16.1196 21.8834 16.0624Z" fill="white"/>
</g>
<defs>
<clipPath id="clip0_666_1053">
<rect width="22" height="22" fill="white"/>
</clipPath>
</defs>
</svg>
