<svg width="414" height="500" viewBox="0 0 414 500" fill="none" xmlns="http://www.w3.org/2000/svg">
<path d="M0 0H414V500H0V0Z" fill="#405FCE"/>
<g opacity="0.2">
<path d="M223.406 395.128H190.594L196.062 340.441H217.938L223.406 395.128ZM338.25 395.128H294.5V370.519C294.5 368.343 293.636 366.257 292.097 364.718C290.559 363.18 288.472 362.316 286.297 362.316C284.121 362.316 282.035 363.18 280.496 364.718C278.958 366.257 278.094 368.343 278.094 370.519V395.128H240.064L264.662 296.745L297.234 305.156C313.323 309.313 324.862 322.678 327.586 339.073C329.937 353.139 338.25 395.128 338.25 395.128ZM116.766 305.145L149.337 296.734L173.936 395.128H135.906V370.519C135.906 368.343 135.042 366.257 133.504 364.718C131.965 363.18 129.879 362.316 127.703 362.316C125.528 362.316 123.441 363.18 121.903 364.718C120.364 366.257 119.5 368.343 119.5 370.519V395.128H75.75C75.75 395.128 84.0625 353.139 86.4141 339.063C89.1375 322.667 100.677 309.302 116.766 305.145Z" fill="black"/>
<path d="M207 99.8125C189.595 99.8125 172.903 106.727 160.596 119.034C148.289 131.341 141.375 148.033 141.375 165.438L131.466 284.295L174.188 272.997V279.745C174.188 285.52 170.491 290.475 165.164 292.433L177.272 340.864L207 318.562L236.728 340.853L248.836 292.422C246.211 291.49 243.937 289.772 242.323 287.502C240.708 285.232 239.832 282.52 239.813 279.734V272.986L282.535 284.284L272.625 165.438C272.625 148.033 265.711 131.341 253.404 119.034C241.097 106.727 224.405 99.8125 207 99.8125ZM207 307.625L188.942 289.567C190.014 286.472 190.594 283.158 190.594 279.734V265.373C196.128 267.9 201.706 269.344 207 269.344C212.294 269.344 217.872 267.911 223.406 265.373V279.734C223.406 283.158 223.986 286.472 225.058 289.567L207 307.625ZM250.75 195.516C250.75 228.689 221.974 252.938 207 252.938C192.027 252.938 163.25 228.689 163.25 195.516V178.628C182.161 176.506 206.322 170.119 225.135 154.5C230.242 163.961 238.905 174.68 250.75 178.803V195.516Z" fill="black"/>
</g>
</svg>
