<svg width="414" height="500" viewBox="0 0 414 500" fill="none" xmlns="http://www.w3.org/2000/svg">
<path d="M0 0H414V500H0V0Z" fill="#405FCE"/>
<g opacity="0.2">
<path d="M148.867 217.266H150.781C153.133 230.829 160.297 242.805 170.469 251.282V262.438C169.264 261.693 167.817 261.442 166.431 261.737C165.046 262.033 163.827 262.852 163.031 264.024L158.273 271.134L172.219 311.384C181.833 303.334 196.642 290.958 206.125 283.055L181.406 268.782V258.446C189.117 262.329 197.758 264.516 206.945 264.516C216.133 264.516 224.883 262.329 232.594 258.391V268.782L207.875 283.055C207.875 283.055 235.897 306.396 242.055 311.602C243.176 308.715 256.093 271.352 256.055 271.298C252.97 267.612 249.76 258.714 243.531 262.438V251.227C253.648 242.751 260.758 230.829 263.109 217.266H265.078C283.765 217.977 295.282 193.931 283.18 179.751V155.524C279.078 65.8203 134.878 65.8094 130.766 155.524V179.751C118.844 194.243 129.803 217.666 148.867 217.266ZM136.727 193.97C136.694 186.751 142.879 181.359 149.961 181.829V206.329C148.262 206.465 146.554 206.246 144.945 205.684C143.336 205.123 141.862 204.233 140.616 203.07C139.371 201.907 138.382 200.497 137.712 198.93C137.042 197.363 136.707 195.673 136.727 193.97ZM235 244.063C205.917 267.284 160.39 245.387 160.898 207.532V156.016C187.148 162.743 209.078 160.009 226.25 147.977C232.922 151.04 241.617 152.954 252.992 153.884V207.532C252.992 222.352 245.937 235.587 235 244.063ZM265.078 206.329H263.93V181.829C280.691 180.97 281.862 205.749 265.078 206.329ZM149.688 279.72L119.281 288.798C105.062 293.009 95.1641 306.298 95.1641 321.118V388.657C95.1641 391.665 97.625 394.126 100.633 394.126H189.227C189.227 394.126 151.055 283.012 149.688 279.72ZM294.719 288.798L264.641 279.829C264.296 280.934 227.978 385.748 225.047 394.126H313.367C316.375 394.126 318.836 391.665 318.836 388.657V321.118C318.836 306.298 308.938 293.009 294.719 288.798Z" fill="#030E17"/>
<path d="M199.453 302.852L201.258 311.656H213.453L215.148 303.344L207 296.562L199.453 302.852ZM217.664 382.094L212.906 322.594H201.805L196.555 383.188L200.766 394.125H213.453C213.453 394.125 217.648 383.16 217.664 382.094ZM175.938 322.156L187.914 356.664L191.305 317.398L189.937 310.836C189.937 310.836 176.484 321.938 175.938 322.156ZM238.391 322.266C237.33 322.43 225.774 312.006 224.719 311.328L223.461 317.398L226.578 356.391L238.391 322.266Z" fill="#030E17"/>
</g>
</svg>
