<svg width="60" height="60" viewBox="0 0 60 60" fill="none" xmlns="http://www.w3.org/2000/svg">
<path d="M52.0383 21.115L56.9999 39.2304L54.2306 40.8457L44.7691 6.11497C44.5383 5.19189 43.9614 4.3842 43.2691 4.03805C42.8075 3.80728 42.4614 3.69189 42.1152 3.92266L44.7691 2.42266C45.1152 2.19189 45.4614 2.30728 45.9229 2.53805C46.4998 2.8842 47.1922 3.69189 47.4229 4.61497L49.9614 13.9611" fill="white"/>
<path d="M43.3845 4.03846C43.9615 4.38462 44.6538 5.19231 44.8845 6.11538L54.2307 40.8462L32.3076 28.1538L41.8845 4.38462C42.1153 3.80769 42.6922 3.69231 43.3845 4.03846Z" fill="white"/>
<path d="M35.7697 18.9229C36.0005 19.0382 36.1158 19.0382 36.3466 19.1536L35.1928 22.0382C34.962 22.0382 34.7312 22.1536 34.5005 22.269L35.7697 18.9229ZM57.1158 39.2305C57.1158 39.3459 57.1158 39.4613 57.0005 39.5767L54.3466 41.0767H54.1158L40.6158 33.2305C40.7312 33.1152 40.8466 32.8844 40.962 32.769L53.8851 40.269L44.6543 6.23054C44.3081 4.73054 42.6928 3.5767 42.2312 4.49977L38.8851 12.6921C38.7697 12.5767 38.5389 12.4613 38.3081 12.4613L41.6543 4.26901C41.7697 4.03824 42.0005 3.80747 42.1158 3.69208L44.7697 2.19208C45.1158 1.96131 45.5774 1.96131 46.1543 2.30747C46.8466 2.76901 47.5389 3.5767 47.7697 4.49977L50.3081 13.8459C50.3081 13.9613 50.3081 14.1921 50.0774 14.1921C49.962 14.1921 49.7312 14.1921 49.7312 13.9613L47.1928 4.61516C46.8466 3.34593 45.6928 2.30747 45.0005 2.65362L43.2697 3.69208C44.0774 4.03824 44.8851 5.0767 45.1158 5.99977L54.462 40.3844L56.5389 39.1152L51.6928 21.2305C51.6928 21.1152 51.6928 20.8844 51.9235 20.8844C52.0389 20.8844 52.2697 20.8844 52.2697 21.1152L57.1158 39.2305ZM33.2312 28.3844C33.1158 28.4998 32.8851 28.6152 32.6543 28.7305L35.5389 30.3459C35.7697 30.2305 36.0005 30.1152 36.2312 30.1152L33.2312 28.3844Z" fill="#405FCE"/>
<path d="M43.9611 12.9237C43.9611 13.2699 43.8457 13.3853 43.7303 13.5007L15.2303 30.1161C15.3457 30.0007 15.4611 29.7699 15.4611 29.5391C15.4611 28.9622 14.9995 28.1545 14.538 27.9237C14.1919 27.693 13.9611 27.693 13.8457 27.8084L42.3457 11.193C42.5765 11.0776 42.8072 11.0776 43.038 11.3084C43.4995 11.5391 43.9611 12.3468 43.9611 12.9237Z" fill="white"/>
<path d="M14.5385 27.8072C15.1155 28.1533 15.4616 28.8456 15.4616 29.4226C15.4616 29.9995 15.0001 30.2303 14.5385 29.9995C13.9616 29.6533 13.6155 28.961 13.6155 28.3841C13.5001 27.8072 13.9616 27.5764 14.5385 27.8072Z" fill="white"/>
<path d="M40.5002 15.6939C40.5002 17.6555 38.8848 19.1555 37.0387 19.1555C35.0771 19.1555 33.5771 17.5401 33.5771 15.6939C33.5771 13.7324 35.1925 12.2324 37.0387 12.2324C39.0002 12.117 40.5002 13.7324 40.5002 15.6939Z" fill="#F0F2F5"/>
<path d="M36.6919 17.1894C36.6919 17.5355 36.5765 17.6509 36.4611 17.7663L15.2303 30.1125C15.3457 29.9971 15.4611 29.7663 15.4611 29.5355C15.4611 28.9586 14.9995 28.1509 14.538 27.9201C14.1919 27.6894 13.9611 27.6894 13.8457 27.8048L35.0765 15.4586C35.3072 15.3432 35.538 15.3432 35.7688 15.574C36.2303 15.8048 36.6919 16.6124 36.6919 17.1894Z" fill="white"/>
<path d="M30.8078 21.0006C30.8078 22.9621 29.1925 24.4621 27.3463 24.4621C25.3848 24.4621 23.8848 22.8468 23.8848 21.0006C23.8848 19.0391 25.5002 17.5391 27.3463 17.5391C29.3078 17.5391 30.8078 19.0391 30.8078 21.0006Z" fill="#F0F2F5"/>
<path d="M26.8842 22.8468C26.8842 23.193 26.7688 23.3084 26.6534 23.4237L15.2303 30.1161C15.3457 30.0007 15.4611 29.7699 15.4611 29.5391C15.4611 28.9622 14.9995 28.1545 14.538 27.9237C14.1919 27.693 13.9611 27.693 13.8457 27.8084L25.2688 21.1161C25.4995 21.0007 25.7303 21.0007 25.9611 21.2314C26.4226 21.4622 26.8842 22.2699 26.8842 22.8468ZM43.9611 21.9237C43.9611 22.2699 43.8457 22.3853 43.7303 22.5007L15.2303 39.1161C15.3457 39.0007 15.4611 38.7699 15.4611 38.5391C15.4611 37.9622 14.9995 37.1545 14.538 36.9237C14.3072 36.8084 14.0765 36.8084 13.8457 36.8084L42.3457 20.193C42.5765 20.0776 42.8072 20.0776 43.038 20.3084C43.4995 20.5391 43.9611 21.3468 43.9611 21.9237Z" fill="white"/>
<path d="M14.5385 36.8072C15.1155 37.1533 15.4616 37.8456 15.4616 38.4226C15.4616 38.9995 15.0001 39.2303 14.5385 38.9995C13.9616 38.6533 13.6155 37.961 13.6155 37.3841C13.5001 36.8072 13.9616 36.5764 14.5385 36.8072Z" fill="white"/>
<path d="M40.5002 24.6939C40.5002 26.6555 38.8848 28.1555 37.0387 28.1555C35.0771 28.1555 33.5771 26.5401 33.5771 24.6939C33.5771 22.7324 35.1925 21.2324 37.0387 21.2324C39.0002 21.117 40.5002 22.7324 40.5002 24.6939Z" fill="#F0F2F5"/>
<path d="M36.6919 26.1894C36.6919 26.5355 36.5765 26.6509 36.4611 26.7663L15.2303 39.1125C15.3457 38.9971 15.4611 38.7663 15.4611 38.5355C15.4611 37.9586 14.9995 37.1509 14.538 36.9201C14.3072 36.8048 14.0765 36.8048 13.8457 36.8048L35.0765 24.4586C35.3072 24.3432 35.538 24.3432 35.7688 24.574C36.2303 24.8048 36.6919 25.6125 36.6919 26.1894Z" fill="white"/>
<path d="M30.8078 30.0006C30.8078 31.9621 29.1925 33.4621 27.3463 33.4621C25.3848 33.4621 23.8848 31.8468 23.8848 30.0006C23.8848 28.0391 25.5002 26.5391 27.3463 26.5391C29.3078 26.5391 30.8078 28.0391 30.8078 30.0006Z" fill="#F0F2F5"/>
<path d="M26.8842 31.845C26.8842 32.1912 26.7688 32.3066 26.6534 32.4219L15.2303 39.1143C15.3457 38.9989 15.4611 38.7681 15.4611 38.5373C15.4611 37.9604 14.9995 37.1527 14.538 36.9219C14.3072 36.8066 14.0765 36.8066 13.8457 36.8066L25.2688 30.1143C25.4995 29.9989 25.7303 29.9989 25.9611 30.2296C26.4226 30.4604 26.8842 31.2681 26.8842 31.845ZM43.9611 30.8066C43.9611 31.1527 43.8457 31.2681 43.7303 31.3835L15.2303 47.9989C15.3457 47.8835 15.4611 47.6527 15.4611 47.4219C15.4611 46.845 14.9995 46.0373 14.538 45.8066C14.3072 45.6912 14.0765 45.6912 13.8457 45.6912L42.3457 29.0758C42.5765 28.9604 42.8072 28.9604 43.038 29.1912C43.4995 29.4219 43.9611 30.1143 43.9611 30.8066Z" fill="white"/>
<path d="M14.5385 45.6903C15.1155 46.0364 15.4616 46.7287 15.4616 47.3057C15.4616 47.8826 15.0001 48.1134 14.5385 47.8826C13.9616 47.5364 13.6155 46.8441 13.6155 46.2672C13.5001 45.5749 13.9616 45.3441 14.5385 45.6903Z" fill="white"/>
<path d="M40.5002 33.4615C40.5002 35.4231 38.8848 36.9231 37.0387 36.9231C35.0771 36.9231 33.5771 35.3077 33.5771 33.4615C33.5771 31.5 35.1925 30 37.0387 30C39.0002 30 40.5002 31.5 40.5002 33.4615Z" fill="#F0F2F5"/>
<path d="M36.6919 34.9568C36.6919 35.303 36.5765 35.4183 36.4611 35.5337L15.2303 47.9953C15.3457 47.8799 15.4611 47.6491 15.4611 47.4183C15.4611 46.8414 14.9995 46.0337 14.538 45.803C14.3072 45.6876 14.0765 45.6876 13.8457 45.6876L35.0765 33.3414C35.3072 33.226 35.538 33.226 35.7688 33.4568C36.2303 33.6876 36.6919 34.3799 36.6919 34.9568Z" fill="white"/>
<path d="M30.8078 38.7662C30.8078 40.7278 29.1925 42.2278 27.3463 42.2278C25.3848 42.2278 23.8848 40.6124 23.8848 38.7662C23.8848 36.8047 25.5002 35.3047 27.3463 35.3047C29.3078 35.3047 30.8078 36.9201 30.8078 38.7662Z" fill="#F0F2F5"/>
<path d="M26.8851 40.7284C26.8851 41.0746 26.7698 41.19 26.6544 41.3054L15.2313 47.9977C15.3467 47.8823 15.4621 47.6515 15.4621 47.4207C15.4621 46.8438 15.0005 46.0361 14.539 45.8054C14.3082 45.69 14.0774 45.69 13.8467 45.69L25.2698 38.9977C25.5005 38.8823 25.7313 38.8823 25.9621 39.1131C26.4236 39.3438 26.8851 40.0361 26.8851 40.7284Z" fill="white"/>
<path d="M27.3466 24.803C29.3081 24.803 30.9235 23.1876 31.1543 21.226L35.1928 18.9183C35.7697 19.2645 36.462 19.4953 37.1543 19.4953C39.2312 19.4953 40.962 17.7645 40.962 15.6876V15.5722L43.8466 13.8414C44.0774 13.726 44.3081 13.3799 44.3081 12.9183C44.3081 12.226 43.8466 11.303 43.1543 10.9568C42.8081 10.726 42.462 10.726 42.1158 10.8414L39.2312 12.6876C38.6543 12.226 37.8466 11.8799 37.0389 11.8799C34.962 11.8799 33.2312 13.6106 33.2312 15.6876V16.1491L29.7697 18.226C29.0774 17.6491 28.2697 17.303 27.3466 17.303C25.2697 17.303 23.5389 19.0337 23.5389 21.1106C23.5389 21.3414 23.5389 21.5722 23.6543 21.803L19.1543 24.4568L19.2697 25.0337L25.3851 21.4568C25.5005 21.4568 25.6158 21.4568 25.7312 21.5722C26.1928 21.803 26.5389 22.4953 26.5389 22.9568C26.5389 23.1876 26.5389 23.303 26.4235 23.303L19.8466 27.1106L19.962 27.6876L25.6158 24.3414C26.1928 24.6876 26.7697 24.803 27.3466 24.803ZM30.2312 18.5722L35.1928 15.6876C35.3081 15.6876 35.4235 15.6876 35.6543 15.803C36.1158 16.0337 36.462 16.726 36.462 17.1876C36.462 17.4183 36.462 17.5337 36.3466 17.5337L31.1543 20.5337C30.9235 19.8414 30.6928 19.1491 30.2312 18.5722ZM42.462 11.4183C42.5774 11.4183 42.6928 11.4183 42.9235 11.5337C43.3851 11.7645 43.7312 12.4568 43.7312 12.9183C43.7312 13.1491 43.7312 13.2645 43.6158 13.2645L40.7312 14.9953C40.6158 14.303 40.2697 13.6106 39.6928 13.0337L42.462 11.4183ZM33.8081 15.6876C33.8081 13.9568 35.3081 12.4568 37.0389 12.4568C38.7697 12.4568 40.2697 13.8414 40.2697 15.6876C40.2697 17.4183 38.7697 18.9183 37.0389 18.9183C36.5774 18.9183 36.1158 18.803 35.7697 18.5722L36.5774 18.1106C36.8081 17.9953 37.0389 17.6491 37.0389 17.1876C37.0389 16.4953 36.5774 15.5722 35.8851 15.226C35.5389 14.9953 35.1928 14.9953 34.8466 15.1106L33.8081 15.6876ZM26.7697 23.7645C27.0005 23.6491 27.2312 23.303 27.2312 22.8414C27.2312 22.1491 26.7697 21.226 26.0774 20.8799C25.7312 20.7645 25.3851 20.7645 25.0389 20.8799L24.1158 21.4568V20.9953C24.1158 19.2645 25.6158 17.7645 27.3466 17.7645C29.0774 17.7645 30.5774 19.1491 30.5774 20.9953C30.5774 22.726 29.1928 24.226 27.3466 24.226C27.0005 24.226 26.6543 24.1106 26.3081 23.9953L26.7697 23.7645Z" fill="#030E17"/>
<path d="M43.1537 19.9568C42.8075 19.726 42.4614 19.726 42.2306 19.8414L39.2306 21.5722C38.6537 21.1106 37.846 20.7645 36.9229 20.7645C34.846 20.7645 33.1152 22.4953 33.1152 24.5722V25.0337L29.6537 27.1106C28.9614 26.5337 28.1537 26.1876 27.2306 26.1876C25.1537 26.1876 23.4229 27.9183 23.4229 29.9953C23.4229 30.226 23.4229 30.4568 23.5383 30.6876L21.1152 32.0722L21.2306 32.6491L25.2691 30.3414C25.3845 30.226 25.4999 30.3414 25.6152 30.4568C26.0768 30.6876 26.4229 31.3799 26.4229 31.8414C26.4229 32.0722 26.4229 32.1876 26.3075 32.1876L21.9229 34.8414L22.0383 35.4183L25.6152 33.3414C26.0768 33.5722 26.6537 33.6876 27.346 33.6876C29.3075 33.6876 30.9229 32.0722 31.1537 30.1106L35.1922 27.803C35.7691 28.1491 36.4614 28.3799 37.1537 28.3799C39.2306 28.3799 40.9614 26.6491 40.9614 24.5722V24.4568L43.9614 22.726C44.1922 22.6106 44.4229 22.2645 44.4229 21.803C44.3075 21.226 43.846 20.4183 43.1537 19.9568ZM35.1922 24.6876C35.3075 24.6876 35.4229 24.6876 35.6537 24.803C36.1152 25.0337 36.4614 25.726 36.4614 26.1876C36.4614 26.4183 36.4614 26.5337 36.346 26.5337L31.1537 29.5337C31.0383 28.726 30.8075 28.1491 30.346 27.5722L35.1922 24.6876ZM27.346 33.226C26.9999 33.226 26.6537 33.1106 26.3075 32.9953L26.7691 32.7645C26.9999 32.6491 27.2306 32.303 27.2306 31.8414C27.2306 31.1491 26.7691 30.3414 26.0768 29.8799C25.7306 29.6491 25.3845 29.6491 25.1537 29.7645L24.2306 30.3414V29.8799C24.2306 28.1491 25.7306 26.6491 27.4614 26.6491C29.1922 26.6491 30.6922 28.1491 30.6922 29.8799C30.5768 31.726 29.0768 33.226 27.346 33.226ZM37.0383 27.9183C36.5768 27.9183 36.1152 27.803 35.6537 27.5722L36.4614 27.1106C36.6922 26.9953 36.9229 26.6491 36.9229 26.1876C36.9229 25.4953 36.4614 24.5722 35.7691 24.226C35.4229 23.9953 35.0768 23.9953 34.7306 24.1106L33.6922 24.6876V24.5722C33.6922 22.8414 35.1922 21.3414 36.9229 21.3414C38.6537 21.3414 40.1537 22.8414 40.1537 24.5722C40.2691 26.4183 38.7691 27.9183 37.0383 27.9183ZM43.7306 21.9183C43.7306 22.1491 43.7306 22.2645 43.6152 22.2645L40.846 23.8799C40.7306 23.1876 40.3845 22.4953 39.8075 21.9183L42.5768 20.303C42.6922 20.303 42.8075 20.303 42.9229 20.4183C43.2691 20.7645 43.7306 21.4568 43.7306 21.9183Z" fill="#030E17"/>
<path d="M43.1538 28.8474C42.8076 28.6167 42.4615 28.6167 42.2307 28.732L39.2307 30.4628C38.6538 30.0013 37.8461 29.6551 37.0384 29.6551C34.9615 29.6551 33.2307 31.3859 33.2307 33.4628V33.9243L29.7692 36.0013C29.0768 35.4244 28.2692 35.0782 27.3461 35.0782C25.2692 35.0782 23.5384 36.809 23.5384 38.8859C23.5384 39.1167 23.5384 39.3474 23.6538 39.5782L23.3076 39.809L23.423 40.3859L25.3845 39.232C25.4999 39.232 25.6153 39.232 25.7307 39.3474C26.1922 39.5782 26.5384 40.2705 26.5384 40.732C26.5384 40.9628 26.5384 41.0782 26.423 41.0782L23.9999 42.4628L24.1153 43.0397L25.6153 42.232C26.0768 42.4628 26.6538 42.5782 27.3461 42.5782C29.3076 42.5782 31.0384 40.9628 31.1538 39.0013L35.1922 36.6936C35.7692 37.0397 36.4615 37.2705 37.1538 37.2705C39.2307 37.2705 40.9615 35.5397 40.9615 33.4628V33.3474L43.9615 31.6167C44.1922 31.5013 44.423 31.1551 44.423 30.6936C44.3076 30.0013 43.8461 29.1936 43.1538 28.8474ZM35.1922 33.5782C35.3076 33.5782 35.423 33.5782 35.6538 33.6936C36.1153 33.9244 36.4615 34.6167 36.4615 35.0782C36.4615 35.309 36.4615 35.4244 36.3461 35.4244L31.1538 38.4243C31.0384 37.6167 30.8076 37.0397 30.3461 36.4628L35.1922 33.5782ZM27.3461 42.0013C26.9999 42.0013 26.6538 41.8859 26.3076 41.7705L26.7692 41.5397C26.9999 41.4243 27.2307 41.0782 27.2307 40.6167C27.2307 39.9244 26.7692 39.0013 26.0768 38.6551C25.7307 38.4243 25.3845 38.4244 25.1538 38.5397L24.1153 39.232V38.7705C24.1153 37.0397 25.6153 35.5397 27.3461 35.5397C29.0768 35.5397 30.5768 36.9243 30.5768 38.7705C30.5768 40.6167 29.0768 42.0013 27.3461 42.0013ZM37.0384 36.6936C36.5768 36.6936 36.1153 36.5782 35.6538 36.3474L36.4615 35.8859C36.6922 35.7705 36.923 35.4243 36.923 34.9628C36.923 34.2705 36.4615 33.3474 35.7692 33.0013C35.423 32.7705 35.0768 32.7705 34.7307 32.8859L33.6922 33.4628V33.3474C33.6922 31.6167 35.1922 30.1167 36.923 30.1167C38.6538 30.1167 40.1538 31.6167 40.1538 33.3474C40.2692 35.309 38.7692 36.6936 37.0384 36.6936ZM43.7307 30.809C43.7307 31.0397 43.7307 31.1551 43.6153 31.1551L40.8461 32.7705C40.7307 32.0782 40.3845 31.3859 39.8076 30.809L42.5768 29.1936C42.6922 29.1936 42.8076 29.1936 43.0384 29.309C43.2692 29.5397 43.7307 30.232 43.7307 30.809Z" fill="#030E17"/>
<path d="M26.6546 52.3896L27.6931 56.1973L25.0392 57.6973L15.5777 22.9665C15.3469 22.0435 14.77 21.2358 14.0777 20.8896C13.6161 20.6588 13.27 20.5435 12.9238 20.7742L15.5777 19.2742C15.9238 19.0435 16.27 19.1588 16.7315 19.3896C17.3084 19.7358 18.0008 20.5435 18.2315 21.4665L25.0392 46.3896" fill="white"/>
<path d="M14.1922 20.8822C14.7691 21.2284 15.4614 22.0361 15.6922 22.9591L25.0383 57.6899L3.11523 44.9976L12.6922 21.2284C12.9229 20.6514 13.4999 20.5361 14.1922 20.8822Z" fill="#F0F2F5"/>
<path d="M27.0002 52.2666C27.0002 52.1512 26.7694 52.0358 26.654 52.0358C26.5386 52.0358 26.4232 52.2666 26.4232 52.382L27.3463 55.9589L25.2694 57.2281L15.9232 22.8435C15.6925 21.9204 15.0002 20.882 14.0771 20.5358L15.8078 19.4974C16.3848 19.1512 17.654 20.1897 18.0002 21.4589L24.8078 46.382C24.8078 46.4974 25.0386 46.6128 25.154 46.6128C25.2694 46.6128 25.3848 46.382 25.3848 46.2666L18.5771 21.3435C18.3463 20.4204 17.654 19.6128 16.9617 19.1512C16.3848 18.8051 15.9232 18.8051 15.5771 19.0358L12.9232 20.5358C12.8078 20.6512 12.5771 20.882 12.4617 21.1128L2.88477 44.882C2.88477 44.9974 2.88477 45.1128 3.00015 45.2281C3.11553 45.3435 25.154 58.0358 25.0386 57.9204H25.2694L27.9232 56.4205C28.0386 56.3051 28.0386 56.1897 28.0386 56.0743L27.0002 52.2666ZM12.9232 21.3435C13.2694 20.5358 14.8848 21.3435 15.3463 23.0743L24.5771 57.1128L3.46169 44.882L12.9232 21.3435Z" fill="#405FCE"/>
<path d="M13.9619 26.1957C14.7696 26.6573 15.4619 27.8111 15.4619 28.7342C15.4619 29.6573 14.7696 30.0034 13.9619 29.5419C13.1542 29.0803 12.4619 27.9265 12.4619 27.0034C12.4619 26.0803 13.1542 25.7342 13.9619 26.1957Z" fill="white"/>
<path d="M13.7306 29.767C12.8075 29.1901 12.1152 28.0362 12.1152 26.9978C12.1152 25.8439 13.0383 25.3824 14.0768 25.9593C14.9998 26.5362 15.6922 27.6901 15.6922 28.7285C15.6922 29.8824 14.7691 30.3439 13.7306 29.767ZM12.6922 26.9978C12.6922 27.8055 13.2691 28.8439 13.9614 29.3055C14.5383 29.6516 14.9999 29.4208 14.9999 28.7285C14.9999 27.9208 14.4229 26.8824 13.7306 26.4208C13.1537 26.0747 12.6922 26.3055 12.6922 26.9978Z" fill="#030E17"/>
</svg>
