<svg width="60" height="60" viewBox="0 0 60 60" fill="none" xmlns="http://www.w3.org/2000/svg">
<path d="M32.1923 35.1953C32.5385 34.7338 32.6538 34.1569 32.6538 33.6953L37.6154 36.5799C37.6154 37.0415 37.3846 37.6184 37.1538 38.0799C35.7692 37.2722 33.8077 36.003 32.1923 35.1953ZM22.5 40.7338L27.5769 43.7338H27.4615C25.9615 42.6953 24 41.5415 22.5 40.7338Z" fill="white"/>
<path d="M27.462 43.616L22.5004 40.7314C22.2697 40.616 22.1543 40.2698 22.1543 39.8083L27.1158 42.6929C27.1158 43.1544 27.2312 43.5006 27.462 43.616ZM37.7312 36.5775L32.7697 33.6929L32.6543 17.5391L37.7312 20.4237V36.5775Z" fill="white"/>
<path d="M32.6546 17.5421C32.6546 17.1959 32.5392 16.8498 32.4238 16.7344L37.3854 19.619C37.6161 19.7344 37.6161 20.0805 37.6161 20.4267C36.2315 19.5036 34.1546 18.3498 32.6546 17.5421Z" fill="white"/>
<path d="M50.8851 5.65747C51.9235 5.08055 52.8466 5.08055 53.1928 5.88824C56.4235 11.6575 56.1928 22.3882 53.0774 33.119C52.7312 34.2729 52.0389 35.3113 51.1158 35.8882C50.6543 36.2344 49.962 36.6959 49.2697 37.1575C46.3851 38.8882 41.8851 40.3882 37.1543 38.1959C37.5005 37.7344 37.6158 37.1575 37.6158 36.6959V20.5421C37.6158 20.1959 37.5005 19.8498 37.3851 19.7344C39.5774 16.3882 44.8851 9.23439 50.8851 5.65747Z" fill="white"/>
<path d="M41.1932 6.34782C42.6932 4.96321 44.3086 3.69398 45.924 2.65552C46.6163 2.30936 47.3086 2.19398 47.7701 2.42475L52.7317 5.30936C52.2701 4.96321 51.5778 5.07859 50.8855 5.54013C44.8855 9.23244 39.5778 16.3863 37.3855 19.6171C35.8855 18.694 33.924 17.5401 32.3086 16.7324C33.3471 15.1171 35.1932 12.694 37.3855 10.1555" fill="#F0F0F0"/>
<path d="M27.116 42.6947L22.0391 39.8101V23.6562L27.0006 26.5409L27.116 42.6947Z" fill="white"/>
<path d="M29.7698 17.6533L31.3852 16.7302C31.7314 16.4995 32.0775 16.4995 32.3083 16.6149L37.2698 19.4995C37.0391 19.3841 36.6929 19.3841 36.3468 19.6149L28.3852 24.2302C27.9237 24.461 27.5775 24.9225 27.3468 25.4995C27.116 25.8456 27.0006 26.3072 27.0006 26.6533L22.0391 23.7687C22.0391 23.4225 22.1544 22.961 22.2698 22.6149C22.5006 22.0379 22.9621 21.5764 23.3083 21.3456L26.1929 19.7302" fill="#F0F0F0"/>
<path d="M53.5389 5.655C53.4235 5.42423 53.1927 5.19346 52.962 5.07807C52.5004 4.8473 54.6927 6.11653 48.0004 2.19346C47.4235 1.8473 46.6158 1.96269 45.8081 2.42423C44.1927 3.3473 42.5773 4.61653 40.962 6.11653C40.8466 6.23192 40.8466 6.46269 40.962 6.57807C41.0773 6.69346 41.3081 6.69346 41.4235 6.57807C43.0389 5.07807 44.6543 3.92423 46.1543 3.00115C46.8466 2.655 47.4235 2.53961 47.7697 2.77038L51.6927 5.07807C51.462 5.19346 51.1158 5.30884 50.885 5.42423C49.6158 6.11653 48.0004 7.38576 46.385 8.77038C43.0389 11.7704 39.9235 15.6935 37.5004 19.2704L36.6927 18.8088C35.4235 18.1165 34.0389 17.3088 33.0004 16.6165C34.1543 15.0011 35.7697 12.6935 37.8466 10.2704C37.962 10.155 37.962 9.92423 37.8466 9.80884C37.7312 9.69346 37.5004 9.69346 37.385 9.80884C35.1927 12.3473 33.3466 14.8858 32.3081 16.5011C32.3081 16.6165 32.1927 16.6165 32.3081 16.7319C32.3081 16.8473 32.4235 16.8473 32.4235 16.9627C33.5773 17.655 35.0773 18.4627 36.462 19.2704L37.385 19.8473C37.5004 19.9627 37.6158 20.1935 37.6158 20.4242V36.5781C37.6158 37.0396 37.5004 37.5012 37.1543 37.9627C37.1543 38.0781 37.0389 38.0781 37.1543 38.1935C37.1543 38.3088 37.2697 38.3088 37.2697 38.4242C39.0004 39.2319 40.6158 39.5781 42.2312 39.5781C45.1158 39.5781 47.7697 38.5396 49.6158 37.3858C50.3081 37.0396 50.885 36.5781 51.462 36.1165C52.385 35.4242 53.1927 34.2704 53.5389 33.1165C56.6543 22.2704 56.6543 11.4242 53.5389 5.655ZM52.8466 32.8858C52.5004 33.9242 51.8081 34.9627 51.0004 35.5396C50.4235 36.0011 49.8466 36.3473 49.1543 36.6935C46.385 38.3088 42.1158 39.8088 37.6158 37.8473C37.8466 37.3858 37.962 36.9242 37.962 36.4627V32.7704C41.0774 30.8088 46.385 28.2704 50.3081 30.1165C50.4235 30.2319 50.6543 30.1165 50.6543 30.0011C50.7697 29.8858 50.6543 29.655 50.5389 29.655C46.5004 27.8088 41.1927 30.2319 37.962 32.1935V26.8858C41.0774 25.5011 45.9235 22.3858 46.6158 16.6165C46.6158 16.5011 46.5004 16.2704 46.385 16.2704C46.1543 16.2704 46.0389 16.3858 46.0389 16.5011C45.462 21.8088 40.962 24.8088 37.962 26.1935V20.4242C37.962 20.0781 37.8466 19.8473 37.7312 19.6165C40.1543 16.0396 43.385 12.0011 46.7312 9.11653C48.0004 7.96269 49.385 6.92423 50.885 6.00115C51.5773 5.53961 52.6158 5.30884 52.962 6.00115C56.0774 11.655 56.0773 22.155 52.8466 32.8858Z" fill="#405FCE"/>
<path d="M36.3462 19.6184C36.8077 19.3876 37.1538 19.3876 37.3846 19.6184C37.6154 19.7338 37.6154 20.0799 37.6154 20.4261V36.5799C37.6154 37.0415 37.3846 37.6184 37.1538 38.0799C36.9231 38.4261 36.5769 38.7722 36.3462 38.8876L28.3846 43.503C28.0385 43.7338 27.8077 43.7338 27.4615 43.6184C27.1154 43.503 27 43.1569 27 42.6953V26.5415C27 26.1953 27.1154 25.7338 27.2308 25.3876C27.4615 24.8107 27.9231 24.3492 28.2692 24.1184L36.3462 19.6184Z" fill="white"/>
<path d="M37.962 20.426C37.962 19.9644 37.8466 19.6183 37.3851 19.2721C37.6158 19.3875 34.5005 17.5414 32.3081 16.2721C32.0774 16.1567 31.6158 16.1567 31.1543 16.5029L29.5389 17.426C29.4235 17.5414 29.3081 17.6567 29.4235 17.7721C29.5389 17.8875 29.6543 18.0029 29.7697 17.8875L31.3851 16.9644C31.6158 16.8491 31.8466 16.7337 32.0774 16.8491L36.2312 19.2721L36.1158 19.3875L28.1543 24.0029C26.5389 25.0414 26.6543 26.5414 26.6543 26.7721V42.6952C26.6543 43.2721 26.8851 43.7337 27.3466 43.8491C27.462 43.8491 27.5774 43.9644 27.6928 43.9644C27.9235 43.9644 28.1543 43.9644 28.5005 43.7337L36.462 39.1183C36.8081 38.8875 37.1543 38.5414 37.3851 38.1952C37.7312 37.6183 37.962 37.0414 37.962 36.4644V20.426ZM37.0389 37.9644C36.8081 38.3106 36.5774 38.5414 36.2312 38.7721L28.2697 43.3875C28.0389 43.5029 27.8081 43.6183 27.6928 43.5029C27.462 43.3875 27.3466 43.1567 27.3466 42.8106V26.6567C27.3466 25.9644 27.9235 24.926 28.6158 24.5798L36.5774 19.9644C37.0389 19.7337 37.5005 19.7337 37.5005 20.5414V36.6952C37.5005 37.0414 37.2697 37.5029 37.0389 37.9644ZM22.6158 22.7337C22.8466 22.2721 23.1928 21.8106 23.5389 21.5798L26.4235 19.8491C26.5389 19.7337 26.6543 19.6183 26.5389 19.5029C26.4235 19.3875 26.3081 19.2721 26.1928 19.3875L23.3081 21.1183C22.8466 21.4644 22.3851 21.926 22.1543 22.5029C22.2697 22.5029 22.3851 22.6183 22.6158 22.7337Z" fill="#030E17"/>
<path d="M4.50045 35.6576C4.8466 32.773 5.53891 29.8884 6.46199 27.0038C6.92353 25.7345 7.73122 24.6961 8.76968 24.1191C14.8851 20.773 20.0774 21.8114 22.3851 22.5038L27.3466 25.3884C25.1543 24.6961 19.8466 23.6576 13.7312 27.0038C12.8081 27.5807 11.8851 28.6191 11.4235 29.8884C8.30814 39.3499 8.42353 49.8499 11.6543 56.8884C11.7697 57.1191 12.0005 57.3499 12.2312 57.4653L7.26968 54.5807C7.03891 54.4653 6.80814 54.2345 6.69276 54.0038C5.6543 51.6961 4.8466 48.9268 4.50045 46.0422C4.03891 42.5807 4.03891 39.2345 4.50045 35.6576Z" fill="#F0F0F0"/>
<path d="M13.7311 27.1191C19.8465 23.773 25.0388 24.8114 27.3465 25.5038C27.1157 25.8499 27.1157 26.3114 27.1157 26.6576V42.8114C27.1157 43.273 27.3465 43.6191 27.5773 43.7345C22.8465 51.3499 18.3465 54.9268 15.4619 56.6576C14.7696 57.1191 14.0773 57.3499 13.6157 57.5807C12.808 57.9268 12.0003 57.6961 11.6542 57.0038C8.42342 50.0807 8.30803 39.4653 11.4234 30.0038C11.885 28.7345 12.808 27.5807 13.7311 27.1191Z" fill="white"/>
<path d="M27.3466 26.5398C27.3466 26.1936 27.462 25.8475 27.5774 25.5013V25.2705C27.5774 25.1552 27.5774 25.1552 27.462 25.1552L22.3851 22.2705C20.3081 21.5782 14.8851 20.4244 8.53891 23.8859C7.50045 24.4629 6.57737 25.6167 6.11584 26.8859C5.19276 29.6552 4.50045 32.6552 4.1543 35.5398C4.1543 35.6552 4.26968 35.8859 4.38507 35.8859C4.50045 35.8859 4.73122 35.7705 4.73122 35.6552C5.07737 32.7705 5.76968 29.7705 6.69276 27.1167C7.03891 25.9629 7.8466 24.9244 8.76968 24.4629C14.7697 21.1167 20.0774 22.2705 22.0389 22.8475L25.3851 24.809C21.3466 24.1167 17.1928 24.9244 13.6158 26.8859C12.5774 27.4629 11.6543 28.6167 11.1928 29.8859C10.0389 33.3475 9.3466 37.0398 9.00045 40.6167C8.6543 45.809 9.23122 51.809 11.3081 56.6552L7.38507 54.3475C7.1543 54.2321 7.03891 54.1167 6.92353 53.8859C5.88507 51.5782 5.19276 48.9244 4.73122 45.9244C4.73122 45.809 4.61584 45.6936 4.38507 45.6936C4.26968 45.6936 4.1543 45.809 4.1543 46.0398C4.50045 49.0398 5.30814 51.809 6.3466 54.1167C6.46199 54.4629 6.69276 54.6936 7.03891 54.809L12.0005 57.6936C12.2312 57.809 12.462 57.9244 12.6928 57.9244C12.9235 57.9244 13.2697 57.809 13.6158 57.6936C14.1928 57.4629 14.8851 57.1167 15.462 56.7706C18.462 55.0398 22.962 51.4629 27.6928 43.7321V43.5013C27.6928 43.3859 27.5774 43.3859 27.462 43.2705C27.2312 43.1552 27.1158 42.9244 27.1158 42.5782C27.3466 41.0782 27.3466 28.2705 27.3466 26.5398ZM26.7697 37.6167C23.6543 39.0013 18.6928 42.1167 18.1158 47.8859C18.1158 48.0013 18.2312 48.2321 18.3466 48.2321C18.462 48.2321 18.5774 48.1167 18.5774 48.0013C19.1543 42.6936 23.6543 39.6936 26.6543 38.309V42.6936C26.6543 43.1552 26.7697 43.5013 27.1158 43.7321C22.5005 51.1167 18.1158 54.6936 15.2312 56.309C14.6543 56.6552 13.962 57.0013 13.3851 57.2321C12.9235 57.4629 12.462 57.4629 12.1158 57.1167C12.0005 57.0013 11.8851 56.8859 11.8851 56.7706C10.2697 53.0782 9.11584 47.309 9.69276 40.3859C9.92353 36.9244 10.6158 33.3475 11.7697 30.0013C12.1158 28.8475 12.9235 27.809 13.8466 27.3475C18.2312 24.9244 22.962 24.5782 26.8851 25.6167C26.7697 25.9629 26.6543 26.309 26.6543 26.5398V31.5013C23.5389 33.4629 18.2312 36.0013 14.3081 34.1552C14.1928 34.0398 13.962 34.1552 13.962 34.2705C13.8466 34.3859 13.962 34.6167 14.0774 34.6167C15.1158 35.0782 16.2697 35.309 17.4235 35.309C20.7697 35.309 24.3466 33.5782 26.7697 32.0782V37.6167Z" fill="#405FCE"/>
</svg>
