<svg width="60" height="60" viewBox="0 0 60 60" fill="none" xmlns="http://www.w3.org/2000/svg">
<path d="M43.7302 33.1166L37.9609 29.7704L44.4225 26.0781L50.1917 29.4243L43.7302 33.1166Z" fill="white"/>
<path d="M40.153 35.3065L34.3838 31.845L37.9607 29.768L43.7299 33.1142L40.153 35.3065ZM40.153 43.4988L34.3838 40.1526V31.845L40.153 35.3065V43.4988ZM44.653 40.9603L40.153 43.4988V35.3065L43.7299 33.1142L50.1915 29.4219L50.3069 37.7296L48.2299 38.8834" fill="white"/>
<path d="M43.7302 33.1166L37.9609 29.7704V21.5781L43.7302 24.9243V33.1166Z" fill="white"/>
<path d="M43.7302 24.9273L37.9609 21.5811L44.4225 17.7734L50.1917 21.1196L43.7302 24.9273Z" fill="white"/>
<path d="M50.191 21.1172V29.4249L43.7294 33.1172V24.9249L50.191 21.1172ZM36.5756 37.3864L30.691 33.9249L34.3833 31.848L40.1525 35.3095L36.5756 37.3864ZM29.3063 41.5403L23.5371 38.1941L30.691 33.9249L36.5756 37.3864L29.3063 41.5403ZM36.4602 29.0787L30.691 25.7326L37.9602 21.5787L43.7294 24.9249L36.4602 29.0787Z" fill="white"/>
<path d="M40.1532 27.0054L34.3839 23.6593L34.2686 15.3516L40.0378 18.6977L40.1532 27.0054Z" fill="white"/>
<path d="M43.7302 24.9219V33.1142L40.1532 35.3065L36.5763 37.3834L36.4609 29.0757L43.7302 24.9219Z" fill="#F0F2F5"/>
<path d="M36.576 37.3858L30.6914 33.9243V25.732L36.4606 29.0781L36.576 37.3858ZM43.7299 16.6166L37.9606 13.2704L44.4222 9.57812L50.1914 12.9243L43.7299 16.6166Z" fill="white"/>
<path d="M40.0378 18.6965L34.2686 15.3504L37.9609 13.2734L43.7301 16.6196L40.0378 18.6965Z" fill="white"/>
<path d="M50.192 12.9219V21.1142L40.1535 26.9988L40.0382 18.6911L43.7305 16.6142L50.192 12.9219ZM25.6151 51.9219L19.7305 48.5757V40.268L25.4997 43.7296L25.6151 51.9219Z" fill="white"/>
<path d="M40.1538 35.3047V43.497L25.6154 51.9201L25.5 43.7278L29.3077 41.5355L36.5769 37.3816L40.1538 35.3047Z" fill="#F0F2F5"/>
<path d="M25.4997 43.7278L19.7305 40.2662L23.5382 38.1893L29.3074 41.5355L25.4997 43.7278ZM43.7305 9.45853L37.8459 5.99699L44.4228 2.30469L50.192 5.65084L43.7305 9.45853ZM43.7305 16.6124L37.9612 13.2662L37.8459 5.99699L43.7305 9.45853V16.6124Z" fill="white"/>
<path d="M50.1916 5.65625V12.9255L43.7301 16.6178V9.46394L50.1916 5.65625ZM22.0378 45.6947L16.2686 42.3486L19.7301 40.2716L25.4993 43.7332L22.0378 45.6947ZM29.307 33.2332L23.5378 29.887L30.6916 25.7332L36.4609 29.0793L29.307 33.2332Z" fill="white"/>
<path d="M29.3063 41.5367L23.5371 38.1905V29.8828L29.3063 33.229V41.5367Z" fill="white"/>
<path d="M22.0378 37.3828L16.2686 34.0367L23.5378 29.8828L29.307 33.229L22.0378 37.3828Z" fill="white"/>
<path d="M40.0375 18.6953L40.1529 27.003L25.499 35.4261V27.1184L29.1913 25.0415L36.4606 20.7722L40.0375 18.6953Z" fill="#F0F2F5"/>
<path d="M36.4605 29.0823L36.5759 37.39L29.3066 41.5439V33.2362L36.4605 29.0823ZM36.4605 20.7746L30.6913 17.4285L34.2682 15.3516L40.0374 18.6977L36.4605 20.7746Z" fill="white"/>
<path d="M43.7302 9.46094V16.6148L40.0379 18.6917L36.4609 20.7686V13.6148L43.7302 9.46094Z" fill="#F0F2F5"/>
<path d="M36.4606 13.6154L30.6914 10.2692L37.8453 6L43.7299 9.46154L36.4606 13.6154Z" fill="white"/>
<path d="M36.4605 20.7734L30.6913 17.4273V10.2734L36.4605 13.6196V20.7734ZM15.5759 49.3888L9.80664 46.0427L16.2682 42.3504L22.0374 45.6965L15.5759 49.3888Z" fill="white"/>
<path d="M15.5759 57.6959L9.80664 54.3498V46.0421L15.5759 49.3882V57.6959ZM25.4989 43.7344L25.6143 51.9267L15.5759 57.6959V49.3882L22.0374 45.6959L25.4989 43.7344Z" fill="white"/>
<path d="M29.3063 33.2344V41.5421L25.4986 43.7344L22.0371 45.6959V37.3882L29.3063 33.2344Z" fill="white"/>
<path d="M22.0378 45.6911L16.2686 42.345V34.0373L22.0378 37.3834V45.6911ZM29.1916 25.0373L23.4224 21.5757L30.6916 17.4219L36.4609 20.768L29.1916 25.0373ZM25.4993 35.4219L19.7301 32.0757V23.768L25.4993 27.1142V35.4219Z" fill="white"/>
<path d="M25.4997 27.1172L19.7305 23.771L23.4228 21.5787L29.192 25.0403L25.4997 27.1172ZM36.4612 13.6172V20.771L29.192 25.0403V17.771L36.4612 13.6172Z" fill="white"/>
<path d="M29.1921 17.7734L23.4229 14.4273L30.6921 10.2734L36.4613 13.6196L29.1921 17.7734Z" fill="white"/>
<path d="M29.1921 25.0451L23.4229 21.5835V14.4297L29.1921 17.7758V25.0451Z" fill="white"/>
<path d="M15.5759 41.1929L9.80664 37.8468L16.2682 34.0391L22.0374 37.3852L15.5759 41.1929Z" fill="white"/>
<path d="M15.5759 49.39L9.80664 46.0439V37.8516L15.5759 41.1977V49.39Z" fill="white"/>
<path d="M22.0377 37.3828V45.6905L15.5762 49.3828V41.1905L22.0377 37.3828Z" fill="#F0F2F5"/>
<path d="M25.4991 27.1196V35.4273L22.0376 37.3888L15.576 41.1965V32.8888L25.4991 27.1196ZM15.576 41.1965L9.80679 37.8504L9.69141 29.5427L15.576 32.8888V41.1965ZM17.5376 25.0427L19.7299 23.7734L25.4991 27.1196L15.576 32.8888L9.69141 29.5427L14.076 27.1196" fill="white"/>
<path d="M50.4223 5.65505L50.3069 5.42428L44.5377 2.07812H44.1916C42.9223 2.77043 28.4992 11.1935 23.3069 14.1935C23.1916 14.1935 23.1916 14.4243 23.1916 14.4243V21.4627C23.0762 21.5781 16.9608 25.0397 17.3069 24.8089C17.1916 24.9243 17.0762 25.0397 17.1916 25.155C17.3069 25.3858 17.5377 25.3858 17.6531 25.3858L19.73 24.232L24.9223 27.232C24.5762 27.4627 15.4608 32.7704 15.5762 32.655C15.4608 32.5397 10.2685 29.5397 10.3839 29.6551L14.1916 27.4627C14.3069 27.3474 14.4223 27.232 14.3069 27.1166C14.1916 27.0012 14.0762 26.8858 13.9608 27.0012L9.69156 29.4243C9.57617 29.4243 9.57617 29.6551 9.57617 29.6551C9.69156 53.0781 9.69156 51.232 9.69156 54.4627C9.69156 54.5781 9.69156 54.6935 9.80694 54.6935L15.5762 58.0397H15.8069C32.9992 48.1166 18.6916 56.3089 44.8839 41.3089C44.9993 41.1935 45.1146 41.0781 44.9992 40.9627C44.8839 40.8474 44.7685 40.732 44.6531 40.8474L40.6146 43.1551V35.5397C41.0762 35.3089 50.0762 30.1166 50.1916 30.0012V37.6166L48.3454 38.655C48.23 38.7704 48.1146 38.8858 48.23 39.0012C48.3454 39.1166 48.4608 39.232 48.5762 39.1166L50.5377 37.9627C50.6531 37.9627 50.6531 37.8474 50.6531 37.732C50.5377 28.1551 50.4223 15.0012 50.4223 5.65505ZM10.0377 30.0012L15.23 33.0012V40.6166L10.0377 37.6166V30.0012ZM10.0377 38.3089L15.23 41.3089V48.9243L10.0377 45.9243V38.3089ZM10.1531 54.1166V46.5012L15.3454 49.5012V57.1166L10.1531 54.1166ZM25.8454 34.9627V27.3474L39.9223 19.2704V26.8858L25.8454 34.9627ZM36.23 37.155L29.5377 40.9627V33.3474L36.23 29.5397V37.155ZM28.9608 41.3089C28.8454 41.4243 22.0377 45.3474 22.2685 45.1166V37.5012L28.9608 33.6935V41.3089ZM29.5377 17.8858L36.23 14.0781V20.655L29.5377 24.4627V17.8858ZM36.6916 13.732C36.8069 13.6166 43.6146 9.69351 43.3839 9.92428V16.5012L36.6916 20.3089C36.8069 19.8474 36.6916 13.6166 36.6916 13.732ZM43.3839 25.3858V33.0012C43.0377 33.232 36.4608 37.0397 36.6916 36.8089V29.1935L43.3839 25.3858ZM43.9608 25.0397L49.8454 21.5781V29.1935L43.9608 32.655C44.0762 32.5397 43.9608 24.6935 43.9608 25.0397ZM49.9608 21.0012C46.3839 23.0781 44.0762 24.4627 40.3839 26.5397V18.9243C41.4223 18.3474 49.73 13.5012 49.9608 13.3858V21.0012ZM49.8454 12.6935C49.73 12.8089 43.6146 16.2704 43.9608 16.155V9.57812L49.8454 6.11659V12.6935ZM44.4223 2.65505L49.6146 5.65505L43.73 9.11659L38.5377 6.11659L44.4223 2.65505ZM37.8454 6.34736L43.0377 9.34736L36.3454 13.155L31.1531 10.155L37.8454 6.34736ZM30.6916 10.6166C30.8069 10.732 35.9992 13.732 35.8839 13.6166C35.7685 13.732 28.9608 17.655 29.1916 17.4243C29.0762 17.3089 23.8839 14.3089 23.9992 14.4243L30.6916 10.6166ZM28.9608 17.8858V24.4627L23.7685 21.4627V14.8858L28.9608 17.8858ZM20.3069 23.7704L23.5377 21.9243C23.6531 22.0397 28.8454 25.0397 28.73 24.9243L25.4992 26.7704L20.3069 23.7704ZM15.8069 33.1166L25.1531 27.6935V35.3089L15.8069 40.732V33.1166ZM15.8069 41.3089C17.6531 40.2704 19.9608 38.8858 21.6916 37.8474V45.4627L15.8069 48.9243V41.3089ZM15.9223 57.232V49.6166C16.8454 49.0397 25.1531 44.3089 25.2685 44.1935V51.8089L15.9223 57.232ZM25.8454 51.4627V43.8474C26.0762 43.732 29.1916 41.8858 39.9223 35.7704V43.3858L25.8454 51.4627Z" fill="#405FCE"/>
</svg>
