<svg width="60" height="61" viewBox="0 0 60 61" fill="none" xmlns="http://www.w3.org/2000/svg">
<path d="M34.8465 19.5417L9.46184 34.3109L5.07722 26.6955C4.73107 26.1186 4.38492 25.7724 3.92338 25.5417C3.46184 25.3109 3.11569 25.1955 2.76953 25.4263L28.1541 10.657C28.5003 10.4263 28.8465 10.5417 29.308 10.7724C29.7695 11.0032 30.1157 11.4647 30.4618 11.9263L34.8465 19.5417Z" fill="white"/>
<path d="M25.616 14.8089L28.5006 13.0781L31.616 18.732L10.2698 31.0781L7.03906 25.5397L20.8852 17.4627M46.8468 26.4627L56.0775 31.7704C57.0006 32.232 57.6929 33.5012 57.6929 34.5397C57.6929 35.0012 57.4621 35.3474 57.2314 35.5781L31.8468 50.3474C32.1929 50.232 32.3083 49.7704 32.3083 49.3089C32.3083 48.2704 31.616 47.0012 30.6929 46.5397L9.46214 34.3089L34.8468 19.5397L41.8852 23.5781" fill="white"/>
<path d="M15.1158 41.2304L8.76961 37.538C8.30807 37.3073 7.96191 36.8457 7.61576 36.3842L2.76961 27.9611C2.19268 26.9227 2.19268 25.7688 2.76961 25.4227C3.11576 25.1919 3.46191 25.3073 3.92345 25.538C4.38499 25.7688 4.73114 26.2304 5.0773 26.6919L9.46191 34.3073L30.8081 46.6534C31.7311 47.115 32.4235 48.3842 32.4235 49.4227C32.4235 50.4611 31.7311 50.8073 30.8081 50.3457L21.1158 44.8073" fill="#F0F2F5"/>
<path d="M56.1928 31.5418L46.9621 26.2341C46.8467 26.1188 46.6159 26.2341 46.6159 26.3495C46.5005 26.4649 46.6159 26.6957 46.7313 26.6957L55.9621 32.0034C56.7698 32.4649 57.4621 33.6188 57.4621 34.5418C57.4621 34.888 57.3467 35.2341 57.1159 35.3495L32.539 49.6572V49.4265C32.539 48.2726 31.7313 47.0034 30.8082 46.4265L25.7313 43.4265L10.039 34.3111L34.8467 19.888L41.6544 23.8111C41.7698 23.9265 42.0005 23.8111 42.0005 23.6957C42.1159 23.5803 42.0005 23.3495 41.8851 23.3495L34.9621 19.3111L30.5775 11.8111C30.2313 11.2341 29.7698 10.7726 29.3082 10.5418C28.7313 10.1957 28.2698 10.1957 27.9236 10.4265L2.53899 25.1957C1.61591 25.7726 1.84668 27.1572 2.4236 28.1957L7.26976 36.6188C7.61591 37.1957 8.07745 37.6572 8.53899 37.888L14.8851 41.5803C15.0005 41.6957 15.2313 41.5803 15.2313 41.4649C15.3467 41.3495 15.2313 41.1188 15.1159 41.1188L8.76976 37.4265C8.4236 37.1957 8.07745 36.8495 7.7313 36.388L2.88514 27.9649C2.53899 27.2726 2.19283 26.1188 2.76976 25.7726C3.34668 25.4265 4.26976 26.3495 4.61591 26.9265C4.7313 27.0418 9.34668 35.0034 9.00053 34.5418C8.65437 34.0803 9.11591 34.6572 9.11591 34.6572L30.4621 47.0034C31.8467 47.8111 32.3082 49.888 31.6159 50.2341C31.3851 50.3495 31.1544 50.3495 30.8082 50.1188L21.1159 44.5803C21.0005 44.4649 20.7698 44.5803 20.7698 44.6957C20.6544 44.8111 20.7698 45.0418 20.8851 45.0418L30.5775 50.5803C31.039 50.8111 31.5005 50.9265 31.9621 50.6957L57.3467 35.9265C57.6928 35.6957 57.9236 35.2341 57.9236 34.6572C58.039 33.5034 57.2313 32.1188 56.1928 31.5418ZM28.2698 10.888C28.5005 10.7726 28.7313 10.7726 29.0775 11.0034C29.4236 11.2341 29.7698 11.5803 30.1159 12.0418L34.3851 19.4265L12.6928 32.1188L9.57745 33.9649L5.30822 26.5803C5.07745 26.1188 4.61591 25.5418 4.03899 25.3111C3.9236 25.3111 3.80822 25.1957 3.80822 25.1957L28.2698 10.888Z" fill="#405FCE"/>
<path d="M31.27 24.274L33.5777 25.6587L37.0392 23.5817L34.7315 22.3125L31.27 24.274ZM25.6161 27.5048L27.9238 28.8894L31.3854 26.9279L29.1931 25.5433L25.6161 27.5048ZM20.0777 30.851L22.27 32.1202L25.8469 30.1587L23.5392 28.774L20.0777 30.851ZM14.4238 34.0817L16.7315 35.351L20.1931 33.3894L17.8854 32.0048L14.4238 34.0817ZM35.6546 26.8125L39.1161 28.8894L42.5777 26.8125L39.1161 24.851L35.6546 26.8125ZM30.0008 30.1587L33.4623 32.1202L36.9238 30.0433L33.5777 28.0817L30.0008 30.1587ZM24.4623 33.3894L27.8084 35.351L31.3854 33.3894L27.9238 31.3125L24.4623 33.3894ZM18.8084 36.6202L22.27 38.5817L25.7315 36.6202L22.27 34.5433L18.8084 36.6202ZM41.1931 30.0433L50.4238 35.4663L53.8854 33.3894L44.6546 28.0817L41.1931 30.0433ZM35.5392 33.3894L39.0008 35.351L42.4623 33.274L39.1161 31.3125L35.5392 33.3894ZM30.0008 36.6202L33.3469 38.5817L36.9238 36.6202L33.4623 34.5433L30.0008 36.6202ZM24.3469 39.851L27.8084 41.8125L31.27 39.851L27.8084 37.774L24.3469 39.851ZM41.3084 36.7356L44.77 38.6971L48.2315 36.6202L44.8854 34.6587L41.3084 36.7356ZM35.77 39.9663L39.1161 41.9279L42.6931 39.9663L39.2315 37.8894L35.77 39.9663ZM30.1161 43.1971L33.5777 45.1587L37.0392 43.1971L33.5777 41.1202L30.1161 43.1971Z" fill="#F0F2F5"/>
<path d="M31.9614 18.5054L28.7306 12.9669C28.7306 12.8516 28.6153 12.8516 28.4999 12.8516H28.2691L25.4999 14.4669C25.3845 14.5823 25.2691 14.6977 25.3845 14.8131C25.4999 14.9285 25.6153 15.0439 25.7306 14.9285L28.2691 13.4285L31.1537 18.5054L10.3845 30.7362L7.49987 25.6593L20.9999 17.8131C21.1153 17.6977 21.2306 17.5823 21.1153 17.4669C20.9999 17.3516 20.8845 17.2362 20.7691 17.3516L6.92294 25.4285C6.80756 25.5439 6.69217 25.6593 6.80756 25.7746L10.0383 31.3131C10.0383 31.4285 10.1537 31.4285 10.2691 31.4285H10.4999L31.846 18.9669C31.9614 18.8516 31.9614 18.7362 31.9614 18.5054ZM30.9229 24.2746C30.9229 24.39 30.9229 24.5054 31.0383 24.5054L33.346 25.89H33.5768L37.0383 23.9285C37.1537 23.9285 37.1537 23.8131 37.1537 23.6977C37.1537 23.5823 37.1537 23.4669 37.0383 23.4669L34.7306 22.0823H34.3845L30.9229 24.0439C31.0383 24.1593 30.9229 24.1593 30.9229 24.2746ZM34.7306 22.6593L36.4614 23.6977L33.5768 25.4285L31.846 24.39L34.7306 22.6593ZM29.3076 25.3131H28.9614L25.4999 27.2746C25.3845 27.2746 25.3845 27.39 25.3845 27.5054C25.3845 27.6208 25.3845 27.7362 25.4999 27.7362L27.8076 29.1208H28.0383L31.4999 27.1593C31.6153 27.1593 31.6153 27.0439 31.6153 26.9285C31.6153 26.8131 31.6153 26.6977 31.4999 26.6977L29.3076 25.3131ZM27.9229 28.5439L26.1922 27.5054L29.0768 25.7746L30.8076 26.8131L27.9229 28.5439ZM23.4229 28.5439L19.9614 30.5054C19.846 30.5054 19.846 30.6208 19.846 30.7362C19.846 30.8516 19.846 30.9669 19.9614 30.9669L22.2691 32.3516H22.4999L25.9614 30.39C26.0768 30.39 26.0768 30.2746 26.0768 30.1593C26.0768 30.0439 26.0768 29.9285 25.9614 29.9285L23.6537 28.5439H23.4229ZM22.2691 31.7746L20.5383 30.7362L23.4229 29.0054L25.1537 30.0439L22.2691 31.7746ZM20.5383 33.39C20.5383 33.2746 20.5383 33.1593 20.4229 33.1593L18.1153 31.7746H17.7691L14.3076 33.7362C14.1922 33.7362 14.1922 33.8516 14.1922 33.9669C14.1922 34.0823 14.1922 34.1977 14.3076 34.1977L16.6153 35.5823H16.846L20.3076 33.6208C20.4229 33.6208 20.5383 33.5054 20.5383 33.39ZM16.7306 35.0054L14.9999 34.0823L17.8845 32.3516L19.6153 33.39L16.7306 35.0054ZM35.4229 26.8131C35.4229 26.9285 35.4229 27.0439 35.5383 27.0439L38.9999 29.0054H39.2306L42.6922 27.0439C42.8076 27.0439 42.8076 26.9285 42.8076 26.8131C42.8076 26.6977 42.8076 26.5823 42.6922 26.5823L39.2306 24.6208H38.8845L35.4229 26.5823V26.8131ZM39.1153 25.1977L41.9999 26.8131L39.1153 28.5439L36.2306 26.9285L39.1153 25.1977ZM29.7691 30.1593C29.7691 30.2746 29.7691 30.39 29.8845 30.39L33.346 32.3516H33.5768L37.0383 30.39C37.1537 30.39 37.1537 30.2746 37.1537 30.1593C37.1537 30.0439 37.1537 29.9285 37.0383 29.9285L33.5768 27.9669H33.2306L29.7691 29.9285V30.1593ZM33.5768 28.4285L36.4614 30.0439L33.4614 31.7746L30.5768 30.1593L33.5768 28.4285ZM27.6922 35.5823H27.9229L31.3845 33.6208C31.4999 33.6208 31.4999 33.5054 31.4999 33.39C31.4999 33.2746 31.4999 33.1593 31.3845 33.1593L27.9229 31.1977H27.5768L24.1153 33.1593C23.9999 33.1593 23.9999 33.2746 23.9999 33.39C23.9999 33.5054 23.9999 33.6208 24.1153 33.6208L27.6922 35.5823ZM27.9229 31.6593L30.8076 33.2746L27.9229 35.0054L25.0383 33.39L27.9229 31.6593ZM25.9614 36.6208C25.9614 36.5054 25.9614 36.39 25.846 36.39L22.3845 34.4285H22.0383L18.5768 36.39C18.4614 36.39 18.4614 36.5054 18.4614 36.6208C18.4614 36.7362 18.4614 36.8516 18.5768 36.8516L22.0383 38.8131H22.2691L25.7306 36.8516C25.9614 36.7362 25.9614 36.7362 25.9614 36.6208ZM22.2691 38.2362L19.3845 36.6208L22.2691 34.89L25.1537 36.5054L22.2691 38.2362ZM53.9999 33.1593L44.7691 27.8516H44.4229L40.9614 29.8131C40.846 29.8131 40.846 29.9285 40.846 30.0439C40.846 30.1593 40.846 30.2746 40.9614 30.2746L50.1922 35.5823H50.423L53.8845 33.6208C53.9999 33.6208 53.9999 33.5054 53.9999 33.39C54.2306 33.2746 54.1153 33.2746 53.9999 33.1593ZM50.423 35.1208L41.7691 30.1593L44.6537 28.4285L53.3076 33.39L50.423 35.1208ZM38.9999 35.5823H39.1153L42.5768 33.6208C42.6922 33.6208 42.6922 33.5054 42.6922 33.39C42.6922 33.2746 42.6922 33.1593 42.5768 33.1593L39.1153 31.1977H38.7691L35.3076 33.1593C35.1922 33.1593 35.1922 33.2746 35.1922 33.39C35.1922 33.5054 35.1922 33.6208 35.3076 33.6208L38.7691 35.5823H38.9999ZM39.1153 31.6593L41.9999 33.2746L39.1153 35.0054L36.2306 33.39L39.1153 31.6593ZM33.2306 38.8131H33.4614L36.9229 36.8516C37.0383 36.8516 37.0383 36.7362 37.0383 36.6208C37.0383 36.5054 37.0383 36.39 36.9229 36.39L33.4614 34.4285H33.1153L29.6537 36.39C29.5383 36.39 29.5383 36.5054 29.5383 36.6208C29.5383 36.7362 29.5383 36.8516 29.6537 36.8516L33.2306 38.8131ZM33.4614 34.89L36.346 36.5054L33.4614 38.2362L30.5768 36.6208L33.4614 34.89ZM31.4999 39.8516C31.4999 39.7362 31.4999 39.6208 31.3845 39.6208L27.9229 37.6593H27.5768L24.1153 39.6208C23.9999 39.6208 23.9999 39.7362 23.9999 39.8516C23.9999 39.9669 23.9999 40.0823 24.1153 40.0823L27.5768 42.0439H27.8076L31.2691 40.0823C31.4999 39.9669 31.4999 39.9669 31.4999 39.8516ZM27.8076 41.4669L24.9229 39.8516L27.8076 38.1208L30.6922 39.7362L27.8076 41.4669ZM44.9999 34.4285H44.6537L41.1922 36.39C41.0768 36.39 41.0768 36.5054 41.0768 36.6208C41.0768 36.7362 41.0768 36.8516 41.1922 36.8516L44.6537 38.8131H44.8845L48.346 36.8516C48.4614 36.8516 48.4614 36.7362 48.4614 36.6208C48.4614 36.5054 48.4614 36.39 48.346 36.39L44.9999 34.4285ZM44.7691 38.3516L41.8845 36.7362L44.7691 35.0054L47.6537 36.6208L44.7691 38.3516ZM39.346 37.6593H38.9999L35.5383 39.6208C35.4229 39.6208 35.4229 39.7362 35.4229 39.8516C35.4229 39.9669 35.4229 40.0823 35.5383 40.0823L38.9999 42.0439H39.2306L42.6922 40.0823C42.8076 40.0823 42.8076 39.9669 42.8076 39.8516C42.8076 39.7362 42.8076 39.6208 42.6922 39.6208L39.346 37.6593ZM39.1153 41.5823L36.2306 39.9669L39.1153 38.2362L41.9999 39.8516L39.1153 41.5823ZM33.8076 40.89H33.4614L29.9999 42.8516C29.8845 42.8516 29.8845 42.967 29.8845 43.0823C29.8845 43.1977 29.8845 43.3131 29.9999 43.3131L33.4614 45.2746H33.6922L37.1537 43.3131C37.2691 43.3131 37.2691 43.1977 37.2691 43.0823C37.2691 42.967 37.2691 42.8516 37.1537 42.8516L33.8076 40.89ZM33.5768 44.8131L30.6922 43.1977L33.5768 41.4669L36.4614 43.0823L33.5768 44.8131Z" fill="#030E17"/>
</svg>
