<svg width="60" height="60" viewBox="0 0 60 60" fill="none" xmlns="http://www.w3.org/2000/svg">
<path d="M26.538 57.1178C26.538 57.3486 26.538 57.5794 26.6534 57.6948L22.2688 55.1563C22.1534 55.0409 22.038 54.9255 22.1534 54.6948L23.3072 44.6563L27.6919 47.1948L26.538 57.1178ZM33.1149 6.464L39.4611 2.77169C40.4996 2.19477 41.3072 2.19477 41.9996 2.54092L46.3842 5.07938C45.6919 4.73323 44.8842 4.73323 43.8457 5.31015L20.3072 19.1563C18.3457 20.3102 16.7303 23.0794 16.7303 25.2717L16.8457 49.3871C16.8457 50.5409 17.1919 51.2332 17.8842 51.6948L13.4995 49.1563C12.9226 48.8102 12.4611 48.0025 12.4611 46.8486L12.3457 22.7332C12.3457 20.5409 13.9611 17.7717 15.9226 16.6178L27.4611 9.92554" fill="#F0F2F5"/>
<path d="M43.9612 5.30434C45.9228 4.1505 47.5382 5.07358 47.5382 7.26588L47.6535 31.3813C47.6535 33.5736 46.0382 36.3428 44.192 37.4967L34.4997 43.1505L27.8074 56.9967C27.692 57.2274 27.4612 57.4582 27.3459 57.5736C26.8843 57.8043 26.5382 57.689 26.5382 57.112L27.692 47.0736L20.4228 51.3428C18.4612 52.4967 16.8459 51.5736 16.8459 49.3813L16.7305 25.2659C16.7305 23.0736 18.3459 20.3043 20.192 19.1505L43.9612 5.30434Z" fill="white"/>
<path d="M47.7691 7.38515C47.7691 6.2313 47.3075 5.30823 46.6152 4.84669L42.2306 2.30823C41.4229 1.84669 40.4999 1.96207 39.346 2.539L32.9999 6.2313C32.8845 6.34669 32.7691 6.46207 32.8845 6.57746C32.9999 6.69284 33.1152 6.80823 33.2306 6.69284L39.5768 3.00053C40.4999 2.539 41.3075 2.42361 41.8845 2.76977L45.1152 4.61592C44.6537 4.7313 44.1922 4.96207 43.846 5.07746L32.0768 12.0005L20.1922 18.9236C18.1152 20.1928 16.4999 22.9621 16.4999 25.2698L16.6152 49.3852C16.6152 49.8467 16.7306 50.1928 16.846 50.6544L13.7306 48.8082C13.1537 48.4621 12.8075 47.7698 12.8075 46.7313L12.6922 22.7313C12.6922 20.539 14.1922 18.0005 16.0383 16.8467L27.5768 10.1544C27.6922 10.039 27.8075 9.80823 27.6922 9.69284C27.5768 9.57746 27.4614 9.46207 27.346 9.57746L15.8075 16.2698C13.7306 17.4236 12.1152 20.3082 12.1152 22.6159L12.2306 46.7313C12.2306 47.8852 12.6922 48.8082 13.3845 49.2698C19.0383 52.6159 17.5383 51.6928 17.7691 51.8082C18.5768 52.2698 19.4998 52.1544 20.5383 51.5775L22.2691 50.539L21.9229 54.5775C21.9229 54.9236 22.0383 55.2698 22.2691 55.3852C22.4999 55.5005 26.8845 58.039 26.6537 57.9236C26.9999 58.1544 27.6922 57.9236 28.0383 57.2313L34.7306 43.5005L44.3075 37.9621C46.3845 36.8082 47.9999 33.9236 47.9999 31.6159L47.7691 7.38515ZM22.4999 54.5775L22.9614 50.1928L27.346 47.6544L26.3075 57.0005L22.4999 54.8082V54.5775ZM43.9614 37.3852L34.2691 43.039L34.1537 43.1544L27.4614 57.0005C27.346 57.2313 27.1152 57.4621 26.8845 57.4621V57.2313L28.0383 47.1928C28.0383 47.0775 27.9229 46.7313 27.5768 46.9621C23.7691 49.1544 20.0768 51.3467 20.3075 51.2313C18.5768 52.2698 17.1922 51.4621 17.1922 49.5005L17.0768 25.3852C17.0768 23.3082 18.4614 20.7698 20.4229 19.5005L44.0768 5.65438C44.9999 5.19284 45.6922 5.07746 46.2691 5.42361C46.846 5.76977 47.1922 6.46207 47.1922 7.38515L47.3075 31.5005C47.3075 33.6928 45.8075 36.2313 43.9614 37.3852Z" fill="#405FCE"/>
<path d="M43.5002 10.1562L42.6925 16.8486L38.0771 14.1947L43.5002 10.1562Z" fill="white"/>
<path d="M27.462 37.3882V41.6575L23.7697 43.7344L23.6543 39.5805L27.462 37.3882ZM34.0389 30.9267V37.8498L30.3466 39.9267V33.119L34.0389 30.9267ZM40.6158 21.2344L40.7312 33.9267L36.9235 36.119V23.3113L40.6158 21.2344Z" fill="#F0F2F5"/>
<path d="M43.2685 9.92808L37.8454 13.9665C37.73 13.9665 37.73 14.0819 37.73 14.1973C37.73 14.3127 37.73 14.4281 37.8454 14.4281L39.9223 15.5819L37.0377 20.5435L35.1916 19.505C35.0762 19.3896 34.8454 19.505 34.8454 19.6204L30.1147 27.8127L28.1531 26.6588C28.0377 26.5435 27.807 26.6588 27.807 26.7742L20.7685 39.005C20.6531 39.1204 20.7685 39.3512 20.8839 39.3512C20.9993 39.4665 21.23 39.3512 21.23 39.2358L28.1531 27.3512L30.1147 28.505C30.23 28.6204 30.4608 28.505 30.4608 28.3896L35.1916 20.1973L37.0377 21.2358C37.1531 21.3512 37.3839 21.2358 37.3839 21.1204L40.3839 15.9281L42.4608 17.0819C42.6916 17.1973 42.807 17.0819 42.9223 16.8512L43.73 10.1588C43.8454 9.92808 43.4993 9.81269 43.2685 9.92808ZM42.4608 16.3896C42.3454 16.2742 38.4223 14.0819 38.5377 14.1973L43.0377 10.8512L42.4608 16.3896ZM27.5762 37.1588H27.23L23.5377 39.2358C23.4223 39.2358 23.4223 39.3512 23.4223 39.4665V43.7358C23.4223 43.8512 23.4223 43.9665 23.5377 43.9665H23.8839L27.5762 41.7742C27.6916 41.7742 27.6916 41.6588 27.6916 41.5435V37.2742C27.6916 37.2742 27.6916 37.1588 27.5762 37.1588ZM23.9993 43.2742V39.6973L27.1147 37.8512V41.4281L23.9993 43.2742ZM34.1531 30.6973H33.807L30.1147 32.8896C29.9993 32.8896 29.9993 33.005 29.9993 33.1204V39.9281C29.9993 40.1588 30.23 40.2742 30.4608 40.1588L34.1531 37.9665C34.2685 37.9665 34.2685 37.8512 34.2685 37.7358V30.9281C34.2685 30.8127 34.2685 30.6973 34.1531 30.6973ZM30.6916 39.4665V33.2358L33.807 31.3896V37.505L30.6916 39.4665Z" fill="#030E17"/>
<path d="M40.8462 20.8828H40.5001L36.8078 23.0751C36.6924 23.0751 36.6924 23.1905 36.6924 23.3059V36.1136C36.6924 36.3444 36.9232 36.4597 37.1539 36.3444L40.8462 34.152C40.9616 34.152 40.9616 34.0367 40.9616 33.9213V21.1136C40.9616 21.1136 40.8462 20.9982 40.8462 20.8828ZM37.2693 35.652V23.5367L40.3847 21.6905V33.8059L37.2693 35.652Z" fill="#030E17"/>
</svg>
