<svg width="400" height="400" viewBox="0 0 400 400" fill="none" xmlns="http://www.w3.org/2000/svg">
<path d="M393.527 192.727V221.791C393.527 225.265 391.684 228.477 388.685 230.229L154.475 367.085C151.246 368.972 147.576 369.971 143.836 369.98C140.096 369.99 136.421 369.01 133.182 367.141L13.6727 298.142C11.4836 296.878 9.66577 295.06 8.40191 292.871C7.13805 290.682 6.47268 288.199 6.47266 285.671V258.709L169.5 324L393.527 192.727Z" fill="#2A315C"/>
<path d="M388.433 229.797C391.279 228.134 393.027 225.087 393.027 221.791V193.599L169.753 324.431L169.541 324.555L169.314 324.464L6.97266 259.447V285.671C6.97268 288.111 7.61495 290.508 8.83493 292.621C10.0549 294.734 11.8096 296.489 13.9227 297.709L133.432 366.708C136.594 368.533 140.183 369.49 143.835 369.48C147.486 369.471 151.07 368.496 154.223 366.653L388.433 229.797ZM388.433 229.797L388.685 230.229" stroke="#E2E9F5" stroke-opacity="0.5"/>
<path d="M390.576 197.713L154.476 335.674C151.247 337.56 147.576 338.559 143.837 338.569C140.097 338.579 136.421 337.599 133.183 335.729L10.1752 264.711C5.2416 261.862 5.23769 254.743 10.1681 251.889L243.514 116.819C247.381 114.581 251.77 113.404 256.238 113.406C260.706 113.409 265.094 114.592 268.959 116.835L390.561 187.418C394.509 189.711 394.518 195.409 390.576 197.713Z" fill="#2A315C"/>
<path d="M390.323 197.281L154.223 335.242C151.071 337.084 147.487 338.06 143.835 338.069C140.184 338.079 136.595 337.122 133.433 335.296L10.4252 264.278C5.82472 261.621 5.82107 254.983 10.4186 252.321L243.764 117.252C247.555 115.058 251.858 113.904 256.238 113.906C260.618 113.909 264.92 115.068 268.708 117.267L390.31 187.851C393.927 189.951 393.935 195.171 390.323 197.281Z" stroke="#E2E9F5" stroke-opacity="0.5"/>
<path d="M385.344 200.768L170.733 326.172L26.0967 242.666L241.727 117.852L286.306 143.589L286.622 149.693L325.644 172.223L336.16 172.372L385.344 200.768Z" fill="#2A315C"/>
<path d="M336.023 172.87L384.348 200.771L170.731 325.594L27.0957 242.666L241.727 118.429L285.821 143.886L286.123 149.719L286.137 149.99L286.372 150.126L325.394 172.656L325.507 172.721L325.637 172.723L336.023 172.87Z" stroke="#E2E9F5" stroke-opacity="0.5"/>
<path d="M79.822 316.106V325.767L61.6548 315.278V305.617L79.822 316.106Z" fill="#2A315C"/>
<path d="M62.1548 306.483L79.322 316.395V324.901L62.1548 314.989V306.483Z" stroke="#E2E9F5" stroke-opacity="0.5"/>
<path d="M177.096 159.169L176.159 158.636L176.357 159.696L182.193 190.91L150.363 144.018L150.298 143.921L150.197 143.864L99.0268 114.749C97.4882 113.874 96.2089 112.606 95.3189 111.076C94.429 109.546 93.9601 107.808 93.96 106.037V35.7273C93.96 31.7421 98.2617 29.2407 101.725 31.2119L187.222 79.8588C189.911 81.3883 192.146 83.6025 193.701 86.2761C195.255 88.9496 196.074 91.987 196.074 95.0797C196.074 95.0794 196.074 95.0799 196.074 95.0797V158.477C196.074 163.602 190.541 166.82 186.086 164.285L177.096 159.169Z" fill="#2A315C"/>
<path d="M187.222 79.8588L101.725 31.2119C98.2617 29.2407 93.96 31.7421 93.96 35.7273V106.037C93.9601 107.808 94.429 109.546 95.3189 111.076C96.2089 112.606 97.4882 113.874 99.0268 114.749L150.197 143.864L150.298 143.921L150.363 144.018L182.193 190.91L176.357 159.696L176.159 158.636L177.096 159.169L186.086 164.285C190.541 166.82 196.074 163.602 196.074 158.477V95.0797M187.222 79.8588L187.47 79.4242M187.222 79.8588C189.911 81.3883 192.146 83.6025 193.701 86.2761C195.255 88.9496 196.074 91.987 196.074 95.0797M196.074 95.0797C196.074 95.0799 196.074 95.0794 196.074 95.0797Z" stroke="#CDA229"/>
<path d="M255.299 245.495L255.024 245.336L254.707 245.365L220.408 248.544L235.907 235.86L237.027 234.944L235.774 234.22L222.431 226.516C221.196 225.802 220.17 224.776 219.457 223.541C218.744 222.305 218.368 220.904 218.368 219.478V157.922C218.368 151.665 225.142 147.755 230.559 150.884L319.975 202.518C322.051 203.717 323.775 205.441 324.974 207.517C326.173 209.593 326.804 211.948 326.804 214.346V271.524C326.804 278.307 319.461 282.546 313.587 279.154L255.299 245.495Z" fill="#2A315C"/>
<path d="M319.975 202.518L230.559 150.884C225.142 147.755 218.368 151.665 218.368 157.922V219.478C218.368 220.904 218.744 222.305 219.457 223.541C220.17 224.776 221.196 225.802 222.431 226.516L235.774 234.22L237.027 234.944L235.907 235.86L220.408 248.544L254.707 245.365L255.024 245.336L255.299 245.495L313.587 279.154C319.461 282.546 326.804 278.307 326.804 271.524V214.346C326.804 211.948 326.173 209.593 324.974 207.517C323.775 205.441 322.051 203.717 319.975 202.518ZM319.975 202.518L320.475 201.652" stroke="#405FCE" stroke-width="2"/>
<path d="M131.266 104.797C126.145 96.7524 122.415 89.49 120.029 83.185C117.641 76.8741 116.611 71.552 116.86 67.3771" fill="#2A315C"/>
<path d="M163.722 131.957L161.908 133.497C161.205 134.094 160.246 134.271 159.179 133.929C155.599 132.781 151.399 129.876 146.69 125.044C141.988 120.22 136.81 113.507 131.266 104.797C126.145 96.7524 122.415 89.49 120.029 83.185C117.641 76.8741 116.611 71.552 116.86 67.3771M163.722 131.957L164.046 132.338M163.722 131.957L167.381 128.851L167.558 128.7C167.755 128.533 167.899 128.212 167.899 127.758C167.899 127.311 167.756 126.794 167.459 126.329L157.559 110.776C157.262 110.309 156.891 110.02 156.563 109.901C156.242 109.785 155.988 109.834 155.808 109.987L151.973 113.242L151.613 113.548L151.288 113.207C142.764 104.281 136.178 93.9167 131.565 82.2222L131.433 81.8892L131.706 81.6575L135.541 78.402C135.738 78.2348 135.882 77.914 135.882 77.4596C135.882 77.013 135.74 76.4965 135.443 76.0307C135.443 76.0307 126.086 60.9553 125.543 60.4777C125 60.0001 124.945 60.0522 124.5 60.0001C123.733 59.9102 123 60.5001 123 60.5001L119.956 62.9441L118.068 64.5472C117.386 65.1259 116.936 66.1125 116.86 67.3771M116.86 67.3771L116.361 67.3473" stroke="#CDA229"/>
</svg>
