<svg width="60" height="60" viewBox="0 0 60 60" fill="none" xmlns="http://www.w3.org/2000/svg">
<path d="M9.4045 28.2331L15.3867 31.7094L12.9219 28.2493L6.93952 24.7726L9.4045 28.2331ZM23.9155 11.6323C24.192 11.484 24.4684 11.3879 24.7332 11.3488L18.8235 7.91458L18.8235 7.91456C18.507 7.73054 18.0677 7.72223 17.5642 7.94144L23.9155 11.6323Z" fill="white" stroke="#030E17" stroke-width="0.35"/>
<path d="M12.6444 27.6739C12.4579 27.0484 12.5272 26.2425 12.8195 25.4237L6.41214 21.7002C6.07354 22.6862 6.1086 23.5643 6.44901 24.0734L12.6444 27.6739ZM18.0336 15.0175L23.5649 11.8239L17.1983 8.12411L11.667 11.3175L18.0336 15.0175Z" fill="#F0F2F5" stroke="#030E17" stroke-width="0.35"/>
<path d="M12.9461 25.1008L15.7418 17.885L9.33267 14.1605L6.53694 21.3763L12.9461 25.1008Z" fill="#F0F2F5" stroke="#030E17" stroke-width="0.35"/>
<path d="M9.55672 13.802L15.8371 17.4517C16.2325 16.5611 16.8559 15.7602 17.5581 15.2439L11.3207 11.619C10.6169 12.0698 9.95543 12.8783 9.55672 13.802Z" fill="white" stroke="#405FCE" stroke-width="0.5"/>
<path d="M16.1929 17.8715L16.1926 17.8722L13.2689 25.4184L13.2689 25.4184C12.8523 26.493 12.8864 27.4384 13.2471 27.9441L13.2472 27.9442L16.2041 32.0952L16.2052 32.0967C16.3759 32.3402 16.6147 32.4732 16.9032 32.4989C17.1984 32.5253 17.5607 32.4395 17.9578 32.2102L23.8386 28.8149L23.8386 28.8149C24.6367 28.3542 25.398 27.4147 25.8101 26.3518L28.7288 18.8086L28.7289 18.8084C29.1454 17.734 29.1113 16.7885 28.7507 16.2828L28.7504 16.2824L25.7987 12.1288C25.7987 12.1288 25.7986 12.1287 25.7986 12.1287C25.6258 11.8865 25.3858 11.755 25.0963 11.7307C24.8 11.7058 24.4372 11.793 24.0397 12.0225C24.0397 12.0225 24.0397 12.0225 24.0397 12.0225L18.1591 15.4178L18.0341 15.2013L18.1591 15.4178C17.3606 15.8788 16.5996 16.8128 16.1929 17.8715Z" fill="white" stroke="#405FCE" stroke-width="0.5"/>
<path d="M29.5912 17.0191C29.7832 16.9178 29.9758 16.8467 30.1631 16.8088L25.427 14.0564C25.427 14.0564 25.4269 14.0563 25.4269 14.0563C25.193 13.9205 24.8685 13.9055 24.4906 14.055L29.5912 17.0191Z" fill="white" stroke="#030E17" stroke-width="0.35"/>
<path d="M22.53 33.3212L20.6138 30.631L15.8775 27.8787L17.7938 30.5688L22.53 33.3212Z" fill="white" stroke="#030E17" stroke-width="0.35"/>
<path d="M22.8934 22.1452L17.7303 19.1447L15.477 24.9604L20.6402 27.9609L22.8934 22.1452ZM20.5142 28.2925L15.3533 25.2933C15.094 26.0724 15.127 26.7568 15.3882 27.1541L20.3588 30.0426C20.2332 29.543 20.294 28.921 20.5142 28.2925ZM24.8006 19.765L29.2407 17.2014L24.12 14.2257L19.6799 16.7892L24.8006 19.765Z" fill="white" stroke="#030E17" stroke-width="0.35"/>
<path d="M17.8607 18.8392L23.0254 21.8406C23.3516 21.0923 23.8768 20.4204 24.4662 19.999L19.333 17.0159C18.7427 17.3884 18.1889 18.0665 17.8607 18.8392Z" fill="white" stroke="#030E17" stroke-width="0.35"/>
<path d="M23.2741 22.1596L23.2743 22.1591C23.6075 21.2919 24.231 20.5256 24.8881 20.1461L23.2741 22.1596ZM23.2741 22.1596L20.8928 28.3057L20.8928 28.3058C20.552 29.1844 20.5763 29.9663 20.8785 30.3898L20.8785 30.3899L23.2867 33.7708L23.2874 33.7718C23.4315 33.9771 23.6338 34.0897 23.8769 34.1114C24.1249 34.1335 24.4258 34.0614 24.7528 33.8726L29.5424 31.1073C30.1991 30.7281 30.8229 29.9571 31.1605 29.0867L33.5376 22.9429L33.5377 22.9428C33.8785 22.0643 33.8541 21.2824 33.552 20.859L33.5518 20.8587L31.1478 17.4756C31.1477 17.4755 31.1477 17.4755 31.1476 17.4754C31.0019 17.2711 30.7987 17.1599 30.5548 17.1394C30.3061 17.1185 30.0048 17.1919 29.6775 17.3808C29.6775 17.3808 29.6775 17.3808 29.6775 17.3809L24.8881 20.1461L23.2741 22.1596Z" fill="white" stroke="#030E17" stroke-width="0.35"/>
<path d="M23.6267 29.1909V29.1916C23.6267 30.6799 24.1549 31.6819 24.9495 32.1445L30.1452 35.1681C29.7891 34.5717 29.5924 33.7916 29.5885 32.8656V32.8652C29.5851 31.2912 30.1341 29.5586 31.0176 28.0273C31.9013 26.4959 33.1289 25.1496 34.5003 24.3579L34.5004 24.3579C35.3223 23.8837 36.1117 23.6587 36.8171 23.672L31.6285 20.6576C30.8223 20.1893 29.6701 20.2366 28.357 20.9941C27.0542 21.7481 25.8665 23.042 25.0057 24.5323C24.1448 26.0228 23.6203 27.6933 23.6267 29.1909Z" fill="white" stroke="#030E17" stroke-width="0.35"/>
<path d="M39.2625 27.2746L39.2625 27.2746C39.2583 25.7756 38.7281 24.7707 37.9236 24.3122C37.1187 23.8535 35.9769 23.9062 34.6716 24.6598C33.3675 25.4128 32.1797 26.7072 31.3188 28.1985C30.4577 29.6897 29.9329 31.3616 29.9371 32.8597C29.9414 34.3558 30.4715 35.3608 31.2762 35.8201C32.0813 36.2795 33.223 36.2279 34.5281 35.4744C35.8322 34.7215 37.0199 33.4257 37.8809 31.9338C38.7419 30.4417 39.2667 28.7698 39.2625 27.2746Z" fill="white" stroke="#030E17" stroke-width="0.35"/>
<path d="M43.1284 30.4491L45.3262 31.7264L43.1284 30.4491ZM43.1284 30.4491C43.4628 31.0926 43.5542 31.9339 43.4416 32.832C43.2911 34.0324 42.7733 35.3707 41.9282 36.5674C41.2568 37.5182 40.4734 38.2448 39.6885 38.698C39.1263 39.0226 38.5532 39.2116 38.018 39.2334L40.2217 40.5141C40.8627 40.8865 41.7562 40.7963 42.704 40.2491C43.4383 39.8252 44.1856 39.1362 44.8328 38.2197L44.9758 38.3206L44.8328 38.2197C45.6479 37.0655 46.1421 35.7808 46.2848 34.6426C46.4284 33.4975 46.2134 32.5365 45.661 31.9849L45.6607 31.9846C45.5609 31.8845 45.4486 31.7977 45.3264 31.7265L43.1284 30.4491ZM48.9965 16.4978L48.9965 16.4978L46.7925 15.2168C46.8553 15.3381 46.9106 15.4684 46.9581 15.6076L46.9582 15.6076C47.2966 16.5994 47.1798 17.8717 46.7423 19.1183C46.3282 20.2983 45.6201 21.4759 44.7035 22.403L47.5809 24.0751C48.4895 23.1784 49.1948 22.0189 49.6026 20.8566C50.0257 19.6508 50.1211 18.4648 49.8174 17.5748L49.8174 17.5748C49.6412 17.0582 49.3523 16.7045 48.9965 16.4978ZM47.3145 24.3251L44.4417 22.6557C44.0805 22.9874 43.7137 23.2586 43.3503 23.4684C42.7799 23.7977 42.2107 23.979 41.6853 23.9995L43.8866 25.2788C43.8866 25.2788 43.8866 25.2788 43.8866 25.2788C44.5081 25.64 45.3944 25.5802 46.3658 25.0194C46.6782 24.839 46.9969 24.6079 47.3145 24.3251Z" fill="#F0F2F5" stroke="#030E17" stroke-width="0.35"/>
<path d="M30.7849 42.0314L30.785 42.0312C31.3365 40.8333 31.5664 39.6567 31.4911 38.6765C31.4534 38.1849 31.3379 37.7362 31.1432 37.3598L33.3471 38.6406L33.435 38.4893L33.3471 38.6406C33.9127 38.9693 34.2627 39.6461 34.3327 40.5574C34.4025 41.4661 34.1899 42.5828 33.6577 43.7387C32.9441 45.2826 31.8311 46.521 30.7131 47.1664C29.9851 47.5867 29.2738 47.7454 28.6749 47.6008L26.1601 46.1394M30.7849 42.0314L26.16 46.1394L26.1601 46.1394M30.7849 42.0314C30.0462 43.6295 28.8878 44.9282 27.6976 45.6152C27.1876 45.9096 26.6636 46.0962 26.1601 46.1394M30.7849 42.0314L26.1601 46.1394M25.3944 45.9043C25.2426 45.8633 25.0968 45.8026 24.9607 45.7237L25.3708 45.9621L25.3944 45.9043ZM46.3278 11.3144C47.8754 10.4208 49.397 10.0439 50.7205 10.209L48.9744 9.19428C48.9744 9.19428 48.9744 9.19428 48.9744 9.19428C47.517 8.34736 45.4825 8.51024 43.3123 9.76336L43.3123 9.76338C42.8679 10.0198 42.4186 10.3219 41.9689 10.6694L44.8334 12.3341C45.3318 11.9408 45.8318 11.6009 46.3278 11.3144L46.3278 11.3144ZM21.8778 51.0139L21.7899 51.1653L21.8778 51.014L23.6295 52.032C23.0383 51.238 22.6633 50.2101 22.5083 49.0336C22.2669 47.2022 22.5546 44.992 23.403 42.6821L20.5199 41.0066C19.7029 43.2544 19.4344 45.3853 19.6647 47.1336C19.9019 48.9333 20.6636 50.3083 21.8778 51.0139ZM37.0762 12.7163C37.3076 13.1627 37.4333 13.7238 37.4351 14.3754C37.4385 15.5973 37.0123 16.9404 36.3292 18.1255C35.7009 19.2154 34.8472 20.1855 33.8889 20.8109L36.7377 22.4665C37.6989 21.8852 38.5752 20.9173 39.2165 19.8049C39.8771 18.659 40.2789 17.3761 40.2756 16.2305C40.2723 15.0958 39.872 14.3411 39.2751 13.9941C39.2751 13.9941 39.2751 13.9941 39.275 13.9941L37.0762 12.7163ZM34.1749 22.7774C34.724 23.0964 35.4908 23.0999 36.3793 22.6631L33.5465 21.0168C32.9964 21.32 32.4636 21.4799 31.9756 21.4993L34.1749 22.7774ZM24.5033 36.4696C24.7446 36.6098 25.0293 36.6896 25.3545 36.6945L22.6879 35.1449C22.5549 35.1689 22.4252 35.1834 22.299 35.1885L24.5033 36.4696ZM27.4043 26.4045C27.8078 27.1812 27.8837 28.2865 27.5846 29.5343L27.5846 29.5346C27.065 31.6857 25.5811 33.7217 23.9623 34.6563L23.9622 34.6563C23.7015 34.8068 23.4359 34.9296 23.169 35.0195L25.9391 36.6293C26.2809 36.5513 26.6304 36.4078 26.9778 36.2072C28.504 35.3261 29.9349 33.3759 30.4348 31.3067C30.8671 29.5029 30.4548 28.1773 29.6034 27.6825L27.4043 26.4045Z" fill="#F0F2F5" stroke="#030E17" stroke-width="0.35"/>
<path d="M39.2421 6.7041L39.2421 6.70409C37.8277 5.88203 35.8388 5.97859 33.5964 7.27319C31.5316 8.46526 29.6437 10.4483 28.212 12.7513C26.8023 15.019 25.8422 17.5851 25.588 19.9906L28.4478 21.6524C28.7326 19.2311 29.7031 16.6763 31.1054 14.4206C32.5597 12.0813 34.486 10.0516 36.6121 8.82413L36.6121 8.82412C38.1951 7.91028 39.6947 7.55573 40.9843 7.71655L39.2421 6.7041ZM18.15 40.0644L19.893 41.0772C18.6879 39.4669 18.3309 36.8535 19.0502 33.7587L16.1766 32.0887C15.2986 35.9849 16.195 38.9283 18.15 40.0644Z" fill="white" stroke="#030E17" stroke-width="0.35"/>
<path d="M23.9204 20.9605L23.9204 20.9605C20.5436 22.91 17.3906 27.1859 16.2609 31.726L19.1366 33.3972C20.3074 28.8122 23.4924 24.4998 26.9358 22.5116L26.9358 22.5116C27.3495 22.2727 27.7672 22.0671 28.1865 21.8985L25.3847 20.2703C24.8964 20.4479 24.4068 20.6797 23.9204 20.9605Z" fill="white" stroke="#030E17" stroke-width="0.35"/>
<path d="M19.4938 33.7287L19.4938 33.7285C20.5918 29.1592 23.7606 24.8403 27.1489 22.884L27.149 22.884C27.6569 22.5907 28.1678 22.3516 28.6764 22.1725L28.8268 22.1195L28.8421 21.9608C29.0769 19.5368 30.04 16.9373 31.4667 14.6425C32.8936 12.3473 34.7733 10.3742 36.8249 9.18963C38.8759 8.00553 40.6999 7.83837 42.053 8.44493C43.4009 9.0491 44.3554 10.4545 44.6008 12.5801L44.6527 13.0297L45.0057 12.7464C45.5196 12.3337 46.0335 11.9813 46.5406 11.6884C48.2326 10.7114 49.8352 10.4065 51.1326 10.7218C52.418 11.0342 53.4472 11.9656 53.9908 13.5617L53.9908 13.5618C54.6203 15.4076 54.4811 17.8059 53.7136 20.2694C52.9473 22.7284 51.5629 25.2252 49.7385 27.2562L49.6079 27.4015L49.7174 27.5633C50.666 28.9654 50.939 31.0781 50.5398 33.4621C50.1417 35.8392 49.0803 38.4507 47.4095 40.817L19.4938 33.7287ZM19.4938 33.7287C18.8606 36.3567 19.0321 38.5671 19.7864 40.0869C20.5332 41.5918 21.8566 42.4365 23.6079 42.361L23.9859 42.3447M19.4938 33.7287L23.9859 42.3447M23.9859 42.3447L23.8527 42.6989M23.9859 42.3447L23.8527 42.6989M23.8527 42.6989C22.8774 45.2902 22.6341 47.729 23.0379 49.612C23.4408 51.4908 24.4774 52.79 26.0566 53.1962L26.0567 53.1962M23.8527 42.6989L26.0567 53.1962M26.0567 53.1962C27.4276 53.5494 29.0438 53.1904 30.6793 52.2459L30.8043 52.4624M26.0567 53.1962L30.8043 52.4624M30.8043 52.4624L30.6794 52.2459C32.8552 50.9897 35.0176 48.7227 36.5816 45.8766L36.7116 45.6399M30.8043 52.4624L36.7116 45.6399M36.7116 45.6399L36.9376 45.7879M36.7116 45.6399L36.9376 45.7879M36.9376 45.7879C38.421 46.7592 40.5101 46.571 42.6931 45.3108M36.9376 45.7879L42.6931 45.3108M42.6931 45.3108C44.3232 44.3697 45.9778 42.8427 47.4095 40.8171L42.6931 45.3108ZM28.5466 48.0129L28.5457 48.0126C27.5853 47.7633 27.0282 46.9296 26.8666 45.8712C26.7052 44.8144 26.9258 43.4953 27.5429 42.1575C28.2873 40.5442 29.4556 39.2312 30.6612 38.5353C31.4527 38.0784 32.2881 37.8727 33.0362 38.0652L33.0362 38.0652C33.9989 38.3131 34.5573 39.1462 34.7195 40.2052C34.8814 41.2624 34.6608 42.5827 34.0437 43.9227L34.0435 43.923C33.2995 45.5328 32.1315 46.8443 30.9257 47.5405C30.1332 47.9982 29.2965 48.2045 28.5466 48.0129ZM39.5902 40.5603L39.5895 40.5596C38.9036 39.8717 38.6937 38.7492 38.8442 37.5448C38.9958 36.3308 39.5175 34.9815 40.3669 33.7769L40.3671 33.7766C41.0449 32.8182 41.8366 32.0832 42.6325 31.6236L42.6325 31.6235C43.8312 30.9316 45.1117 30.836 45.9613 31.6844L45.9614 31.6845C46.6478 32.37 46.8575 33.4917 46.7066 34.6958C46.5544 35.9095 46.0316 37.2593 45.18 38.4651C44.5034 39.4234 43.7123 40.1579 42.9166 40.6174L42.7916 40.401L42.9166 40.6175C41.7194 41.3087 40.4397 41.4051 39.5902 40.5603ZM25.9602 37.0657L25.9598 37.0658L28.191 27.3444L28.1409 27.0994C28.141 27.0994 28.1412 27.0994 28.1413 27.0993C28.6729 26.9906 29.1602 27.0283 29.5807 27.2038C30.002 27.3795 30.3404 27.6871 30.5832 28.0914C31.0651 28.8939 31.1698 30.0708 30.8483 31.4122L30.8482 31.4126C30.3243 33.581 28.8292 35.6354 27.1905 36.5815L27.1904 36.5816C26.7893 36.813 26.375 36.9808 25.9602 37.0657ZM47.7801 24.4745L47.78 24.4747C47.3842 24.8511 46.9798 25.156 46.5783 25.3879L46.5783 25.3879C45.7565 25.8623 44.9311 26.0385 44.2224 25.8663C43.5016 25.6913 42.9468 25.1667 42.6647 24.3401C42.3187 23.3267 42.439 22.0354 42.8795 20.7787C43.3218 19.5168 44.0979 18.2571 45.1084 17.2962C45.5018 16.9215 45.9043 16.618 46.304 16.3871L46.3041 16.387C47.1249 15.9133 47.9508 15.7379 48.6601 15.9105C49.3814 16.086 49.9375 16.6108 50.2198 17.4379L50.2198 17.4379C50.5657 18.4516 50.4443 19.7424 50.0038 20.9978C49.5615 22.2583 48.7865 23.5161 47.7801 24.4745ZM36.8636 22.8919L36.8636 22.8919C35.7879 23.5129 34.7552 23.6046 33.9741 23.1581C33.1926 22.7114 32.7514 21.7766 32.7479 20.5398C32.7444 19.306 33.176 17.9522 33.8645 16.7597C34.553 15.567 35.5122 14.5121 36.5893 13.8902L36.7143 14.1067L36.5893 13.8902C37.6631 13.2703 38.6946 13.1795 39.4749 13.6248C40.2558 14.0705 40.6972 15.0028 40.7007 16.2353C40.7043 17.4736 40.2729 18.8296 39.5849 20.0231C38.8969 21.2167 37.9387 22.2711 36.8636 22.8919Z" fill="white" stroke="#405FCE" stroke-width="0.5"/>
<path d="M32.8116 33.0949C32.8116 34.3686 33.2573 35.2171 33.9279 35.6042C34.5985 35.9914 35.5562 35.9532 36.6594 35.3163C37.7617 34.6799 38.7694 33.5809 39.5019 32.3121C40.2345 31.0433 40.6824 29.6211 40.6824 28.3484C40.6824 27.0747 40.2366 26.2262 39.566 25.8391C38.8954 25.4519 37.9376 25.4901 36.8344 26.127C35.7322 26.7634 34.7245 27.8624 33.992 29.1312C33.2594 30.4 32.8116 31.8222 32.8116 33.0949Z" fill="#F0F2F5" stroke="#030E17" stroke-width="0.35"/>
<path d="M36.134 33.4897L36.134 33.4897L36.1385 33.4885C36.3 33.4455 36.4746 33.3714 36.6578 33.2656C36.8481 33.1548 37.0267 33.025 37.1907 32.8782L37.1907 32.8782L37.1934 32.8758C38.1728 32.0346 38.8914 30.5928 38.8914 29.397C38.8914 28.799 38.7143 28.3851 38.4512 28.1538C38.1928 27.9267 37.8192 27.8477 37.3571 27.9843L37.3571 27.9844L37.3523 27.9856C37.1908 28.0285 37.0163 28.1027 36.8331 28.2086C36.6501 28.3143 36.4706 28.4443 36.2997 28.5963L36.2997 28.5963L36.2976 28.5982C35.3228 29.4369 34.5996 30.876 34.5996 32.077C34.5996 32.6716 34.7775 33.0851 35.0415 33.317C35.3011 33.545 35.675 33.6248 36.134 33.4897Z" fill="white" stroke="#030E17" stroke-width="0.35"/>
<path d="M36.8323 28.1812C36.6701 28.2749 36.5107 28.3876 36.3576 28.5178V33.3863C36.4542 33.3468 36.5542 33.2974 36.657 33.2381C36.825 33.1403 36.9838 33.0277 37.1316 32.9016V28.0328C37.0351 28.0723 36.9351 28.1218 36.8323 28.1812Z" fill="white" stroke="#030E17" stroke-width="0.35"/>
</svg>
