<svg width="60" height="61" viewBox="0 0 60 61" fill="none" xmlns="http://www.w3.org/2000/svg">
<path d="M48.8072 5.11719L48.6919 38.8095C48.6919 39.3864 48.3457 39.9633 47.538 40.4249C46.038 41.348 43.4995 41.348 41.9995 40.4249C41.1919 39.9633 40.8457 39.3864 40.8457 38.8095L40.9611 5.11719C40.9611 5.69411 41.3072 6.27103 42.1149 6.73257C43.6149 7.65565 46.1534 7.65565 47.6534 6.73257C48.3457 6.27103 48.8072 5.69411 48.8072 5.11719Z" fill="#F0F2F5"/>
<path d="M47.6537 3.497C49.1537 4.42007 49.1537 5.80469 47.6537 6.72776C46.1537 7.65084 43.6152 7.65084 42.1152 6.72776C40.6152 5.80469 40.6152 4.42007 42.1152 3.497C43.6152 2.57392 46.0383 2.57392 47.6537 3.497Z" fill="white"/>
<path d="M47.7691 3.27043C46.1537 2.34736 43.4999 2.34736 41.9999 3.27043C41.1922 3.73197 40.7306 4.42428 40.7306 5.11659V12.9627L41.3075 12.6166V6.38582C42.6922 7.88582 45.9229 8.0012 47.8845 6.96274C48.1152 6.84736 48.4614 6.5012 48.5768 6.38582L48.4614 38.8089C48.4614 39.2704 48.1152 39.732 47.4229 40.1935C45.9229 41.0012 43.6152 41.0012 42.2306 40.1935C41.5383 39.8474 41.1922 39.2704 41.1922 38.8089V31.8858L40.6152 32.232V38.8089C40.6152 39.5012 41.0768 40.1935 41.8845 40.6551C43.4998 41.5781 46.1537 41.5781 47.6537 40.6551C48.4614 40.1935 48.9229 39.5012 48.9229 38.8089L49.0383 5.11659C49.0383 4.42428 48.5768 3.73197 47.7691 3.27043ZM47.5383 6.38582C45.346 7.65505 41.8845 6.84736 41.3075 5.34736C41.0768 4.65505 41.5383 3.96274 42.2306 3.61659C43.7306 2.80889 46.0383 2.80889 47.4229 3.61659C48.8075 4.53966 48.8075 5.69351 47.5383 6.38582ZM41.1922 19.7704L40.6152 20.1166V25.1935L41.1922 24.8474V19.7704Z" fill="#405FCE"/>
<path d="M35.4232 16.0743L42.2309 12.0358C42.5771 11.8051 43.154 11.8051 43.7309 12.1512C44.8848 12.8435 45.9232 14.5743 45.9232 15.9589C45.9232 16.6512 45.6925 17.1128 45.3463 17.3435L15.0002 35.1128C15.3463 34.882 15.5771 34.4204 15.5771 33.7281C15.5771 32.3435 14.654 30.6128 13.3848 29.9204C12.8078 29.5743 12.2309 29.5743 11.8848 29.8051L30.4617 18.9589" fill="white"/>
<path d="M19.1533 25.8875L30.5764 19.1952C30.6918 19.0798 30.8072 18.9644 30.6918 18.849C30.5764 18.7336 30.461 18.6183 30.3456 18.7336L19.1533 25.3106V25.8875ZM43.961 11.926C43.2687 11.5798 42.6918 11.4644 42.1149 11.8106L35.3072 15.849C35.1918 15.9644 35.0764 16.0798 35.1918 16.1952C35.3072 16.3106 35.4226 16.426 35.5379 16.3106L42.3456 12.2721C42.6918 12.0413 43.1533 12.1567 43.6149 12.3875C44.7687 13.0798 45.6918 14.5798 45.6918 15.849C45.6918 16.426 45.461 16.7721 45.2302 17.0029L19.1533 32.349V33.0413L45.461 17.5798C45.9226 17.2336 46.2687 16.6567 46.2687 15.9644C46.2687 14.4644 45.2302 12.6183 43.961 11.926Z" fill="#030E17"/>
<path d="M27.3463 40.0761L15.0002 47.3453C15.3463 47.1146 15.5771 46.653 15.5771 45.9607C15.5771 44.5761 14.654 42.8453 13.3848 42.153C12.8078 41.8069 12.2309 41.8069 11.8848 42.0376L42.3463 24.153C42.6925 23.9223 43.2694 23.9223 43.8463 24.2684C45.0002 24.9607 46.0386 26.6915 46.0386 28.0761C46.0386 28.7684 45.8078 29.2299 45.4617 29.4607L32.5386 36.9607" fill="white"/>
<path d="M27.2302 39.7276L19.1533 44.4584V45.1507L27.461 40.3046C27.5764 40.1892 27.6918 40.0738 27.5764 39.9584C27.461 39.7276 27.3456 39.7276 27.2302 39.7276ZM43.961 24.0353C43.2687 23.6892 42.6918 23.5738 42.1149 23.9199L19.1533 37.4199V38.1123L42.461 24.4969C42.8072 24.2661 43.2687 24.3815 43.7302 24.6123C44.8841 25.3046 45.8072 26.8046 45.8072 28.0738C45.8072 28.6507 45.5764 28.9969 45.3456 29.2276L32.3072 36.7276C32.1918 36.843 32.0764 36.9584 32.1918 37.0738C32.3072 37.1892 32.4226 37.3046 32.5379 37.1892L45.461 29.6892C45.9226 29.343 46.2687 28.7661 46.2687 28.0738C46.2687 26.5738 45.2302 24.843 43.961 24.0353Z" fill="#030E17"/>
<path d="M11.3068 43.655V22.0781C11.3068 22.655 11.6529 23.232 12.4606 23.6935C13.9606 24.6166 16.4991 24.6166 17.9991 23.6935C18.8068 23.232 19.1529 22.655 19.1529 22.0781L19.0376 55.8858C19.0376 56.4627 18.6914 57.0397 17.8837 57.5012C16.3837 58.4243 13.8453 58.4243 12.3453 57.5012C11.5376 57.0397 11.1914 56.4627 11.1914 55.8858V50.1166" fill="#F0F2F5"/>
<path d="M17.9994 20.5751C19.4994 21.4982 19.4994 22.8828 17.9994 23.8059C16.4994 24.729 13.9609 24.729 12.4609 23.8059C10.9609 22.8828 10.9609 21.4982 12.4609 20.5751C13.9609 19.652 16.4994 19.652 17.9994 20.5751Z" fill="white"/>
<path d="M18.1148 20.3486C16.4994 19.4255 13.8456 19.4255 12.3456 20.3486C11.5379 20.8101 11.0763 21.5024 11.0763 22.1947V43.7716C11.0763 43.887 11.1917 44.1178 11.3071 44.1178C11.4225 44.1178 11.5379 44.0024 11.6532 43.887V23.6947C11.7686 23.8101 12.1148 24.0409 12.3456 24.2716C13.8456 25.1947 16.4994 25.1947 18.2302 24.2716C18.4609 24.1562 18.8071 23.8101 18.9225 23.6947L18.8071 55.887C18.8071 56.3486 18.4609 56.8101 17.7686 57.2716C16.2686 58.0793 13.9609 58.0793 12.4609 57.2716C11.884 56.9255 11.5379 56.4639 11.5379 55.887V50.1178C11.5379 50.0024 11.4225 49.7716 11.3071 49.7716C11.1917 49.7716 11.0763 49.887 10.9609 50.0024V55.7716C10.9609 56.4639 11.4225 57.1562 12.2302 57.6178C13.8456 58.5409 16.4994 58.5409 18.1148 57.6178C18.9225 57.1562 19.384 56.4639 19.384 55.7716L19.4994 22.0793C19.384 21.5024 18.9225 20.8101 18.1148 20.3486ZM12.5763 20.8101C13.9609 20.0024 16.384 20.0024 17.7686 20.8101C19.1532 21.6178 19.0379 22.7716 17.7686 23.4639C16.2686 24.2716 13.9609 24.2716 12.4609 23.4639C11.3071 22.7716 11.1917 21.6178 12.5763 20.8101Z" fill="#405FCE"/>
</svg>
