<svg width="60" height="60" viewBox="0 0 60 60" fill="none" xmlns="http://www.w3.org/2000/svg">
<path d="M56.4141 28.5457L50.625 31.4285L43.125 17.0848L48.9844 14.1551C49.4198 13.9331 49.9254 13.8923 50.3908 14.0416C50.8562 14.1909 51.2437 14.5181 51.4688 14.952L57.2344 25.991C57.3513 26.212 57.4228 26.4541 57.4448 26.7032C57.4668 26.9522 57.4387 27.2031 57.3623 27.4411C57.2858 27.6792 57.1626 27.8995 56.9997 28.0892C56.8369 28.2789 56.6378 28.4341 56.4141 28.5457V28.5457Z" stroke="white" stroke-width="2" stroke-linecap="round" stroke-linejoin="round"/>
<path d="M9.3746 31.1971L3.58554 28.2909C3.36264 28.1816 3.16398 28.0287 3.00137 27.8411C2.83877 27.6536 2.71554 27.4352 2.63901 27.1991C2.56249 26.9629 2.53422 26.7138 2.5559 26.4665C2.57759 26.2192 2.64877 25.9788 2.76523 25.7596L8.53085 14.7206C8.7564 14.287 9.14228 13.9587 9.60632 13.8055C10.0704 13.6523 10.5759 13.6863 11.0152 13.9002L16.8746 16.8299L9.3746 31.1971Z" stroke="white" stroke-width="2" stroke-linecap="round" stroke-linejoin="round"/>
<path d="M50.625 31.4297L46.875 35.8359L38.25 44.4609C38.0149 44.6808 37.7301 44.8403 37.4199 44.9261C37.1097 45.0118 36.7833 45.0211 36.4688 44.9531L22.875 41.5547C22.6267 41.4855 22.3953 41.3658 22.1953 41.2031L9.375 31.1953" stroke="white" stroke-width="2" stroke-linecap="round" stroke-linejoin="round"/>
<path d="M46.8745 35.8359L36.562 28.3359L33.562 30.5859C32.2622 31.556 30.6838 32.0801 29.062 32.0801C27.4401 32.0801 25.8617 31.556 24.562 30.5859L23.2964 29.625C23.0823 29.4623 22.9053 29.256 22.777 29.0197C22.6487 28.7835 22.572 28.5227 22.5521 28.2546C22.5322 27.9864 22.5694 27.7172 22.6613 27.4645C22.7533 27.2119 22.8978 26.9817 23.0854 26.7891L32.2729 17.625C32.4455 17.4533 32.6503 17.3173 32.8755 17.2248C33.1007 17.1323 33.3419 17.0851 33.5854 17.0859H43.1245" stroke="white" stroke-width="2" stroke-linecap="round" stroke-linejoin="round"/>
<path d="M17.0156 16.8305L29.0391 13.3148C29.4663 13.1923 29.9231 13.2255 30.3281 13.4086L38.4375 17.0883" stroke="white" stroke-width="2" stroke-linecap="round" stroke-linejoin="round"/>
<path d="M26.25 49.8984L19.1953 48.1172C18.9078 48.0522 18.6416 47.9151 18.4219 47.7188L13.125 43.125" stroke="white" stroke-width="2" stroke-linecap="round" stroke-linejoin="round"/>
</svg>
