<svg width="100" height="100" viewBox="0 0 100 100" fill="none" xmlns="http://www.w3.org/2000/svg">
<path d="M11.7307 19.6055C13.4615 17.6825 15.3845 15.9517 17.3076 14.7979C24.8076 10.5671 30.7692 14.0286 30.9615 22.4902C30.9615 31.144 24.9999 41.5286 17.4999 45.7594C9.99993 49.9902 4.03839 46.5286 3.84608 38.0671C3.46147 32.2979 6.7307 23.2594 11.7307 19.6055Z" fill="black" fill-opacity="0.1"/>
<path d="M95.9614 76.9237C95.1922 78.8468 92.1152 79.2314 90.9614 77.5006C92.3075 79.0391 92.1152 81.7314 90.5768 83.2698C89.0383 84.8083 86.7306 85.1929 84.6152 84.616C82.4999 84.2314 80.5768 83.0775 78.846 81.9237C79.8075 85.0006 77.3075 88.6545 74.2306 88.8468C72.8845 88.8468 71.346 88.4622 69.9999 87.8852C62.6922 85.1929 55.3845 82.5006 48.0768 79.616C47.3075 80.7698 45.7691 80.9621 44.2306 80.7698C43.0768 80.7698 39.8075 79.8083 38.6537 79.4237C38.2691 79.4237 35.3845 78.0775 34.0383 77.5006C26.5383 73.8468 20.1922 67.6929 16.1537 60.3852C15.3845 58.8468 14.6152 56.9237 14.4229 55.1929C14.0383 52.3083 15.1922 49.2314 14.4229 46.5391C14.2306 45.7698 13.846 45.1929 13.4614 44.4237C12.6922 43.2698 11.7306 42.116 10.9614 40.9621C10.5768 40.3852 10.1922 39.8083 9.99985 39.2314C9.80754 38.6544 9.61523 38.4621 9.61523 38.0775V37.5006C9.80754 31.1544 14.2306 23.6544 19.8075 20.3852C21.346 19.616 22.6922 19.0391 24.0383 19.0391H24.6152C26.5383 19.2314 28.2691 19.8083 29.9999 20.5775C35.3845 22.6929 40.5768 24.8083 45.3845 27.8852C53.4614 33.0775 59.6152 40.7698 67.4999 46.1544C74.0383 50.5775 81.7306 53.4621 87.6922 58.8468C89.2306 60.1929 90.7691 62.116 90.7691 64.0391C90.7691 65.7698 88.846 67.3083 87.3076 67.116C89.8076 68.4621 92.3075 70.1929 94.2306 72.116C95.3845 73.4621 96.5383 75.1929 95.9614 76.9237Z" fill="#2A315C"/>
<path d="M87.3082 67.113C87.3082 67.113 83.6544 62.6899 66.539 56.3438L87.3082 67.113ZM44.2313 80.7668C43.8467 80.7668 43.6544 80.7668 43.2698 80.5745C40.0005 79.8053 36.9236 78.8438 33.8467 77.3053C34.039 76.9207 34.6159 75.5745 35.1928 74.9976C35.3851 74.8053 35.7698 74.613 36.1544 74.4207C38.4621 73.4591 43.4621 74.613 44.2313 76.9207V80.7668Z" fill="#2A315C"/>
<path d="M88.8465 67.3054C90.0003 66.9208 91.1541 65.5746 91.1541 64.0361C91.1541 61.5361 89.4234 59.6131 87.8849 58.4592C85.9618 56.7284 83.8465 55.3823 81.7311 54.0361C81.5388 54.2284 81.3465 54.6131 81.1541 54.8054C83.2695 56.1515 85.3849 57.4977 87.308 59.2284C89.6157 61.3438 91.3465 64.2284 89.0388 66.1515C88.4618 66.5361 87.8849 66.7284 87.5003 66.7284C84.808 64.2284 80.5772 61.9208 76.1541 59.8054C75.9618 59.9977 75.5772 60.19 75.3849 60.3823C84.808 64.6131 86.9234 67.3054 87.1157 67.4977C89.6157 68.8438 91.9234 70.3823 93.8465 72.4977C98.2695 77.3054 93.4618 79.2284 91.7311 77.4977C91.7311 77.3054 91.5388 77.1131 91.3465 77.1131C87.5003 72.4977 76.7311 67.4977 68.6541 64.2284C68.0772 64.4208 67.6926 64.6131 67.1157 64.6131C85.7695 71.9207 90.1926 77.3054 90.5772 77.69C90.7695 77.8823 90.7695 78.0746 90.9618 78.0746C91.9234 79.6131 91.3465 81.7284 90.1926 82.8823C88.8465 84.2284 86.7311 84.6131 84.6157 84.2284C82.6926 83.8438 81.1541 82.8823 79.2311 81.5361C78.8465 80.7669 73.6541 73.8438 53.8465 66.3438C53.6541 66.3438 53.2695 66.3438 53.2695 66.7284C53.0772 66.9208 53.2695 67.3054 53.4618 67.3054C72.308 74.2284 77.6926 80.9592 78.4618 81.9207C79.4234 84.6131 76.9234 87.8823 74.2311 88.0746C72.5003 88.0746 72.6926 88.0746 48.6541 79.0361C49.0388 77.3054 48.8465 75.5746 48.2695 73.4592C47.6926 71.7284 46.5388 69.9977 45.0003 68.4592C43.0772 66.3438 40.3849 64.8054 37.6926 63.4592C37.5003 63.2669 34.6157 62.4977 33.2695 59.2284C33.0772 59.0361 32.8849 58.8438 32.6926 59.0361C32.5003 59.2284 32.308 59.4207 32.5003 59.6131C34.0388 63.0746 37.1157 64.0361 37.5003 64.2284C41.7311 66.3438 45.7695 69.0361 47.5003 73.6515C48.0772 75.5746 48.2695 77.4977 47.8849 79.0361C47.308 79.8054 46.1541 79.9977 45.0003 79.9977V77.69C44.808 75.5746 43.6541 74.6131 41.5388 73.8438C38.2695 72.69 35.0003 73.0746 34.0388 76.3438C26.7311 72.69 20.5772 66.7284 16.9234 59.6131C12.6926 51.5361 17.6926 49.8054 14.0388 43.6515C12.6926 41.3438 10.3849 39.0361 10.3849 37.1131C10.5772 30.9592 15.0003 23.6515 20.1926 20.3823C21.7311 19.6131 23.2695 19.0361 24.808 19.2284C25.1926 19.4207 25.1926 18.6515 31.7311 21.3438C36.3465 23.2669 41.1541 25.19 45.5772 28.0746C46.9234 28.8438 48.0772 29.8054 49.2311 30.5746C49.4234 30.3823 49.4234 29.9977 49.6157 29.6131C48.4618 28.6515 47.308 27.8823 46.1541 27.1131C41.5388 24.2284 36.5388 22.1131 31.7311 20.19C30.9618 17.3054 29.4234 14.8054 27.1157 13.4592C24.4234 11.9207 20.7695 12.3054 17.1157 14.4207C15.0003 15.5746 13.0772 17.1131 11.3465 19.2284C11.1541 19.4207 11.1541 19.8054 11.3465 19.8054C11.5388 19.9977 11.9234 19.9977 12.1157 19.8054C13.8465 17.8823 15.7695 16.3438 17.6926 15.19C21.1541 13.2669 24.4234 12.8823 26.7311 14.2284C28.6541 15.3823 29.808 17.4977 30.1926 20.19H30.0003C25.5772 18.4592 23.2695 17.69 19.2311 19.9977C13.6541 23.2669 9.03876 30.9592 8.84645 37.4977C8.84645 39.9977 11.1541 42.3054 12.6926 44.6131C13.4618 45.5746 13.6541 46.1515 13.8465 46.9207C11.7311 47.4977 9.61568 47.3054 8.07722 46.3438C5.57722 44.9977 4.42338 42.1131 4.42338 38.0746C4.42338 37.8823 4.23107 37.4977 3.84645 37.4977C3.65415 37.4977 3.26953 37.69 3.26953 38.0746C3.26953 42.3054 4.80799 45.5746 7.5003 47.1131C8.65415 47.69 9.80799 48.0746 11.1541 48.0746C11.9234 48.0746 12.8849 47.8823 13.8465 47.69C14.2311 52.1131 12.1157 53.8438 15.5772 60.19C19.4234 67.69 25.9618 73.8438 33.6541 77.4977C38.4618 79.8054 43.2695 80.9592 44.2311 80.9592C45.9618 81.1515 47.308 80.7669 48.0772 79.9977C77.8849 91.3438 70.7695 88.4592 74.0388 89.0361C77.1157 88.8438 79.6157 85.7669 79.4234 82.69C81.1541 83.8438 82.6926 84.6131 84.4234 84.9977C89.4234 85.9592 93.0772 82.69 92.308 78.8438C94.0388 79.2284 95.9618 78.6515 96.5388 76.9207C97.6926 73.4592 91.9234 69.2284 88.8465 67.3054ZM43.6541 80.19C43.2695 80.19 41.7311 79.8054 40.5772 79.4207C40.1926 79.4207 36.5388 78.0746 34.6157 77.1131C35.1926 75.9592 35.3849 75.3823 36.3465 74.9977C38.4618 74.0361 43.0772 75.19 43.6541 77.3054V80.19Z" fill="white"/>
<path d="M72.3082 18.6514L63.8467 13.8438V35.7668L72.3082 40.5745V18.6514Z" fill="#2A315C"/>
<path d="M85.7698 48.2758L75.1929 42.122L61.5391 34.4297L72.3083 40.5835L85.7698 48.2758Z" fill="#2A315C"/>
<path d="M72.3086 40.5733L63.8471 35.7656L44.8086 46.7272L53.2701 51.7272L72.3086 40.5733Z" fill="#2A315C"/>
<path d="M72.308 40.5703L53.2695 51.5318C53.2695 63.6472 61.9234 68.4549 72.308 62.4934C77.5003 59.4165 82.308 54.2242 85.7695 48.2626L72.308 40.5703Z" fill="black" fill-opacity="0.1"/>
<path d="M50.3855 59.0351L58.8471 63.8428C55.3855 61.9197 53.2701 57.689 53.2701 51.5351L44.8086 46.7274C44.8086 52.689 46.924 56.9197 50.3855 59.0351ZM85.7701 17.3044L77.3086 12.4967C73.8471 10.5736 69.0394 10.7659 63.8471 13.8428L72.3086 18.6505C77.5009 15.5736 82.3086 15.3813 85.7701 17.3044Z" fill="#2A315C"/>
<path d="M72.3086 18.6633V40.5863L85.7701 48.2786C89.2317 42.3171 91.3471 35.5863 91.3471 29.6248C91.3471 17.5094 82.6932 12.7017 72.3086 18.6633Z" fill="#2A315C"/>
<path d="M72.3086 18.6514L63.8471 13.8438C53.2701 19.9976 44.8086 34.613 44.8086 46.7284L53.2701 51.5361C53.2701 39.613 61.7317 24.8053 72.3086 18.6514Z" fill="black" fill-opacity="0.1"/>
<path d="M72.308 18.6562C61.7311 24.8101 53.2695 39.4255 53.2695 51.5409L72.308 40.5793V18.6562Z" fill="#2A315C"/>
<path d="M85.9623 16.9233C85.1931 16.3464 89.0392 18.6541 77.5007 12.1156C71.3469 8.65407 63.6546 12.5002 58.27 17.1156C58.0777 17.3079 58.0777 17.6925 58.27 17.8848C58.4623 18.0771 58.8469 18.0771 58.8469 17.8848C60.5777 16.3464 61.9238 15.3848 63.6546 14.4233C63.8469 14.6156 71.5392 19.0387 71.1546 18.8464C66.3469 21.731 60.1931 28.0771 56.5392 36.1541C54.6161 40.0002 52.8854 45.3848 52.6931 50.9618C52.5007 50.7695 44.8084 46.3464 45.1931 46.731C45.1931 40.3848 47.8854 31.5387 53.6546 24.0387C53.8469 23.8464 53.8469 23.4618 53.6546 23.4618C53.4623 23.2695 53.0777 23.2695 53.0777 23.4618C47.6931 30.7695 44.4238 39.6156 44.4238 47.1156C44.4238 53.0772 46.5392 57.6925 50.1931 59.8079L58.6546 64.6156H58.8469C63.0777 67.1156 68.4623 65.7695 72.8854 63.2695C78.0777 60.1925 82.8854 55.1925 86.5392 48.8464C90.1931 42.5002 92.1161 35.7695 92.1161 30.0002C91.7315 23.6541 89.8084 19.231 85.9623 16.9233ZM85.5777 17.8848C89.0392 20.0002 90.9623 24.0387 90.9623 29.8079C90.9623 35.3848 89.0392 41.9233 85.77 47.8848C85.5777 47.6925 72.1161 40.0002 72.8854 40.3848V19.231C76.5392 16.731 81.7315 15.5771 85.5777 17.8848ZM64.8084 13.8464C69.4238 11.3464 73.8469 10.9618 77.1161 12.8848L81.7315 15.5771C78.4623 15.1925 75.0007 16.5387 72.1161 18.0771L64.8084 13.8464ZM57.5007 36.3464C60.1931 30.3848 65.5777 23.2695 71.7315 19.6156V40.3848C49.0392 53.4618 54.4238 50.3848 53.6546 50.7695C54.0392 45.5772 55.3854 40.5771 57.5007 36.3464ZM50.5777 58.6541C47.3084 56.731 45.3854 52.8848 45.1931 47.6925L52.5007 51.9233C52.5007 52.8848 52.5007 53.8464 52.6931 54.6156C53.0777 57.5002 54.0392 59.8079 55.1931 61.3464L50.5777 58.6541ZM72.1161 62.1156C67.1161 65.0002 62.5007 65.3848 59.0392 63.4618C55.9623 61.731 54.2315 58.0772 54.0392 54.8079C53.8469 53.8464 53.8469 52.8848 53.8469 51.9233L72.5007 41.1541L85.3854 48.4618C81.7315 54.4233 77.1161 59.231 72.1161 62.1156Z" fill="#CDA229"/>
</svg>
