<svg width="140" height="60" viewBox="0 0 140 60" fill="none" xmlns="http://www.w3.org/2000/svg">
<path d="M60.8692 10.1134H63.8572V33.6785H66.3081V7.66406H58.4199V39.1174H78.0899V36.668H60.8692V10.1134Z" fill="#1D1D1B"/>
<path d="M103.058 10.1134V7.66406H82.707V39.1174H103.058V31.2292H90.459V22.033H103.058V19.5821H88.1443V33.6785H100.607V36.668H85.1564V10.1134H103.058Z" fill="#1D1D1B"/>
<path d="M127.905 39.1174H138.697L113.369 10.0156L113.964 10.1631L117.663 10.1583L117.703 10.2048L126.8 20.6929L137.93 7.66406H134.748L126.757 16.9789L118.673 7.66406H108.106L133.515 37.2227L132.608 36.6216H128.916L128.876 36.5751L119.778 26.0885L108.648 39.1174H111.83L119.822 29.801L127.905 39.1174Z" fill="#1D1D1B"/>
<path d="M71.3093 43.4406C70.0302 42.7433 68.6115 42.3906 67.0903 42.3906C64.6426 42.3906 62.5604 43.2322 60.8997 44.8929C59.2551 46.5391 58.4199 48.5813 58.4199 50.9649C58.4199 53.3485 59.2535 55.4131 60.8997 57.0593C62.5604 58.704 64.6923 59.5391 67.2346 59.5391C69.7769 59.5391 71.6203 58.8178 73.0918 57.3943C73.1303 57.3575 73.1656 57.319 73.2008 57.2789C73.2297 57.2469 73.2585 57.2148 73.289 57.1828L73.5198 56.9455V59.2265H75.3296V50.811H67.2009V53.0135H72.8466L72.8113 53.177C72.5484 54.3888 71.9265 55.3602 70.9599 56.0639C69.9981 56.7644 68.7526 57.1218 67.2587 57.1218C65.3912 57.1218 63.8427 56.5352 62.6549 55.381C61.4976 54.2237 60.9093 52.7474 60.9093 50.9905C60.9093 49.2337 61.496 47.7654 62.6517 46.5776C63.8091 45.4042 65.3014 44.8095 67.0903 44.8095C68.1948 44.8095 69.2095 45.058 70.1055 45.5453C70.9615 46.0117 71.6267 46.6433 72.082 47.4223L74.2219 46.1912C73.5214 45.0419 72.542 44.117 71.3093 43.4422V43.4406Z" fill="#1D1D1B"/>
<path d="M87.6308 59.2202H90.343L86.568 52.7635L86.7123 52.7042C87.674 52.3163 88.4659 51.6831 89.0638 50.8191C89.6601 49.9599 89.9631 48.9966 89.9631 47.9578C89.9631 46.4847 89.4437 45.2344 88.4194 44.2406C87.4079 43.2131 86.156 42.6953 84.6989 42.6953H78.1172V59.2202H80.6066V53.1033H84.0818L87.6324 59.2202H87.6308ZM80.605 45.018H84.6989C85.47 45.018 86.132 45.3065 86.6674 45.8772C87.2012 46.4446 87.4721 47.1451 87.4721 47.9594C87.4721 48.7737 87.2012 49.4758 86.6674 50.0433C86.132 50.6123 85.47 50.9009 84.6989 50.9009H80.605V45.018Z" fill="#1D1D1B"/>
<path d="M100.438 42.3906C98.0545 42.3906 96.0044 43.2322 94.3421 44.8929C92.6974 46.5391 91.8623 48.5813 91.8623 50.9649C91.8623 53.3485 92.6958 55.3987 94.3421 57.0593C96.0027 58.704 98.0529 59.5391 100.437 59.5391C102.82 59.5391 104.862 58.7056 106.507 57.0593C108.168 55.3971 109.011 53.3469 109.011 50.9649C109.011 48.5829 108.169 46.5407 106.507 44.8945C104.862 43.2322 102.819 42.3906 100.437 42.3906H100.438ZM104.755 55.3778C103.598 56.5352 102.145 57.1202 100.438 57.1202C98.731 57.1202 97.2851 56.5336 96.0973 55.3794C94.9384 54.1884 94.3517 52.7041 94.3517 50.9649C94.3517 49.2257 94.9384 47.7333 96.0957 46.576C97.2659 45.4042 98.7278 44.8079 100.437 44.8079C102.145 44.8079 103.598 45.4026 104.755 46.576C105.927 47.7317 106.521 49.208 106.521 50.9649C106.521 52.7217 105.927 54.2061 104.753 55.3778H104.755Z" fill="#1D1D1B"/>
<path d="M117.711 59.5328C119.554 59.5328 121.066 59.0119 122.204 57.9844C123.352 56.9296 123.934 55.5174 123.934 53.7894V42.6953H121.444V53.6211C121.444 54.6935 121.119 55.5527 120.479 56.1778C119.841 56.7998 118.91 57.1156 117.711 57.1156C116.512 57.1156 115.581 56.7998 114.943 56.1778C114.303 55.5543 113.978 54.6951 113.978 53.6211V42.6953H111.488V53.7894C111.488 55.5174 112.07 56.9296 113.219 57.986C114.356 59.0119 115.866 59.5328 117.711 59.5328Z" fill="#1D1D1B"/>
<path d="M137.29 51.9188C138.331 50.8784 138.858 49.5864 138.858 48.0797C138.858 46.5729 138.331 45.2665 137.29 44.2406C136.266 43.2163 134.964 42.6953 133.425 42.6953H127.371V59.2202H129.86V53.4624H133.425C134.966 53.4624 136.266 52.9431 137.29 51.9188ZM129.86 45.018H133.425C134.277 45.018 134.987 45.3114 135.54 45.8884C136.09 46.4623 136.369 47.1996 136.369 48.0797C136.369 48.9597 136.09 49.6971 135.54 50.2725C134.988 50.8496 134.278 51.1413 133.425 51.1413H129.86V45.018Z" fill="#1D1D1B"/>
<path d="M1.92285 18.125C2.5961 21.1642 5.3035 23.4388 8.54468 23.4388C11.7859 23.4388 14.4933 21.1642 15.1665 18.125H1.92285Z" fill="#1D1D1B"/>
<path d="M36.8223 18.125C37.4955 21.1642 40.2029 23.4388 43.4441 23.4388C46.6853 23.4388 49.3927 21.1642 50.0659 18.125H36.8223Z" fill="#1D1D1B"/>
<path d="M46.5358 57.4922H5.45508V59.2154H46.5358V57.4922Z" fill="#1D1D1B"/>
<path d="M43.1842 5.83287C41.9836 5.83287 40.9593 6.59588 40.565 7.66185H26.9622V6.31376H36.1071L32.6944 1.25H19.2985L15.8858 6.31376H25.0307V7.66185H11.2869C10.8925 6.59588 9.86825 5.83287 8.66764 5.83287C7.12559 5.83287 5.87207 7.08638 5.87207 8.62843C5.87207 9.82905 6.63508 10.8533 7.69945 11.2477V15.853H9.63422V11.2477C10.3972 10.9639 11.0031 10.3596 11.2869 9.59502H25.0307V54.2776H22.9484V10.7684H14.7861V12.7016H21.0153V54.276H10.7082V56.2091H41.2895V54.276H30.9825V12.7016H37.2116V10.7684H29.0493V54.2776H26.967V9.59502H40.5698C40.8535 10.358 41.4578 10.9639 42.2224 11.2477V15.853H44.1572V11.2477C45.2232 10.8533 45.9846 9.82905 45.9846 8.62843C45.9846 7.08638 44.7311 5.83287 43.189 5.83287H43.1842ZM26.9622 3.18478H31.6637L32.47 4.38058H26.9622V3.18478ZM8.66443 9.59502C8.13225 9.59502 7.69784 9.16222 7.69784 8.62843C7.69784 8.09464 8.13064 7.66185 8.66443 7.66185C9.19822 7.66185 9.63102 8.09464 9.63102 8.62843C9.63102 9.16222 9.19822 9.59502 8.66443 9.59502ZM25.0275 4.38058H19.5197L20.326 3.18478H25.0275V4.38058ZM43.1842 9.59502C42.652 9.59502 42.2176 9.16222 42.2176 8.62843C42.2176 8.09464 42.6504 7.66185 43.1842 7.66185C43.718 7.66185 44.1508 8.09464 44.1508 8.62843C44.1508 9.16222 43.718 9.59502 43.1842 9.59502Z" fill="#1D1D1B"/>
</svg>
