<svg width="186" height="100" viewBox="0 0 186 100" fill="none" xmlns="http://www.w3.org/2000/svg">
<path d="M80.8693 12.7932H84.839V44.1011H88.0952V9.53906H77.6152V51.327H103.748V48.0729H80.8693V12.7932Z" fill="white"/>
<path d="M136.921 12.7932V9.53906H109.883V51.327H136.921V40.847H120.182V28.6292H136.921V25.373H117.107V44.1011H133.665V48.0729H113.137V12.7932H136.921Z" fill="white"/>
<path d="M169.93 51.327H184.269L150.619 12.6633L151.409 12.8592L156.324 12.8528L156.377 12.9146L168.463 26.8488L183.249 9.53906H179.022L168.405 21.9145L157.666 9.53906H143.627L177.384 48.8098L176.179 48.0112H171.274L171.221 47.9494L159.133 34.0172L144.347 51.327H148.574L159.193 38.9495L169.93 51.327Z" fill="white"/>
<path d="M94.7397 57.059C93.0403 56.1326 91.1555 55.6641 89.1345 55.6641C85.8825 55.6641 83.1161 56.7821 80.9098 58.9885C78.7248 61.1756 77.6152 63.8888 77.6152 67.0556C77.6152 70.2223 78.7226 72.9653 80.9098 75.1525C83.1161 77.3375 85.9485 78.4471 89.3262 78.4471C92.7038 78.4471 95.1529 77.4887 97.1079 75.5976C97.159 75.5486 97.2059 75.4975 97.2527 75.4442C97.2911 75.4016 97.3294 75.3591 97.3699 75.3165L97.6765 75.0013V78.0318H100.081V66.8511H89.2814V69.7772H96.7821L96.7352 69.9945C96.386 71.6045 95.5597 72.895 94.2755 73.83C92.9977 74.7606 91.343 75.2355 89.3581 75.2355C86.8771 75.2355 84.8198 74.4561 83.2418 72.9227C81.7042 71.3851 80.9226 69.4237 80.9226 67.0896C80.9226 64.7555 81.702 62.8048 83.2375 61.2267C84.7751 59.6678 86.7578 58.8777 89.1345 58.8777C90.6018 58.8777 91.9499 59.2078 93.1404 59.8552C94.2776 60.4749 95.1614 61.314 95.7662 62.349L98.6093 60.7135C97.6787 59.1865 96.3774 57.9577 94.7397 57.0611V57.059Z" fill="white"/>
<path d="M116.425 78.0249H120.028L115.013 69.4466L115.204 69.3678C116.482 68.8525 117.534 68.0113 118.329 66.8634C119.121 65.7219 119.523 64.442 119.523 63.062C119.523 61.1048 118.833 59.4437 117.472 58.1233C116.129 56.7582 114.465 56.0703 112.529 56.0703H103.785V78.0249H107.092V69.8981H111.71L116.427 78.0249H116.425ZM107.09 59.1562H112.529C113.554 59.1562 114.433 59.5395 115.145 60.2977C115.854 61.0516 116.214 61.9822 116.214 63.0641C116.214 64.1459 115.854 65.0787 115.145 65.8326C114.433 66.5887 113.554 66.972 112.529 66.972H107.09V59.1562Z" fill="white"/>
<path d="M133.44 55.6641C130.273 55.6641 127.549 56.7821 125.34 58.9885C123.155 61.1756 122.046 63.8888 122.046 67.0556C122.046 70.2224 123.153 72.9462 125.34 75.1525C127.547 77.3375 130.271 78.4471 133.437 78.4471C136.604 78.4471 139.317 77.3396 141.502 75.1525C143.709 72.944 144.829 70.2202 144.829 67.0556C144.829 63.8909 143.711 61.1777 141.502 58.9906C139.317 56.7821 136.602 55.6641 133.437 55.6641H133.44ZM139.175 72.9185C137.637 74.4561 135.708 75.2334 133.44 75.2334C131.171 75.2334 129.25 74.454 127.672 72.9206C126.133 71.3383 125.353 69.3662 125.353 67.0556C125.353 64.7449 126.133 62.7622 127.67 61.2246C129.225 59.6678 131.167 58.8756 133.437 58.8756C135.708 58.8756 137.637 59.6657 139.175 61.2246C140.731 62.7601 141.522 64.7215 141.522 67.0556C141.522 69.3897 140.731 71.3617 139.173 72.9185H139.175Z" fill="white"/>
<path d="M156.388 78.4402C158.837 78.4402 160.846 77.748 162.358 76.3829C163.883 74.9816 164.656 73.1054 164.656 70.8096V56.0703H161.348V70.586C161.348 72.0107 160.916 73.1522 160.066 73.9828C159.219 74.8091 157.981 75.2286 156.388 75.2286C154.795 75.2286 153.558 74.8091 152.71 73.9828C151.861 73.1544 151.428 72.0129 151.428 70.586V56.0703H148.121V70.8096C148.121 73.1054 148.894 74.9816 150.421 76.385C151.931 77.748 153.937 78.4402 156.388 78.4402Z" fill="white"/>
<path d="M182.4 68.3243C183.782 66.9422 184.483 65.2257 184.483 63.2238C184.483 61.2219 183.782 59.4863 182.4 58.1233C181.039 56.7625 179.31 56.0703 177.265 56.0703H169.222V78.0249H172.529V70.3752H177.265C179.312 70.3752 181.039 69.6852 182.4 68.3243ZM172.529 59.1562H177.265C178.396 59.1562 179.34 59.5459 180.074 60.3126C180.805 61.075 181.175 62.0546 181.175 63.2238C181.175 64.393 180.805 65.3726 180.074 66.1372C179.342 66.9038 178.398 67.2914 177.265 67.2914H172.529V59.1562Z" fill="white"/>
<path d="M2.55469 23.4297C3.44914 27.4675 7.04612 30.4895 11.3523 30.4895C15.6584 30.4895 19.2554 27.4675 20.1498 23.4297H2.55469Z" fill="white"/>
<path d="M48.9219 23.4297C49.8163 27.4675 53.4133 30.4895 57.7195 30.4895C62.0256 30.4895 65.6226 27.4675 66.517 23.4297H48.9219Z" fill="white"/>
<path d="M61.8257 75.7188H7.24707V78.0081H61.8257V75.7188Z" fill="white"/>
<path d="M57.3746 7.09648C55.7795 7.09648 54.4186 8.11019 53.8947 9.52641H35.8225V7.73538H47.9722L43.4381 1.00781H25.6407L21.1067 7.73538H33.2563V9.52641H14.9967C14.4728 8.11019 13.1119 7.09648 11.5168 7.09648C9.46812 7.09648 7.80273 8.76186 7.80273 10.8106C7.80273 12.4057 8.81645 13.7665 10.2305 14.2904V20.4089H12.801V14.2904C13.8147 13.9135 14.6197 13.1106 14.9967 12.0948H33.2563V71.4587H30.4899V13.6537H19.6457V16.222H27.9215V71.4566H14.2279V74.0249H54.8573V71.4566H41.1637V16.222H49.4395V13.6537H38.5953V71.4587H35.8289V12.0948H53.9011C54.2781 13.1085 55.0809 13.9135 56.0968 14.2904V20.4089H58.6673V14.2904C60.0835 13.7665 61.0951 12.4057 61.0951 10.8106C61.0951 8.76186 59.4297 7.09648 57.381 7.09648H57.3746ZM35.8225 3.5783H42.0688L43.14 5.16702H35.8225V3.5783ZM11.5126 12.0948C10.8055 12.0948 10.2284 11.5198 10.2284 10.8106C10.2284 10.1014 10.8034 9.52641 11.5126 9.52641C12.2218 9.52641 12.7968 10.1014 12.7968 10.8106C12.7968 11.5198 12.2218 12.0948 11.5126 12.0948ZM33.252 5.16702H25.9346L27.0058 3.5783H33.252V5.16702ZM57.3746 12.0948C56.6675 12.0948 56.0904 11.5198 56.0904 10.8106C56.0904 10.1014 56.6654 9.52641 57.3746 9.52641C58.0837 9.52641 58.6587 10.1014 58.6587 10.8106C58.6587 11.5198 58.0837 12.0948 57.3746 12.0948Z" fill="white"/>
<path d="M32.3098 90.2656C33.1958 90.2656 33.9433 90.5723 34.5545 91.1835C35.1742 91.7862 35.483 92.5358 35.483 93.4282C35.483 94.3205 35.1721 95.0659 34.5545 95.6856C33.9347 96.2883 33.1872 96.5907 32.3098 96.5907C31.5048 96.5907 30.8042 96.3287 30.21 95.807C29.6222 95.2682 29.2879 94.6037 29.2091 93.8158H27.9547V96.4459H27.1582V90.4126H27.9547V93.0427H29.2091C29.2964 92.2462 29.6307 91.586 30.21 91.0642C30.7956 90.534 31.4963 90.2678 32.3098 90.2678V90.2656ZM30.6189 95.1297C31.0768 95.5876 31.6411 95.8176 32.3098 95.8176C32.9785 95.8176 33.5408 95.5876 33.9986 95.1297C34.4565 94.6548 34.6865 94.0884 34.6865 93.4282C34.6865 92.768 34.4565 92.1972 33.9986 91.7394C33.5408 91.273 32.9764 91.0387 32.3098 91.0387C31.6432 91.0387 31.0789 91.2708 30.6189 91.7394C30.161 92.1972 29.931 92.7616 29.931 93.4282C29.931 94.0947 30.161 94.6548 30.6189 95.1297Z" fill="white"/>
<path d="M40.0455 90.2656C40.9059 90.2656 41.6385 90.5723 42.2412 91.1835C42.8524 91.7947 43.159 92.5444 43.159 93.4282C43.159 94.312 42.8524 95.0616 42.2412 95.6728C41.6385 96.284 40.9059 96.5907 40.0455 96.5907C38.9764 96.5907 38.1629 96.1477 37.607 95.2639V98.8609H36.8105V90.4126H37.607V91.5945C38.1629 90.7086 38.9743 90.2678 40.0455 90.2678V90.2656ZM38.2949 95.1297C38.7528 95.5876 39.3171 95.8176 39.9859 95.8176C40.6546 95.8176 41.2168 95.5876 41.6747 95.1297C42.1325 94.6548 42.3625 94.0884 42.3625 93.4282C42.3625 92.768 42.1325 92.1972 41.6747 91.7394C41.2168 91.273 40.6524 91.0387 39.9859 91.0387C39.3193 91.0387 38.7549 91.2708 38.2949 91.7394C37.837 92.1972 37.607 92.7616 37.607 93.4282C37.607 94.0947 37.837 94.6548 38.2949 95.1297Z" fill="white"/>
<path d="M45.2848 95.0453L48.8817 90.3984H49.5568V96.4317H48.7604V91.7848L45.1634 96.4317H44.4883V90.3984H45.2848V95.0453Z" fill="white"/>
<path d="M56.3138 90.3984V95.6608H57.1593V98.0503H56.3628V96.4339H51.4391V98.0503H50.6426V95.6608H51.3794C51.7905 95.1135 51.9949 94.3532 51.9949 93.3799V90.3984H56.316H56.3138ZM52.3442 95.6608H55.5173V91.1715H52.7893V93.3799C52.7893 94.3127 52.6402 95.073 52.342 95.6608H52.3442Z" fill="white"/>
<path d="M59.1608 95.0453L62.7577 90.3984H63.4328V96.4317H62.6363V91.7848L59.0394 96.4317H58.3643V90.3984H59.1608V95.0453Z" fill="white"/>
<path d="M69.0335 93.4055V90.4006H69.83V96.4339H69.0335V94.1402C68.5671 94.3809 67.9921 94.5023 67.3085 94.5023C66.512 94.5023 65.9093 94.3191 65.4983 93.9528C65.0873 93.5865 64.8828 93.0456 64.8828 92.33V90.3984H65.6793V92.33C65.6793 92.8284 65.8092 93.1904 66.0712 93.4161C66.3331 93.6419 66.7377 93.7548 67.2851 93.7548C67.8963 93.7548 68.4798 93.6376 69.0356 93.4055H69.0335Z" fill="white"/>
<path d="M74.307 90.2656C75.2078 90.2656 75.9276 90.583 76.4664 91.2197C77.0223 91.848 77.2991 92.5912 77.2991 93.4516C77.2991 93.492 77.2906 93.6156 77.2757 93.8264H71.9771C72.0581 94.4291 72.3158 94.9125 72.7502 95.2746C73.1847 95.6366 73.7277 95.8176 74.3794 95.8176C75.2973 95.8176 75.9447 95.4769 76.3216 94.7911L77.0223 95.2022C76.7561 95.6366 76.3919 95.9774 75.9298 96.2223C75.4676 96.4672 74.9459 96.5907 74.3666 96.5907C73.4168 96.5907 72.6437 96.2925 72.0495 95.6984C71.4532 95.1021 71.1572 94.346 71.1572 93.4303C71.1572 92.5145 71.4511 91.7692 72.0389 91.1729C72.6267 90.5702 73.3827 90.2678 74.307 90.2678V90.2656ZM74.307 91.0387C73.6787 91.0387 73.1548 91.224 72.731 91.5945C72.3094 91.9651 72.0581 92.4507 71.9771 93.0555H76.4792C76.3898 92.4123 76.1449 91.9161 75.7424 91.5711C75.3228 91.2176 74.8458 91.0408 74.307 91.0408V91.0387Z" fill="white"/>
<path d="M81.3802 96.5907C80.4709 96.5907 79.7148 96.2883 79.1121 95.6856C78.5094 95.0659 78.207 94.3141 78.207 93.4282C78.207 92.5422 78.5094 91.7862 79.1121 91.1835C79.7148 90.5723 80.4709 90.2656 81.3802 90.2656C81.9744 90.2656 82.5111 90.4083 82.986 90.6937C83.4609 90.9791 83.8059 91.3645 84.0231 91.8458L83.3714 92.2207C83.2096 91.8586 82.9498 91.5711 82.592 91.3581C82.2342 91.1452 81.8296 91.0387 81.3802 91.0387C80.7115 91.0387 80.1493 91.2708 79.6893 91.7394C79.2314 92.1972 79.0014 92.7616 79.0014 93.4282C79.0014 94.0947 79.2314 94.6548 79.6893 95.1297C80.1471 95.5876 80.7115 95.8176 81.3802 95.8176C81.8232 95.8176 82.2236 95.7133 82.5813 95.5046C82.9391 95.2959 83.2181 95.0062 83.4204 94.6357L84.0849 95.0211C83.8357 95.5046 83.4694 95.8858 82.986 96.1669C82.5025 96.448 81.968 96.5886 81.3802 96.5886V96.5907Z" fill="white"/>
<path d="M86.8705 93.2948L90.1054 96.4317H89.0427L86.025 93.5226V96.4317H85.2285V90.3984H86.025V93.0647L88.8979 90.3984H89.984L86.8705 93.2948Z" fill="white"/>
<path d="M95.7766 91.5945V90.4126H96.5731V96.4459H95.7766V95.2639C95.2208 96.1498 94.4094 96.5907 93.3382 96.5907C92.4778 96.5907 91.7409 96.284 91.1297 95.6728C90.527 95.0616 90.2246 94.312 90.2246 93.4281C90.2246 92.5443 90.527 91.7947 91.1297 91.1835C91.7409 90.5723 92.4778 90.2656 93.3382 90.2656C94.4072 90.2656 95.2208 90.7086 95.7766 91.5924V91.5945ZM91.709 95.1297C92.1668 95.5876 92.7312 95.8176 93.3978 95.8176C94.0644 95.8176 94.6287 95.5876 95.0866 95.1297C95.5445 94.6548 95.7745 94.0883 95.7745 93.4281C95.7745 92.768 95.5445 92.1972 95.0866 91.7393C94.6287 91.2729 94.0644 91.0387 93.3978 91.0387C92.7312 91.0387 92.1668 91.2708 91.709 91.7393C91.2511 92.1972 91.0211 92.7616 91.0211 93.4281C91.0211 94.0947 91.2511 94.6548 91.709 95.1297Z" fill="white"/>
<path d="M100.158 90.3984H102.607V96.4317H101.81V94.1147H100.773L98.9141 96.4317H97.9004L99.8086 94.0912C99.3187 94.0188 98.9162 93.8165 98.6074 93.4822C98.2965 93.1478 98.1432 92.7432 98.1432 92.2683C98.1432 91.7295 98.337 91.2822 98.7224 90.9287C99.1249 90.5752 99.6041 90.3984 100.158 90.3984ZM100.158 93.3672H101.81V91.1715H100.158C99.8107 91.1715 99.5211 91.2737 99.2889 91.4803C99.0547 91.6847 98.9397 91.9488 98.9397 92.2704C98.9397 92.592 99.0568 92.8561 99.2889 93.0605C99.5211 93.2649 99.8107 93.3693 100.158 93.3693V93.3672Z" fill="white"/>
<path d="M108.954 93.2948L112.189 96.4317H111.127L108.109 93.5226V96.4317H107.312V90.3984H108.109V93.0647L110.982 90.3984H112.068L108.954 93.2948Z" fill="white"/>
<path d="M117.729 95.6856C117.109 96.2883 116.361 96.5907 115.484 96.5907C114.606 96.5907 113.838 96.2883 113.226 95.6856C112.615 95.0744 112.309 94.3226 112.309 93.4281C112.309 92.5337 112.613 91.7862 113.226 91.1835C113.838 90.5723 114.589 90.2656 115.484 90.2656C116.378 90.2656 117.117 90.5723 117.729 91.1835C118.348 91.7862 118.657 92.5358 118.657 93.4281C118.657 94.3205 118.348 95.0658 117.729 95.6856ZM113.795 95.1297C114.253 95.5876 114.817 95.8176 115.484 95.8176C116.15 95.8176 116.715 95.5876 117.173 95.1297C117.631 94.6548 117.861 94.0883 117.861 93.4281C117.861 92.768 117.631 92.1972 117.173 91.7393C116.715 91.2729 116.15 91.0387 115.484 91.0387C114.817 91.0387 114.253 91.2708 113.795 91.7393C113.337 92.1972 113.107 92.7616 113.107 93.4281C113.107 94.0947 113.337 94.6548 113.795 95.1297Z" fill="white"/>
<path d="M124.981 90.3984H125.898V96.4317H125.102V91.6166L122.989 95.0432H122.893L120.781 91.6166V96.4317H119.984V90.3984H120.902L122.942 93.7058L124.983 90.3984H124.981Z" fill="white"/>
<path d="M127.588 90.3984H132.656V96.4317H131.86V91.1694H128.384V96.4317H127.588V90.3984Z" fill="white"/>
<path d="M139.534 91.5945V90.4126H140.331V96.4459H139.534V95.2639C138.979 96.1498 138.167 96.5907 137.096 96.5907C136.236 96.5907 135.499 96.284 134.888 95.6728C134.285 95.0616 133.982 94.312 133.982 93.4281C133.982 92.5443 134.285 91.7947 134.888 91.1835C135.499 90.5723 136.236 90.2656 137.096 90.2656C138.167 90.2656 138.979 90.7086 139.534 91.5924V91.5945ZM135.467 95.1297C135.925 95.5876 136.489 95.8176 137.156 95.8176C137.822 95.8176 138.387 95.5876 138.847 95.1297C139.304 94.6548 139.534 94.0883 139.534 93.4281C139.534 92.768 139.304 92.1972 138.847 91.7393C138.389 91.2729 137.824 91.0387 137.156 91.0387C136.487 91.0387 135.925 91.2708 135.467 91.7393C135.009 92.1972 134.779 92.7616 134.779 93.4281C134.779 94.0947 135.009 94.6548 135.467 95.1297Z" fill="white"/>
<path d="M146.292 93.0285V90.3984H147.088V96.4317H146.292V93.8016H142.816V96.4317H142.02V90.3984H142.816V93.0285H146.292Z" fill="white"/>
<path d="M149.576 95.0453L153.173 90.3984H153.848V96.4317H153.051V91.7848L149.454 96.4317H148.779V90.3984H149.576V95.0453Z" fill="white"/>
<path d="M157.429 90.3984H159.878V96.4317H159.082V94.1147H158.045L156.186 96.4317H155.172L157.078 94.0912C156.588 94.0188 156.188 93.8165 155.877 93.4822C155.566 93.1478 155.413 92.7432 155.413 92.2683C155.413 91.7295 155.606 91.2822 155.992 90.9287C156.394 90.5752 156.873 90.3984 157.427 90.3984H157.429ZM157.429 93.3672H159.082V91.1715H157.429C157.084 91.1715 156.795 91.2737 156.56 91.4803C156.326 91.6847 156.211 91.9488 156.211 92.2704C156.211 92.592 156.328 92.8561 156.56 93.0605C156.793 93.2649 157.082 93.3693 157.429 93.3693V93.3672Z" fill="white"/>
</svg>
