<svg width="46" height="63" viewBox="0 0 46 63" fill="none" xmlns="http://www.w3.org/2000/svg">
<path d="M0 23C0 10.2975 10.2975 0 23 0C35.7025 0 46 10.2975 46 23C46 35.7025 35.7025 46 23 46C10.2975 46 0 35.7025 0 23Z" fill="#405FCE"/>
<path d="M22 52.5C22 46.5 15.1667 44.6667 12 43H23V52.5H22Z" fill="#405FCE"/>
<path d="M24 52.5C24 46.5 30.8333 44.6667 34 43H23V52.5H24Z" fill="#405FCE"/>
<path d="M30.5 23.5C31.1992 23.5002 31.8913 23.3601 32.5354 23.0882C33.1795 22.8163 33.7625 22.4179 34.25 21.9167V28.75C34.25 29.5456 33.9339 30.3087 33.3713 30.8713C32.8087 31.4339 32.0456 31.75 31.25 31.75H15.5C14.7044 31.75 13.9413 31.4339 13.3787 30.8713C12.8161 30.3087 12.5 29.5456 12.5 28.75V21.9167C12.9875 22.4179 13.5705 22.8163 14.2146 23.0882C14.8587 23.3601 15.5508 23.5002 16.25 23.5H17V24.25C17 24.4489 17.079 24.6397 17.2197 24.7803C17.3603 24.921 17.5511 25 17.75 25C17.9489 25 18.1397 24.921 18.2803 24.7803C18.421 24.6397 18.5 24.4489 18.5 24.25V23.5H28.25V24.25C28.25 24.4489 28.329 24.6397 28.4697 24.7803C28.6103 24.921 28.8011 25 29 25C29.1989 25 29.3897 24.921 29.5303 24.7803C29.671 24.6397 29.75 24.4489 29.75 24.25V23.5H30.5ZM34.25 17.5V18.25C34.2488 19.2442 33.8533 20.1973 33.1503 20.9003C32.4473 21.6033 31.4942 21.9988 30.5 22H29.75V21.25C29.75 21.0511 29.671 20.8603 29.5303 20.7197C29.3897 20.579 29.1989 20.5 29 20.5C28.8011 20.5 28.6103 20.579 28.4697 20.7197C28.329 20.8603 28.25 21.0511 28.25 21.25V22H18.5V21.25C18.5 21.0511 18.421 20.8603 18.2803 20.7197C18.1397 20.579 17.9489 20.5 17.75 20.5C17.5511 20.5 17.3603 20.579 17.2197 20.7197C17.079 20.8603 17 21.0511 17 21.25V22H16.25C15.2558 21.9988 14.3027 21.6033 13.5997 20.9003C12.8967 20.1973 12.5012 19.2442 12.5 18.25V17.5C12.5 16.7044 12.8161 15.9413 13.3787 15.3787C13.9413 14.8161 14.7044 14.5 15.5 14.5H19.25V13.75C19.25 13.3522 19.408 12.9706 19.6893 12.6893C19.9706 12.408 20.3522 12.25 20.75 12.25H25.25C25.6478 12.25 26.0294 12.408 26.3107 12.6893C26.592 12.9706 26.75 13.3522 26.75 13.75V14.5H31.25C32.0456 14.5 32.8087 14.8161 33.3713 15.3787C33.9339 15.9413 34.25 16.7044 34.25 17.5ZM25.25 13.75H20.75V14.5H25.25V13.75Z" fill="white"/>
<rect x="20" y="56.5" width="6" height="6" rx="3" fill="#405FCE"/>
</svg>
