<svg width="60" height="60" viewBox="0 0 60 60" fill="none" xmlns="http://www.w3.org/2000/svg">
<path d="M36.4617 48.3444L32.8848 46.2674L40.8463 32.8828L44.4232 34.9597L36.4617 48.3444Z" fill="white"/>
<path d="M36.4617 48.3444L32.8848 46.2674V38.5367L36.4617 40.6136V48.3444ZM37.3848 39.1136L33.6925 36.9213L40.8463 32.8828L44.4232 34.9597L37.3848 39.1136Z" fill="white"/>
<path d="M44.4225 34.9609L36.4609 48.4609V40.6148C36.4609 40.0379 36.8071 39.3456 37.384 39.1148L44.4225 34.9609Z" fill="white"/>
<path d="M36.4617 40.616L32.8848 38.5391C32.8848 37.9621 33.2309 37.2698 33.8078 37.0391L37.3848 39.116C36.8078 39.3468 36.4617 40.0391 36.4617 40.616Z" fill="white"/>
<path d="M34.73 5.07339L39.23 2.53493C39.6916 2.30416 40.0377 2.30416 40.3839 2.41954L43.9608 4.49646C43.73 4.38108 43.2685 4.38108 42.9223 4.61185L20.6531 17.4195C19.8454 17.8811 19.1531 19.0349 19.1531 19.958L19.2685 56.5349C19.2685 56.9965 19.3839 57.3426 19.73 57.458L16.1531 55.3811C15.9223 55.2657 15.6916 54.9195 15.6916 54.458L15.5762 17.8811C15.5762 16.958 16.2685 15.8042 17.0762 15.3426L28.9608 8.41954" fill="#F0F2F5"/>
<path d="M42.9226 4.61761C43.7302 4.15607 44.4226 4.50222 44.4226 5.4253L44.5379 34.9638L37.3841 39.1176C36.9226 39.3484 36.461 40.0407 36.461 40.6176V48.4638L20.7687 57.4638C19.961 57.9253 19.2687 57.5791 19.2687 56.6561L19.1533 20.0791C19.1533 19.1561 19.8456 18.0022 20.6533 17.5407L42.9226 4.61761Z" fill="white"/>
<path d="M44.6534 5.42285C44.6534 4.84593 44.4226 4.38439 44.0765 4.26901L40.4995 2.19208C40.1534 1.96131 39.6919 1.96131 39.1149 2.30747L34.6149 4.84593C34.4996 4.96131 34.3842 5.0767 34.4995 5.19208C34.6149 5.30747 34.7303 5.42285 34.8457 5.30747L39.3457 2.65362C39.6919 2.53824 39.9226 2.42285 40.1534 2.53824L42.9226 4.15362C42.8072 4.15362 42.8072 4.26901 42.6919 4.26901L20.4226 17.1921C19.4996 17.769 18.8072 19.0382 18.8072 19.9613L18.9226 44.1921V56.769L16.1534 55.1536C15.9226 55.0382 15.9226 54.8075 15.9226 54.4613L15.8072 17.8844C15.8072 17.0767 16.3842 16.0382 17.1919 15.5767L29.0765 8.65362C29.1919 8.53824 29.3072 8.42285 29.1919 8.30747C29.0765 8.19208 28.9611 8.0767 28.8457 8.19208L16.9611 15.1152C16.038 15.6921 15.3457 16.8459 15.3457 17.8844L15.4611 54.4613C15.4611 55.0382 15.6919 55.4998 16.038 55.6152C16.2688 55.7305 19.8457 57.8075 19.6149 57.6921C20.0765 57.9229 20.538 57.8075 20.9996 57.5767L36.6919 48.4613L36.8072 48.3459L44.7688 34.8459V34.7305L44.6534 5.42285ZM36.8072 47.3075V40.4998C36.8072 40.0382 37.1534 39.4613 37.4996 39.2305L43.7303 35.6536L36.8072 47.3075ZM37.1534 38.769C36.5765 39.1152 36.1149 39.9228 36.1149 40.4998V48.1152L20.538 57.1152C19.8457 57.4613 19.4995 57.2305 19.4995 56.5382V44.0767L19.3842 19.8459C19.3842 19.0382 19.9611 17.9998 20.7688 17.5382L43.038 4.84593C43.6149 4.49977 44.0765 4.73054 44.0765 5.42285L44.1919 34.7305L37.1534 38.769Z" fill="#405FCE"/>
<path d="M37.9609 28.387L41.0763 26.6562L37.9609 28.387Z" fill="white"/>
<path d="M37.9612 28.7323C37.8458 28.7323 37.7304 28.7323 37.7304 28.6169C37.615 28.5015 37.7304 28.2708 37.8458 28.2708L40.9612 26.54C41.0766 26.4246 41.3073 26.54 41.3073 26.6554C41.4227 26.7708 41.3073 27.0015 41.1919 27.0015L38.0766 28.6169C38.0766 28.7323 37.9612 28.7323 37.9612 28.7323Z" fill="#030E17"/>
<path d="M22.5 37.3858L34.0385 30.5781L22.5 37.3858Z" fill="white"/>
<path d="M22.4993 37.6157C22.3839 37.6157 22.2685 37.6157 22.2685 37.5003C22.1531 37.3849 22.2685 37.1542 22.3839 37.1542L34.0377 30.4619C34.1531 30.3465 34.3839 30.4619 34.3839 30.5772C34.4993 30.6926 34.3839 30.9234 34.2685 30.9234L22.6147 37.6157H22.4993Z" fill="#030E17"/>
<path d="M22.5 41.1917L41.0769 30.4609L22.5 41.1917Z" fill="white"/>
<path d="M22.4993 41.4276C22.3839 41.4276 22.2685 41.4276 22.2685 41.3122C22.1531 41.1968 22.2685 40.9661 22.3839 40.9661L40.9608 30.2353C41.0762 30.1199 41.307 30.2353 41.307 30.3507C41.4223 30.4661 41.307 30.6968 41.1916 30.6968L22.6147 41.4276H22.4993Z" fill="#030E17"/>
<path d="M28.7708 26.2504C28.6554 26.2504 28.54 26.2504 28.54 26.135C28.4246 26.0197 28.54 25.7889 28.6554 25.7889L40.961 18.7353C41.0764 18.6199 41.3072 18.7353 41.3072 18.8507C41.4225 18.9661 41.3072 19.1968 41.1918 19.1968L28.8861 26.135C28.8861 26.2504 28.7708 26.2504 28.7708 26.2504Z" fill="#030E17"/>
<path d="M22.4993 29.8119C22.3839 29.8119 22.2685 29.8119 22.2685 29.6965C22.1531 29.5811 22.2685 29.3503 22.3839 29.3503L27.2672 26.5556C27.3825 26.4402 27.6133 26.5556 27.6133 26.671C27.7287 26.7864 27.6133 27.0171 27.4979 27.0171L22.6147 29.8119H22.4993Z" fill="#030E17"/>
<path d="M22.4993 33.6229C22.3839 33.6229 22.2685 33.6229 22.2685 33.5075C22.1531 33.3921 22.2685 33.1614 22.3839 33.1614L40.9608 22.4306C41.0762 22.3152 41.307 22.4306 41.307 22.546C41.4223 22.6614 41.307 22.8921 41.1916 22.8921L22.6147 33.6229H22.4993Z" fill="#030E17"/>
<path d="M29.4229 40.9579L41.0767 34.2656L29.4229 40.9579Z" fill="white"/>
<path d="M29.4231 41.1938C29.3077 41.1938 29.1923 41.1938 29.1923 41.0784C29.0769 40.9631 29.1923 40.7323 29.3077 40.7323L40.8462 34.04C40.9616 33.9246 41.1923 34.04 41.1923 34.1554C41.3077 34.2708 41.1923 34.5015 41.0769 34.5015L29.5385 41.1938H29.4231Z" fill="#030E17"/>
<path d="M22.5 44.9988L26.0769 42.9219L22.5 44.9988Z" fill="white"/>
<path d="M22.4993 45.2269C22.3839 45.2269 22.2685 45.2269 22.2685 45.1115C22.1531 44.9961 22.2685 44.7653 22.3839 44.7653L26.0762 42.6884C26.1916 42.573 26.4223 42.6884 26.4223 42.8038C26.5377 42.9192 26.4223 43.15 26.307 43.15L22.6147 45.2269H22.4993Z" fill="#030E17"/>
<path d="M37.9612 12.5292C37.8458 12.5292 37.7304 12.5292 37.7304 12.4138C37.615 12.2984 37.7304 12.0676 37.8458 12.0676L40.9612 10.3369C41.0766 10.2215 41.3073 10.3369 41.3073 10.4522C41.4227 10.5676 41.3073 10.7984 41.1919 10.7984L38.0766 12.4138C38.0766 12.5292 37.9612 12.5292 37.9612 12.5292Z" fill="#030E17"/>
<path d="M37.9612 14.3339C37.8458 14.3339 37.7304 14.3339 37.7304 14.2185C37.615 14.1031 37.7304 13.8723 37.8458 13.8723L40.9612 12.1415C41.0766 12.0262 41.3073 12.1415 41.3073 12.2569C41.4227 12.3723 41.3073 12.6031 41.1919 12.6031L38.0766 14.2185C38.0766 14.3339 37.9612 14.3339 37.9612 14.3339Z" fill="#030E17"/>
<path d="M37.9612 16.1307C37.8458 16.1307 37.7304 16.1307 37.7304 16.0153C37.615 15.9 37.7304 15.6692 37.8458 15.6692L40.9612 13.9384C41.0766 13.823 41.3073 13.9384 41.3073 14.0538C41.4227 14.1692 41.3073 14.4 41.1919 14.4L38.0766 16.0153C38.0766 16.1307 37.9612 16.1307 37.9612 16.1307Z" fill="#030E17"/>
<path d="M29.4231 23.1938C29.3077 23.1938 29.1923 23.1938 29.1923 23.0784C29.0769 22.9631 29.1923 22.7323 29.3077 22.7323L40.8462 16.04C40.9616 15.9246 41.1923 16.04 41.1923 16.1554C41.3077 16.2708 41.1923 16.5015 41.0769 16.5015L29.5385 23.1938H29.4231Z" fill="#030E17"/>
<path d="M22.4993 27.2269C22.3839 27.2269 22.2685 27.2269 22.2685 27.1115C22.1531 26.9961 22.2685 26.7653 22.3839 26.7653L26.0762 24.6884C26.1916 24.573 26.4223 24.6884 26.4223 24.8038C26.5377 24.9192 26.4223 25.15 26.307 25.15L22.6147 27.2269H22.4993Z" fill="#030E17"/>
<path d="M22.5 48.8113L33.9231 42.2344L22.5 48.8113Z" fill="white"/>
<path d="M22.4993 49.1566C22.3839 49.1566 22.2685 49.1566 22.2685 49.0412C22.1531 48.9258 22.2685 48.695 22.3839 48.695L33.807 42.1181C33.9223 42.0027 34.1531 42.1181 34.1531 42.2335C34.2685 42.3489 34.1531 42.5796 34.0377 42.5796L22.6147 49.1566H22.4993Z" fill="#030E17"/>
<path d="M22.5 52.616L33.9231 46.0391L22.5 52.616Z" fill="white"/>
<path d="M22.4993 52.9613C22.3839 52.9613 22.2685 52.9613 22.2685 52.8459C22.1531 52.7305 22.2685 52.4997 22.3839 52.4997L33.807 45.9228C33.9223 45.8074 34.1531 45.9228 34.1531 46.0382C34.2685 46.1536 34.1531 46.3843 34.0377 46.3843L22.6147 52.9613H22.4993Z" fill="#030E17"/>
</svg>
