<svg width="100" height="100" viewBox="0 0 100 100" fill="none" xmlns="http://www.w3.org/2000/svg">
<path d="M21.8633 77.4248C20.407 81.1916 17.9657 85.494 14.1289 90.3873L5.46606 85.3531C9.25364 80.5071 11.7089 76.2043 13.2026 72.3918L21.8633 77.4248Z" fill="#F0F2F5" stroke="black"/>
<path d="M61.0207 11.2665L66.1163 14.2276C60.7066 13.3591 53.8638 14.9715 46.5068 19.2181C38.8863 23.6181 31.9556 30.1441 26.6197 37.361L17.9556 32.3251C23.2112 25.2378 30.0188 18.8484 37.4728 14.5445C47.1835 8.93823 55.6811 8.16432 61.0207 11.2665Z" fill="#F0F2F5" stroke="black"/>
<path d="M26.4999 37.5C19.2429 47.9428 17.0503 53.85 15.9792 64.4421C15.9909 68.6045 17.0248 72.0053 18.8945 74.5404L13.2043 71.2337C9.63365 68.9797 7.46188 64.8394 7.4434 58.8976C7.41967 50.9988 17.5 33 17.5 33L18 32.5" stroke="black"/>
<path d="M23.5 41L18 38L17 34.5L20.5 30L28.5 33.5L23.5 41Z" fill="#F0F2F5"/>
<path d="M21.5843 87.1118C19.6983 88.2199 17.729 89.1794 15.6943 89.9816C19.2734 85.2821 21.5598 81.0981 22.9421 77.3775L23.0835 76.9971L22.7403 76.7805C19.1654 74.5242 17.0032 70.3825 16.981 64.447C16.9597 57.055 20.2856 48.3733 25.733 40.3128C31.1753 32.2596 38.6999 24.8797 47.0005 20.0818C55.8062 15.0045 63.627 13.8944 68.976 16.0297C73.7279 17.9351 76.6758 22.461 76.6961 29.3972C76.7174 36.7787 73.3916 45.4552 67.9413 53.5133C62.4961 61.564 54.9658 68.944 46.6537 73.742C41.4958 76.7015 36.6918 78.3383 32.503 78.7243L32.3196 78.7412L32.191 78.873C29.0509 82.0917 25.4831 84.8633 21.5878 87.1098L21.5843 87.1118Z" fill="#F0F2F5" stroke="#405FCE"/>
<path d="M20.3005 85.7254L15.4231 90.0238L22.5588 78.0371L20.3005 85.7254Z" fill="#F0F2F5" stroke="black"/>
<path d="M21.5847 87.1119C20.1202 87.9723 18.6056 88.743 17.0491 89.4202C20.2697 85.0254 22.3821 81.1164 23.6871 77.6434L23.8303 77.2623L23.4862 77.0449C19.9119 74.786 17.7281 70.6434 17.7059 64.6904C17.6846 57.3081 21.0104 48.6311 26.4606 40.5731C31.9058 32.5224 39.4362 25.1429 47.7482 20.3459C56.1501 15.49 63.6502 14.2643 68.9903 16.0353C73.734 17.944 76.6761 22.4679 76.6964 29.3973C76.7177 36.7787 73.3919 45.4553 67.9417 53.5133C62.4965 61.5641 54.9661 68.944 46.654 73.742C41.4961 76.7015 36.6921 78.3384 32.5034 78.7243L32.32 78.7412L32.1914 78.8731C29.0513 82.0918 25.4834 84.8633 21.5881 87.1098L21.5847 87.1119Z" fill="#F0F2F5" stroke="#405FCE"/>
<path d="M56.6322 32.1598C49.2653 36.472 42.5963 43.0337 37.7586 50.1883C32.8613 57.4309 30.8121 65 29.8944 71.863C31 54.5691 44.5 39 56.6322 32.1598ZM56.6322 32.1598L57.0426 32.3983L64.1457 36.5242C56.8277 40.9225 50.2381 47.4635 45.4332 54.5691C40.4719 61.9062 37.3779 69.8985 37.3982 76.8056M56.6322 32.1598C44.5 39 31 54.5691 29.8944 71.863C29.911 77.3773 31.9923 81.1615 35.3851 83.1322L39.9083 85.7606M37.3982 76.8056C37.408 80.4708 38.2967 83.4861 39.9083 85.7606ZM39.9083 85.7606L41.1047 86.4558L35.134 83.5646L40.7854 86.8485C40.4729 86.5073 40.1803 86.1445 39.9083 85.7606ZM86.6869 59.1175L93.8015 63.2517C91.0062 63.5738 88.9934 63.174 87.5437 62.3482L87.542 62.3472L82.4449 59.3846C83.6857 59.4781 85.0934 59.3977 86.6869 59.1175ZM82.3207 31.5438C77.5388 30.8604 71.5576 32.2887 65.1376 35.9438L57.6378 31.5857C66.0657 26.9278 73.3947 26.3563 78.0393 29.0553L82.3207 31.5438Z" fill="#F0F2F5"/>
<path d="M56.6322 32.1598C49.2653 36.472 42.5963 43.0337 37.7586 50.1883C32.8613 57.4309 30.8121 65 29.8944 71.863M56.6322 32.1598C44.5 39 31 54.5691 29.8944 71.863M56.6322 32.1598L57.0426 32.3983L64.1457 36.5242C56.8277 40.9225 50.2381 47.4635 45.4332 54.5691C40.4719 61.9062 37.3779 69.8985 37.3982 76.8056M29.8944 71.863C29.911 77.3773 31.9923 81.1615 35.3851 83.1322L39.9083 85.7606M37.3982 76.8056L37.8981 76.8042M37.3982 76.8056C37.408 80.4708 38.2967 83.4861 39.9083 85.7606M39.9083 85.7606L41.1047 86.4558L35.134 83.5646L40.7854 86.8485C40.4729 86.5073 40.1803 86.1445 39.9083 85.7606ZM86.6869 59.1175L93.8015 63.2517C91.0062 63.5738 88.9934 63.174 87.5437 62.3482L87.542 62.3472L82.4449 59.3846C83.6857 59.4781 85.0934 59.3977 86.6869 59.1175ZM82.3207 31.5438C77.5388 30.8604 71.5576 32.2887 65.1376 35.9438L57.6378 31.5857C66.0657 26.9278 73.3947 26.3563 78.0393 29.0553L82.3207 31.5438Z" stroke="black"/>
<path d="M60 38.5L53.5 35L57 32.5L60.5 31L66.5 34.5L60 38.5Z" fill="#F0F2F5"/>
<path d="M93.9441 64.2477C92.0902 66.1867 87.728 70.4205 82.651 73.3497C80.8064 74.4043 78.9334 75.2569 77.0761 75.7248L76.9405 75.759L76.8423 75.8585C73.278 79.4715 69.2627 82.6923 65.0147 85.115L65.0122 85.1164C59.147 88.5065 53.7628 89.9377 49.4127 89.6551C45.1121 89.3756 41.8237 87.4265 40.0033 84.011C39.9897 83.9561 39.9656 83.8922 39.9231 83.8284C38.9364 81.9563 38.3964 79.6245 38.3964 76.8172V76.8154C38.3723 70.1708 41.3567 62.3717 46.2558 55.1285C51.15 47.8926 57.9199 41.2644 65.3916 36.9522C71.196 33.5995 76.5275 32.1617 80.8497 32.4004C85.1554 32.6383 88.4539 34.5342 90.2982 37.8776L90.3059 37.8916L90.3145 37.9051C90.4717 38.1513 90.6025 38.3934 90.7101 38.6525L90.7143 38.6626L90.7189 38.6724C91.5564 40.4632 92.0303 42.6699 92.0303 45.2531V45.2553C92.0544 50.5536 90.1522 56.6042 86.8535 62.5521L86.618 62.9767L87.0354 63.2245C87.1702 63.3045 87.2864 63.3634 87.4239 63.4202C89.0726 64.2377 91.2095 64.5609 93.9441 64.2477Z" fill="#F0F2F5" stroke="black"/>
<path d="M87.2613 63.6387C88.822 64.5317 90.8569 64.942 93.4867 64.7187C91.4335 66.8117 87.3482 70.6384 82.6511 73.3485C80.8064 74.4031 78.9334 75.2556 77.0761 75.7236L76.9405 75.7578L76.8423 75.8573C73.278 79.4703 69.2627 82.6911 65.0147 85.1137L65.0122 85.1152C59.1471 88.5053 53.7629 89.9365 49.4128 89.6539C45.1121 89.3744 41.8238 87.4253 40.0034 84.0098C39.9907 83.9588 39.9691 83.9003 39.9321 83.8412C39.0829 82.0347 38.6153 79.8196 38.6153 77.2273C38.6033 70.5943 41.5879 62.7945 46.484 55.5517C51.3752 48.3161 58.1388 41.6887 65.61 37.389L65.6112 37.3883C71.2943 34.0958 76.5317 32.6444 80.8125 32.8095C85.0796 32.9741 88.3859 34.7393 90.3091 37.8951L90.3146 37.9039C90.4717 38.1501 90.6025 38.3922 90.7102 38.6513L90.7183 38.6708L90.728 38.6896C91.7035 40.5701 92.2492 42.9146 92.2492 45.6896V45.6919C92.2732 50.8932 90.4175 56.8726 87.1925 62.7218L87.1732 62.7568L87.1597 62.7945C87.1427 62.842 87.12 62.8872 87.0922 62.9293L86.7989 63.3741L87.2613 63.6387Z" fill="#F0F2F5" stroke="#405FCE"/>
<path d="M77.9064 41.5773C76.6415 41.6747 75.3122 42.1401 74.0198 42.8876C71.5827 44.2969 69.179 46.7472 67.3579 49.9005C67.1549 50.2524 66.9629 50.6048 66.7836 50.9582L64.5894 49.6839C64.7669 49.3314 64.9587 48.9783 65.1636 48.623C66.9124 45.5951 69.201 43.2797 71.4597 41.9761C73.7325 40.6617 75.8783 40.4179 77.4566 41.3161C77.4572 41.3164 77.4578 41.3168 77.4584 41.3171L77.9064 41.5773Z" fill="#F0F2F5" stroke="black"/>
<path d="M65.1648 48.6222L65.1653 48.6212C66.8505 45.7034 69.0332 43.4474 71.2122 42.1189L73.2992 43.3322C71.1135 44.7824 68.9993 47.055 67.3599 49.8981C67.1553 50.2507 66.9627 50.6024 66.7825 50.9563L64.5894 49.6819C64.7669 49.3296 64.9589 48.9768 65.1648 48.6222Z" fill="#F0F2F5" stroke="black"/>
<path d="M71 44.5V44V43L72.5 42L73.5 42.5L71 44.5Z" fill="#F0F2F5"/>
<path d="M62.9106 49.7461L62.913 49.7475L63.3318 49.9908C62.1503 50.0818 60.9128 50.4937 59.702 51.1562L57.6698 49.976C59.6474 49.0357 61.4876 48.9355 62.8815 49.729L62.9106 49.7461ZM58.7269 51.7463C56.5409 53.1974 54.4265 55.4734 52.7839 58.318C50.9631 61.4718 50.0426 64.7732 50.0497 67.5749C50.0534 69.0267 50.3086 70.3736 50.8378 71.4934L50.4492 71.2677L50.4454 71.2655C48.8686 70.3679 47.9974 68.4052 47.9908 65.795C47.9842 63.1996 48.8416 60.0699 50.5896 57.0407C52.2765 54.1193 54.4611 51.8631 56.6404 50.5346L58.7269 51.7463Z" fill="#F0F2F5" stroke="black"/>
<path d="M56.5 52.5V52L57 51L59 50L59.5 50.5L56.5 52.5Z" fill="#F0F2F5"/>
<path d="M59.948 52.1598C62.2196 50.8469 64.3679 50.6033 65.9445 51.5023C66.2024 51.6497 66.4404 51.824 66.6587 52.0238L67.159 52.4818L67.4485 51.8684C67.6795 51.3788 67.939 50.8892 68.2238 50.3954C69.9725 47.3675 72.2612 45.0521 74.5198 43.7484C76.7923 42.4369 78.9404 42.1902 80.5186 43.0894C82.0957 43.988 82.9673 45.9515 82.9741 48.5617C82.9809 51.1574 82.1235 54.2871 80.3746 57.3163L66.893 80.6669L53.5061 73.0376C51.9284 72.1399 51.0565 70.177 51.0498 67.567C51.0433 64.9716 51.9011 61.8418 53.6501 58.8126C55.4009 55.7805 57.6878 53.4633 59.948 52.1598Z" fill="#F0F2F5" stroke="#405FCE"/>
<path d="M17.8832 65.4917L17.8803 65.5022C17.8778 65.5112 17.876 65.5127 17.8779 65.51C17.8791 65.5082 17.881 65.5058 17.8838 65.5032C17.8852 65.5018 17.8869 65.5004 17.8888 65.4989C17.8999 65.4907 17.9101 65.489 17.9153 65.489C17.9205 65.489 17.9249 65.4905 17.9282 65.4929C17.9299 65.4941 17.9302 65.4948 17.9293 65.4936C17.9289 65.493 17.9275 65.491 17.9257 65.4872C17.9243 65.4845 17.9228 65.4808 17.9211 65.476L17.9067 65.4808L17.8841 65.4884L17.8832 65.4917ZM20.3365 61.5181L20.3355 61.519C19.2415 62.6225 18.4107 63.9585 17.905 65.4272C17.4104 63.9515 16.5801 62.6104 15.479 61.5097C14.3683 60.3992 13.013 59.5644 11.5217 59.072C13.0069 58.5686 14.3581 57.7336 15.4725 56.6302L15.4733 56.6294C16.5828 55.5261 17.4159 54.1765 17.9051 52.6908C18.4274 54.2039 19.246 55.5354 20.3367 56.6281L20.3461 56.6372C21.458 57.6944 22.797 58.5743 24.3139 59.072C22.8137 59.5621 21.4508 60.4003 20.3365 61.5181Z" fill="#F0F2F5"/>
<path d="M17.8832 65.4917L17.8803 65.5022C17.8778 65.5112 17.876 65.5127 17.8779 65.51C17.8791 65.5082 17.881 65.5058 17.8838 65.5032C17.8852 65.5018 17.8869 65.5004 17.8888 65.4989C17.8999 65.4907 17.9101 65.489 17.9153 65.489C17.9205 65.489 17.9249 65.4905 17.9282 65.4929C17.9299 65.4941 17.9302 65.4948 17.9293 65.4936C17.9289 65.493 17.9275 65.491 17.9257 65.4872C17.9243 65.4845 17.9228 65.4808 17.9211 65.476L17.9067 65.4808L17.8841 65.4884L17.8832 65.4917ZM17.8832 65.4917L17.4472 65.6352M20.3365 61.5181L20.3355 61.519C19.2415 62.6225 18.4107 63.9585 17.905 65.4272C17.4104 63.9515 16.5801 62.6104 15.479 61.5097C14.3683 60.3992 13.013 59.5644 11.5217 59.072C13.0069 58.5686 14.3581 57.7336 15.4725 56.6302L15.4733 56.6294C16.5828 55.5261 17.4159 54.1765 17.9051 52.6908C18.4274 54.2039 19.246 55.5354 20.3367 56.6281L20.3461 56.6372C21.458 57.6944 22.797 58.5743 24.3139 59.072C22.8137 59.5621 21.4508 60.4003 20.3365 61.5181Z" stroke="black"/>
</svg>
