<svg width="100" height="100" viewBox="0 0 100 100" fill="none" xmlns="http://www.w3.org/2000/svg">
<path d="M56.7317 63.2698L44.0394 70.5775C43.8471 70.7698 43.0779 70.7698 42.6932 70.3852C42.6932 70.3852 42.5009 70.3852 42.5009 70.1929C35.0009 62.5006 29.8086 53.2698 26.7317 42.8852C26.5394 42.3083 26.7317 41.5391 27.1163 41.3468L39.8086 34.0391C39.424 34.2314 39.2317 35.0006 39.424 35.5775C42.5009 45.9621 47.6932 55.0006 55.1932 62.8852L55.3855 63.0775C55.7702 63.2698 56.3471 63.4621 56.7317 63.2698ZM68.0779 83.4621C70.7702 85.0006 73.2702 86.1544 75.9625 87.116C71.1548 90.0006 66.1548 92.6929 61.3471 95.5775C58.6548 94.616 56.1548 93.4621 53.4625 91.9237C57.8855 89.4237 63.8471 85.9621 68.0779 83.4621Z" fill="white"/>
<path d="M75.9611 87.1172L61.3457 95.5787C63.8457 94.2326 66.1534 92.6941 68.6534 91.348C71.1534 90.0018 73.6534 88.4633 75.9611 87.1172Z" fill="white"/>
<path d="M61.3462 95.5797L75.9615 87.1181C76.1539 87.1181 76.3462 87.3104 76.5385 87.3104L61.9231 95.772C61.9231 95.772 61.7308 95.5797 61.3462 95.5797ZM50 67.695L62.6923 60.3873C62.6923 60.3873 62.8846 60.3873 62.8846 60.5797L50.1923 67.8873L50 67.695ZM36.1538 7.88734C37.3077 8.46427 38.2692 9.04119 39.4231 9.61811C39.4231 9.61811 39.6154 9.61811 39.6154 9.81042C41.7308 11.1566 43.0769 13.0796 43.4615 15.9643C43.6538 17.1181 45.1923 28.8489 45.3846 29.4258C45.5769 31.1566 45.3846 32.3104 44.4231 32.695L31.7308 40.0027C32.6923 39.4258 32.8846 38.4643 32.6923 36.7335C32.1154 32.3104 31.3462 27.695 30.7692 23.272C30.3846 20.5797 29.0385 18.4643 26.9231 17.1181C26.9231 17.1181 26.7308 17.1181 26.7308 16.9258C25 15.9643 23.4615 15.195 21.7308 14.4258C20 13.4643 18.2692 12.695 16.5385 11.5412C15.9615 11.1566 15.3846 11.1566 15 11.3489L27.6923 3.84888C28.0769 3.65657 28.4615 3.84888 29.2308 4.2335C29.8077 4.61811 30.5769 5.00273 31.1538 5.38734" fill="white"/>
<path d="M26.9232 17.115C29.0386 18.4612 30.3847 20.3842 30.7694 23.2688C31.3463 27.6919 32.1155 32.3073 32.6924 36.7304C33.0771 38.6535 32.5001 39.9996 31.154 40.1919C29.8078 40.5765 28.4617 40.7688 27.1155 41.3458C26.7309 41.5381 26.5386 42.3073 26.7309 42.8842C29.8078 53.2688 35.0001 62.3073 42.5001 70.1919L42.6924 70.3842C43.2694 70.7688 43.8463 70.7688 44.0386 70.5765C45.1924 69.8073 45.9617 68.6535 47.1155 67.8842C47.1155 67.8842 47.3078 67.8842 47.3078 67.6919C47.6924 67.4996 48.0771 67.3073 48.4617 67.3073C49.0386 67.3073 49.6155 67.4996 50.1924 67.8842C50.1924 67.8842 50.3847 67.8842 50.3847 68.0765L50.5771 68.2688C50.7694 68.4612 50.9617 68.4612 50.9617 68.6535C54.4232 71.5381 58.0771 74.2304 61.5386 76.9227C64.2309 79.0381 65.1924 81.1535 65.0001 84.0381C64.8078 87.4996 64.6155 91.1535 64.4232 94.615C64.4232 96.1535 64.0386 96.7304 62.6924 96.1535C62.5001 96.1535 62.3078 95.9612 61.9232 95.9612C59.0386 94.9996 56.154 93.8458 53.4617 92.115C53.2694 92.115 53.0771 91.9227 53.0771 91.9227C34.0386 80.3842 16.5386 53.8458 13.8463 29.8073C13.2694 23.2688 13.4617 17.4996 14.6155 12.3073C14.8078 10.9612 15.3847 10.9612 16.5386 11.5381C18.2694 12.4996 20.0001 13.4612 21.9232 14.4227C23.654 15.1919 25.1924 16.1535 26.9232 16.9227C26.7309 16.9227 26.9232 17.115 26.9232 17.115Z" fill="#F0F2F5"/>
<path d="M58.2692 94.4231C59.2308 94.8077 60.3846 95.1923 61.3462 95.5769C60.3846 95.1923 59.4231 94.8077 58.2692 94.4231ZM53.4615 91.9231C55 92.8846 56.7308 93.6538 58.2692 94.4231C56.7308 93.6538 55.1923 92.8846 53.4615 91.9231ZM77.6923 76.5385C77.5 80 77.3077 83.6538 77.1154 87.1154C77.1154 87.8846 76.9231 88.4615 76.5385 88.6538L63.8462 95.9615C64.2308 95.7692 64.4231 95.1923 64.4231 94.2308C64.6154 90.5769 64.6154 87.1154 65 83.6538C65.1923 80.7692 64.2308 78.6538 61.5385 76.5385C57.8846 73.8462 54.4231 71.1538 50.9615 68.2692C50.7692 68.0769 50.5769 68.0769 50.5769 67.8846L50.3846 67.6923C50.3846 67.6923 50.1923 67.6923 50.1923 67.5C49.4231 67.3077 48.8462 67.3077 48.2692 67.3077C47.8846 67.3077 47.6923 67.3077 47.5 67.5L60.1923 60.1923C60.3846 60 60.7692 60 60.9615 60C61.5385 60 62.1154 60.1923 62.6923 60.5769C62.6923 60.5769 62.8846 60.5769 62.8846 60.7692L63.0769 60.9615C63.2692 60.9615 63.4615 61.1538 63.4615 61.3462C66.9231 64.2308 70.5769 66.9231 74.0385 69.6154C76.9231 71.3462 77.8846 73.4615 77.6923 76.5385Z" fill="white"/>
<path d="M58.8469 55.3828L54.4238 52.6905L55.77 42.8828L60.1931 45.3828L58.8469 55.3828Z" fill="#F0F2F5"/>
<path d="M81.9225 7.69565C79.0379 6.15719 75.1917 6.3495 70.9609 8.8495C62.4994 13.8495 55.5763 25.7726 55.5763 35.5803C55.5763 40.388 57.3071 43.8495 59.9994 45.5803L55.384 42.888C52.6917 41.3495 50.9609 37.888 50.9609 32.888C50.9609 23.0803 57.884 11.1572 66.3456 6.15719C70.5763 3.65719 74.4225 3.46488 77.3071 5.00334L81.9225 7.69565Z" fill="#F0F2F5"/>
<path d="M70.9618 8.84955C79.6157 3.84955 86.5388 7.88802 86.5388 17.5034C86.5388 27.3111 79.6157 39.2342 71.1542 44.2342C69.0388 45.388 66.9234 46.1573 65.1926 46.3496L59.0388 55.388L60.3849 45.5803C57.5003 44.0419 55.7695 40.5803 55.7695 35.5803C55.5772 25.5803 62.5003 13.6572 70.9618 8.84955Z" fill="white"/>
<path d="M74.6154 68.8459C73.0769 67.4997 71.3462 66.3459 69.8077 65.192L63.2692 60.192C62.3077 59.8074 61.3462 59.0382 60 59.8074L55.3846 62.4997C48.2692 54.9997 43.0769 46.1536 40 35.9613L44.8077 33.269C45.7692 32.692 46.1538 31.3459 45.9615 29.4228C45.9615 28.8459 44.2308 16.9228 44.0385 15.9613C43.6538 13.0766 42.3077 10.769 40 9.4228C39.8077 9.23049 36.7308 7.69203 36.5385 7.49972C36.3462 7.30741 35.9615 7.49972 35.9615 7.69203C35.7692 7.88434 35.9615 8.26895 36.1538 8.26895C36.7308 8.46126 39.4231 9.99972 39.6154 10.192C41.7308 11.3459 42.8846 13.269 43.2692 15.9613C43.4615 17.1151 45 28.8459 45.1923 29.4228C45.3846 30.9613 45.1923 31.9228 44.6154 32.3074C31.7308 39.8074 44.4231 32.4997 33.6538 38.6536C33.6538 38.4613 33.8462 37.8843 33.6538 36.7305C33.0769 32.3074 32.3077 27.692 31.7308 23.269C31.3462 19.8074 30 18.4613 27.5 16.7305C25.5769 15.769 18.6538 12.3074 16.9231 11.1536L28.4615 4.4228C28.4615 4.4228 28.8462 4.4228 29.4231 4.80741C30 5.19203 30.7692 5.57665 31.3462 5.96126C31.5385 6.15357 31.9231 5.96126 31.9231 5.76895C32.1154 5.57665 31.9231 5.19203 31.7308 5.19203C31.1538 4.80741 30.3846 4.4228 29.8077 4.03818C29.2308 3.65357 28.4615 3.46126 27.8846 3.65357C27.6923 3.84588 15.3846 10.769 15.1923 10.9613C14.4231 11.1536 14.2308 11.7305 14.0385 12.1151C12.8846 17.4997 12.6923 23.269 13.4615 29.8074C16.1538 53.6536 33.0769 80.3843 52.8846 92.1151C56.5385 94.2305 58.2692 94.9997 62.6923 96.5382C63.2692 96.7305 63.8462 96.7305 64.2308 96.5382L76.9231 89.2305C77.5 88.8459 77.6923 88.0766 77.6923 87.1151C77.6923 83.4613 78.0769 79.8074 78.2692 76.5382C78.4615 73.269 77.3077 71.1536 74.6154 68.8459ZM39.0385 36.3459C42.1154 46.5382 47.3077 55.3843 54.4231 62.8843L47.3077 67.1151C47.1154 67.3074 47.3077 66.9228 45.7692 68.4613C45.1923 69.0382 44.4231 69.6151 43.8462 70.192C43.6538 70.3843 43.2692 70.192 42.8846 69.8074C35.5769 62.1151 30.3846 53.0766 27.3077 42.8843C27.1154 42.4997 27.3077 41.9228 27.5 41.9228C29.4231 41.1536 31.5385 40.9613 32.1154 40.5766C32.1154 40.3843 38.8462 36.3459 39.0385 36.3459ZM62.8846 95.5766C61.9231 95.192 58.8462 94.6151 53.2692 91.3459C33.6538 79.8074 16.9231 53.269 14.2308 29.8074C13.4615 23.4613 13.6538 17.692 14.8077 12.4997C15.1923 11.7305 15.3846 11.3459 16.3462 11.9228C19.0385 13.6536 25 16.5382 26.5385 17.3074C28.4615 18.6536 29.8077 19.6151 30.3846 23.269L31.5385 31.9228C31.7308 33.4613 31.9231 34.9997 32.1154 36.7305C32.3077 38.0766 32.3077 39.4228 30.9615 39.8074C29.6154 40.192 28.0769 40.3843 26.9231 40.9613C26.1538 41.3459 25.9615 42.4997 26.1538 43.0766C29.4231 53.269 34.2308 62.3074 42.1154 70.5766C42.5 70.9613 43.6538 71.3459 44.2308 70.9613C44.4231 70.769 44.6154 70.769 46.3462 69.0382C47.5 67.8843 48.0769 67.1151 49.8077 68.0766C50.7692 68.6536 48.8462 67.3074 61.3462 76.9228C63.6538 78.6536 64.8077 80.5766 64.6154 83.6536C64.0385 95.192 64.0385 94.2305 64.0385 94.2305C64.0385 95.5766 64.0385 95.9613 62.8846 95.5766ZM77.3077 76.3459C76.9231 83.8459 76.9231 86.7305 76.7308 86.9228C76.7308 87.3074 76.7308 87.8843 76.3462 88.0766L65 94.6151C65 94.4228 65.3846 84.9997 65.5769 83.4613C65.7692 80.3843 64.6154 78.0766 61.9231 75.9613C59.4231 74.0382 58.0769 73.0766 50.3846 67.1151C50 66.9228 49.6154 66.7305 49.4231 66.5382C68.2692 55.5766 47.8846 67.4997 60.3846 60.192C60.9615 59.8074 61.9231 60.192 62.5 60.3843C62.6923 60.3843 68.0769 64.6151 69.2308 65.5766C70.7692 66.9228 72.5 68.0766 74.0385 69.2305C76.5385 71.7305 77.5 73.6536 77.3077 76.3459Z" fill="#405FCE"/>
<path d="M55.1923 43.0783L53.8462 52.6937C53.8462 52.886 53.8462 53.0783 54.0385 53.2706C54.2308 53.4629 58.8462 55.9629 58.6538 55.9629C58.8462 56.1552 59.0385 56.1552 59.2308 55.7706L65.3846 46.9244C67.3077 46.7321 69.2308 45.9629 71.3462 44.8091C80 39.8091 87.1154 27.6937 86.9231 17.6937C86.9231 12.886 85.1923 9.23214 82.1154 7.30906L77.5 4.61675C74.4231 2.88598 70.3846 3.2706 65.9615 5.7706C65.7692 5.9629 65.5769 6.15521 65.7692 6.34752C65.9615 6.53983 66.1538 6.73214 66.3462 6.53983C70.3846 4.23214 74.0385 3.84752 76.9231 5.38598L78.0769 6.15521C75.3846 5.9629 72.6923 7.11675 70.3846 8.2706C70.1923 8.2706 70.1923 8.4629 70.1923 8.4629C64.8077 11.7321 60.5769 17.1167 57.8846 22.886C56.1538 26.7321 54.8077 31.1552 54.8077 35.386C54.8077 38.6552 55.7692 41.5398 56.7308 43.0783C56.3462 42.6937 51.3462 41.3475 51.1538 32.886C51.1538 25.1937 55.3846 15.9629 61.7308 10.0014C61.9231 9.80906 61.9231 9.42444 61.7308 9.23214C61.5385 9.03983 61.1538 9.03983 60.9615 9.23214C54.4231 15.386 50 24.8091 50 32.6937C50.5769 37.6937 52.3077 41.1552 55.1923 43.0783ZM58.4615 54.6168L54.8077 52.5014L55.9615 43.6552L59.6154 45.7706L58.4615 54.6168ZM85.9615 17.5014C85.9615 27.1168 79.2308 38.8475 70.7692 43.8475C68.8462 45.0014 66.9231 45.7706 65 45.7706C64.8077 45.7706 64.8077 45.9629 64.6154 45.9629L59.6154 53.4629L60.7692 45.5783C60.7692 45.386 60.7692 45.1937 60.5769 45.0014C57.3077 43.4629 56.1538 39.0398 56.1538 35.386C56.1538 31.7321 57.1154 26.9244 59.6154 22.3091C62.1154 17.3091 66.5385 11.9244 71.3462 9.23214C79.6154 4.42444 85.9615 8.2706 85.9615 17.5014Z" fill="#405FCE"/>
<path d="M79.0391 20.5805L76.5391 19.2344H76.7314L79.0391 20.5805Z" fill="white"/>
<path d="M79.0394 20.9591H78.6548L76.1548 19.613C75.9625 19.4207 75.7702 19.2284 75.9625 19.0361C76.1548 18.8437 76.3471 18.8438 76.5394 18.8438H76.924L79.424 20.1899C79.6163 20.1899 79.6163 20.3822 79.6163 20.5745C79.6163 20.7668 79.424 20.9591 79.2317 20.9591H79.0394Z" fill="black"/>
<path d="M81.1543 22.3077C81.1543 22.5 80.962 22.6923 80.962 22.8846L79.2312 24.2308C79.0389 24.2308 79.0389 24.4231 79.0389 24.6154C78.8466 25.7692 78.462 26.9231 78.0774 28.0769V28.4615L79.0389 29.4231V30L77.6928 32.3077C77.6928 32.5 77.5005 32.5 77.5005 32.5H77.3081L75.7697 32.1154H75.5774C75.5774 32.1154 75.3851 32.1154 75.3851 32.3077C74.6158 33.2692 73.8466 34.2308 72.8851 35C72.6928 35 72.6928 35.1923 72.6928 35.3846C72.6928 35.9615 72.5005 36.9231 72.5005 37.5C72.5005 37.6923 72.3081 37.8846 72.1158 37.8846L70.1928 39.0385C70.0005 39.0385 70.0005 39.0385 69.8081 38.8462L69.4235 36.9231C69.4235 36.7308 69.4235 36.7308 69.2312 36.7308C68.2697 36.9231 67.5005 37.1154 66.7312 36.9231H66.5389C66.5389 36.9231 66.3466 36.9231 66.3466 37.1154L65.0005 39.2308L64.8081 39.4231H64.6158L63.2697 38.6538C63.0774 38.6538 63.0774 38.4615 63.2697 38.2692L64.2312 35.9615V35.5769C63.6543 35 63.462 34.2308 63.2697 33.2692C63.2697 33.0769 63.0774 33.0769 63.0774 33.0769L61.3466 33.8462C61.1543 33.8462 61.1543 33.8462 61.1543 33.6538V31.5385C61.1543 31.3462 61.3466 31.1538 61.3466 30.9615L63.0774 29.6154C63.2697 29.4231 63.2697 29.4231 63.2697 29.2308C63.462 28.0769 63.8466 26.9231 64.2312 25.7692V25.3846L63.2697 24.4231V24.0385L64.6158 21.7308L64.8081 21.5385H65.0005L66.5389 21.9231H66.7312C66.7312 21.9231 66.9235 21.9231 66.9235 21.7308C67.6928 20.7692 68.462 19.8077 69.4235 19.2308C69.6158 19.0385 69.6158 18.8462 69.6158 18.8462C69.6158 18.2692 69.8081 17.3077 69.8081 16.7308C69.8081 16.5385 70.0005 16.3462 70.1928 16.3462L72.1158 15.1923C72.3081 15.1923 72.3081 15.1923 72.5005 15.3846L72.6928 17.3077C72.6928 17.5 72.8851 17.5 72.8851 17.5C73.8466 17.3077 74.6158 17.1154 75.3851 17.3077H75.5774C75.5774 17.3077 75.7697 17.3077 75.7697 17.1154L77.1158 15.1923L77.3081 15H78.8466C79.0389 15 79.0389 15.1923 78.8466 15.3846L77.8851 17.6923V18.0769C78.2697 18.6538 78.6543 19.4231 78.8466 20.3846C78.8466 20.5769 79.0389 20.5769 79.0389 20.5769L80.7697 19.8077C80.962 19.8077 80.962 19.8077 80.962 20L81.1543 22.3077Z" fill="white"/>
<path d="M81.73 19.9979C81.73 19.421 81.1531 19.2287 80.7685 19.421L79.4223 19.9979C79.23 19.2287 78.8454 18.4595 78.4608 18.0748L79.4223 15.7671C79.6146 15.3825 79.4223 14.8056 79.23 14.8056L77.8839 14.0364C77.6916 13.8441 77.1146 14.0364 76.9223 14.421L75.5762 16.3441C74.8069 16.3441 74.0377 16.3441 73.2685 16.5364L73.0762 14.9979C73.0762 14.421 72.4992 14.2287 72.1146 14.6133L70.1916 15.7671C69.4223 15.7671 69.23 15.9595 69.23 16.3441C69.23 16.7287 69.0377 18.2672 69.0377 18.4595C69.0377 18.4595 69.0377 18.6518 68.8454 18.6518C68.0762 19.421 67.1146 20.1902 66.3454 21.3441L65.1916 21.1518C64.8069 20.9595 64.4223 21.1518 64.23 21.5364L62.8839 23.8441C62.6916 24.2287 62.6916 24.6133 62.8839 24.8056L63.8454 25.7671C63.4608 26.921 63.0762 28.0748 62.8839 29.2287V29.421L60.9608 30.7672C60.7685 30.9595 60.5762 31.3441 60.5762 31.7287V33.8441C60.5762 34.421 61.1531 34.6133 61.5377 34.421L62.8839 33.8441C63.0762 34.6133 63.4608 35.3825 63.8454 35.9595L62.8839 38.2672C62.6916 38.6518 62.8839 39.2287 63.0762 39.421L64.4223 40.1902C64.6146 40.3825 65.1916 40.3825 65.5762 39.8056L66.9223 37.8825C67.6916 37.8825 68.4608 37.8825 69.23 37.6902L69.4223 39.2287C69.4223 39.8056 69.9992 39.9979 70.3839 39.6133L72.3069 38.4595C72.6916 38.2672 72.8839 37.8825 72.8839 37.6902C72.8839 37.1133 73.0762 36.1518 73.0762 35.5748V35.3825C74.0377 34.6133 74.8069 33.6518 75.5762 32.6902L76.9223 33.0748C77.3069 33.0748 77.6916 32.6902 77.6916 32.4979L79.0377 30.1902C79.23 29.8056 79.23 29.421 79.0377 29.0364L78.0762 28.0748C78.6531 26.7287 78.8454 25.5748 79.0377 24.6133V24.421L80.7685 23.0748C80.9608 22.8825 81.1531 22.4979 81.1531 22.1133L81.73 19.9979ZM80.5762 22.3056L78.8454 23.6518C78.6531 23.8441 78.4608 24.0364 78.4608 24.421C78.2685 25.3825 77.8839 26.5364 77.4992 27.6902C77.3069 28.0748 77.3069 28.4595 77.6916 28.6518L78.6531 29.6133L77.3069 31.921L75.9608 31.5364C75.5762 31.3441 75.3839 31.5364 74.9992 31.921C74.23 32.8825 73.4608 33.6518 72.6916 34.421C72.4992 34.6133 72.3069 34.8056 72.3069 35.1902C72.3069 35.7672 72.1146 36.7287 72.1146 37.3056V37.4979L70.1916 38.4595L69.9993 37.1133C69.9993 36.7287 69.6146 36.5364 69.23 36.5364C68.4608 36.7287 67.6916 36.921 66.9223 36.7287C66.5377 36.7287 66.3454 36.921 66.1531 37.1133L64.8069 39.0364L63.8454 38.4595L64.8069 36.3441C64.9993 35.9595 64.9993 35.7672 64.8069 35.3825C64.4223 34.8056 64.0377 34.2287 63.8454 33.2671C63.6531 32.8825 63.2685 32.6902 62.8839 32.8825L61.5377 33.4595V31.5364L63.2685 30.1902C63.4608 29.9979 63.6531 29.8056 63.6531 29.421C63.8454 28.2672 64.23 27.1133 64.6146 25.9595C64.8069 25.5748 64.6146 25.1902 64.4223 24.9979L63.4608 24.0364L64.8069 21.7287L65.9608 22.1133H66.5377C66.73 22.1133 66.9223 21.921 66.9223 21.7287C67.6916 20.7672 68.4608 19.9979 69.23 19.2287C69.4223 19.0364 69.6146 18.6518 69.6146 18.4595C69.6146 18.2672 69.8069 16.5364 69.8069 16.3441V16.1518L71.9223 15.3825L72.1146 16.7287C72.1146 17.3056 72.4992 17.4979 73.0762 17.3056C73.8454 17.1133 74.6146 16.921 75.1916 17.1133C75.5762 17.3056 75.9608 16.921 76.1531 16.7287L77.4992 14.8056L78.4608 15.3825L77.4992 17.4979C77.3069 17.8825 77.3069 18.2672 77.4992 18.4595C77.8839 19.0364 78.2685 19.6133 78.4608 20.3825C78.4608 20.9595 79.0377 21.1518 79.4223 20.9595L80.7685 20.3825L80.5762 22.3056Z" fill="black"/>
<path d="M66.5391 29.2296C66.5391 26.5373 68.4621 23.268 70.7698 21.7296C73.2698 20.1911 75.5775 21.5373 75.5775 24.4219C75.5775 27.1142 73.6544 30.3834 71.3468 31.9219C68.8468 33.4604 66.5391 32.1142 66.5391 29.2296ZM67.5006 29.2296C67.5006 31.345 68.8468 32.3065 70.7698 31.1527C72.8852 29.9988 74.616 26.9219 74.616 24.6142C74.616 22.4988 73.2698 21.5373 71.3468 22.6911C69.2314 23.845 67.5006 26.9219 67.5006 29.2296Z" fill="black"/>
</svg>
